<?xml version="1.0" encoding="UTF-8"?>
<svg id="security_room" data-name="security room" xmlns="http://www.w3.org/2000/svg" viewBox="0 0 214.43 870.97">
  <defs>
    <style>
      .cls-1 {
        fill: #aad1d7;
        stroke-width: 5px;
      }

      .cls-1, .cls-2 {
        stroke: #fff;
        stroke-miterlimit: 10;
      }

      .cls-3 {
        fill: #cdffff;
      }

      .cls-2 {
        fill: #6bbcd9;
        stroke-width: 2px;
      }
    </style>
  </defs>
  <g>
    <path class="cls-2" d="M208.43,4.06c1.05,287.58,2.09,575.17,3.14,862.75-68.99-42.95-137.98-85.9-206.96-128.85-.7-215.44-1.4-430.89-2.09-646.33C71.15,62.44,139.79,33.25,208.43,4.06Z"/>
    <path class="cls-1" d="M2.51,91.63l2.09,646.33c30.11,19.03,60.21,38.06,90.32,57.09-.29-248.13-.58-496.26-.87-744.4-30.51,13.66-61.03,27.32-91.54,40.98Z"/>
    <path class="cls-3" d="M62.41,69.16C43.93,160.68,25.45,252.2,6.97,343.72c.26,17.89.52,35.77.79,53.66,27.45-113.54,54.91-227.08,82.36-340.61-9.24,4.14-18.47,8.27-27.71,12.41Z"/>
    <path class="cls-3" d="M90.47,268.94c-27.74,95.91-55.49,191.83-83.23,287.74.17,13.87.35,27.74.52,41.62,27.57-92.92,55.14-185.84,82.71-278.76v-50.6Z"/>
  </g>
  <g>
    <path class="cls-1" d="M99.73,48.11c.53,249.83,1.06,499.66,1.59,749.5,36.86,22.95,73.73,45.9,110.59,68.85-1.05-287.58-2.09-575.17-3.14-862.75-36.35,14.8-72.7,29.6-109.04,44.4Z"/>
    <path class="cls-3" d="M204.94,182.13c-33.24,89.78-66.48,179.56-99.72,269.33-.03,8.9-.05,17.8-.08,26.7,33.35-87.86,66.71-175.72,100.06-263.57-.09-10.82-.17-21.64-.26-32.46Z"/>
    <path class="cls-3" d="M206.07,337c-33.79,100.45-67.59,200.9-101.38,301.35v31.93c33.79-98.76,67.59-197.53,101.38-296.29v-36.99Z"/>
  </g>
</svg>