<?xml version="1.0" encoding="UTF-8"?>
<svg id="security_room" data-name="security room" xmlns="http://www.w3.org/2000/svg" viewBox="0 0 212.57 866.06">
  <defs>
    <style>
      .cls-1 {
        fill: #aad1d7;
        stroke-width: 5px;
      }

      .cls-1, .cls-2 {
        stroke: #fff;
        stroke-miterlimit: 10;
      }

      .cls-3 {
        fill: #cdffff;
      }

      .cls-2 {
        fill: #6bbcd9;
        stroke-width: 2px;
      }
    </style>
  </defs>
  <path class="cls-2" d="M208.43,1.51c1.05,287.58,2.09,575.17,3.14,862.75-68.99-42.95-137.98-85.9-206.96-128.85-.7-215.44-1.4-430.89-2.09-646.33C71.15,59.89,139.79,30.7,208.43,1.51Z"/>
  <path class="cls-1" d="M2.51,89.08l2.09,646.33c30.11,19.03,60.21,38.06,90.32,57.09-.29-248.13-.58-496.26-.87-744.4-30.51,13.66-61.03,27.32-91.54,40.98Z"/>
  <path class="cls-3" d="M62.41,66.61C43.93,158.13,25.45,249.65,6.97,341.16c.26,17.89.52,35.77.79,53.66,27.45-113.54,54.91-227.08,82.36-340.61-9.24,4.14-18.47,8.27-27.71,12.41Z"/>
  <path class="cls-3" d="M90.47,266.39c-27.74,95.91-55.49,191.83-83.23,287.74.17,13.87.35,27.74.52,41.62,27.57-92.92,55.14-185.84,82.71-278.76v-50.6Z"/>
</svg>