<?xml version="1.0" encoding="UTF-8"?>
<svg id="security_room" data-name="security room" xmlns="http://www.w3.org/2000/svg" viewBox="0 0 89.52 79.43">
  <defs>
    <style>
      .cls-1 {
        fill: #fff;
      }

      .cls-2 {
        fill: none;
        stroke: #fff;
        stroke-miterlimit: 10;
      }

      .cls-3 {
        fill: #00a656;
      }
    </style>
  </defs>
  <rect class="cls-3" width="89.52" height="79.43" rx="6.57" ry="6.57"/>
  <rect class="cls-2" x="9.05" y="-1.05" width="71.43" height="81.52" rx="2.57" ry="2.57" transform="translate(84.48 -5.05) rotate(90)"/>
  <path class="cls-1" d="M72.35,43.1s.06-.09.08-.13c.02-.04.04-.08.05-.12.03-.06.05-.12.07-.18.02-.05.04-.1.06-.15.01-.04.02-.08.03-.12.02-.06.03-.13.04-.19,0-.05.02-.11.03-.16,0-.05,0-.1,0-.14,0-.03,0-.06,0-.09s0-.06,0-.09c0-.05,0-.1,0-.14,0-.05-.02-.11-.03-.16-.01-.06-.02-.13-.04-.19,0-.04-.02-.08-.03-.12-.02-.05-.04-.1-.06-.15-.02-.06-.05-.12-.07-.19-.02-.04-.03-.08-.05-.12-.02-.04-.05-.09-.08-.13-.04-.06-.07-.12-.11-.17-.03-.04-.05-.08-.09-.11-.01-.01-.02-.03-.03-.04-.02-.02-.05-.04-.07-.07-.05-.05-.1-.1-.15-.15-.02-.02-.04-.05-.06-.07l-16.72-14.23c-1.05-.89-2.63-.77-3.52.28-.9,1.05-.77,2.63.28,3.52l11.54,9.83H19.3c-1.38,0-2.5,1.12-2.5,2.5s1.12,2.5,2.5,2.5h44.13l-11.54,9.83c-1.05.89-1.18,2.47-.28,3.52.49.58,1.2.88,1.9.88.57,0,1.15-.2,1.62-.6l16.72-14.23s.04-.05.06-.07c.05-.05.11-.1.16-.16.02-.02.04-.04.06-.06.01-.01.02-.03.03-.04.03-.04.06-.08.09-.11.04-.06.08-.11.11-.17Z"/>
</svg>