<?xml version="1.0" encoding="UTF-8"?>
<svg xmlns="http://www.w3.org/2000/svg" xmlns:xlink="http://www.w3.org/1999/xlink" viewBox="0 0 1920 1080">
  <defs>
    <style>
      .cls-1 {
        fill: url(#Dégradé_sans_nom_358-2);
      }

      .cls-2 {
        fill: #1d0422;
      }

      .cls-3, .cls-4 {
        fill: #290c34;
      }

      .cls-5 {
        fill: url(#Dégradé_sans_nom_358-29);
      }

      .cls-6 {
        fill: url(#Dégradé_sans_nom_358-15);
      }

      .cls-4, .cls-7, .cls-8, .cls-9, .cls-10, .cls-11, .cls-12, .cls-13, .cls-14 {
        mix-blend-mode: multiply;
      }

      .cls-4, .cls-7, .cls-11, .cls-14 {
        opacity: .3;
      }

      .cls-15 {
        fill: url(#Dégradé_sans_nom_358-7);
      }

      .cls-16 {
        fill: #d7ad62;
      }

      .cls-17 {
        fill: #511813;
      }

      .cls-18 {
        fill: url(#Dégradé_sans_nom_358-10);
      }

      .cls-19 {
        fill: url(#_ÂÁ_Ï_ÌÌ_È_ËÂÌÚ_86);
        mix-blend-mode: color-dodge;
        opacity: .5;
      }

      .cls-20 {
        fill: url(#Dégradé_sans_nom_358-20);
      }

      .cls-21 {
        fill: url(#Dégradé_sans_nom_358-4);
      }

      .cls-22 {
        fill: #584278;
      }

      .cls-23 {
        fill: none;
      }

      .cls-24 {
        fill: #ac7077;
      }

      .cls-7 {
        fill: #290c46;
      }

      .cls-25 {
        fill: #11001e;
      }

      .cls-8 {
        fill: url(#_ÂÁ_Ï_ÌÌ_È_ËÂÌÚ_59-5);
      }

      .cls-26 {
        fill: url(#Dégradé_sans_nom_358-18);
      }

      .cls-27 {
        fill: #751813;
      }

      .cls-28 {
        fill: url(#Dégradé_sans_nom_358);
      }

      .cls-29 {
        fill: url(#Dégradé_sans_nom_358-28);
      }

      .cls-30 {
        fill: url(#Dégradé_sans_nom_358-9);
      }

      .cls-9 {
        fill: url(#_ÂÁ_Ï_ÌÌ_È_ËÂÌÚ_59-4);
      }

      .cls-31 {
        fill: url(#Dégradé_sans_nom_358-5);
      }

      .cls-32 {
        isolation: isolate;
      }

      .cls-10 {
        fill: url(#_ÂÁ_Ï_ÌÌ_È_ËÂÌÚ_59-3);
      }

      .cls-33 {
        fill: #00e7d8;
        mix-blend-mode: soft-light;
      }

      .cls-34 {
        fill: url(#Dégradé_sans_nom_358-16);
      }

      .cls-11 {
        fill: #6bbcd9;
      }

      .cls-35 {
        fill: url(#Dégradé_sans_nom_358-12);
      }

      .cls-36 {
        fill: url(#Dégradé_sans_nom_358-23);
      }

      .cls-37 {
        fill: url(#Dégradé_sans_nom_358-8);
      }

      .cls-38 {
        fill: url(#Dégradé_sans_nom_358-3);
      }

      .cls-39 {
        fill: url(#Dégradé_sans_nom_562);
      }

      .cls-40 {
        fill: url(#Dégradé_sans_nom_358-17);
      }

      .cls-41 {
        fill: url(#Dégradé_sans_nom_358-14);
      }

      .cls-42 {
        fill: url(#Dégradé_sans_nom_358-6);
      }

      .cls-43 {
        fill: #73ffe5;
      }

      .cls-44 {
        fill: #361b41;
      }

      .cls-45 {
        fill: url(#Dégradé_sans_nom_714);
      }

      .cls-46 {
        fill: url(#Dégradé_sans_nom_549);
      }

      .cls-47 {
        fill: url(#Dégradé_sans_nom_358-22);
      }

      .cls-48 {
        fill: url(#Dégradé_sans_nom_358-13);
      }

      .cls-49 {
        fill: url(#Dégradé_sans_nom_358-24);
      }

      .cls-50 {
        fill: url(#Dégradé_sans_nom_358-27);
      }

      .cls-51 {
        fill: url(#Dégradé_sans_nom_358-26);
      }

      .cls-51, .cls-52 {
        opacity: .2;
      }

      .cls-12 {
        fill: url(#_ÂÁ_Ï_ÌÌ_È_ËÂÌÚ_59-2);
      }

      .cls-53 {
        fill: url(#Dégradé_sans_nom_358-11);
      }

      .cls-13 {
        fill: url(#_ÂÁ_Ï_ÌÌ_È_ËÂÌÚ_59);
      }

      .cls-54 {
        fill: #0088a6;
      }

      .cls-55 {
        fill: url(#Dégradé_sans_nom_358-19);
      }

      .cls-52 {
        fill: url(#Dégradé_sans_nom_358-25);
      }

      .cls-56 {
        clip-path: url(#clippath);
      }

      .cls-57 {
        fill: url(#Dégradé_sans_nom_358-21);
      }
    </style>
    <clipPath id="clippath">
      <rect class="cls-23" x="-26.51" y="-179.89" width="1971.27" height="1314.18"/>
    </clipPath>
    <radialGradient id="Dégradé_sans_nom_714" data-name="Dégradé sans nom 714" cx="948.17" cy="15966.33" fx="948.17" fy="15966.33" r="701.41" gradientTransform="translate(0 -5278.89) scale(1 .34)" gradientUnits="userSpaceOnUse">
      <stop offset="0" stop-color="#aa9b7b"/>
      <stop offset="1" stop-color="#bba96a"/>
    </radialGradient>
    <linearGradient id="Dégradé_sans_nom_358" data-name="Dégradé sans nom 358" x1="-52.27" y1="991.51" x2="1961.5" y2="991.51" gradientUnits="userSpaceOnUse">
      <stop offset="0" stop-color="#210500"/>
      <stop offset="1" stop-color="#552421"/>
    </linearGradient>
    <linearGradient id="Dégradé_sans_nom_358-2" data-name="Dégradé sans nom 358" x1="-13.25" y1="997.73" x2="439.22" y2="997.73" xlink:href="#Dégradé_sans_nom_358"/>
    <linearGradient id="Dégradé_sans_nom_358-3" data-name="Dégradé sans nom 358" x1="279.95" y1="996.99" x2="578.89" y2="996.99" xlink:href="#Dégradé_sans_nom_358"/>
    <linearGradient id="Dégradé_sans_nom_358-4" data-name="Dégradé sans nom 358" x1="820.62" y1="995.55" x2="875.8" y2="995.55" xlink:href="#Dégradé_sans_nom_358"/>
    <linearGradient id="Dégradé_sans_nom_358-5" data-name="Dégradé sans nom 358" x1="575.41" y1="996.26" x2="719.26" y2="996.26" xlink:href="#Dégradé_sans_nom_358"/>
    <linearGradient id="Dégradé_sans_nom_358-6" data-name="Dégradé sans nom 358" y1="944.57" x2="271.83" y2="944.57" xlink:href="#Dégradé_sans_nom_358"/>
    <linearGradient id="Dégradé_sans_nom_358-7" data-name="Dégradé sans nom 358" x1="1443.36" y1="992.44" x2="1925.46" y2="992.44" xlink:href="#Dégradé_sans_nom_358"/>
    <linearGradient id="Dégradé_sans_nom_358-8" data-name="Dégradé sans nom 358" x1="1321.71" y1="992.85" x2="1632.26" y2="992.85" xlink:href="#Dégradé_sans_nom_358"/>
    <linearGradient id="Dégradé_sans_nom_358-9" data-name="Dégradé sans nom 358" x1="1053.35" y1="994.47" x2="1108.91" y2="994.47" xlink:href="#Dégradé_sans_nom_358"/>
    <linearGradient id="Dégradé_sans_nom_358-10" data-name="Dégradé sans nom 358" x1="1188.01" y1="993.79" x2="1336.8" y2="993.79" xlink:href="#Dégradé_sans_nom_358"/>
    <linearGradient id="Dégradé_sans_nom_358-11" data-name="Dégradé sans nom 358" x1="1571.33" y1="937.73" x2="1964.48" y2="937.73" xlink:href="#Dégradé_sans_nom_358"/>
    <linearGradient id="Dégradé_sans_nom_358-12" data-name="Dégradé sans nom 358" y1="1054.69" x2="1962.44" y2="1054.69" xlink:href="#Dégradé_sans_nom_358"/>
    <linearGradient id="Dégradé_sans_nom_358-13" data-name="Dégradé sans nom 358" x1="-13.25" y1="964.8" y2="964.8" xlink:href="#Dégradé_sans_nom_358"/>
    <linearGradient id="Dégradé_sans_nom_358-14" data-name="Dégradé sans nom 358" x1="109.78" y1="911.13" x2="1795.37" y2="911.13" xlink:href="#Dégradé_sans_nom_358"/>
    <linearGradient id="Dégradé_sans_nom_358-15" data-name="Dégradé sans nom 358" x1="157.9" y1="884.3" x2="1715.06" y2="884.3" xlink:href="#Dégradé_sans_nom_358"/>
    <linearGradient id="Dégradé_sans_nom_358-16" data-name="Dégradé sans nom 358" x1="184.93" y1="864.63" x2="1644.09" y2="864.63" xlink:href="#Dégradé_sans_nom_358"/>
    <linearGradient id="Dégradé_sans_nom_358-17" data-name="Dégradé sans nom 358" x1="825.45" y1="1097.88" x2="852.26" y2="1097.88" xlink:href="#Dégradé_sans_nom_358"/>
    <linearGradient id="Dégradé_sans_nom_358-18" data-name="Dégradé sans nom 358" x1="1289.32" y1="1092.27" x2="1340.93" y2="1092.27" xlink:href="#Dégradé_sans_nom_358"/>
    <linearGradient id="Dégradé_sans_nom_358-19" data-name="Dégradé sans nom 358" x1="1528.63" y1="1089.61" x2="1632.26" y2="1089.61" xlink:href="#Dégradé_sans_nom_358"/>
    <linearGradient id="Dégradé_sans_nom_358-20" data-name="Dégradé sans nom 358" x1="1801.94" y1="1079.88" x2="1855.39" y2="1079.88" xlink:href="#Dégradé_sans_nom_358"/>
    <linearGradient id="Dégradé_sans_nom_358-21" data-name="Dégradé sans nom 358" x1="279.95" y1="1099.02" x2="363.29" y2="1099.02" xlink:href="#Dégradé_sans_nom_358"/>
    <linearGradient id="Dégradé_sans_nom_358-22" data-name="Dégradé sans nom 358" x1="113.69" y1="1004.2" x2="287.29" y2="1004.2" xlink:href="#Dégradé_sans_nom_358"/>
    <linearGradient id="Dégradé_sans_nom_358-23" data-name="Dégradé sans nom 358" x1="1554.11" y1="944.81" x2="1659.86" y2="944.81" xlink:href="#Dégradé_sans_nom_358"/>
    <linearGradient id="Dégradé_sans_nom_358-24" data-name="Dégradé sans nom 358" x1="1717.67" y1="1022.37" x2="1750.38" y2="1022.37" xlink:href="#Dégradé_sans_nom_358"/>
    <linearGradient id="Dégradé_sans_nom_358-25" data-name="Dégradé sans nom 358" x1="583.61" y1="1097.91" x2="835.55" y2="1097.91" xlink:href="#Dégradé_sans_nom_358"/>
    <linearGradient id="Dégradé_sans_nom_358-26" data-name="Dégradé sans nom 358" x1="1250.38" y1="1009.26" x2="1529.61" y2="1009.26" xlink:href="#Dégradé_sans_nom_358"/>
    <linearGradient id="Dégradé_sans_nom_358-27" data-name="Dégradé sans nom 358" x1="839.75" y1="1058.21" x2="1089.25" y2="1058.21" xlink:href="#Dégradé_sans_nom_358"/>
    <linearGradient id="Dégradé_sans_nom_358-28" data-name="Dégradé sans nom 358" x1="470.81" y1="998.39" x2="664.05" y2="998.39" xlink:href="#Dégradé_sans_nom_358"/>
    <linearGradient id="Dégradé_sans_nom_358-29" data-name="Dégradé sans nom 358" x1="1076.69" y1="1008.57" x2="1246.41" y2="1008.57" xlink:href="#Dégradé_sans_nom_358"/>
    <radialGradient id="Dégradé_sans_nom_562" data-name="Dégradé sans nom 562" cx="360.58" cy="452.56" fx="360.58" fy="452.56" r="484.64" gradientUnits="userSpaceOnUse">
      <stop offset=".21" stop-color="#aa9b7b"/>
      <stop offset="1" stop-color="#002700"/>
    </radialGradient>
    <radialGradient id="Dégradé_sans_nom_549" data-name="Dégradé sans nom 549" cx="1749.43" cy="477.2" fx="1749.43" fy="477.2" r="484.73" gradientUnits="userSpaceOnUse">
      <stop offset="0" stop-color="#aa9b7b"/>
      <stop offset="1" stop-color="#002700"/>
    </radialGradient>
    <linearGradient id="_ÂÁ_Ï_ÌÌ_È_ËÂÌÚ_86" data-name="¡ÂÁ˚ÏˇÌÌ˚È „‡‰ËÂÌÚ 86" x1="894.93" y1="711.64" x2="954.1" y2="711.64" gradientUnits="userSpaceOnUse">
      <stop offset="0" stop-color="#000"/>
      <stop offset="1" stop-color="#6dd6e0"/>
    </linearGradient>
    <linearGradient id="_ÂÁ_Ï_ÌÌ_È_ËÂÌÚ_59" data-name="¡ÂÁ˚ÏˇÌÌ˚È „‡‰ËÂÌÚ 59" x1="1010.66" y1="932.97" x2="1010.66" y2="778.48" gradientUnits="userSpaceOnUse">
      <stop offset="0" stop-color="#005665"/>
      <stop offset=".53" stop-color="#004f73"/>
      <stop offset="1" stop-color="#004d7b"/>
    </linearGradient>
    <linearGradient id="_ÂÁ_Ï_ÌÌ_È_ËÂÌÚ_59-2" data-name="¡ÂÁ˚ÏˇÌÌ˚È „‡‰ËÂÌÚ 59" x1="1036.85" y1="814.2" x2="1036.85" y2="812.07" xlink:href="#_ÂÁ_Ï_ÌÌ_È_ËÂÌÚ_59"/>
    <linearGradient id="_ÂÁ_Ï_ÌÌ_È_ËÂÌÚ_59-3" data-name="¡ÂÁ˚ÏˇÌÌ˚È „‡‰ËÂÌÚ 59" x1="1038.96" x2="1038.96" y2="841.86" xlink:href="#_ÂÁ_Ï_ÌÌ_È_ËÂÌÚ_59"/>
    <linearGradient id="_ÂÁ_Ï_ÌÌ_È_ËÂÌÚ_59-4" data-name="¡ÂÁ˚ÏˇÌÌ˚È „‡‰ËÂÌÚ 59" x1="1038.13" y1="868.45" x2="1038.13" y2="833.25" xlink:href="#_ÂÁ_Ï_ÌÌ_È_ËÂÌÚ_59"/>
    <linearGradient id="_ÂÁ_Ï_ÌÌ_È_ËÂÌÚ_59-5" data-name="¡ÂÁ˚ÏˇÌÌ˚È „‡‰ËÂÌÚ 59" x1="1038.49" x2="1038.49" y2="931.26" xlink:href="#_ÂÁ_Ï_ÌÌ_È_ËÂÌÚ_59"/>
  </defs>
  <g class="cls-32">
    <g id="security_room" data-name="security room">
      <g class="cls-56">
        <polygon class="cls-45" points="1944.76 -179.89 1660.57 86.23 269.6 86.23 -26.51 -179.89 1944.76 -179.89"/>
        <g class="cls-14">
          <polygon class="cls-24" points="1900.33 -193.91 1451.72 88.28 1447.86 88.32 1894.04 -193.91 1900.33 -193.91"/>
          <polygon class="cls-24" points="1607.13 -193.91 1310.37 89.77 1308.19 89.79 1599.53 -193.91 1607.13 -193.91"/>
          <polygon class="cls-24" points="1061.63 -193.91 1011.28 92.68 1014.23 92.65 1066.46 -193.91 1061.63 -193.91"/>
          <polygon class="cls-24" points="1303.47 -193.91 1167.82 91.27 1168.77 91.27 1311.67 -193.91 1303.47 -193.91"/>
          <polygon class="cls-24" points="1939.35 -85.83 1615.25 86.56 1617.99 86.53 1939.35 -83.79 1939.35 -85.83"/>
          <polygon class="cls-24" points="-38.38 -193.91 442.67 98.77 443.72 98.9 -32.09 -193.91 -38.38 -193.91"/>
          <polygon class="cls-24" points="254.82 -193.91 563.11 98.08 565.37 98.08 262.42 -193.91 254.82 -193.91"/>
          <polygon class="cls-24" points="782.99 -193.91 833.73 94.85 832.59 94.85 778.17 -193.91 782.99 -193.91"/>
          <polygon class="cls-24" points="558.48 -193.91 699.07 96.21 698.12 96.21 550.28 -193.91 558.48 -193.91"/>
          <polygon class="cls-24" points="-77.4 -85.83 315.75 100.25 313.95 99.9 -77.4 -83.79 -77.4 -85.83"/>
          <polygon class="cls-24" points="1777.3 35.9 91.71 30.78 96.3 32.61 1775.19 36.83 1777.3 35.9"/>
          <polygon class="cls-24" points="1729.18 57.11 172.02 62.84 175.32 64.16 1727.88 57.69 1729.18 57.11"/>
          <polygon class="cls-24" points="1701.07 69.5 244.02 91.58 242.99 91.17 1702.15 69.03 1701.07 69.5"/>
        </g>
        <g>
          <polygon class="cls-28" points="1961.5 1138.85 1961.5 980.47 1620.06 844.17 223.55 858.88 -52.27 980.47 -52.27 1138.85 1961.5 1138.85"/>
          <g class="cls-14">
            <polygon class="cls-1" points="-13.25 1138.85 435.36 856.65 439.22 856.61 -6.96 1138.85 -13.25 1138.85"/>
            <polygon class="cls-38" points="279.95 1138.85 576.71 855.16 578.89 855.14 287.55 1138.85 279.95 1138.85"/>
            <polygon class="cls-21" points="825.45 1138.85 875.8 852.25 872.85 852.28 820.62 1138.85 825.45 1138.85"/>
            <polygon class="cls-31" points="583.61 1138.85 719.26 853.66 718.31 853.66 575.41 1138.85 583.61 1138.85"/>
            <polygon class="cls-42" points="-52.27 1030.77 271.83 858.38 269.09 858.4 -52.27 1028.72 -52.27 1030.77"/>
            <polygon class="cls-15" points="1925.46 1138.85 1444.41 846.16 1443.36 846.03 1919.17 1138.85 1925.46 1138.85"/>
            <polygon class="cls-37" points="1632.26 1138.85 1323.97 846.85 1321.71 846.85 1624.66 1138.85 1632.26 1138.85"/>
            <polygon class="cls-30" points="1104.09 1138.85 1053.35 850.09 1054.49 850.09 1108.91 1138.85 1104.09 1138.85"/>
            <polygon class="cls-18" points="1328.6 1138.85 1188.01 848.72 1188.96 848.72 1336.8 1138.85 1328.6 1138.85"/>
            <polygon class="cls-53" points="1964.48 1030.77 1571.33 844.69 1573.13 845.03 1964.48 1028.72 1964.48 1030.77"/>
            <polygon class="cls-35" points="1962.44 1043.53 -52.27 1060.81 -52.27 1065.85 1962.44 1045.68 1962.44 1043.53"/>
            <polygon class="cls-48" points="-10.59 952.27 1961.5 974.42 1961.5 977.33 -13.25 954.9 -10.59 952.27"/>
            <polygon class="cls-41" points="109.78 909.03 1795.37 914.15 1790.78 912.32 111.89 908.11 109.78 909.03"/>
            <polygon class="cls-6" points="157.9 887.82 1715.06 882.09 1711.76 880.77 159.2 887.25 157.9 887.82"/>
            <polygon class="cls-34" points="186.01 875.43 1643.06 853.35 1644.09 853.76 184.93 875.91 186.01 875.43"/>
          </g>
          <polygon class="cls-40" points="825.45 1138.85 839.84 1056.92 852.26 1058.11 842.91 1058.25 825.45 1138.85"/>
          <polygon class="cls-26" points="1336.8 1138.85 1289.32 1045.68 1303.25 1061.17 1308.28 1076.07 1340.93 1138.85 1336.8 1138.85"/>
          <polygon class="cls-55" points="1632.26 1138.85 1528.63 1040.37 1537.59 1042.53 1543.33 1048.31 1632.26 1138.85"/>
          <polygon class="cls-20" points="1801.94 1063.7 1821.11 1071.02 1855.39 1096.06 1801.94 1063.7"/>
          <polygon class="cls-57" points="279.95 1138.85 292.49 1117.86 322.67 1096.55 341.83 1075.85 363.29 1059.18 279.95 1138.85"/>
          <polygon class="cls-47" points="113.69 1058.6 117.63 1052.48 287.29 949.8 113.69 1058.6"/>
          <path class="cls-36" d="M1659.86,977.33l-105.74-65.03s27.41,13.74,28.83,15.15c1.41,1.41,5.13,5.15,5.13,5.15l36.44,21.86,35.35,22.88Z"/>
          <polygon class="cls-49" points="1750.38 1032.33 1742.71 1025.15 1717.67 1012.42 1750.38 1032.33"/>
          <polygon class="cls-52" points="583.61 1138.85 621.78 1058.6 835.55 1056.96 820.62 1138.85 583.61 1138.85"/>
          <polygon class="cls-51" points="1292.56 1049.27 1529.61 1047.24 1451.06 971.53 1250.38 969.25 1292.56 1049.27"/>
          <polygon class="cls-50" points="1089.25 1054.42 842.91 1058.25 839.75 1062.01 1089.25 1054.42"/>
          <polygon class="cls-29" points="470.81 960.39 656.65 964.8 658.71 967.76 626.76 1036.38 664.05 961.6 470.81 960.39"/>
          <polygon class="cls-5" points="1092.03 1049.27 1076.69 967.88 1246.41 969.25 1246.41 969.25 1081.13 970.8 1079.25 972.31 1092.03 1049.27"/>
        </g>
        <polygon class="cls-16" points="1561.72 906.23 1660.57 86.23 269.6 86.23 247.66 887.88 1561.72 906.23"/>
        <polygon class="cls-39" points="-26.51 -179.89 360.91 86.23 363.29 888.82 -26.51 1134.29 -26.51 -179.89"/>
        <polygon class="cls-46" points="1944.76 -179.89 1554.11 86.23 1561.72 906.23 1944.76 1134.29 1944.76 -179.89"/>
        <polygon class="cls-11" points="1560.44 918.91 1625.96 163.01 1972.7 -98.64 1973.31 -122.72 1563.71 81.62 363.57 85.52 -25.35 -173.32 -26.51 -127.34 341.01 145.7 342.82 905.06 1560.44 918.91"/>
        <g>
          <path class="cls-2" d="M1040.21,904.03c-.76-.13-78.45-12.61-260.95-11.4-2.63.02-5.26.03-7.84.03-192.02,0-242.4-49.24-255.32-78.87-15.1-34.64-20.03-121.06-20.23-124.72l3.28-.18c.05.89,5.09,89.49,19.96,123.59,10.15,23.28,55.06,76.9,252.51,76.9,2.52,0,5.05,0,7.61-.03,182.83-1.21,260.75,11.31,261.52,11.44l-.54,3.24Z"/>
          <path class="cls-2" d="M1056.35,888.45l-.42-3.26c.34-.04,33.67-4.41,43.46-14.19,7.19-7.19,6.72-115.13,4.66-185.92l3.29-.1c.53,18.17,4.88,177.83-5.62,188.34-10.58,10.58-43.95,14.95-45.36,15.13Z"/>
          <path class="cls-2" d="M1376.13,913.08c-122.36,0-301.17-7.75-312.06-8.23l.14-3.28c3.89.17,389.37,16.89,421.8,2.11,2.28-1.04,3.85-2.98,4.82-5.94,11.39-34.96-69.58-179.3-70.4-180.76l2.86-1.61c3.38,5.99,82.5,147.07,70.66,183.39-1.25,3.83-3.46,6.49-6.58,7.91-10.45,4.76-54.86,6.41-111.24,6.41Z"/>
          <path class="cls-2" d="M772.27,908.72c-.52,0-.99,0-1.43,0-36.6-.06-100.65-2.27-108.54-10.16-1.52-1.52-1.48-3.45.1-5.03,9.51-9.5,115.23-7.66,197.5-4.7-27.96-4.83-80.23-8.91-112.66-11.44-40.29-3.14-65.23-5.18-70.07-7.47-13.8-6.52,6.68-115.19,10.93-136.9l3.22.63c-12.09,61.83-20.67,129.56-12.75,133.3,4.54,2.14,35.81,4.58,68.92,7.16,62.72,4.89,110.63,9.07,127.81,15.28,39.25,1.52,70.8,3.16,79.86,3.64l-.18,3.28c-22.7-1.21-47.82-2.38-73.51-3.39.26.32.45.64.57.97.29.78.53,2.33-1.1,3.96-10.22,10.22-89.27,10.85-108.68,10.85ZM664.48,896.18c.06,0,1.01,1.63,10.37,3.48,43.91,8.68,192.11,7.56,203.78-4.12.32-.32.35-.48.35-.48-.12-.79-1.17-1.57-3-2.33-98.34-3.76-203.09-5.03-211.25,3.13-.21.21-.25.32-.25.32,0,0,0,0,0,0Z"/>
        </g>
        <polygon class="cls-4" points="460.53 944.81 331.6 996.26 271.83 949.8 395.59 919.25 460.53 944.81"/>
        <polygon class="cls-4" points="494.46 1011.76 398.53 1138.85 262.47 1134.29 403.45 1013.22 494.46 1011.76"/>
        <polygon class="cls-4" points="1528.63 919.25 1458.92 942.51 1672.07 963.48 1592.92 924.8 1528.63 919.25"/>
        <g>
          <polygon class="cls-17" points="1463.69 739.14 1463.69 944.81 1528.63 919.25 1561.24 835.31 1560.29 694.04 1463.69 739.14"/>
          <polygon class="cls-27" points="1463.69 944.81 1458.92 942.51 1454.4 735.65 1463.69 739.14 1463.69 944.81"/>
          <polygon class="cls-27" points="1000.18 937.73 991.43 937.73 989.92 728.57 1001.6 731.18 1000.18 937.73"/>
          <polygon class="cls-17" points="460.53 739.14 460.53 944.81 395.59 919.25 362.97 835.31 363.93 694.04 460.53 739.14"/>
          <polygon class="cls-27" points="460.53 944.81 465.3 942.51 469.81 735.65 460.53 739.14 460.53 944.81"/>
          <path class="cls-27" d="M407.8,752.43l54.12-11.85,986.12-5,35.44,8.07c47.34-12.93,94.69-25.86,142.03-38.79-21.74-3.61-43.48-7.22-65.23-10.83-389.85,7.12-779.7,14.23-1169.55,21.35-46.18,2.26-92.36,4.51-138.54,6.77,51.87,10.09,103.74,20.18,155.6,30.28Z"/>
          <path class="cls-27" d="M1560.29,694.04H362.65c-36.82,9.37-73.64,18.74-110.45,28.12,50.96,7.36,101.92,14.72,152.88,22.08l60.41-9.89c336.02-.23,672.03-.46,1008.05-.69,28.92-13.21,57.84-26.41,86.76-39.62Z"/>
        </g>
        <path class="cls-7" d="M995.74,723.78c0,2.48-25.96,4.49-57.98,4.49s-57.98-2.01-57.98-4.49,25.96-4.49,57.98-4.49,57.98,2.01,57.98,4.49Z"/>
        <g>
          <path class="cls-3" d="M957.62,725.22c-17.25,4.3-39.82,0-39.82,0l-23.33-3.98s.16-.16.46-.43c3.19-3.09,21.78-20.07,39.92-18.2,10.38,1.08,16.13,7.23,19.25,12.81,2.86,5.13,3.52,9.79,3.52,9.79Z"/>
          <g>
            <path class="cls-22" d="M898.87,717.29s13.1-4.81,21.86-2.49c8.76,2.32,12.17,12.12,12.17,12.12l-7.93-.68s-10.06-12.63-27.07-8.14l.96-.81Z"/>
            <path class="cls-19" d="M954.1,715.43c-13.96,2-27.76-7.75-38.7-5.85-9.56,1.71-18.43,9.36-20.47,11.24,3.19-3.09,21.78-20.07,39.92-18.2,10.38,1.08,16.13,7.23,19.25,12.81Z"/>
          </g>
        </g>
        <g>
          <polygon class="cls-2" points="651.78 718.46 647.69 725.96 854.2 725.2 841.66 719.19 651.78 718.46"/>
          <polygon class="cls-2" points="868.56 711.54 841.66 719.19 854.2 725.2 873.48 715.64 868.56 711.54"/>
          <polygon class="cls-3" points="868.56 711.54 688.11 711.54 651.78 718.46 841.66 719.19 868.56 711.54"/>
        </g>
        <g>
          <polygon class="cls-2" points="1010.59 783 1066.92 783 1076.01 932.97 1000.97 932.97 1010.59 783"/>
          <polygon class="cls-3" points="1058.83 778.48 1070.16 932.97 1076.01 932.97 1067.38 778.38 1058.83 778.48"/>
          <polygon class="cls-3" points="1006.01 778.48 1000.97 932.97 1005.65 932.97 1014.15 778.48 1006.01 778.48"/>
          <polygon class="cls-25" points="1006.01 778.48 1011.13 771.54 1051.9 771.54 1067.38 778.38 1058.83 778.48 1049.83 772.91 1016.2 772.6 1014.15 778.48 1006.01 778.48"/>
          <polygon class="cls-25" points="1059.16 783 1047.96 775.01 1016.66 775.01 1014.06 783 1059.16 783"/>
          <polygon class="cls-2" points="1059.16 783 1047.96 775.01 1016.66 775.01 1014.06 783 1014.15 778.48 1016.2 772.6 1049.83 772.91 1058.83 778.48 1059.16 783"/>
          <polygon class="cls-13" points="1014.15 778.48 1005.65 932.97 1010.59 932.97 1015.67 783 1014.15 778.48"/>
          <polygon class="cls-12" points="1012.3 812.07 1061.38 813.29 1061.45 814.2 1012.25 813.07 1012.3 812.07"/>
          <polygon class="cls-10" points="1010.5 844.8 1060.48 874.07 1064.14 932.97 1067.42 932.97 1061.51 873.23 1010.66 841.86 1010.5 844.8"/>
          <polygon class="cls-33" points="1013.52 846.57 1060.48 874.07 1064.14 932.97 1061.65 932.97 1059.34 874.12 1013.52 846.57"/>
          <polygon class="cls-44" points="1014.06 813.11 1061.45 814.2 1061.45 815.03 1014.15 814.07 1014.06 813.11"/>
          <polygon class="cls-43" points="1022.34 790.88 1023.74 793.87 1049.57 793.87 1051.36 790.88 1043.19 790.88 1040.85 788.59 1031.86 788.59 1030.1 790.95 1022.34 790.88"/>
          <polygon class="cls-54" points="1023.74 793.87 1022.7 794.33 1050.19 794.33 1049.57 793.87 1023.74 793.87"/>
          <polygon class="cls-3" points="1011.13 833.25 1065.13 864.38 1063.99 848.89 1011.94 818.69 1011.13 833.25"/>
          <polygon class="cls-9" points="1011.13 833.25 1013.52 837.23 1065.13 868.45 1065.13 864.38 1011.13 833.25"/>
          <polygon class="cls-44" points="1014.15 778.48 1010.59 819.69 1064.14 850.85 1063.99 848.89 1011.94 818.69 1014.15 778.48"/>
          <polygon class="cls-2" points="1049.83 772.91 1058.83 778.48 1064.14 850.85 1060.41 778.48 1049.83 772.91"/>
          <polygon class="cls-43" points="1022.19 927.16 1024.68 930.07 1051.65 930.07 1053.31 927.16 1022.19 927.16"/>
          <polygon class="cls-8" points="1000.97 932.97 1000.97 931.26 1076.01 932.11 1076.01 932.97 1000.97 932.97"/>
        </g>
      </g>
    </g>
  </g>
</svg>