<?xml version="1.0" encoding="UTF-8"?>
<svg xmlns="http://www.w3.org/2000/svg" viewBox="0 0 219.94 149.11">
  <defs>
    <style>
      .cls-1 {
        fill: #76cce0;
      }

      .cls-2 {
        fill: #fff;
      }

      .cls-3 {
        fill: #e5e5e5;
      }

      .cls-4 {
        fill: #f2f2f2;
      }

      .cls-5 {
        isolation: isolate;
      }

      .cls-6 {
        opacity: .43;
      }

      .cls-6, .cls-7 {
        fill: gray;
        mix-blend-mode: multiply;
      }

      .cls-7 {
        opacity: .26;
      }

      .cls-8 {
        fill: #ccc;
      }
    </style>
  </defs>
  <g class="cls-5">
    <g id="Layer_1" data-name="Layer 1">
      <g>
        <path class="cls-2" d="M201.56,0l-3.87,14.59-3.7,13.92s-58.38,9.17-62.85,9.88c-4.47.7-5.02,6.9-6.93,16.5l-97.79,15.37-2.65-3.89-8.91-13.01L0,31.68,201.56,0Z"/>
        <path class="cls-4" d="M203.35,47.09c-7.84,3.17-17.61,6.33-28.4,9.41-14.05,4.01-29.85,7.87-45.47,11.37-35.49,7.96-70.07,14.08-81.11,15.8l-2.59-16.43,78.42-12.33c1.9-9.62,2.47-15.8,6.93-16.52,4.46-.69,62.84-9.86,62.84-9.86l3.71-13.93.54-.09,5.13,32.59Z"/>
        <path class="cls-4" d="M205.89,101.5v13.93h-59.13c-3.83,0-6.96-3.14-6.96-6.96,0-1.93.78-3.68,2.05-4.92,1.27-1.27,2.99-2.05,4.91-2.05h59.13Z"/>
        <path class="cls-3" d="M205.89,115.43v20.53c-12.75-10.83-48.39-20.53-54.54-20.53h54.54Z"/>
        <path class="cls-7" d="M205.89,115.43v20.53c-12.75-10.83-48.39-20.53-54.54-20.53h54.54Z"/>
        <rect class="cls-2" x="205.89" y="85.79" width="14.05" height="63.32"/>
        <path class="cls-8" d="M171.24,86.79v14.71h-25.39v-14.71c0-7.03,5.7-12.69,12.69-12.69s12.69,5.67,12.69,12.69Z"/>
        <path class="cls-3" d="M168.74,82c1.51,5.91-2.05,11.94-8.02,13.48-5.94,1.54-11.97-2.05-13.48-7.99-1.12-4.28-4.79-9.92-16.16-13.3l-1.6-6.33c15.62-3.5,31.42-7.36,45.47-11.37l1.57,6.09c-8.35,8.41-8.86,15.11-7.78,19.42Z"/>
        <path class="cls-1" d="M164.16,84.9c0,3.43-2.78,6.22-6.22,6.22s-6.22-2.78-6.22-6.22,2.78-6.22,6.22-6.22,6.22,2.78,6.22,6.22Z"/>
        <path class="cls-6" d="M198.62,17.06l-.94,3.56-3.71,13.93s-58.37,9.17-62.84,9.86c-4.46.72-5.01,6.91-6.94,16.52l-77.48,12.15-.93-5.85,78.42-12.33c.6-3.01,1.06-5.67,1.57-7.96.48-2.26,1.03-4.13,1.72-5.55.84-1.72,1.96-2.74,3.65-3.02,4.46-.69,62.84-9.86,62.84-9.86l3.71-13.93.54-.09.39,2.56Z"/>
        <path class="cls-6" d="M176.52,62.58c-.39.39-.78.81-1.12,1.21-.15.03-.3.09-.45.12-13.17,3.77-27.89,7.39-42.54,10.7-.42-.15-.87-.27-1.32-.42l-.75-2.93-.84-3.41c15.62-3.5,31.41-7.36,45.47-11.36l1.57,6.09Z"/>
        <path class="cls-6" d="M168.31,88.71c-.09,4.86-3.37,9.29-8.35,10.55-5.94,1.54-11.97-2.05-13.48-7.99-.15-.6-.36-1.23-.63-1.87v-2.59c0-.78.06-1.54.21-2.29.57,1.02.93,2.05,1.18,2.98,1.51,5.94,7.54,9.53,13.48,7.99,3.62-.93,6.36-3.56,7.6-6.78Z"/>
      </g>
    </g>
  </g>
</svg>