<?xml version="1.0" encoding="UTF-8"?>
<svg xmlns="http://www.w3.org/2000/svg" viewBox="0 0 332.95 167.72">
  <defs>
    <style>
      .cls-1 {
        fill: #8d8496;
      }

      .cls-2 {
        fill: #9d99bf;
        mix-blend-mode: screen;
        opacity: .2;
      }

      .cls-3 {
        fill: #554f5b;
      }

      .cls-4 {
        fill: #433256;
      }

      .cls-5 {
        fill: #cac9f2;
      }

      .cls-6 {
        fill: #353851;
      }

      .cls-7 {
        isolation: isolate;
      }

      .cls-8 {
        fill: #c9b6e0;
      }

      .cls-9 {
        fill: #b2afce;
      }

      .cls-10 {
        fill: #2c2b3a;
      }

      .cls-11 {
        fill: #353344;
      }

      .cls-12 {
        fill: #554c60;
      }

      .cls-13 {
        fill: #9d91a8;
      }

      .cls-14 {
        fill: #a79ab2;
      }

      .cls-15 {
        fill: #484558;
      }

      .cls-16 {
        fill: #393747;
      }
    </style>
  </defs>
  <g class="cls-7">
    <g id="Layer_1" data-name="Layer 1">
      <g>
        <path class="cls-11" d="M332.17,75.3c1.01-3.76,1.35-9.14-2.54-13.49-1.78-2-6.51-3.35-9.12-2.73-8.78,2.09-16.23,10.37-21.55,22.33l29.78,6,3.42-12.11Z"/>
        <path class="cls-13" d="M0,167.72h0V43.74h0c20.73,0,37.54,16.81,37.54,37.54v48.9c0,20.73-16.81,37.54-37.54,37.54Z"/>
        <path class="cls-10" d="M0,167.72h0V43.74h0c12.49,0,22.62,10.13,22.62,22.62v78.75c0,12.49-10.13,22.62-22.62,22.62Z"/>
        <g>
          <path class="cls-14" d="M285.93,125.44l-162.66-41.6,15.91-45.89c5.23-15.09,21.7-23.07,36.79-17.84l131.59,45.63-21.63,59.71Z"/>
          <path class="cls-13" d="M285.93,125.44l9.5-26.21c-15.63-5.46-34.01-12.15-51.29-19.12-26.19-10.56-57.77-40.6-77.74-61.6-11.94.04-23.08,7.52-27.22,19.44l-15.91,45.89,162.66,41.6Z"/>
          <path class="cls-3" d="M305.57,98.66c-5.74,16.56-14.33,28.62-19.19,26.93-4.85-1.68-4.13-16.47,1.61-33.03,5.74-16.56,14.33-28.62,19.19-26.94,4.85,1.68,4.13,16.47-1.61,33.03Z"/>
          <path class="cls-8" d="M307.46,64.84c-7.81-2.71-17.39,19.22-20.25,27.45-5.18,14.92-7.32,31.94-1.1,34.09.09.03.17.06.26.08,2.73.73,6.16-1.68,9.96-7.01,3.67-5.15,7.23-12.44,10.04-20.52,5.17-14.92,7.32-31.94,1.1-34.09ZM304.78,98.39c-2.75,7.94-6.24,15.07-9.82,20.1-3.29,4.62-6.4,6.98-8.3,6.32-3.78-1.31-3.84-14.76,2.13-31.96,5.9-17.01,14.15-27.49,17.99-26.46.04.01.09.03.13.04,3.78,1.31,3.84,14.76-2.13,31.97Z"/>
          <g>
            <path class="cls-1" d="M308.58,99.71c-4.79,13.8-12.95,23.5-18.23,21.67-5.28-1.83-5.68-14.5-.89-28.3,4.79-13.8,12.95-23.5,18.23-21.67,5.28,1.83,5.68,14.5.89,28.3Z"/>
            <path class="cls-12" d="M311.9,83.45c.26-6.36-1.16-11.04-4.19-12.09-5.28-1.83-13.45,7.92-18.24,21.72-4.79,13.8-4.39,26.47.89,28.3.26.09.58.16.86.19-1.77-15.08,13.29-31.22,20.68-38.12Z"/>
            <path class="cls-4" d="M292.42,121.55c-.5.1-1.03.12-1.54.04-.51-.08-1.01-.28-1.46-.55-7.56-4.76-2.71-30.01,7.66-42.98-9.33,14.05-14.23,37.98-7.54,42.8.82.57,1.86.82,2.88.7Z"/>
          </g>
        </g>
        <path class="cls-6" d="M30.78,90.21c-1.56,0-2.83,3.85-2.83,8.59s1.27,8.59,2.83,8.59h115.33v-17.19H30.78Z"/>
        <path class="cls-15" d="M126.78,123.33h0c-13.79-3.7-21.98-17.88-18.28-31.68l16.58-61.81,49.95,13.4-16.58,61.81c-3.7,13.79-17.88,21.98-31.68,18.28Z"/>
        <circle class="cls-16" cx="134.46" cy="94.71" r="19.48" transform="translate(10.67 202.99) rotate(-76.33)"/>
        <path class="cls-15" d="M140.56,98.35c-1.03,3.83-4.97,6.11-8.8,5.08s-6.11-4.97-5.08-8.8,4.97-6.11,8.8-5.08,6.11,4.97,5.08,8.8Z"/>
        <path class="cls-9" d="M327.48,59.89C323.81,57.85,160.65.37,160.65.37c-11.27-3.02-31.23,13.33-34.41,25.18l-5.74,21.4,179.46,35.54c6.07-13.94,16.34-24.44,27.52-22.6Z"/>
        <path class="cls-5" d="M328.75,87.41c1.8-6.78,8.12-22.09-1.37-26.7-4.7-2.28-14.77.74-23.33,14.36-1.52,2.37-2.85,4.87-4.09,7.42,8.83-21.36,21.91-25.24,27.69-22.52,3.57,1.68,7.57,7.12,3.75,19.37-.88,2.69-1.74,5.39-2.64,8.07Z"/>
        <path class="cls-2" d="M186.89,15.57s-21.59-8.39-22.73,4.74,127.93,42.46,133.74,39.1c5.81-3.35-111.02-43.84-111.02-43.84Z"/>
        <path class="cls-9" d="M121.96,41.5l101.77,25.9s-1.18,1.45-1.98,4.42l-1.86,6.95-105.11-26.97s1.23-6.85,7.19-10.28Z"/>
        <path class="cls-2" d="M214.46,63.06s-80.48-23.12-84.28-19.47c-3.8,3.65,78.57,23.79,83.08,23.92,4.52.13,1.19-4.45,1.19-4.45Z"/>
      </g>
    </g>
  </g>
</svg>