<?xml version="1.0" encoding="UTF-8"?>
<svg xmlns="http://www.w3.org/2000/svg" viewBox="0 0 221.91 161.71">
  <defs>
    <style>
      .cls-1 {
        fill: #76cce0;
      }

      .cls-2 {
        fill: #1d1d1b;
      }

      .cls-3 {
        fill: #fff;
      }

      .cls-4 {
        fill: #e5e5e5;
      }

      .cls-5 {
        fill: #f2f2f2;
      }

      .cls-6 {
        isolation: isolate;
      }

      .cls-7 {
        opacity: .43;
      }

      .cls-7, .cls-8 {
        mix-blend-mode: multiply;
      }

      .cls-7, .cls-8, .cls-9 {
        fill: gray;
      }

      .cls-8 {
        opacity: .26;
      }

      .cls-10 {
        fill: #ccc;
      }
    </style>
  </defs>
  <g class="cls-6">
    <g id="Layer_1" data-name="Layer 1">
      <polygon class="cls-2" points="168.99 0 179.68 17.36 173.96 19.58 171.13 14.72 170.66 15 168.99 0"/>
      <g>
        <path class="cls-5" d="M207.86,114.1v13.93h-59.13c-3.83,0-6.96-3.14-6.96-6.96,0-1.93.78-3.68,2.05-4.92,1.27-1.27,2.99-2.05,4.91-2.05h59.13Z"/>
        <path class="cls-4" d="M207.86,128.03v20.53c-12.75-10.83-48.39-20.53-54.54-20.53h54.54Z"/>
        <path class="cls-8" d="M207.86,128.03v20.53c-12.75-10.83-48.39-20.53-54.54-20.53h54.54Z"/>
        <rect class="cls-3" x="207.86" y="98.39" width="14.05" height="63.32"/>
        <path class="cls-10" d="M173.21,99.38v14.71h-25.39v-14.71c0-7.03,5.7-12.69,12.69-12.69s12.69,5.67,12.69,12.69Z"/>
        <path class="cls-4" d="M167.9,88.32c3.54,4.97,2.39,11.88-2.63,15.46-4.98,3.57-11.9,2.4-15.45-2.6-2.58-3.59-8.04-7.52-19.86-6.58l-3.77-5.33c13.31-8.89,26.66-18.18,38.32-26.99l3.66,5.12c-4.76,10.86-2.83,17.29-.26,20.92Z"/>
        <path class="cls-1" d="M164.67,92.67c1.24,3.2-.36,6.8-3.56,8.04-3.2,1.24-6.8-.36-8.04-3.56s.36-6.8,3.56-8.04,6.8.35,8.04,3.56Z"/>
        <path class="cls-7" d="M168.16,67.4c-.22.51-.44,1.04-.61,1.53-.13.08-.25.19-.38.28-10.93,8.26-23.35,16.94-35.83,25.31-.45.01-.91.06-1.39.08l-1.76-2.46-2.01-2.87c13.31-8.89,26.65-18.18,38.32-26.98l3.66,5.12Z"/>
        <path class="cls-7" d="M169.92,94.73c1.67,4.56.2,9.88-3.99,12.85-4.98,3.57-11.9,2.4-15.45-2.6-.36-.51-.78-1.02-1.26-1.51l-.93-2.42c-.28-.73-.5-1.46-.63-2.21.9.75,1.61,1.58,2.17,2.36,3.55,5,10.46,6.17,15.45,2.6,3.04-2.17,4.65-5.61,4.64-9.07Z"/>
        <ellipse class="cls-9" cx="179.29" cy="29.05" rx="4.74" ry="16.52" transform="translate(8.39 90.54) rotate(-28.99)"/>
        <path class="cls-3" d="M168.97,0l1.64,15,1.56,14.32s-51.15,29.59-55.07,31.86c-3.91,2.27-2.2,8.24-.52,17.89l-84.21,48.72-3.5-2.8-10.72-9.06L0,97.76,168.97,0Z"/>
        <path class="cls-5" d="M187.61,43.28c-6.17,5.78-14.15,12.25-23.11,19.01-11.66,8.8-25.01,18.1-38.32,26.99-30.23,20.21-57.38,37.26-67.06,42.84l-11.24-13.27,68.71-39.76c-1.7-9.66-3.39-15.63.51-17.91,3.91-2.26,55.06-31.84,55.06-31.84l-1.56-14.33.47-.28c0,2.99.39,9.22,4.06,15.88,4.06,7.39,9.88,11.19,12.47,12.67Z"/>
        <path class="cls-7" d="M171.25,18.17l.76,5.27,2.33,11.52s-51.15,29.58-55.06,31.84c-3.9,2.28-2.18,8.24-.52,17.91l-66.99,38.73-3.89-4.59,68.71-39.76c-.52-3.03-1.06-5.67-1.41-7.99-.36-2.28-.53-4.22-.39-5.79.17-1.91.84-3.27,2.32-4.13,3.91-2.25,55.06-31.84,55.06-31.84l-1.56-14.33.47-.28.17,3.45Z"/>
      </g>
    </g>
  </g>
</svg>