<?xml version="1.0" encoding="UTF-8"?>
<svg id="Layer_1" data-name="Layer 1" xmlns="http://www.w3.org/2000/svg" viewBox="0 0 362.5 301.66">
  <defs>
    <style>
      .cls-1 {
        fill: #50859c;
      }

      .cls-2 {
        fill: #ffb829;
      }

      .cls-3 {
        fill: #00c9c9;
      }

      .cls-4 {
        fill: #171717;
      }

      .cls-5 {
        fill: #c7aa6b;
      }

      .cls-6 {
        fill: #104be0;
      }

      .cls-7 {
        fill: #636363;
      }

      .cls-8 {
        fill: #6b4622;
      }

      .cls-9 {
        fill: #8dad0c;
      }

      .cls-10 {
        fill: #adadad;
      }

      .cls-11 {
        fill: #e63030;
      }
    </style>
  </defs>
  <path class="cls-8" d="M288.46,286.28L8.09,209.1c-5.86-1.61-9.31-7.67-7.69-13.53L52,8.09c1.61-5.86,7.67-9.31,13.54-7.69l280.37,77.17c5.86,1.61,9.3,7.67,7.69,13.53l-51.61,187.48c-1.61,5.87-7.68,9.3-13.53,7.69Z"/>
  <path class="cls-4" d="M79.77-8.34h194.46c3.47,0,6.29,2.82,6.29,6.29v290.79c0,3.47-2.82,6.29-6.29,6.29H79.77c-3.47,0-6.29-2.82-6.29-6.29V-2.06c0-3.47,2.82-6.29,6.29-6.29Z" transform="translate(-8.18 275.95) rotate(-74.61)"/>
  <path class="cls-5" d="M32.45,207.11c-1.68-.46-2.66-2.19-2.2-3.87L81.02,18.79c.46-1.67,2.19-2.65,3.87-2.19l114.9,31.63-52.44,190.51-114.9-31.63Z"/>
  <g>
    <path class="cls-1" d="M30.25,203.24L81.02,18.79c.46-1.67,2.19-2.65,3.87-2.19l-1.52-.42c-1.67-.46-3.4.53-3.86,2.19L28.74,202.82c-.46,1.68.52,3.41,2.19,3.87l1.52.42c-1.68-.46-2.66-2.19-2.2-3.87Z"/>
    <path class="cls-5" d="M28.74,202.82L79.51,18.38c.46-1.67,2.19-2.65,3.86-2.19l-1.51-.42c-1.68-.46-3.41.52-3.87,2.19L27.22,202.41c-.46,1.68.52,3.41,2.2,3.87l1.51.42c-1.67-.46-2.65-2.19-2.19-3.87Z"/>
    <path class="cls-1" d="M27.22,202.41L77.99,17.96c.46-1.67,2.19-2.66,3.87-2.19l-1.52-.42c-1.67-.46-3.41.52-3.87,2.19L25.7,201.99c-.46,1.68.53,3.41,2.2,3.87l1.52.42c-1.68-.46-2.66-2.19-2.2-3.87Z"/>
    <path class="cls-5" d="M25.7,201.99L76.47,17.54c.46-1.67,2.2-2.65,3.87-2.19l-1.52-.42c-1.68-.46-3.4.53-3.86,2.19L24.19,201.57c-.46,1.68.52,3.41,2.19,3.87l1.52.42c-1.67-.46-2.66-2.19-2.2-3.87Z"/>
    <path class="cls-1" d="M24.19,201.57L74.96,17.13c.46-1.67,2.19-2.66,3.86-2.19l-1.52-.42c-1.67-.46-3.41.52-3.87,2.19L22.67,201.15c-.46,1.68.53,3.41,2.2,3.87l1.52.42c-1.68-.46-2.65-2.19-2.19-3.87Z"/>
    <path class="cls-5" d="M22.67,201.15L73.44,16.71c.46-1.67,2.2-2.65,3.87-2.19l-1.51-.42c-1.68-.46-3.41.52-3.87,2.19L21.15,200.74c-.46,1.68.53,3.41,2.2,3.87l1.51.42c-1.67-.46-2.66-2.19-2.2-3.87Z"/>
    <path class="cls-1" d="M21.15,200.74L71.93,16.29c.46-1.67,2.2-2.65,3.87-2.19l-1.52-.42c-1.67-.46-3.4.53-3.86,2.19L19.64,200.32c-.46,1.68.52,3.41,2.19,3.87l1.52.42c-1.68-.46-2.67-2.19-2.2-3.87Z"/>
  </g>
  <g>
    <path class="cls-1" d="M272.41,269.9l50.77-184.45c.46-1.67-.52-3.4-2.19-3.86l1.52.42c1.67.46,2.66,2.19,2.2,3.86l-50.77,184.45c-.46,1.68-2.19,2.66-3.87,2.2l-1.52-.42c1.68.46,3.4-.52,3.86-2.2Z"/>
    <path class="cls-5" d="M273.93,270.32l50.77-184.45c.46-1.67-.53-3.4-2.2-3.86l1.51.42c1.68.46,2.67,2.19,2.21,3.86l-50.77,184.45c-.46,1.68-2.19,2.66-3.87,2.2l-1.51-.42c1.67.46,3.4-.52,3.87-2.2Z"/>
    <path class="cls-1" d="M275.44,270.73l50.77-184.45c.46-1.67-.53-3.4-2.21-3.86l1.52.42c1.67.46,2.66,2.19,2.19,3.86l-50.77,184.45c-.46,1.68-2.19,2.66-3.86,2.2l-1.52-.42c1.68.46,3.41-.52,3.87-2.2Z"/>
    <path class="cls-5" d="M276.96,271.15l50.77-184.45c.46-1.67-.52-3.4-2.19-3.86l1.52.42c1.68.46,2.65,2.19,2.19,3.86l-50.77,184.45c-.46,1.68-2.19,2.66-3.86,2.2l-1.52-.42c1.67.46,3.4-.52,3.86-2.2Z"/>
    <path class="cls-1" d="M278.47,271.57l50.77-184.45c.46-1.67-.52-3.4-2.19-3.86l1.51.42c1.67.46,2.66,2.19,2.2,3.86l-50.77,184.45c-.46,1.68-2.2,2.66-3.87,2.2l-1.51-.42c1.68.46,3.4-.52,3.86-2.2Z"/>
    <path class="cls-5" d="M279.99,271.99l50.77-184.45c.46-1.67-.53-3.4-2.2-3.86l1.52.42c1.68.46,2.66,2.19,2.2,3.86l-50.77,184.45c-.46,1.68-2.19,2.66-3.87,2.2l-1.52-.42c1.67.46,3.41-.52,3.87-2.2Z"/>
    <path class="cls-1" d="M281.51,272.4l50.77-184.45c.46-1.67-.53-3.4-2.2-3.86l1.52.42c1.67.46,2.66,2.19,2.2,3.86l-50.77,184.45c-.46,1.68-2.19,2.66-3.87,2.2l-1.52-.42c1.68.46,3.41-.52,3.87-2.2Z"/>
  </g>
  <path class="cls-5" d="M268.54,272.1c1.68.46,3.4-.52,3.86-2.2l50.77-184.45c.46-1.67-.52-3.4-2.19-3.86l-114.91-31.63-52.44,190.51,114.91,31.63Z"/>
  <g>
    <rect class="cls-1" x="131.84" y=".94" width=".32" height="90.94" transform="translate(52.21 161.36) rotate(-74.61)"/>
    <rect class="cls-1" x="128.67" y="12.46" width=".31" height="90.94" transform="translate(38.78 166.76) rotate(-74.61)"/>
    <rect class="cls-1" x="125.5" y="23.98" width=".32" height="90.94" transform="translate(25.35 172.17) rotate(-74.61)"/>
    <rect class="cls-1" x="122.33" y="35.49" width=".32" height="90.94" transform="translate(11.92 177.57) rotate(-74.61)"/>
    <rect class="cls-1" x="119.16" y="47.01" width=".32" height="90.94" transform="translate(-1.51 182.97) rotate(-74.61)"/>
    <rect class="cls-1" x="115.99" y="58.53" width=".32" height="90.94" transform="translate(-14.95 188.38) rotate(-74.61)"/>
    <rect class="cls-1" x="112.82" y="70.04" width=".32" height="90.94" transform="translate(-28.38 193.78) rotate(-74.61)"/>
    <rect class="cls-1" x="109.65" y="81.56" width=".31" height="90.94" transform="translate(-41.81 199.18) rotate(-74.61)"/>
    <rect class="cls-1" x="106.48" y="93.07" width=".31" height="90.94" transform="translate(-55.24 204.59) rotate(-74.61)"/>
    <rect class="cls-1" x="103.31" y="104.59" width=".32" height="90.94" transform="translate(-68.67 209.99) rotate(-74.61)"/>
    <rect class="cls-1" x="100.14" y="116.1" width=".32" height="90.94" transform="translate(-82.1 215.4) rotate(-74.61)"/>
    <rect class="cls-1" x="96.97" y="127.62" width=".31" height="90.94" transform="translate(-95.53 220.8) rotate(-74.61)"/>
    <rect class="cls-1" x="93.8" y="139.14" width=".32" height="90.94" transform="translate(-108.97 226.2) rotate(-74.61)"/>
    <rect class="cls-1" x="90.63" y="150.65" width=".31" height="90.94" transform="translate(-122.4 231.6) rotate(-74.61)"/>
  </g>
  <g>
    <rect class="cls-1" x="265.09" y="37.63" width=".32" height="90.93" transform="translate(114.74 316.78) rotate(-74.61)"/>
    <rect class="cls-1" x="261.93" y="49.15" width=".31" height="90.93" transform="translate(101.31 322.19) rotate(-74.61)"/>
    <rect class="cls-1" x="258.75" y="60.67" width=".32" height="90.93" transform="translate(87.87 327.59) rotate(-74.61)"/>
    <rect class="cls-1" x="255.58" y="72.18" width=".32" height="90.93" transform="translate(74.44 333) rotate(-74.61)"/>
    <rect class="cls-1" x="252.41" y="83.69" width=".32" height="90.93" transform="translate(61.01 338.4) rotate(-74.61)"/>
    <rect class="cls-1" x="249.24" y="95.21" width=".32" height="90.93" transform="translate(47.58 343.8) rotate(-74.61)"/>
    <rect class="cls-1" x="246.07" y="106.73" width=".32" height="90.93" transform="translate(34.15 349.21) rotate(-74.61)"/>
    <rect class="cls-1" x="242.91" y="118.24" width=".31" height="90.93" transform="translate(20.72 354.61) rotate(-74.61)"/>
    <rect class="cls-1" x="239.74" y="129.76" width=".31" height="90.93" transform="translate(7.28 360.01) rotate(-74.61)"/>
    <rect class="cls-1" x="236.56" y="141.27" width=".32" height="90.93" transform="translate(-6.14 365.42) rotate(-74.61)"/>
    <rect class="cls-1" x="233.4" y="152.79" width=".31" height="90.93" transform="translate(-19.58 370.82) rotate(-74.61)"/>
    <rect class="cls-1" x="230.23" y="164.31" width=".31" height="90.93" transform="translate(-33.01 376.22) rotate(-74.61)"/>
    <rect class="cls-1" x="227.05" y="175.82" width=".32" height="90.93" transform="translate(-46.44 381.63) rotate(-74.61)"/>
    <rect class="cls-1" x="223.89" y="187.34" width=".31" height="90.93" transform="translate(-59.87 387.03) rotate(-74.61)"/>
  </g>
  <g>
    <g>
      <path class="cls-4" d="M188.41,68.07c-.68,2.46-3.22,3.91-5.68,3.23-2.46-.68-3.91-3.22-3.23-5.68s3.23-3.9,5.68-3.23c2.46.68,3.91,3.22,3.23,5.68Z"/>
      <path class="cls-4" d="M214.62,75.29c-.68,2.46-3.22,3.91-5.68,3.23s-3.9-3.22-3.22-5.68c.68-2.46,3.22-3.9,5.67-3.23,2.46.68,3.9,3.22,3.23,5.68Z"/>
      <path class="cls-7" d="M210.74,71.98l-26.21-7.22c-1.15-.32-2.34.36-2.66,1.51s.36,2.34,1.51,2.66l26.21,7.22c1.16.32,2.34-.36,2.66-1.51s-.36-2.34-1.51-2.66Z"/>
      <path class="cls-10" d="M210.53,72.74l-26.21-7.22c-.73-.2-1.49.23-1.69.96l28.87,7.95c.2-.73-.23-1.49-.96-1.69Z"/>
      <path class="cls-10" d="M182.01,67.77c.26.55.74.99,1.37,1.16l26.21,7.22c.63.17,1.27.04,1.77-.3l-29.35-8.08Z"/>
    </g>
    <g>
      <path class="cls-4" d="M180.38,97.22c-.68,2.46-3.22,3.91-5.68,3.23-2.46-.68-3.91-3.22-3.23-5.68.67-2.45,3.22-3.9,5.68-3.22,2.46.68,3.91,3.22,3.23,5.68Z"/>
      <path class="cls-4" d="M206.59,104.44c-.68,2.46-3.22,3.91-5.68,3.23-2.46-.68-3.9-3.22-3.22-5.68.67-2.45,3.22-3.9,5.67-3.22,2.46.68,3.9,3.22,3.23,5.67Z"/>
      <path class="cls-7" d="M202.71,101.13l-26.21-7.22c-1.15-.32-2.34.36-2.66,1.51s.36,2.34,1.51,2.66l26.21,7.22c1.16.32,2.34-.36,2.66-1.51s-.36-2.34-1.51-2.66Z"/>
      <path class="cls-10" d="M202.5,101.89l-26.21-7.22c-.73-.2-1.49.23-1.69.96l28.87,7.95c.2-.72-.23-1.48-.96-1.69Z"/>
      <path class="cls-10" d="M173.98,96.93c.26.54.74.98,1.37,1.15l26.21,7.22c.63.17,1.27.04,1.77-.29l-29.35-8.08Z"/>
    </g>
    <g>
      <path class="cls-4" d="M172.36,126.38c-.68,2.46-3.22,3.9-5.68,3.23-2.46-.68-3.91-3.22-3.23-5.68.68-2.46,3.23-3.9,5.68-3.23,2.46.68,3.91,3.22,3.23,5.68Z"/>
      <path class="cls-4" d="M198.57,133.6c-.68,2.46-3.22,3.9-5.68,3.23s-3.9-3.22-3.22-5.68,3.22-3.9,5.67-3.23c2.46.68,3.9,3.22,3.23,5.68Z"/>
      <path class="cls-7" d="M194.69,130.29l-26.21-7.22c-1.15-.32-2.34.36-2.66,1.51-.32,1.15.36,2.34,1.51,2.66l26.21,7.22c1.16.32,2.34-.36,2.66-1.51s-.36-2.34-1.51-2.66Z"/>
      <path class="cls-10" d="M194.48,131.04l-26.21-7.22c-.73-.2-1.49.23-1.7.96l28.87,7.95c.2-.73-.22-1.49-.96-1.69Z"/>
      <path class="cls-10" d="M165.96,126.08c.26.54.74.99,1.37,1.16l26.21,7.22c.63.17,1.27.04,1.77-.3l-29.35-8.08Z"/>
    </g>
    <g>
      <path class="cls-4" d="M148.28,213.84c-.68,2.46-3.22,3.9-5.68,3.22-2.46-.68-3.91-3.22-3.23-5.68.68-2.46,3.23-3.91,5.68-3.23,2.46.68,3.91,3.22,3.23,5.69Z"/>
      <path class="cls-4" d="M174.49,221.06c-.68,2.46-3.22,3.9-5.68,3.22-2.46-.68-3.9-3.22-3.22-5.67s3.22-3.91,5.68-3.24,3.9,3.22,3.23,5.69Z"/>
      <path class="cls-7" d="M170.61,217.74l-26.21-7.22c-1.15-.32-2.34.36-2.66,1.51-.32,1.15.36,2.34,1.51,2.65l26.21,7.22c1.16.32,2.34-.36,2.66-1.51s-.35-2.34-1.51-2.66Z"/>
      <path class="cls-10" d="M170.4,218.5l-26.21-7.22c-.73-.2-1.49.23-1.7.96l28.87,7.95c.2-.74-.22-1.49-.96-1.69Z"/>
      <path class="cls-10" d="M141.88,213.54c.26.55.74.98,1.37,1.16l26.21,7.22c.63.17,1.27.04,1.77-.29l-29.35-8.08Z"/>
    </g>
    <g>
      <path class="cls-4" d="M164.33,155.54c-.68,2.46-3.22,3.91-5.68,3.23-2.46-.68-3.91-3.22-3.23-5.68.68-2.46,3.23-3.91,5.68-3.23s3.91,3.22,3.23,5.68Z"/>
      <path class="cls-4" d="M190.54,162.75c-.68,2.46-3.22,3.91-5.68,3.23s-3.9-3.22-3.22-5.68,3.22-3.91,5.68-3.23c2.46.68,3.9,3.22,3.23,5.68Z"/>
      <path class="cls-7" d="M186.66,159.44l-26.21-7.22c-1.15-.32-2.34.36-2.66,1.51s.36,2.34,1.51,2.66l26.21,7.22c1.16.32,2.34-.36,2.66-1.51s-.36-2.34-1.51-2.66Z"/>
      <path class="cls-10" d="M186.45,160.2l-26.21-7.22c-.73-.2-1.49.23-1.69.96l28.87,7.95c.2-.73-.23-1.49-.96-1.69Z"/>
      <path class="cls-10" d="M157.93,155.24c.26.55.74.98,1.37,1.16l26.21,7.22c.63.17,1.27.04,1.77-.29l-29.35-8.08Z"/>
    </g>
    <g>
      <path class="cls-4" d="M156.31,184.69c-.68,2.46-3.22,3.9-5.68,3.23-2.46-.68-3.91-3.22-3.23-5.68.68-2.46,3.23-3.91,5.68-3.23,2.46.68,3.91,3.22,3.23,5.68Z"/>
      <path class="cls-4" d="M182.52,191.9c-.68,2.46-3.22,3.9-5.68,3.23s-3.9-3.22-3.22-5.68c.68-2.46,3.22-3.91,5.68-3.23,2.46.68,3.9,3.22,3.23,5.68Z"/>
      <path class="cls-7" d="M178.64,188.59l-26.21-7.22c-1.15-.32-2.34.36-2.66,1.51s.36,2.34,1.51,2.66l26.21,7.22c1.16.32,2.34-.36,2.66-1.51s-.35-2.34-1.51-2.66Z"/>
      <path class="cls-10" d="M178.43,189.35l-26.21-7.22c-.73-.2-1.49.23-1.69.96l28.87,7.95c.2-.73-.23-1.49-.96-1.69Z"/>
      <path class="cls-10" d="M149.91,184.39c.26.55.74.99,1.37,1.16l26.21,7.22c.63.17,1.27.04,1.77-.3l-29.35-8.08Z"/>
    </g>
  </g>
  <path class="cls-11" d="M232.65,48c-4.76-1.31-9.68,1.49-10.99,6.25l6.45,1.77c.33-1.2,1.57-1.91,2.77-1.58,1.2.33,1.9,1.57,1.57,2.78l-49.07,178.26,3.87-1.49,2.57,3.26,49.07-178.26c1.31-4.76-1.49-9.68-6.24-10.99Z"/>
  <g>
    <path class="cls-11" d="M54.41,50.83c-.84-.23-1.33-1.1-1.1-1.93l7.79-28.32c.23-.84,1.1-1.33,1.94-1.1l5.94,1.63-8.63,31.34-5.94-1.63Z"/>
    <path class="cls-2" d="M45.78,82.17c-.84-.23-1.33-1.1-1.1-1.93l7.79-28.31c.23-.84,1.1-1.33,1.94-1.1l5.94,1.63-8.63,31.34-5.94-1.63Z"/>
    <path class="cls-9" d="M37.15,113.51c-.84-.23-1.33-1.1-1.1-1.93l7.79-28.31c.23-.83,1.1-1.33,1.94-1.1l5.94,1.63-8.63,31.34-5.94-1.63Z"/>
    <path class="cls-3" d="M28.52,144.86c-.84-.23-1.33-1.1-1.1-1.93l7.79-28.31c.23-.84,1.1-1.33,1.94-1.1l5.94,1.63-8.63,31.34-5.94-1.63Z"/>
    <path class="cls-6" d="M19.9,176.2c-.84-.23-1.33-1.1-1.1-1.93l7.79-28.31c.23-.84,1.1-1.33,1.94-1.1l5.94,1.63-8.63,31.34-5.94-1.63Z"/>
  </g>
  <g>
    <path class="cls-11" d="M303.78,220.63c.83.23,1.33,1.1,1.1,1.94l-7.79,28.31c-.23.84-1.1,1.33-1.94,1.1l-5.94-1.63,8.63-31.34,5.94,1.63Z"/>
    <path class="cls-2" d="M312.4,189.28c.83.23,1.33,1.1,1.1,1.94l-7.79,28.31c-.23.83-1.1,1.33-1.94,1.1l-5.94-1.63,8.63-31.34,5.94,1.63Z"/>
    <path class="cls-9" d="M321.03,157.94c.83.23,1.33,1.1,1.1,1.93l-7.79,28.31c-.23.84-1.1,1.33-1.94,1.1l-5.94-1.63,8.63-31.34,5.94,1.63Z"/>
    <path class="cls-3" d="M329.66,126.59c.83.23,1.33,1.1,1.1,1.94l-7.79,28.31c-.23.84-1.1,1.33-1.94,1.1l-5.94-1.63,8.63-31.34,5.94,1.63Z"/>
    <path class="cls-6" d="M338.29,95.25c.83.23,1.33,1.1,1.1,1.93l-7.79,28.32c-.23.83-1.1,1.32-1.94,1.09l-5.94-1.63,8.63-31.34,5.94,1.63Z"/>
  </g>
</svg>