<?xml version="1.0" encoding="UTF-8"?>
<svg xmlns="http://www.w3.org/2000/svg" viewBox="0 0 362.5 301.66">
  <defs>
    <style>
      .cls-1 {
        fill: #aaa;
        opacity: .46;
      }

      .cls-1, .cls-2, .cls-3, .cls-4, .cls-5, .cls-6, .cls-7, .cls-8, .cls-9, .cls-10, .cls-11, .cls-12, .cls-13, .cls-14, .cls-15, .cls-16, .cls-17, .cls-18, .cls-19, .cls-20, .cls-21, .cls-22, .cls-23, .cls-24, .cls-25, .cls-26, .cls-27 {
        mix-blend-mode: multiply;
      }

      .cls-2 {
        fill: #f8f8f8;
        opacity: .04;
      }

      .cls-3 {
        fill: #878787;
        opacity: .65;
      }

      .cls-28 {
        fill: #50859c;
      }

      .cls-4 {
        fill: #9c9c9c;
        opacity: .54;
      }

      .cls-5 {
        fill: #fff;
        opacity: 0;
      }

      .cls-6 {
        fill: #d5d5d5;
        opacity: .23;
      }

      .cls-7 {
        fill: #5c5c5c;
        opacity: .88;
      }

      .cls-29 {
        fill: #ffb829;
      }

      .cls-8 {
        fill: #4e4e4e;
        opacity: .96;
      }

      .cls-9 {
        fill: #f1f1f1;
        opacity: .08;
      }

      .cls-30 {
        fill: #00c9c9;
      }

      .cls-31 {
        fill: #171717;
      }

      .cls-10 {
        fill: #dcdcdc;
        opacity: .19;
      }

      .cls-11 {
        fill: #b8b8b8;
        opacity: .38;
      }

      .cls-32 {
        fill: #c7aa6b;
      }

      .cls-12 {
        fill: #717171;
        opacity: .77;
      }

      .cls-13 {
        opacity: .85;
      }

      .cls-13, .cls-33 {
        fill: #636363;
      }

      .cls-34 {
        isolation: isolate;
      }

      .cls-35 {
        fill: #104be0;
      }

      .cls-14 {
        fill: #8e8e8e;
        opacity: .62;
      }

      .cls-15 {
        fill: #474747;
      }

      .cls-36 {
        fill: #6b4622;
      }

      .cls-16 {
        fill: #e3e3e3;
        opacity: .15;
      }

      .cls-17 {
        fill: #6a6a6a;
        opacity: .81;
      }

      .cls-37 {
        fill: #8dad0c;
      }

      .cls-18 {
        fill: #555;
        opacity: .92;
      }

      .cls-19 {
        fill: #797979;
        opacity: .73;
      }

      .cls-20 {
        fill: #a3a3a3;
        opacity: .5;
      }

      .cls-21 {
        fill: #b1b1b1;
        opacity: .42;
      }

      .cls-22 {
        fill: #959595;
        opacity: .58;
      }

      .cls-23 {
        fill: #c6c6c6;
        opacity: .31;
      }

      .cls-24 {
        fill: gray;
        opacity: .69;
      }

      .cls-38 {
        fill: #adadad;
      }

      .cls-25 {
        fill: #cdcdcd;
        opacity: .27;
      }

      .cls-26 {
        fill: #eaeaea;
        opacity: .12;
      }

      .cls-27 {
        fill: #bfbfbf;
        opacity: .35;
      }

      .cls-39 {
        fill: #e63030;
      }
    </style>
  </defs>
  <g class="cls-34">
    <g id="Layer_1" data-name="Layer 1">
      <g>
        <g>
          <g>
            <path class="cls-15" d="M351.61,81.4c.82,2.12,1.02,4.5.37,6.86l-51.61,187.48c-1.61,5.87-7.68,9.3-13.54,7.69L6.48,206.26c-2.36-.65-4.3-2.04-5.71-3.83,1.22,3.15,3.82,5.71,7.33,6.67l280.37,77.17c5.86,1.61,11.92-1.82,13.53-7.69l51.61-187.48c.96-3.5.09-7.06-1.99-9.71Z"/>
            <path class="cls-8" d="M351.93,81.98c.82,2.12,1.02,4.5.37,6.86l-51.61,187.48c-1.61,5.87-7.68,9.3-13.54,7.69L6.8,206.83c-2.36-.65-4.3-2.04-5.71-3.83,1.22,3.15,3.82,5.71,7.33,6.67l280.37,77.17c5.86,1.61,11.92-1.82,13.53-7.69l51.61-187.48c.96-3.5.09-7.06-1.99-9.71Z"/>
            <path class="cls-18" d="M352.26,82.55c.82,2.12,1.02,4.5.37,6.86l-51.61,187.48c-1.61,5.87-7.68,9.3-13.54,7.69L7.13,207.41c-2.36-.65-4.3-2.04-5.71-3.83,1.22,3.15,3.82,5.71,7.33,6.67l280.37,77.17c5.86,1.61,11.92-1.82,13.53-7.69l51.61-187.48c.96-3.5.09-7.06-1.99-9.71Z"/>
            <path class="cls-7" d="M352.59,83.13c.82,2.12,1.02,4.5.37,6.86l-51.61,187.48c-1.61,5.87-7.68,9.3-13.54,7.69L7.46,207.99c-2.36-.65-4.3-2.04-5.71-3.83,1.22,3.14,3.82,5.71,7.33,6.67l280.37,77.17c5.86,1.61,11.92-1.82,13.53-7.69l51.61-187.48c.96-3.5.09-7.06-1.99-9.71Z"/>
            <path class="cls-13" d="M352.92,83.7c.82,2.12,1.02,4.5.37,6.86l-51.61,187.48c-1.61,5.87-7.68,9.3-13.54,7.69L7.78,208.56c-2.36-.65-4.3-2.04-5.71-3.83,1.22,3.14,3.82,5.71,7.33,6.67l280.37,77.17c5.86,1.61,11.92-1.82,13.53-7.69l51.61-187.48c.96-3.5.09-7.06-1.99-9.71Z"/>
            <path class="cls-17" d="M353.24,84.28c.82,2.12,1.02,4.5.37,6.86l-51.61,187.48c-1.61,5.86-7.68,9.3-13.54,7.69L8.11,209.14c-2.36-.65-4.3-2.04-5.71-3.83,1.22,3.14,3.82,5.71,7.32,6.67l280.37,77.17c5.86,1.61,11.92-1.82,13.53-7.69l51.61-187.48c.96-3.5.09-7.06-1.99-9.71Z"/>
            <path class="cls-12" d="M353.57,84.86c.82,2.12,1.02,4.5.37,6.86l-51.61,187.48c-1.61,5.86-7.68,9.3-13.54,7.69L8.44,209.72c-2.36-.65-4.3-2.04-5.71-3.83,1.22,3.14,3.82,5.71,7.32,6.67l280.37,77.17c5.86,1.61,11.92-1.82,13.53-7.69l51.61-187.48c.96-3.5.09-7.06-1.99-9.71Z"/>
            <path class="cls-19" d="M353.9,85.43c.82,2.12,1.02,4.5.37,6.86l-51.61,187.48c-1.61,5.86-7.68,9.3-13.54,7.69L8.77,210.29c-2.36-.65-4.3-2.04-5.71-3.82,1.22,3.14,3.82,5.71,7.32,6.67l280.37,77.17c5.86,1.61,11.92-1.82,13.53-7.69l51.61-187.48c.96-3.5.09-7.06-1.99-9.71Z"/>
            <path class="cls-24" d="M354.23,86.01c.82,2.12,1.02,4.5.37,6.86l-51.61,187.48c-1.61,5.86-7.68,9.3-13.54,7.69L9.09,210.87c-2.36-.65-4.3-2.04-5.71-3.82,1.22,3.14,3.82,5.71,7.32,6.67l280.37,77.17c5.86,1.61,11.92-1.83,13.53-7.69l51.61-187.48c.96-3.5.09-7.06-1.99-9.71Z"/>
            <path class="cls-3" d="M354.55,86.58c.82,2.12,1.02,4.5.37,6.86l-51.61,187.48c-1.61,5.86-7.68,9.3-13.54,7.69L9.42,211.44c-2.36-.65-4.3-2.04-5.71-3.82,1.22,3.14,3.82,5.71,7.32,6.67l280.37,77.17c5.86,1.61,11.92-1.83,13.53-7.69l51.61-187.48c.96-3.5.09-7.06-1.99-9.71Z"/>
            <path class="cls-14" d="M354.88,87.16c.82,2.12,1.02,4.5.37,6.86l-51.61,187.48c-1.61,5.86-7.68,9.3-13.54,7.69L9.75,212.02c-2.36-.65-4.3-2.04-5.71-3.82,1.22,3.14,3.82,5.71,7.32,6.67l280.37,77.17c5.86,1.61,11.92-1.83,13.53-7.69l51.61-187.48c.96-3.5.09-7.06-1.99-9.71Z"/>
            <path class="cls-22" d="M355.21,87.74c.82,2.12,1.02,4.5.37,6.86l-51.61,187.48c-1.61,5.86-7.68,9.3-13.54,7.69L10.08,212.6c-2.36-.65-4.3-2.04-5.71-3.82,1.22,3.14,3.82,5.71,7.32,6.67l280.37,77.17c5.86,1.61,11.92-1.83,13.53-7.69l51.61-187.48c.96-3.5.09-7.06-1.99-9.71Z"/>
            <path class="cls-4" d="M355.54,88.31c.82,2.12,1.02,4.5.37,6.86l-51.61,187.48c-1.61,5.86-7.68,9.3-13.54,7.69L10.4,213.17c-2.36-.65-4.3-2.04-5.71-3.82,1.22,3.14,3.82,5.71,7.32,6.67l280.37,77.17c5.86,1.61,11.92-1.83,13.53-7.69l51.61-187.48c.96-3.5.09-7.06-1.99-9.71Z"/>
            <path class="cls-20" d="M355.86,88.89c.82,2.12,1.02,4.5.37,6.86l-51.61,187.48c-1.61,5.86-7.68,9.3-13.54,7.69L10.73,213.75c-2.36-.65-4.3-2.04-5.71-3.82,1.22,3.14,3.82,5.71,7.32,6.67l280.37,77.17c5.86,1.61,11.92-1.83,13.53-7.69l51.61-187.48c.96-3.5.09-7.06-1.99-9.71Z"/>
            <path class="cls-1" d="M356.19,89.47c.82,2.12,1.02,4.5.37,6.86l-51.61,187.48c-1.61,5.86-7.68,9.3-13.54,7.69L11.06,214.33c-2.36-.65-4.3-2.04-5.71-3.82,1.22,3.14,3.82,5.71,7.32,6.67l280.37,77.17c5.86,1.61,11.92-1.83,13.53-7.69l51.61-187.48c.96-3.5.09-7.06-1.99-9.71Z"/>
            <path class="cls-21" d="M356.52,90.04c.82,2.12,1.02,4.5.37,6.86l-51.61,187.48c-1.61,5.86-7.68,9.3-13.54,7.69L11.38,214.9c-2.36-.65-4.3-2.04-5.71-3.82,1.22,3.14,3.82,5.71,7.32,6.67l280.37,77.17c5.86,1.61,11.92-1.83,13.53-7.69l51.61-187.48c.96-3.5.09-7.06-1.99-9.71Z"/>
            <path class="cls-11" d="M356.85,90.62c.82,2.12,1.02,4.5.37,6.86l-51.61,187.48c-1.61,5.86-7.68,9.3-13.54,7.69L11.71,215.48c-2.36-.65-4.3-2.04-5.71-3.82,1.22,3.14,3.82,5.71,7.32,6.67l280.37,77.17c5.86,1.61,11.92-1.83,13.53-7.69l51.61-187.48c.96-3.5.09-7.06-1.99-9.71Z"/>
            <path class="cls-27" d="M357.17,91.19c.82,2.12,1.02,4.5.37,6.86l-51.61,187.48c-1.61,5.86-7.68,9.3-13.54,7.69L12.04,216.05c-2.36-.65-4.3-2.04-5.71-3.82,1.22,3.14,3.82,5.71,7.32,6.67l280.37,77.17c5.86,1.61,11.92-1.83,13.53-7.69l51.61-187.48c.96-3.5.09-7.06-1.99-9.71Z"/>
            <path class="cls-23" d="M357.5,91.77c.82,2.13,1.02,4.5.37,6.86l-51.61,187.48c-1.61,5.86-7.68,9.3-13.54,7.69L12.37,216.63c-2.36-.65-4.3-2.04-5.71-3.82,1.22,3.14,3.82,5.71,7.32,6.67l280.37,77.17c5.86,1.61,11.92-1.83,13.53-7.69l51.61-187.48c.96-3.5.09-7.05-1.99-9.71Z"/>
            <path class="cls-25" d="M357.83,92.35c.82,2.13,1.02,4.5.37,6.86l-51.61,187.48c-1.61,5.86-7.68,9.3-13.54,7.69L12.69,217.21c-2.36-.65-4.3-2.04-5.71-3.82,1.22,3.14,3.82,5.71,7.32,6.67l280.37,77.17c5.86,1.61,11.92-1.83,13.53-7.69l51.61-187.48c.96-3.5.09-7.05-1.99-9.71Z"/>
            <path class="cls-6" d="M358.16,92.92c.82,2.13,1.02,4.5.37,6.86l-51.61,187.48c-1.61,5.86-7.68,9.3-13.54,7.69L13.02,217.78c-2.36-.65-4.3-2.04-5.71-3.82,1.22,3.14,3.82,5.71,7.32,6.67l280.37,77.17c5.86,1.61,11.92-1.83,13.54-7.69l51.61-187.48c.96-3.5.09-7.05-1.99-9.71Z"/>
            <path class="cls-10" d="M358.48,93.5c.82,2.13,1.02,4.5.37,6.86l-51.61,187.48c-1.61,5.86-7.68,9.3-13.54,7.69L13.35,218.36c-2.36-.65-4.3-2.04-5.71-3.82,1.22,3.14,3.82,5.71,7.32,6.67l280.37,77.17c5.86,1.61,11.92-1.83,13.54-7.69l51.61-187.48c.96-3.5.09-7.05-1.99-9.71Z"/>
            <path class="cls-16" d="M358.81,94.08c.82,2.13,1.02,4.5.37,6.86l-51.61,187.48c-1.61,5.86-7.68,9.3-13.54,7.69L13.68,218.94c-2.36-.65-4.3-2.04-5.71-3.82,1.22,3.14,3.82,5.71,7.32,6.67l280.37,77.17c5.86,1.61,11.92-1.83,13.54-7.69l51.61-187.48c.96-3.5.09-7.05-1.99-9.71Z"/>
            <path class="cls-26" d="M359.14,94.65c.82,2.13,1.02,4.5.37,6.86l-51.61,187.48c-1.61,5.86-7.68,9.3-13.53,7.69L14,219.51c-2.36-.65-4.3-2.04-5.71-3.82,1.22,3.14,3.82,5.71,7.32,6.67l280.37,77.17c5.86,1.61,11.92-1.83,13.54-7.69l51.61-187.48c.96-3.5.09-7.05-1.99-9.71Z"/>
            <path class="cls-9" d="M359.47,95.23c.82,2.13,1.02,4.5.37,6.86l-51.61,187.48c-1.61,5.86-7.68,9.3-13.53,7.69L14.33,220.09c-2.36-.65-4.3-2.04-5.71-3.82,1.22,3.14,3.82,5.71,7.32,6.67l280.37,77.17c5.86,1.61,11.92-1.83,13.54-7.69l51.61-187.48c.96-3.5.09-7.05-1.99-9.71Z"/>
            <path class="cls-2" d="M359.79,95.8c.82,2.13,1.02,4.5.37,6.86l-51.61,187.48c-1.61,5.86-7.68,9.3-13.53,7.69L14.66,220.66c-2.36-.65-4.3-2.04-5.71-3.82,1.22,3.14,3.82,5.71,7.32,6.67l280.37,77.17c5.86,1.61,11.92-1.83,13.54-7.69l51.61-187.48c.96-3.5.09-7.05-1.99-9.71Z"/>
            <path class="cls-5" d="M360.12,96.38c.82,2.13,1.02,4.5.37,6.86l-51.61,187.48c-1.61,5.86-7.68,9.3-13.53,7.69L14.98,221.24c-2.36-.65-4.3-2.04-5.71-3.82,1.22,3.14,3.82,5.71,7.32,6.67l280.37,77.17c5.86,1.61,11.92-1.83,13.54-7.69l51.61-187.48c.96-3.5.09-7.05-1.99-9.71Z"/>
          </g>
          <path class="cls-36" d="M288.46,286.28L8.09,209.1c-5.86-1.61-9.31-7.67-7.69-13.53L52,8.09c1.61-5.86,7.67-9.31,13.54-7.69l280.37,77.17c5.86,1.61,9.3,7.67,7.69,13.53l-51.61,187.48c-1.61,5.87-7.68,9.3-13.53,7.69Z"/>
          <path class="cls-31" d="M79.77-8.34h194.45c3.47,0,6.29,2.82,6.29,6.29v290.79c0,3.47-2.82,6.29-6.29,6.29H79.77c-3.47,0-6.29-2.82-6.29-6.29V-2.05c0-3.47,2.82-6.29,6.29-6.29Z" transform="translate(-8.18 275.95) rotate(-74.61)"/>
          <path class="cls-32" d="M32.45,207.11c-1.68-.46-2.66-2.19-2.2-3.87L81.02,18.79c.46-1.67,2.19-2.65,3.87-2.19l114.9,31.63-52.44,190.51-114.9-31.63Z"/>
          <g>
            <path class="cls-28" d="M30.25,203.24L81.02,18.79c.46-1.67,2.19-2.65,3.87-2.19l-1.52-.42c-1.67-.46-3.4.53-3.86,2.19L28.74,202.82c-.46,1.68.52,3.41,2.19,3.87l1.52.42c-1.68-.46-2.66-2.19-2.2-3.87Z"/>
            <path class="cls-32" d="M28.74,202.82L79.51,18.38c.46-1.67,2.19-2.65,3.86-2.19l-1.51-.42c-1.68-.46-3.41.52-3.87,2.19L27.22,202.41c-.46,1.68.52,3.41,2.2,3.87l1.51.42c-1.67-.46-2.65-2.19-2.19-3.87Z"/>
            <path class="cls-28" d="M27.22,202.41L77.99,17.96c.46-1.67,2.19-2.66,3.87-2.19l-1.52-.42c-1.67-.46-3.41.52-3.87,2.19L25.7,201.99c-.46,1.68.53,3.41,2.2,3.87l1.52.42c-1.68-.46-2.66-2.19-2.2-3.87Z"/>
            <path class="cls-32" d="M25.7,201.99L76.47,17.54c.46-1.67,2.2-2.65,3.87-2.19l-1.52-.42c-1.68-.46-3.4.53-3.86,2.19L24.19,201.57c-.46,1.68.52,3.41,2.19,3.87l1.52.42c-1.67-.46-2.66-2.19-2.2-3.87Z"/>
            <path class="cls-28" d="M24.19,201.57L74.96,17.13c.46-1.67,2.19-2.66,3.86-2.19l-1.52-.42c-1.67-.46-3.41.52-3.87,2.19L22.67,201.15c-.46,1.68.53,3.41,2.2,3.87l1.52.42c-1.68-.46-2.65-2.19-2.19-3.87Z"/>
            <path class="cls-32" d="M22.67,201.15L73.44,16.71c.46-1.67,2.2-2.65,3.87-2.19l-1.51-.42c-1.68-.46-3.41.52-3.87,2.19L21.15,200.74c-.46,1.68.53,3.41,2.2,3.87l1.51.42c-1.67-.46-2.66-2.19-2.2-3.87Z"/>
            <path class="cls-28" d="M21.15,200.74L71.93,16.29c.46-1.67,2.2-2.65,3.87-2.19l-1.52-.42c-1.67-.46-3.4.53-3.86,2.19L19.64,200.32c-.46,1.68.52,3.41,2.19,3.87l1.52.42c-1.68-.46-2.67-2.19-2.2-3.87Z"/>
          </g>
          <g>
            <path class="cls-28" d="M272.41,269.9l50.77-184.45c.46-1.67-.52-3.4-2.19-3.86l1.52.42c1.67.46,2.66,2.19,2.2,3.86l-50.77,184.45c-.46,1.68-2.19,2.66-3.87,2.2l-1.52-.42c1.68.46,3.4-.52,3.86-2.2Z"/>
            <path class="cls-32" d="M273.93,270.32l50.77-184.45c.46-1.67-.53-3.4-2.2-3.86l1.51.42c1.68.46,2.67,2.19,2.21,3.86l-50.77,184.45c-.46,1.68-2.19,2.66-3.87,2.2l-1.51-.42c1.67.46,3.4-.52,3.87-2.2Z"/>
            <path class="cls-28" d="M275.44,270.73l50.77-184.45c.46-1.67-.53-3.4-2.21-3.86l1.52.42c1.67.46,2.66,2.19,2.19,3.86l-50.77,184.45c-.46,1.68-2.19,2.66-3.86,2.2l-1.52-.42c1.68.46,3.41-.52,3.87-2.2Z"/>
            <path class="cls-32" d="M276.96,271.15l50.77-184.45c.46-1.67-.52-3.4-2.19-3.86l1.52.42c1.68.46,2.65,2.19,2.19,3.86l-50.77,184.45c-.46,1.68-2.19,2.66-3.86,2.2l-1.52-.42c1.67.46,3.4-.52,3.86-2.2Z"/>
            <path class="cls-28" d="M278.47,271.57l50.77-184.45c.46-1.67-.52-3.4-2.19-3.86l1.51.42c1.67.46,2.66,2.19,2.2,3.86l-50.77,184.45c-.46,1.68-2.2,2.66-3.87,2.2l-1.51-.42c1.68.46,3.4-.52,3.86-2.2Z"/>
            <path class="cls-32" d="M279.99,271.99l50.77-184.45c.46-1.67-.53-3.4-2.2-3.86l1.52.42c1.68.46,2.66,2.19,2.2,3.86l-50.77,184.45c-.46,1.68-2.19,2.66-3.87,2.2l-1.52-.42c1.67.46,3.41-.52,3.87-2.2Z"/>
            <path class="cls-28" d="M281.51,272.4l50.77-184.45c.46-1.67-.53-3.4-2.2-3.86l1.52.42c1.67.46,2.66,2.19,2.2,3.86l-50.77,184.45c-.46,1.68-2.19,2.66-3.87,2.2l-1.52-.42c1.68.46,3.41-.52,3.87-2.2Z"/>
          </g>
          <path class="cls-32" d="M268.54,272.1c1.68.46,3.4-.52,3.86-2.2l50.77-184.45c.46-1.67-.52-3.4-2.19-3.86l-114.91-31.63-52.44,190.51,114.91,31.63Z"/>
          <g>
            <rect class="cls-28" x="131.84" y=".94" width=".32" height="90.94" transform="translate(52.21 161.36) rotate(-74.61)"/>
            <rect class="cls-28" x="128.67" y="12.46" width=".31" height="90.94" transform="translate(38.78 166.76) rotate(-74.61)"/>
            <rect class="cls-28" x="125.5" y="23.98" width=".32" height="90.94" transform="translate(25.35 172.17) rotate(-74.61)"/>
            <rect class="cls-28" x="122.33" y="35.49" width=".32" height="90.94" transform="translate(11.92 177.57) rotate(-74.61)"/>
            <rect class="cls-28" x="119.16" y="47.01" width=".32" height="90.94" transform="translate(-1.51 182.97) rotate(-74.61)"/>
            <rect class="cls-28" x="115.99" y="58.53" width=".32" height="90.94" transform="translate(-14.95 188.38) rotate(-74.61)"/>
            <rect class="cls-28" x="112.82" y="70.04" width=".32" height="90.94" transform="translate(-28.38 193.78) rotate(-74.61)"/>
            <rect class="cls-28" x="109.65" y="81.56" width=".31" height="90.94" transform="translate(-41.81 199.18) rotate(-74.61)"/>
            <rect class="cls-28" x="106.48" y="93.07" width=".31" height="90.94" transform="translate(-55.24 204.59) rotate(-74.61)"/>
            <rect class="cls-28" x="103.31" y="104.59" width=".32" height="90.94" transform="translate(-68.67 209.99) rotate(-74.61)"/>
            <rect class="cls-28" x="100.14" y="116.1" width=".32" height="90.94" transform="translate(-82.1 215.4) rotate(-74.61)"/>
            <rect class="cls-28" x="96.97" y="127.62" width=".31" height="90.94" transform="translate(-95.53 220.8) rotate(-74.61)"/>
            <rect class="cls-28" x="93.8" y="139.14" width=".32" height="90.94" transform="translate(-108.97 226.2) rotate(-74.61)"/>
            <rect class="cls-28" x="90.63" y="150.65" width=".31" height="90.94" transform="translate(-122.4 231.6) rotate(-74.61)"/>
          </g>
          <g>
            <rect class="cls-28" x="265.09" y="37.63" width=".32" height="90.93" transform="translate(114.74 316.78) rotate(-74.61)"/>
            <rect class="cls-28" x="261.93" y="49.15" width=".31" height="90.93" transform="translate(101.31 322.19) rotate(-74.61)"/>
            <rect class="cls-28" x="258.75" y="60.67" width=".32" height="90.93" transform="translate(87.87 327.59) rotate(-74.61)"/>
            <rect class="cls-28" x="255.58" y="72.18" width=".32" height="90.93" transform="translate(74.44 333) rotate(-74.61)"/>
            <rect class="cls-28" x="252.41" y="83.69" width=".32" height="90.93" transform="translate(61.01 338.4) rotate(-74.61)"/>
            <rect class="cls-28" x="249.24" y="95.21" width=".32" height="90.93" transform="translate(47.58 343.8) rotate(-74.61)"/>
            <rect class="cls-28" x="246.07" y="106.73" width=".32" height="90.93" transform="translate(34.15 349.21) rotate(-74.61)"/>
            <rect class="cls-28" x="242.91" y="118.24" width=".31" height="90.93" transform="translate(20.72 354.61) rotate(-74.61)"/>
            <rect class="cls-28" x="239.74" y="129.76" width=".31" height="90.93" transform="translate(7.28 360.01) rotate(-74.61)"/>
            <rect class="cls-28" x="236.56" y="141.27" width=".32" height="90.93" transform="translate(-6.14 365.42) rotate(-74.61)"/>
            <rect class="cls-28" x="233.4" y="152.79" width=".31" height="90.93" transform="translate(-19.58 370.82) rotate(-74.61)"/>
            <rect class="cls-28" x="230.23" y="164.31" width=".31" height="90.93" transform="translate(-33.01 376.22) rotate(-74.61)"/>
            <rect class="cls-28" x="227.05" y="175.82" width=".32" height="90.93" transform="translate(-46.44 381.63) rotate(-74.61)"/>
            <rect class="cls-28" x="223.89" y="187.34" width=".31" height="90.93" transform="translate(-59.87 387.03) rotate(-74.61)"/>
          </g>
          <g>
            <g>
              <path class="cls-31" d="M188.41,68.07c-.68,2.46-3.22,3.91-5.68,3.23-2.46-.68-3.91-3.22-3.23-5.68s3.23-3.9,5.68-3.23c2.46.68,3.91,3.22,3.23,5.68Z"/>
              <path class="cls-31" d="M214.62,75.29c-.68,2.46-3.22,3.91-5.68,3.23s-3.9-3.22-3.22-5.68c.68-2.46,3.22-3.9,5.67-3.23,2.46.68,3.9,3.22,3.23,5.68Z"/>
              <path class="cls-33" d="M210.74,71.98l-26.21-7.22c-1.15-.32-2.34.36-2.66,1.51s.36,2.34,1.51,2.66l26.21,7.22c1.16.32,2.34-.36,2.66-1.51s-.36-2.34-1.51-2.66Z"/>
              <path class="cls-38" d="M210.53,72.74l-26.21-7.22c-.73-.2-1.49.23-1.69.96l28.87,7.95c.2-.73-.23-1.49-.96-1.69Z"/>
              <path class="cls-38" d="M182.01,67.77c.26.55.74.99,1.37,1.16l26.21,7.22c.63.17,1.27.04,1.77-.3l-29.35-8.08Z"/>
            </g>
            <g>
              <path class="cls-31" d="M180.38,97.22c-.68,2.46-3.22,3.91-5.68,3.23-2.46-.68-3.91-3.22-3.23-5.68.67-2.45,3.22-3.9,5.68-3.22,2.46.68,3.91,3.22,3.23,5.68Z"/>
              <path class="cls-31" d="M206.59,104.44c-.68,2.46-3.22,3.91-5.68,3.23-2.46-.68-3.9-3.22-3.22-5.68.67-2.45,3.22-3.9,5.67-3.22,2.46.68,3.9,3.22,3.23,5.67Z"/>
              <path class="cls-33" d="M202.71,101.13l-26.21-7.22c-1.15-.32-2.34.36-2.66,1.51s.36,2.34,1.51,2.66l26.21,7.22c1.16.32,2.34-.36,2.66-1.51s-.36-2.34-1.51-2.66Z"/>
              <path class="cls-38" d="M202.5,101.89l-26.21-7.22c-.73-.2-1.49.23-1.69.96l28.87,7.95c.2-.72-.23-1.48-.96-1.69Z"/>
              <path class="cls-38" d="M173.98,96.93c.26.54.74.98,1.37,1.15l26.21,7.22c.63.17,1.27.04,1.77-.29l-29.35-8.08Z"/>
            </g>
            <g>
              <path class="cls-31" d="M172.36,126.38c-.68,2.46-3.22,3.9-5.68,3.23-2.46-.68-3.91-3.22-3.23-5.68.68-2.46,3.23-3.9,5.68-3.23s3.91,3.22,3.23,5.68Z"/>
              <path class="cls-31" d="M198.57,133.6c-.68,2.46-3.22,3.9-5.68,3.23s-3.9-3.22-3.22-5.68,3.22-3.9,5.67-3.23c2.46.68,3.9,3.22,3.23,5.68Z"/>
              <path class="cls-33" d="M194.69,130.29l-26.21-7.22c-1.15-.32-2.34.36-2.66,1.51-.32,1.15.36,2.34,1.51,2.66l26.21,7.22c1.16.32,2.34-.36,2.66-1.51s-.36-2.34-1.51-2.66Z"/>
              <path class="cls-38" d="M194.48,131.04l-26.21-7.22c-.73-.2-1.49.23-1.7.96l28.87,7.95c.2-.73-.22-1.49-.96-1.69Z"/>
              <path class="cls-38" d="M165.96,126.08c.26.54.74.99,1.37,1.16l26.21,7.22c.63.17,1.27.04,1.77-.3l-29.35-8.08Z"/>
            </g>
            <g>
              <path class="cls-31" d="M148.28,213.84c-.68,2.46-3.22,3.9-5.68,3.22-2.46-.68-3.91-3.22-3.23-5.68.68-2.46,3.23-3.91,5.68-3.23,2.46.68,3.91,3.22,3.23,5.69Z"/>
              <path class="cls-31" d="M174.49,221.06c-.68,2.46-3.22,3.9-5.68,3.22-2.46-.68-3.9-3.22-3.22-5.67s3.22-3.91,5.68-3.24c2.46.68,3.9,3.22,3.23,5.69Z"/>
              <path class="cls-33" d="M170.61,217.74l-26.21-7.22c-1.15-.32-2.34.36-2.66,1.51s.36,2.34,1.51,2.65l26.21,7.22c1.16.32,2.34-.36,2.66-1.51s-.35-2.34-1.51-2.66Z"/>
              <path class="cls-38" d="M170.4,218.5l-26.21-7.22c-.73-.2-1.49.23-1.7.96l28.87,7.95c.2-.74-.22-1.49-.96-1.69Z"/>
              <path class="cls-38" d="M141.88,213.54c.26.55.74.98,1.37,1.16l26.21,7.22c.63.17,1.27.04,1.77-.29l-29.35-8.08Z"/>
            </g>
            <g>
              <path class="cls-31" d="M164.33,155.54c-.68,2.46-3.22,3.91-5.68,3.23-2.46-.68-3.91-3.22-3.23-5.68.68-2.46,3.23-3.91,5.68-3.23s3.91,3.22,3.23,5.68Z"/>
              <path class="cls-31" d="M190.54,162.75c-.68,2.46-3.22,3.91-5.68,3.23s-3.9-3.22-3.22-5.68,3.22-3.91,5.68-3.23c2.46.68,3.9,3.22,3.23,5.68Z"/>
              <path class="cls-33" d="M186.66,159.44l-26.21-7.22c-1.15-.32-2.34.36-2.66,1.51s.36,2.34,1.51,2.66l26.21,7.22c1.16.32,2.34-.36,2.66-1.51s-.36-2.34-1.51-2.66Z"/>
              <path class="cls-38" d="M186.45,160.2l-26.21-7.22c-.73-.2-1.49.23-1.69.96l28.87,7.95c.2-.73-.23-1.49-.96-1.69Z"/>
              <path class="cls-38" d="M157.93,155.24c.26.55.74.98,1.37,1.16l26.21,7.22c.63.17,1.27.04,1.77-.29l-29.35-8.08Z"/>
            </g>
            <g>
              <path class="cls-31" d="M156.31,184.69c-.68,2.46-3.22,3.9-5.68,3.23-2.46-.68-3.91-3.22-3.23-5.68s3.23-3.91,5.68-3.23c2.46.68,3.91,3.22,3.23,5.68Z"/>
              <path class="cls-31" d="M182.52,191.9c-.68,2.46-3.22,3.9-5.68,3.23-2.46-.68-3.9-3.22-3.22-5.68.68-2.46,3.22-3.91,5.68-3.23,2.46.68,3.9,3.22,3.23,5.68Z"/>
              <path class="cls-33" d="M178.64,188.59l-26.21-7.22c-1.15-.32-2.34.36-2.66,1.51s.36,2.34,1.51,2.66l26.21,7.22c1.16.32,2.34-.36,2.66-1.51s-.35-2.34-1.51-2.66Z"/>
              <path class="cls-38" d="M178.43,189.35l-26.21-7.22c-.73-.2-1.49.23-1.69.96l28.87,7.95c.2-.73-.23-1.49-.96-1.69Z"/>
              <path class="cls-38" d="M149.91,184.39c.26.55.74.99,1.37,1.16l26.21,7.22c.63.17,1.27.04,1.77-.3l-29.35-8.08Z"/>
            </g>
          </g>
          <path class="cls-39" d="M232.65,48c-4.76-1.31-9.68,1.49-10.99,6.25l6.45,1.77c.33-1.2,1.57-1.91,2.77-1.58,1.2.33,1.9,1.57,1.57,2.78l-49.07,178.26,3.87-1.49,2.57,3.26,49.07-178.26c1.31-4.76-1.49-9.68-6.24-10.99Z"/>
          <g>
            <path class="cls-39" d="M54.41,50.83c-.84-.23-1.33-1.1-1.1-1.93l7.79-28.32c.23-.84,1.1-1.33,1.94-1.1l5.94,1.63-8.63,31.34-5.94-1.63Z"/>
            <path class="cls-29" d="M45.78,82.17c-.84-.23-1.33-1.1-1.1-1.93l7.79-28.31c.23-.84,1.1-1.33,1.94-1.1l5.94,1.63-8.63,31.34-5.94-1.63Z"/>
            <path class="cls-37" d="M37.15,113.51c-.84-.23-1.33-1.1-1.1-1.93l7.79-28.31c.23-.83,1.1-1.33,1.94-1.1l5.94,1.63-8.63,31.34-5.94-1.63Z"/>
            <path class="cls-30" d="M28.52,144.86c-.84-.23-1.33-1.1-1.1-1.93l7.79-28.31c.23-.84,1.1-1.33,1.94-1.1l5.94,1.63-8.63,31.34-5.94-1.63Z"/>
            <path class="cls-35" d="M19.9,176.2c-.84-.23-1.33-1.1-1.1-1.93l7.79-28.31c.23-.84,1.1-1.33,1.94-1.1l5.94,1.63-8.63,31.34-5.94-1.63Z"/>
          </g>
          <g>
            <path class="cls-39" d="M303.78,220.63c.83.23,1.33,1.1,1.1,1.94l-7.79,28.31c-.23.84-1.1,1.33-1.94,1.1l-5.94-1.63,8.63-31.34,5.94,1.63Z"/>
            <path class="cls-29" d="M312.4,189.28c.83.23,1.33,1.1,1.1,1.94l-7.79,28.31c-.23.83-1.1,1.33-1.94,1.1l-5.94-1.63,8.63-31.34,5.94,1.63Z"/>
            <path class="cls-37" d="M321.03,157.94c.83.23,1.33,1.1,1.1,1.93l-7.79,28.31c-.23.84-1.1,1.33-1.94,1.1l-5.94-1.63,8.63-31.34,5.94,1.63Z"/>
            <path class="cls-30" d="M329.66,126.59c.83.23,1.33,1.1,1.1,1.94l-7.79,28.31c-.23.84-1.1,1.33-1.94,1.1l-5.94-1.63,8.63-31.34,5.94,1.63Z"/>
            <path class="cls-35" d="M338.29,95.25c.83.23,1.33,1.1,1.1,1.93l-7.79,28.32c-.23.83-1.1,1.32-1.94,1.09l-5.94-1.63,8.63-31.34,5.94,1.63Z"/>
          </g>
        </g>
        <g>
          <path d="M95.57,29.39c.16-.66.35-1.46.53-2.04h-.02c-.32.49-.69,1.02-1.11,1.59l-1.49,2.02-.46-.13-.1-2.45c-.03-.72-.04-1.38,0-1.97h-.01c-.19.57-.45,1.35-.7,2.03l-.71,1.97-.58-.17,1.7-4.58.77.23.13,2.49c.02.63.03,1.19,0,1.71h.02c.26-.43.57-.89.96-1.42l1.5-2.01.77.23-1.09,4.76-.59-.17.49-2.09Z"/>
          <path d="M100.97,27.86l-1.19,4.05c-.09.3-.18.64-.23.87l-.55-.16.14-.59h-.01c-.3.32-.79.48-1.34.32-.81-.24-1.23-1.11-.93-2.13.32-1.12,1.22-1.6,2.04-1.36.51.15.79.5.86.81h.01s.59-2,.59-2l.61.18ZM99.5,30.61c.02-.08.05-.18.05-.26.02-.41-.21-.83-.67-.97-.63-.19-1.17.26-1.39,1-.2.68-.03,1.34.63,1.53.41.12.86-.04,1.11-.46.04-.08.08-.16.1-.25l.17-.58Z"/>
          <path d="M101.2,30.82c.13-.43.22-.78.3-1.1l.55.16-.14.58h.01c.37-.33.84-.46,1.38-.3.81.24,1.22,1.11.92,2.12-.36,1.21-1.27,1.59-2.06,1.35-.44-.13-.77-.44-.88-.83h-.01s-.54,1.82-.54,1.82l-.6-.18,1.07-3.63ZM101.54,31.89c-.03.09-.04.18-.05.26-.01.46.27.85.7.98.64.19,1.17-.23,1.4-1,.2-.67.01-1.35-.63-1.54-.42-.12-.89.06-1.14.48-.04.07-.09.15-.12.24l-.17.58Z"/>
          <path d="M106.63,31.83c.08-.26.3-.38.54-.31s.35.3.28.56c-.07.24-.29.38-.54.31-.24-.07-.35-.31-.28-.55ZM105.91,34.28c.08-.26.3-.39.54-.31s.35.3.28.56c-.07.24-.29.38-.54.31-.24-.07-.35-.31-.28-.55Z"/>
          <path d="M89.78,36.77l-1.38,4.67-.6-.18,1.38-4.67.6.18Z"/>
          <path d="M89.23,41.3l2.1-1.53c.2-.14.38-.26.59-.39h0s-1.82-.55-1.82-.55l.15-.49,2.56.75-.12.38-2.07,1.51c-.19.15-.38.27-.59.4h0s1.96.59,1.96.59l-.14.49-2.72-.8.1-.35Z"/>
          <path d="M96.77,38.56l-1.19,4.05c-.09.3-.18.64-.23.87l-.55-.16.14-.59h-.01c-.3.32-.79.48-1.34.32-.81-.24-1.23-1.11-.93-2.13.32-1.12,1.22-1.6,2.04-1.36.51.15.79.5.86.81h.01s.59-2,.59-2l.61.18ZM95.3,41.31c.02-.08.05-.18.05-.26.02-.41-.21-.83-.67-.97-.63-.19-1.17.26-1.39,1-.2.68-.03,1.34.63,1.53.41.12.86-.04,1.11-.46.04-.08.08-.16.1-.25l.17-.58Z"/>
          <path d="M98.76,44.36c-.18.04-.57.04-1.02-.09-1.01-.3-1.47-1.18-1.17-2.2s1.23-1.57,2.33-1.25c.36.11.65.29.79.42l-.28.43c-.12-.13-.33-.27-.66-.37-.77-.23-1.35.22-1.56.92-.23.78.13,1.4.79,1.6.35.1.6.08.8.05l-.03.49Z"/>
          <path d="M101.84,44.83h-.01c-.28.28-.73.43-1.27.27-.78-.23-1.22-1.1-.92-2.12.37-1.25,1.34-1.57,2.05-1.36.52.15.79.51.86.89h.01s.17-.5.17-.5l.58.17c-.1.28-.19.57-.29.92l-1.12,3.81-.61-.18.56-1.89ZM102.28,43.36c.02-.08.05-.18.05-.26.02-.4-.21-.82-.67-.95-.63-.19-1.17.24-1.39.99-.2.67-.05,1.34.62,1.54.4.12.81-.03,1.07-.41.05-.08.11-.19.13-.28l.19-.63Z"/>
          <path d="M103.27,45.82c.08-.22.19-.56.28-.86l1.19-4.05.6.18-.62,2.11h.01c.33-.31.78-.44,1.33-.28.83.25,1.22,1.11.91,2.13-.35,1.2-1.28,1.57-2.03,1.35-.48-.14-.82-.44-.94-.96h-.02s-.19.54-.19.54l-.53-.16ZM104.3,44.66c-.02.08-.03.16-.04.23,0,.46.26.85.7.98.64.19,1.17-.22,1.4-.99.2-.67.02-1.35-.63-1.54-.42-.12-.89.05-1.15.47-.03.07-.08.14-.11.24l-.18.6Z"/>
          <path d="M108.38,45.35h.01c.12-.09.28-.2.41-.29l1.32-.87.74.22-1.7,1,.89,2.41-.74-.22-.68-1.95-.41.25-.37,1.26-.6-.18,1.45-4.92.6.18-.92,3.11Z"/>
          <path d="M113.6,47.87c-.1.35-.19.65-.24.92l-.54-.16.13-.56h-.01c-.24.22-.7.47-1.29.29-.53-.16-1.07-.63-.72-1.81l.58-1.96.61.18-.55,1.86c-.19.64-.12,1.12.43,1.29.41.12.78-.08.97-.32.06-.08.11-.18.15-.3l.61-2.06.61.18-.72,2.44Z"/>
          <path d="M118.69,45.02l-1.19,4.05c-.09.3-.18.64-.23.87l-.55-.16.14-.59h-.01c-.3.32-.79.48-1.34.32-.81-.24-1.23-1.11-.93-2.13.32-1.12,1.22-1.6,2.04-1.36.51.15.79.5.86.81h.01s.59-2,.59-2l.61.18ZM117.22,47.77c.02-.08.05-.18.05-.26.02-.41-.21-.83-.67-.97-.63-.19-1.17.26-1.39,1-.2.68-.03,1.34.63,1.53.41.12.86-.04,1.11-.46.04-.08.08-.16.1-.25l.17-.58Z"/>
          <path d="M118.35,49.59c.15.17.43.39.73.48.44.13.72-.03.8-.31.09-.29-.04-.5-.44-.8-.54-.39-.73-.81-.61-1.21.16-.54.73-.86,1.45-.64.34.1.61.29.76.45l-.28.4c-.11-.12-.32-.3-.63-.4-.36-.11-.62.04-.7.29-.08.28.08.46.47.76.52.39.73.77.58,1.27-.17.59-.75.87-1.55.64-.37-.11-.68-.3-.88-.51l.29-.42Z"/>
          <path d="M123.43,51.62c-.18.04-.57.04-1.02-.09-1.01-.3-1.47-1.18-1.17-2.2s1.23-1.57,2.33-1.25c.36.11.65.29.79.42l-.28.43c-.12-.13-.33-.27-.66-.37-.77-.23-1.35.22-1.56.92-.23.78.13,1.4.79,1.6.35.1.6.08.8.05l-.03.49Z"/>
          <path d="M124.86,50.48c-.23.83.2,1.32.81,1.5.44.13.72.13.98.1l-.02.47c-.24.03-.64.04-1.18-.12-1.03-.3-1.45-1.17-1.15-2.18s1.13-1.63,2.11-1.35c1.1.32,1.1,1.37.92,1.99-.04.12-.08.22-.1.28l-2.36-.69ZM126.78,50.57c.12-.39.13-1.04-.55-1.24-.62-.18-1.05.31-1.23.72l1.78.53Z"/>
          <path d="M127.6,52.99l.85-2.89-.47-.14.14-.46.47.14.05-.16c.14-.47.37-.87.73-1.06.29-.15.63-.15.91-.07.21.06.39.17.49.25l-.22.45c-.08-.07-.19-.14-.37-.19-.52-.15-.79.27-.94.78l-.05.18.81.24-.14.46-.81-.24-.85,2.89-.6-.18Z"/>
          <path d="M129.28,53.1l2.1-1.53c.2-.14.38-.26.59-.39h0s-1.82-.55-1.82-.55l.15-.49,2.56.75-.12.38-2.07,1.51c-.19.15-.38.27-.59.4h0s1.96.59,1.96.59l-.14.49-2.72-.8.1-.35Z"/>
          <path d="M136.2,51.18l-1.72-.51-.51,1.11c.11.02.21.03.38.08.35.1.67.28.9.53.29.3.47.78.3,1.35-.26.88-1.15,1.33-2.13,1.04-.49-.14-.87-.41-1.04-.61l.29-.42c.15.17.48.41.89.53.58.17,1.18-.06,1.36-.66.16-.58-.1-1.11-1-1.38-.26-.08-.47-.11-.64-.14l.93-2.08,2.16.64-.15.51Z"/>
          <path d="M139.75,52.23l-1.72-.51-.51,1.11c.11.02.21.03.38.08.35.1.67.28.9.53.29.3.47.78.3,1.35-.26.88-1.15,1.33-2.13,1.04-.49-.14-.87-.41-1.04-.61l.29-.42c.15.17.48.41.89.53.58.17,1.18-.06,1.36-.66.16-.58-.1-1.11-1-1.38-.26-.08-.47-.11-.64-.14l.93-2.08,2.16.64-.15.51Z"/>
          <path d="M143.21,53.16c-.12-.04-.28-.08-.47-.11-1-.12-1.72.43-2.04,1.14h.02c.3-.21.74-.34,1.24-.19.8.24,1.19.98.93,1.86-.24.82-1.03,1.42-1.96,1.15s-1.37-1.22-1.03-2.39c.26-.89.79-1.49,1.36-1.81.48-.26,1.05-.34,1.64-.24.19.03.34.06.45.1l-.15.5ZM142.28,55.71c.19-.64-.06-1.14-.62-1.31-.37-.11-.77.02-1.04.3-.06.06-.12.14-.15.25-.2.75-.03,1.39.61,1.58.53.16,1.01-.18,1.2-.82Z"/>
          <path d="M143,57.53l.11-.37.61-.32c1.47-.76,2.16-1.19,2.37-1.86.13-.46.04-.95-.64-1.14-.41-.12-.81-.01-1.07.1l-.07-.49c.39-.17.89-.24,1.41-.08.97.29,1.18,1.07.99,1.72-.25.83-1.05,1.33-2.27,1.96l-.46.23h0s2.02.61,2.02.61l-.15.51-2.88-.85Z"/>
          <path d="M150.42,55.38l-1.72-.51-.51,1.11c.11.02.21.03.38.08.35.1.67.28.9.53.29.3.47.78.3,1.35-.26.88-1.15,1.33-2.13,1.04-.49-.14-.87-.41-1.04-.61l.29-.42c.15.17.48.41.89.53.58.17,1.18-.06,1.36-.66.16-.58-.1-1.11-1-1.38-.26-.08-.47-.11-.64-.14l.93-2.08,2.16.64-.15.51Z"/>
          <path d="M153.88,56.31c-.12-.04-.28-.08-.47-.11-1-.12-1.72.43-2.04,1.14h.02c.3-.21.74-.34,1.24-.19.8.23,1.19.98.93,1.86-.24.82-1.03,1.42-1.96,1.15s-1.37-1.22-1.03-2.39c.26-.89.79-1.49,1.36-1.81.48-.26,1.05-.34,1.64-.24.19.03.34.06.45.1l-.15.5ZM152.94,58.85c.19-.64-.06-1.14-.62-1.31-.37-.11-.77.02-1.04.3-.06.06-.12.14-.15.25-.2.75-.03,1.39.61,1.58.53.16,1.01-.18,1.2-.82Z"/>
          <path d="M154.02,60.01c.14.16.49.45.91.58.78.23,1.17-.2,1.28-.57.18-.63-.31-1.07-.9-1.24l-.34-.1.13-.46.34.1c.44.13,1.07.07,1.23-.47.11-.36-.03-.75-.59-.91-.36-.11-.75-.05-.99.03l-.03-.49c.29-.1.8-.14,1.28,0,.89.26,1.13.91.97,1.45-.14.46-.53.78-1.14.82h0c.52.29.85.84.66,1.47-.21.72-.96,1.19-2.04.87-.51-.15-.9-.44-1.08-.65l.31-.42Z"/>
          <path d="M160.22,63.17l-.1.35-3.47-1.02.1-.35,3.47,1.02Z"/>
          <path d="M163.69,64.19l-.1.35-3.47-1.02.1-.35,3.47,1.02Z"/>
          <path d="M164.33,63.43c.07-.25.3-.38.54-.31.25.07.36.3.28.55s-.29.38-.54.31-.35-.31-.28-.55ZM164.8,62.49l.88-3.36.67.2-1.08,3.3-.47-.14Z"/>
          <path d="M85.53,48.87l.61.18-.62,2.09h.01c.15-.14.35-.25.56-.3.21-.05.45-.06.68.01.45.13,1.09.62.75,1.78l-.59,2-.61-.18.57-1.93c.16-.54.09-1.06-.48-1.23-.4-.12-.79.07-1,.37-.06.07-.09.16-.13.28l-.6,2.02-.61-.18,1.45-4.92Z"/>
          <path d="M89.38,50l.61.18-.62,2.09h.01c.15-.14.35-.25.56-.3.21-.05.45-.06.67.01.45.13,1.09.62.75,1.78l-.59,2-.61-.18.57-1.93c.16-.54.09-1.06-.48-1.23-.4-.12-.79.07-1,.37-.06.07-.09.16-.13.28l-.6,2.02-.61-.18,1.45-4.92Z"/>
          <path d="M93.23,51.14l.61.18-1.45,4.92-.61-.18,1.45-4.92Z"/>
          <path d="M95.27,57.09l.08-.44h-.02c-.26.2-.69.33-1.17.19-.68-.2-.89-.78-.74-1.27.24-.81,1.09-1.04,2.39-.65l.02-.07c.08-.28.15-.8-.53-1-.31-.09-.67-.09-.95,0l-.02-.44c.33-.1.77-.1,1.19.03,1.03.3,1.07,1.08.87,1.75l-.37,1.25c-.09.29-.16.58-.18.82l-.55-.16ZM95.68,55.35c-.66-.21-1.45-.31-1.64.34-.12.4.09.66.4.75.44.13.8-.07.98-.32.04-.06.07-.12.09-.18l.17-.58Z"/>
          <path d="M100.63,55.02c-.09.24-.18.5-.3.91l-.57,1.95c-.23.77-.52,1.2-.93,1.39-.42.21-.92.17-1.34.04s-.82-.35-1.03-.61l.29-.42c.18.2.49.43.91.55.62.18,1.18,0,1.43-.85l.11-.37h-.01c-.28.25-.71.4-1.23.24-.83-.25-1.22-1.13-.95-2.06.33-1.14,1.27-1.56,2.04-1.34.58.17.81.57.88.89h.01s.18-.49.18-.49l.53.16ZM99.61,56.16c.03-.1.05-.2.05-.29,0-.39-.22-.76-.66-.9-.58-.17-1.14.2-1.37.97-.19.66-.02,1.3.64,1.5.37.11.78-.03,1.03-.37.07-.09.11-.21.14-.31l.18-.6Z"/>
          <path d="M101.85,55.38l.1,2.08c.02.34.03.64.02.94h.02c.16-.25.34-.5.54-.77l1.21-1.69.64.19-2.31,2.97-.58-.17-.29-3.73.65.19Z"/>
          <path d="M104.02,58.99c.15.17.43.39.73.48.44.13.72-.03.8-.31.09-.29-.04-.5-.44-.8-.54-.39-.73-.81-.61-1.21.16-.54.73-.86,1.45-.64.34.1.61.29.76.45l-.28.4c-.11-.12-.32-.3-.63-.4-.36-.11-.62.04-.7.29-.08.28.08.46.47.76.52.39.73.77.58,1.27-.17.59-.75.87-1.55.64-.37-.11-.68-.3-.88-.51l.29-.42Z"/>
          <path d="M106.64,60.44c.08-.22.19-.56.28-.86l1.19-4.05.6.18-.62,2.11h.01c.33-.31.78-.44,1.33-.28.83.25,1.22,1.11.91,2.13-.35,1.2-1.28,1.57-2.03,1.35-.48-.14-.82-.44-.94-.96h-.02s-.19.54-.19.54l-.53-.16ZM107.66,59.28c-.02.08-.03.16-.04.23,0,.46.26.85.7.98.64.19,1.17-.22,1.4-.99.2-.67.02-1.35-.63-1.54-.42-.12-.89.05-1.15.47-.03.07-.08.14-.11.24l-.18.6Z"/>
          <path d="M110.58,61.6c.08-.22.19-.56.28-.86l1.19-4.05.6.18-.62,2.11h.01c.33-.31.78-.44,1.33-.28.83.25,1.22,1.11.91,2.13-.35,1.2-1.28,1.57-2.03,1.35-.49-.14-.82-.44-.94-.96h-.02s-.19.54-.19.54l-.53-.16ZM111.61,60.44c-.02.08-.03.16-.04.23,0,.46.26.85.7.98.64.19,1.17-.22,1.4-.99.2-.67.02-1.35-.63-1.54-.42-.12-.89.05-1.15.47-.03.07-.08.14-.11.24l-.18.6Z"/>
          <path d="M115.27,60.32c.1-.35.18-.63.24-.92l.54.16-.13.56h.01c.26-.27.74-.46,1.3-.3.46.14,1.1.63.76,1.78l-.59,2-.61-.18.57-1.93c.16-.54.09-1.05-.48-1.22-.4-.12-.8.07-1,.38-.05.07-.1.17-.13.27l-.59,2.02-.61-.18.72-2.45Z"/>
          <path d="M120.26,64.45l.08-.44h-.02c-.26.2-.69.33-1.17.19-.68-.2-.89-.78-.74-1.27.24-.81,1.09-1.04,2.39-.65l.02-.07c.08-.28.15-.8-.53-1-.31-.09-.67-.09-.95,0l-.02-.44c.33-.1.77-.1,1.19.03,1.03.3,1.07,1.08.87,1.75l-.37,1.25c-.09.29-.16.58-.18.82l-.55-.16ZM120.67,62.71c-.66-.21-1.45-.31-1.64.34-.12.4.09.66.4.75.44.13.8-.07.98-.32.04-.06.07-.12.09-.18l.17-.58Z"/>
          <path d="M121.46,64.42l2.1-1.53c.2-.14.38-.26.59-.39h0s-1.82-.55-1.82-.55l.14-.49,2.56.75-.12.38-2.07,1.51c-.19.15-.38.27-.59.4h0s1.96.59,1.96.59l-.14.49-2.72-.8.1-.35Z"/>
          <path d="M125.46,64.28c-.23.83.2,1.32.81,1.5.44.13.72.13.98.1l-.02.47c-.24.03-.64.04-1.18-.12-1.03-.3-1.45-1.17-1.15-2.18s1.13-1.63,2.11-1.35c1.1.32,1.1,1.37.92,1.99-.04.12-.08.22-.1.28l-2.36-.69ZM127.38,64.37c.12-.39.13-1.04-.55-1.24-.62-.18-1.05.31-1.23.72l1.78.52Z"/>
          <path d="M131.21,66.69c-.1.35-.19.65-.24.92l-.54-.16.13-.56h-.01c-.24.22-.7.47-1.29.29-.53-.16-1.07-.63-.72-1.81l.58-1.96.61.18-.55,1.86c-.19.64-.12,1.12.43,1.29.41.12.78-.08.97-.32.06-.08.11-.18.15-.3l.61-2.06.61.18-.72,2.44Z"/>
          <path d="M136.3,63.83l-1.19,4.05c-.09.3-.18.64-.23.87l-.55-.16.14-.59h-.01c-.3.31-.79.48-1.34.32-.81-.24-1.23-1.11-.93-2.13.32-1.12,1.22-1.6,2.04-1.36.51.15.79.5.86.81h.01s.59-2,.59-2l.61.18ZM134.82,66.58c.02-.08.05-.18.05-.26.02-.42-.21-.83-.67-.97-.63-.19-1.17.26-1.39,1-.2.68-.03,1.34.63,1.53.41.12.86-.04,1.11-.46.04-.08.08-.16.1-.25l.17-.58Z"/>
          <path d="M135.66,68.99l.11-.37.61-.32c1.47-.76,2.16-1.19,2.37-1.86.13-.46.04-.95-.63-1.14-.41-.12-.81-.01-1.07.1l-.07-.49c.39-.17.89-.24,1.41-.08.97.29,1.18,1.07.99,1.72-.25.83-1.05,1.33-2.27,1.96l-.46.23h0s2.02.61,2.02.61l-.15.51-2.88-.85Z"/>
          <path d="M143.09,66.84l-1.72-.51-.51,1.11c.11.02.21.03.38.08.35.1.67.28.9.53.29.3.47.78.3,1.35-.26.88-1.15,1.33-2.13,1.04-.49-.15-.87-.41-1.04-.61l.29-.42c.15.17.48.41.89.53.58.17,1.18-.06,1.36-.66.16-.58-.1-1.11-1-1.38-.26-.08-.47-.11-.64-.14l.93-2.08,2.16.64-.15.51Z"/>
          <path d="M146.55,67.77c-.12-.04-.28-.08-.47-.11-1-.12-1.72.43-2.04,1.14h.02c.3-.21.74-.34,1.24-.19.8.24,1.19.98.93,1.86-.24.82-1.03,1.42-1.96,1.15s-1.37-1.22-1.03-2.39c.26-.89.79-1.49,1.36-1.81.48-.26,1.05-.34,1.64-.24.19.03.34.06.45.1l-.15.5ZM145.61,70.32c.19-.64-.06-1.14-.62-1.31-.37-.11-.77.02-1.04.3-.06.06-.12.14-.15.25-.2.75-.03,1.39.61,1.58.53.16,1.01-.18,1.2-.82Z"/>
          <path d="M148.22,72.69l.36-1.23-2.09-.62.12-.4,2.86-2.28.66.19-.83,2.8.63.19-.14.48-.63-.19-.36,1.23-.58-.17ZM148.72,70.99l.44-1.5c.07-.24.15-.47.23-.7h-.02c-.22.22-.38.38-.57.55l-1.55,1.21h0s1.48.45,1.48.45Z"/>
          <path d="M153.16,73.15c-.1.35-.19.65-.24.92l-.54-.16.13-.56h-.01c-.24.22-.7.47-1.29.29-.53-.16-1.07-.63-.72-1.81l.58-1.96.61.18-.55,1.86c-.19.64-.12,1.12.43,1.29.41.12.78-.08.97-.32.06-.08.11-.18.15-.3l.61-2.06.61.18-.72,2.44Z"/>
          <path d="M155.11,71.08l.15,2.2c.01.24.02.53.01.75h.01c.12-.18.27-.42.42-.63l1.25-1.77.64.19-1.62,2.12c-.78,1.02-1.25,1.52-1.77,1.76-.38.18-.7.19-.87.17v-.56c.17,0,.4-.04.62-.14.21-.08.48-.26.71-.53.05-.05.08-.1.09-.13s.01-.09,0-.17l-.33-3.46.67.2Z"/>
          <path d="M158.62,70.41l.61.18-.62,2.09h.01c.15-.14.35-.25.56-.3.21-.05.45-.06.68.01.45.13,1.09.62.75,1.78l-.59,2-.61-.18.57-1.93c.16-.54.09-1.06-.48-1.23-.4-.12-.79.07-1,.37-.06.07-.09.16-.13.28l-.6,2.02-.61-.18,1.45-4.92Z"/>
          <path d="M164.89,73.96c-.09.24-.18.5-.3.91l-.57,1.95c-.23.77-.52,1.2-.93,1.39-.42.21-.92.17-1.34.04s-.82-.35-1.03-.61l.29-.42c.18.2.49.43.91.55.62.18,1.18,0,1.43-.85l.11-.37h-.01c-.28.25-.71.4-1.23.24-.83-.25-1.22-1.13-.95-2.06.33-1.14,1.27-1.56,2.04-1.34.58.17.81.57.88.89h.01s.18-.49.18-.49l.53.16ZM163.87,75.1c.03-.1.05-.2.05-.29,0-.39-.22-.76-.66-.9-.58-.17-1.14.2-1.37.97-.19.66-.02,1.3.64,1.5.37.11.78-.03,1.03-.37.07-.09.11-.21.14-.31l.18-.6Z"/>
          <path d="M164.86,77.6c.08-.22.19-.56.28-.86l1.19-4.05.6.18-.62,2.11h.01c.33-.31.78-.44,1.33-.28.83.25,1.22,1.11.91,2.13-.35,1.2-1.28,1.57-2.03,1.35-.48-.14-.82-.44-.94-.96h-.02s-.19.54-.19.54l-.53-.16ZM165.89,76.44c-.02.08-.03.16-.04.23,0,.46.26.85.7.98.64.19,1.17-.22,1.4-.99.2-.67.02-1.35-.63-1.54-.42-.12-.89.05-1.15.47-.03.07-.08.14-.11.24l-.18.6Z"/>
          <path d="M168.89,78.79l.85-2.89-.47-.14.14-.46.47.14.05-.16c.14-.47.37-.87.73-1.06.29-.15.63-.15.91-.07.21.06.39.17.49.25l-.22.45c-.08-.07-.19-.14-.37-.19-.52-.15-.79.27-.94.78l-.05.18.81.24-.14.46-.81-.24-.85,2.89-.6-.18Z"/>
          <path d="M80.19,65.6l2.1-1.53c.2-.14.38-.26.59-.39h0s-1.82-.55-1.82-.55l.14-.49,2.56.75-.12.38-2.07,1.51c-.19.15-.38.27-.59.4h0s1.96.59,1.96.59l-.14.49-2.72-.8.1-.35Z"/>
          <path d="M84.88,62.02l.61.18-.62,2.09h.01c.15-.14.35-.25.56-.3.21-.05.45-.06.67.01.45.13,1.09.62.75,1.78l-.59,2-.61-.18.57-1.93c.16-.54.09-1.06-.48-1.23-.4-.12-.79.07-1,.37-.06.07-.09.16-.13.28l-.6,2.02-.61-.18,1.45-4.92Z"/>
          <path d="M87.34,68.09l.85-2.89-.47-.14.14-.46.47.14.05-.16c.14-.47.37-.87.73-1.06.29-.15.63-.15.91-.07.21.06.39.17.49.25l-.22.45c-.08-.07-.19-.14-.37-.19-.52-.15-.79.27-.94.78l-.05.18.81.24-.14.46-.81-.24-.85,2.89-.6-.18Z"/>
          <path d="M90.01,67.18c-.23.83.2,1.32.81,1.5.44.13.72.13.98.1l-.02.47c-.24.03-.64.04-1.18-.12-1.03-.3-1.45-1.17-1.15-2.18s1.13-1.63,2.11-1.35c1.1.32,1.1,1.37.92,1.99-.04.12-.08.22-.1.28l-2.36-.69ZM91.93,67.27c.12-.39.13-1.04-.55-1.24-.62-.18-1.05.31-1.23.72l1.78.52Z"/>
          <path d="M94.63,65.57c-.05.21-.26.33-.5.26-.21-.06-.32-.27-.26-.48s.27-.33.49-.27.32.28.26.49ZM92.68,69.67l.99-3.35.61.18-.99,3.35-.61-.18Z"/>
          <path d="M96.16,70.69l.08-.44h-.02c-.26.2-.69.33-1.17.19-.68-.2-.89-.78-.74-1.27.24-.81,1.09-1.04,2.39-.65l.02-.07c.08-.28.15-.8-.53-1-.31-.09-.67-.09-.95,0l-.02-.44c.33-.1.77-.1,1.19.03,1.03.3,1.07,1.08.87,1.75l-.37,1.25c-.09.29-.16.58-.18.82l-.55-.16ZM96.58,68.95c-.66-.21-1.45-.31-1.64.34-.12.4.09.66.4.75.44.13.8-.07.98-.32.04-.06.07-.12.09-.18l.17-.58Z"/>
          <path d="M99.1,66.21l.61.18-1.45,4.92-.61-.18,1.45-4.92Z"/>
          <path d="M100.42,69.97h.01c.12-.09.28-.2.41-.29l1.32-.87.74.22-1.7,1,.89,2.41-.74-.22-.68-1.95-.41.25-.37,1.26-.6-.18,1.45-4.92.6.18-.92,3.11Z"/>
          <path d="M102.6,72.59l.85-2.89-.47-.14.14-.46.47.14.05-.16c.14-.47.37-.87.73-1.06.29-.15.63-.15.91-.07.21.06.39.17.49.25l-.22.45c-.08-.07-.19-.14-.37-.19-.52-.15-.79.27-.94.78l-.05.18.81.24-.14.46-.81-.24-.85,2.89-.6-.18Z"/>
          <path d="M106.9,73.72c-.18.04-.57.04-1.02-.09-1.01-.3-1.47-1.18-1.17-2.2s1.23-1.57,2.33-1.25c.36.11.65.29.8.42l-.28.43c-.12-.13-.33-.27-.66-.37-.77-.23-1.35.22-1.56.92-.23.78.13,1.4.79,1.6.35.1.6.08.8.05l-.03.49Z"/>
          <path d="M107.38,74l.11-.37.61-.32c1.47-.76,2.16-1.19,2.37-1.86.13-.46.04-.95-.64-1.14-.41-.12-.81-.01-1.07.1l-.07-.49c.39-.17.89-.24,1.41-.08.97.29,1.18,1.07.99,1.72-.25.83-1.05,1.33-2.27,1.96l-.46.23h0s2.02.61,2.02.61l-.15.51-2.88-.85Z"/>
          <path d="M111.29,74.39c.14.16.49.45.91.58.78.23,1.17-.2,1.28-.57.18-.63-.31-1.07-.9-1.24l-.34-.1.13-.46.34.1c.44.13,1.07.07,1.23-.47.11-.36-.03-.75-.59-.91-.36-.11-.75-.05-.99.03l-.03-.49c.29-.1.8-.14,1.28,0,.89.26,1.13.91.97,1.45-.14.46-.53.78-1.14.82h0c.52.29.85.84.66,1.47-.21.72-.96,1.19-2.04.87-.51-.15-.9-.44-1.08-.65l.31-.42Z"/>
          <path d="M117.79,72.16l-.91.67h0s1.09.18,1.09.18l-.14.47-1.01-.43h0s.42,1.04.42,1.04l-.51.12-.13-1.09h-.01s-.74.84-.74.84l-.32-.37.91-.65h0s-1.06-.18-1.06-.18l.14-.47.98.43h0s-.4-1.05-.4-1.05l.49-.12.15,1.09h.01s.71-.84.71-.84l.35.36Z"/>
          <path d="M79.12,77.49l.08-.44h-.02c-.26.2-.69.33-1.17.19-.68-.2-.89-.78-.74-1.27.24-.81,1.09-1.04,2.39-.65l.02-.07c.08-.28.15-.8-.53-1-.31-.09-.67-.09-.95,0l-.02-.44c.33-.1.77-.1,1.19.03,1.03.3,1.07,1.08.87,1.75l-.37,1.25c-.09.29-.16.58-.18.82l-.55-.16ZM79.53,75.75c-.66-.21-1.45-.31-1.64.34-.12.4.09.66.4.75.44.13.8-.07.98-.32.04-.06.07-.12.09-.18l.17-.58Z"/>
          <path d="M81.4,76.46c-.23.83.2,1.32.81,1.5.44.13.72.13.98.1l-.02.47c-.24.03-.64.04-1.18-.12-1.03-.3-1.45-1.17-1.15-2.18s1.13-1.63,2.11-1.35c1.1.32,1.1,1.37.92,1.99-.04.12-.08.22-.1.28l-2.36-.69ZM83.32,76.55c.12-.39.13-1.04-.55-1.24-.62-.18-1.05.31-1.23.72l1.78.53Z"/>
          <path d="M84.13,78.97l.85-2.89-.47-.14.14-.46.47.14.05-.16c.14-.47.37-.87.73-1.06.29-.15.63-.15.91-.07.21.06.39.17.49.25l-.22.45c-.08-.07-.19-.14-.37-.19-.52-.15-.79.27-.94.78l-.05.18.81.24-.14.46-.81-.24-.85,2.89-.6-.18Z"/>
          <path d="M86.07,79.54c.08-.22.19-.56.28-.86l1.19-4.05.6.18-.62,2.11h.01c.33-.31.78-.44,1.33-.28.83.25,1.22,1.11.91,2.13-.35,1.2-1.28,1.57-2.03,1.35-.48-.14-.82-.44-.94-.96h-.02s-.19.54-.19.54l-.53-.16ZM87.09,78.38c-.02.08-.03.16-.04.23,0,.46.26.85.7.98.64.19,1.17-.22,1.4-.99.2-.67.02-1.35-.63-1.54-.42-.12-.89.05-1.15.47-.03.07-.08.14-.11.24l-.18.6Z"/>
          <path d="M88.93,81.44c.28.06.55.06.74-.06.22-.15.36-.39.6-1.19l.83-2.81.61.18-.9,3.04c-.19.65-.42,1.04-.81,1.26-.35.19-.83.17-1.15.07l.08-.5ZM92.06,76.64c-.05.2-.25.33-.49.26-.23-.07-.32-.28-.26-.48.06-.21.27-.33.5-.27s.32.27.26.49Z"/>
          <path d="M91.82,80.56c.15.17.43.39.73.48.44.13.72-.03.8-.31.09-.29-.04-.5-.44-.8-.54-.39-.73-.81-.61-1.21.16-.54.73-.86,1.45-.64.34.1.61.29.76.45l-.28.4c-.11-.12-.32-.3-.63-.4-.36-.11-.62.04-.7.29-.08.28.08.46.47.76.52.39.73.77.58,1.27-.17.59-.75.87-1.55.64-.37-.11-.68-.3-.88-.51l.29-.42Z"/>
          <path d="M96.91,82.17h-.01c-.28.28-.73.43-1.27.27-.78-.23-1.22-1.1-.92-2.12.37-1.25,1.34-1.57,2.05-1.36.52.15.79.51.86.89h.01s.17-.5.17-.5l.58.17c-.1.28-.19.57-.29.92l-1.12,3.81-.61-.18.56-1.89ZM97.34,80.7c.02-.08.05-.18.05-.26.02-.4-.21-.82-.67-.95-.63-.19-1.17.24-1.39.99-.2.67-.05,1.34.62,1.54.4.12.81-.03,1.07-.41.05-.08.11-.19.13-.28l.19-.63Z"/>
          <path d="M99.51,81.53h.01c.12-.09.28-.2.41-.29l1.32-.87.74.22-1.7,1,.89,2.41-.74-.22-.68-1.95-.41.25-.37,1.26-.6-.18,1.45-4.92.6.18-.92,3.11Z"/>
          <path d="M101.05,84.88c.27-.36.68-1.05.9-1.53l.69.13c-.34.54-.87,1.22-1.16,1.49l-.44-.08ZM102.43,81.32c.08-.26.3-.39.54-.32.25.07.36.3.28.56s-.29.38-.54.31-.35-.31-.28-.55Z"/>
          <path d="M106.23,80.58l-.91.67h0s1.09.18,1.09.18l-.14.47-1.01-.43h0s.42,1.04.42,1.04l-.51.12-.13-1.09h-.01s-.74.84-.74.84l-.32-.37.91-.65h0s-1.06-.18-1.06-.18l.14-.47.98.43h0s-.4-1.05-.4-1.05l.49-.12.15,1.09h.01s.71-.84.71-.84l.35.36Z"/>
          <path d="M109.11,81.43l-.91.67h0s1.09.18,1.09.18l-.14.47-1.01-.43h0s.42,1.04.42,1.04l-.51.12-.13-1.09h-.01s-.74.84-.74.84l-.32-.37.91-.65h0s-1.06-.18-1.06-.18l.14-.47.98.43h0s-.4-1.05-.4-1.05l.49-.12.15,1.09h.01s.71-.84.71-.84l.35.36Z"/>
          <path d="M111.99,85.76l-.37-3.03h-.01s-1.95,2.34-1.95,2.34l-.49-.14,2.38-2.77.43.13.49,3.62-.49-.14Z"/>
          <path d="M72.99,88.43c.28.06.55.06.74-.06.22-.15.36-.39.6-1.19l.83-2.81.61.18-.9,3.04c-.19.65-.42,1.04-.81,1.26-.35.19-.83.17-1.15.08l.08-.5ZM76.11,83.62c-.05.2-.25.33-.49.26-.23-.07-.32-.28-.26-.48.06-.21.27-.33.5-.27s.32.27.26.49Z"/>
          <path d="M76.57,86.73c-.23.83.2,1.32.81,1.5.44.13.72.13.98.1l-.02.47c-.24.03-.64.04-1.18-.12-1.03-.3-1.45-1.17-1.15-2.18s1.13-1.63,2.11-1.35c1.1.32,1.1,1.37.92,1.99-.04.12-.08.22-.1.28l-2.36-.69ZM78.49,86.82c.12-.39.13-1.04-.55-1.24-.62-.18-1.05.31-1.23.72l1.78.53Z"/>
          <path d="M79.35,88.57c.15.17.43.39.73.48.44.13.72-.03.8-.31.09-.29-.04-.5-.44-.8-.54-.39-.73-.81-.61-1.21.16-.54.73-.86,1.45-.64.34.1.61.29.76.45l-.28.4c-.11-.12-.32-.3-.63-.4-.36-.11-.62.04-.7.29-.08.28.08.46.47.76.52.39.73.77.58,1.27-.17.59-.75.87-1.55.64-.37-.11-.68-.3-.88-.51l.29-.42Z"/>
          <path d="M84.43,90.18h-.01c-.28.28-.73.43-1.27.27-.78-.23-1.22-1.1-.92-2.12.37-1.25,1.34-1.57,2.05-1.36.52.15.79.51.86.89h.01s.17-.5.17-.5l.58.17c-.1.28-.19.57-.29.92l-1.12,3.81-.61-.18.56-1.89ZM84.87,88.7c.02-.08.05-.18.05-.26.02-.4-.21-.82-.67-.95-.63-.19-1.17.24-1.39.99-.2.67-.05,1.34.62,1.54.4.12.81-.03,1.07-.41.05-.08.11-.19.13-.28l.19-.63Z"/>
          <path d="M85.25,91.91c.27-.36.68-1.05.9-1.53l.69.13c-.34.54-.87,1.22-1.16,1.49l-.44-.08ZM86.63,88.35c.08-.26.3-.39.54-.32.25.07.36.3.28.56s-.29.38-.54.31-.35-.31-.28-.55Z"/>
          <path d="M89.76,92.18c-.18.04-.57.04-1.02-.09-1.01-.3-1.47-1.18-1.17-2.2s1.23-1.57,2.33-1.25c.36.11.65.29.79.42l-.28.43c-.12-.13-.33-.27-.66-.37-.77-.23-1.35.22-1.56.92-.23.78.13,1.4.79,1.6.35.1.6.08.8.05l-.03.49Z"/>
          <path d="M91.15,90.07c.1-.35.18-.63.24-.92l.54.16-.13.56h.01c.26-.27.74-.46,1.29-.3.46.14,1.1.63.76,1.78l-.59,2-.61-.18.57-1.93c.16-.54.09-1.05-.48-1.22-.4-.12-.8.07-1,.38-.05.07-.09.17-.13.27l-.59,2.02-.61-.18.72-2.45Z"/>
          <path d="M96.71,94.23c-.18.04-.57.04-1.02-.09-1.01-.3-1.47-1.18-1.17-2.2s1.23-1.57,2.33-1.25c.36.11.65.29.79.42l-.28.43c-.12-.13-.33-.27-.66-.37-.77-.23-1.35.22-1.56.92-.23.78.13,1.4.79,1.6.35.1.6.08.8.05l-.03.49Z"/>
          <path d="M98.84,89.64l.61.18-1.45,4.92-.61-.18,1.45-4.92Z"/>
          <path d="M100.88,95.59l.08-.44h-.02c-.26.2-.69.33-1.17.19-.68-.2-.89-.78-.74-1.27.24-.81,1.09-1.04,2.39-.65l.02-.07c.08-.28.15-.8-.53-1-.31-.09-.67-.09-.95,0l-.02-.44c.33-.1.77-.1,1.19.03,1.03.3,1.07,1.08.87,1.75l-.37,1.25c-.09.29-.16.58-.18.82l-.55-.16ZM101.29,93.85c-.66-.21-1.45-.31-1.64.34-.12.4.09.66.4.75.44.13.8-.07.98-.32.04-.06.07-.12.09-.18l.17-.58Z"/>
          <path d="M103.16,94.56c-.23.83.2,1.32.81,1.5.44.13.72.13.98.1l-.02.47c-.24.03-.64.04-1.18-.12-1.03-.3-1.45-1.17-1.15-2.18s1.13-1.63,2.11-1.35c1.1.32,1.1,1.37.92,1.99-.04.12-.08.22-.1.28l-2.36-.69ZM105.08,94.65c.12-.39.13-1.04-.55-1.24-.62-.18-1.05.31-1.23.72l1.78.52Z"/>
          <path d="M105.9,97.07l.85-2.89-.47-.14.14-.46.47.14.05-.16c.14-.47.37-.87.73-1.06.29-.15.63-.15.91-.07.21.06.39.17.49.25l-.22.45c-.08-.07-.19-.14-.37-.19-.52-.15-.79.27-.94.78l-.05.18.81.24-.14.46-.81-.24-.85,2.89-.6-.18Z"/>
          <path d="M110.94,97.56c-.1.35-.19.65-.24.92l-.54-.16.13-.56h-.01c-.24.22-.7.47-1.29.29-.53-.16-1.07-.63-.72-1.81l.58-1.96.61.18-.55,1.86c-.19.64-.12,1.12.43,1.29.41.12.78-.08.97-.32.06-.08.11-.18.15-.3l.61-2.06.61.18-.72,2.44ZM110.41,93.18l.32,1.17-.44-.13-.55-1.24.67.2Z"/>
          <path d="M113.54,99.32l.08-.44h-.02c-.26.2-.69.33-1.17.19-.68-.2-.89-.78-.74-1.27.24-.81,1.09-1.04,2.39-.65l.02-.07c.08-.28.15-.8-.53-1-.31-.09-.67-.09-.95,0l-.02-.44c.33-.1.77-.1,1.19.03,1.03.3,1.07,1.08.87,1.75l-.37,1.25c-.09.29-.16.58-.18.82l-.55-.16ZM113.95,97.58c-.66-.21-1.45-.31-1.64.34-.12.4.09.66.4.75.44.13.8-.07.98-.32.04-.06.07-.12.09-.18l.17-.58Z"/>
          <path d="M114.99,99.75c.08-.22.19-.56.28-.86l1.19-4.05.6.18-.62,2.11h.01c.33-.31.78-.44,1.33-.28.83.25,1.22,1.11.91,2.13-.35,1.2-1.28,1.57-2.03,1.35-.48-.14-.82-.44-.94-.96h-.02s-.19.54-.19.54l-.53-.16ZM116.02,98.59c-.02.08-.03.16-.04.23,0,.46.26.85.7.98.64.19,1.17-.22,1.4-.99.2-.67.02-1.35-.63-1.54-.42-.12-.89.05-1.15.47-.03.07-.08.14-.11.24l-.18.6Z"/>
          <path d="M120.41,96l.61.18-.62,2.09h.01c.15-.14.35-.25.56-.3.21-.05.45-.06.67.01.45.13,1.09.62.75,1.78l-.59,2-.61-.18.57-1.93c.16-.54.09-1.06-.48-1.23-.4-.12-.79.07-1,.37-.06.07-.09.16-.13.28l-.6,2.02-.61-.18,1.45-4.92Z"/>
          <path d="M127.16,97.99l-1.19,4.05c-.09.3-.18.64-.23.87l-.55-.16.14-.59h-.01c-.3.32-.79.48-1.34.32-.81-.24-1.23-1.11-.93-2.13.32-1.12,1.22-1.6,2.04-1.36.51.15.79.5.86.81h.01s.59-2,.59-2l.61.18ZM125.68,100.74c.02-.08.05-.18.05-.26.02-.41-.21-.83-.67-.97-.63-.19-1.17.26-1.39,1-.2.68-.03,1.34.63,1.53.41.12.86-.04,1.11-.46.04-.08.08-.16.1-.25l.17-.58Z"/>
          <path d="M128.58,103.75l.08-.44h-.02c-.26.2-.69.33-1.17.19-.68-.2-.89-.78-.74-1.27.24-.81,1.09-1.04,2.39-.65l.02-.07c.08-.28.15-.8-.53-1-.31-.09-.67-.09-.95,0l-.02-.44c.33-.1.77-.1,1.19.03,1.03.3,1.07,1.08.87,1.75l-.37,1.25c-.09.29-.16.58-.18.82l-.55-.16ZM128.99,102.02c-.66-.21-1.45-.31-1.64.34-.12.4.09.66.4.75.44.13.8-.07.98-.32.04-.06.07-.12.09-.18l.17-.58Z"/>
          <path d="M130.22,103.48c.14.16.49.45.91.58.78.23,1.17-.2,1.28-.57.18-.63-.31-1.07-.9-1.24l-.34-.1.13-.46.34.1c.44.13,1.07.07,1.23-.47.11-.36-.03-.75-.59-.91-.36-.11-.75-.05-.99.03l-.03-.49c.29-.1.8-.14,1.28,0,.89.26,1.13.91.97,1.45-.14.46-.53.78-1.14.82h0c.52.29.85.84.66,1.47-.21.72-.96,1.19-2.04.87-.51-.15-.9-.44-1.08-.65l.31-.42Z"/>
          <path d="M133.42,105.18l.11-.37.61-.32c1.47-.76,2.16-1.19,2.37-1.86.13-.46.04-.95-.63-1.14-.41-.12-.81-.01-1.07.1l-.07-.49c.39-.17.89-.24,1.41-.08.97.29,1.18,1.07.99,1.72-.25.83-1.05,1.33-2.27,1.96l-.46.23h0s2.02.61,2.02.61l-.15.51-2.88-.85Z"/>
          <path d="M137.46,105.9c.13.05.28.08.5.12.37.06.74,0,1.07-.16.38-.18.71-.51.95-1.02h-.02c-.34.23-.75.3-1.2.17-.81-.24-1.15-1-.92-1.77.25-.85,1.09-1.42,2.01-1.15s1.27,1.19.93,2.34c-.29.99-.83,1.59-1.4,1.89-.45.24-.99.3-1.49.22-.23-.03-.43-.08-.57-.13l.15-.5ZM138.44,103.38c-.17.56.06,1.06.58,1.21.41.12.79.01,1.03-.21.05-.05.09-.11.12-.21.23-.77.12-1.44-.52-1.63-.52-.15-1.02.2-1.21.83Z"/>
          <path d="M144.79,103.63l-.12.4-3.17,3.53-.63-.19,3.13-3.41h0s-2.2-.66-2.2-.66l.15-.51,2.84.84Z"/>
          <path d="M144.37,107.17c.17-.57.63-.87,1.25-.94v-.02c-.43-.38-.53-.83-.42-1.22.21-.71.96-1.02,1.75-.79.87.26,1.15.93.98,1.5-.11.38-.42.74-1.05.84v.02c.49.39.72.88.56,1.43-.23.78-1.06,1.11-1.92.86-.94-.28-1.35-1.01-1.15-1.67ZM146.8,107.85c.16-.55-.14-.92-.7-1.28-.57,0-.96.26-1.08.69-.16.45.07.96.65,1.12s1-.07,1.14-.54ZM145.79,105.11c-.13.45.14.79.61,1.09.43-.02.81-.21.93-.62.11-.36,0-.8-.55-.96-.51-.15-.88.1-1,.49Z"/>
          <path d="M148.13,109.05c.13.05.28.08.5.12.37.06.74,0,1.07-.16.38-.18.71-.51.95-1.02h-.02c-.34.23-.75.3-1.2.17-.81-.24-1.15-1-.92-1.77.25-.85,1.09-1.42,2.01-1.15s1.27,1.19.93,2.34c-.29.99-.83,1.59-1.4,1.89-.45.24-.99.3-1.49.22-.23-.03-.43-.08-.57-.13l.15-.5ZM149.11,106.52c-.17.56.06,1.06.58,1.21.41.12.79.01,1.03-.21.05-.05.09-.11.12-.21.23-.77.12-1.44-.52-1.63-.52-.15-1.02.2-1.21.83Z"/>
          <path d="M151.48,109.26c.17-.57.63-.87,1.25-.94v-.02c-.43-.38-.53-.83-.42-1.22.21-.71.96-1.02,1.75-.79.87.26,1.15.93.98,1.5-.11.38-.42.74-1.05.83v.02c.49.39.72.88.56,1.43-.23.78-1.06,1.11-1.92.86-.94-.28-1.35-1.01-1.15-1.67ZM153.92,109.95c.16-.55-.14-.92-.7-1.28-.57,0-.96.26-1.09.69-.16.45.07.96.65,1.12s1-.07,1.14-.54ZM152.9,107.2c-.13.45.14.79.61,1.09.43-.02.81-.21.93-.62.11-.36,0-.8-.55-.96-.51-.15-.88.1-1,.49Z"/>
          <path d="M155.04,110.31c.17-.57.63-.87,1.25-.94v-.02c-.43-.38-.53-.83-.42-1.22.21-.71.96-1.02,1.75-.79.87.26,1.15.93.98,1.5-.11.38-.42.74-1.05.83v.02c.49.39.72.88.56,1.43-.23.78-1.06,1.11-1.92.86-.94-.28-1.35-1.01-1.15-1.67ZM157.47,111c.16-.55-.14-.92-.7-1.28-.57,0-.96.26-1.09.69-.16.45.07.96.65,1.12s1-.07,1.14-.54ZM156.46,108.25c-.13.45.14.79.61,1.09.43-.02.81-.21.93-.62.11-.36,0-.8-.55-.96-.51-.15-.88.1-1,.49Z"/>
          <path d="M160.2,113.07l.36-1.23-2.09-.62.12-.4,2.86-2.28.66.19-.83,2.8.63.19-.14.48-.63-.19-.36,1.23-.58-.17ZM160.7,111.37l.44-1.5c.07-.24.15-.47.23-.7h-.02c-.22.22-.38.38-.57.55l-1.55,1.21h0s1.48.45,1.48.45Z"/>
          <path d="M165.64,110.25c-.12-.04-.28-.08-.47-.11-1-.12-1.72.43-2.04,1.14h.02c.3-.21.74-.34,1.24-.19.8.24,1.19.98.93,1.86-.24.82-1.03,1.42-1.96,1.15s-1.37-1.22-1.03-2.39c.26-.89.79-1.49,1.36-1.81.48-.26,1.05-.34,1.64-.24.19.03.34.06.45.1l-.15.5ZM164.7,112.8c.19-.64-.06-1.14-.62-1.31-.37-.11-.77.02-1.04.3-.06.06-.12.14-.15.25-.2.75-.03,1.39.61,1.58.53.16,1.01-.18,1.2-.82Z"/>
          <path d="M165.42,114.61l.11-.37.61-.32c1.47-.76,2.16-1.19,2.37-1.86.13-.46.04-.95-.63-1.14-.41-.12-.81-.01-1.07.1l-.07-.49c.39-.17.89-.24,1.41-.08.97.29,1.18,1.07.99,1.72-.25.83-1.05,1.33-2.27,1.96l-.46.23h0s2.02.61,2.02.61l-.15.51-2.88-.85Z"/>
          <path d="M169.16,115.33c.07-.25.3-.38.54-.31.25.07.36.3.28.55s-.29.38-.54.31-.35-.31-.28-.55ZM169.62,114.39l.88-3.36.67.2-1.08,3.3-.47-.14Z"/>
        </g>
      </g>
    </g>
  </g>
</svg>