<?xml version="1.0" encoding="UTF-8"?>
<svg id="Layer_1" data-name="Layer 1" xmlns="http://www.w3.org/2000/svg" viewBox="0 0 362.5 301.66">
  <defs>
    <style>
      .cls-1 {
        fill: #50859c;
      }

      .cls-2 {
        fill: #ffb829;
      }

      .cls-3 {
        fill: #00c9c9;
      }

      .cls-4 {
        fill: #171717;
      }

      .cls-5 {
        fill: #c7aa6b;
      }

      .cls-6 {
        fill: #104be0;
      }

      .cls-7 {
        fill: #636363;
      }

      .cls-8 {
        fill: #6b4622;
      }

      .cls-9 {
        fill: #8dad0c;
      }

      .cls-10 {
        fill: #adadad;
      }

      .cls-11 {
        fill: #e63030;
      }
    </style>
  </defs>
  <g>
    <path class="cls-8" d="M288.46,286.28L8.09,209.1c-5.86-1.61-9.31-7.67-7.69-13.53L52,8.09c1.61-5.86,7.67-9.31,13.54-7.69l280.37,77.17c5.86,1.61,9.3,7.67,7.69,13.53l-51.61,187.48c-1.61,5.87-7.68,9.3-13.53,7.69Z"/>
    <path class="cls-4" d="M79.77-8.34h194.45c3.47,0,6.29,2.82,6.29,6.29v290.79c0,3.47-2.82,6.29-6.29,6.29H79.77c-3.47,0-6.29-2.82-6.29-6.29V-2.05c0-3.47,2.82-6.29,6.29-6.29Z" transform="translate(-8.18 275.95) rotate(-74.61)"/>
    <path class="cls-5" d="M32.45,207.11c-1.68-.46-2.66-2.19-2.2-3.87L81.02,18.79c.46-1.67,2.19-2.65,3.87-2.19l114.9,31.63-52.44,190.51-114.9-31.63Z"/>
    <g>
      <path class="cls-1" d="M30.25,203.24L81.02,18.79c.46-1.67,2.19-2.65,3.87-2.19l-1.52-.42c-1.67-.46-3.4.53-3.86,2.19L28.74,202.82c-.46,1.68.52,3.41,2.19,3.87l1.52.42c-1.68-.46-2.66-2.19-2.2-3.87Z"/>
      <path class="cls-5" d="M28.74,202.82L79.51,18.38c.46-1.67,2.19-2.65,3.86-2.19l-1.51-.42c-1.68-.46-3.41.52-3.87,2.19L27.22,202.41c-.46,1.68.52,3.41,2.2,3.87l1.51.42c-1.67-.46-2.65-2.19-2.19-3.87Z"/>
      <path class="cls-1" d="M27.22,202.41L77.99,17.96c.46-1.67,2.19-2.66,3.87-2.19l-1.52-.42c-1.67-.46-3.41.52-3.87,2.19L25.7,201.99c-.46,1.68.53,3.41,2.2,3.87l1.52.42c-1.68-.46-2.66-2.19-2.2-3.87Z"/>
      <path class="cls-5" d="M25.7,201.99L76.47,17.54c.46-1.67,2.2-2.65,3.87-2.19l-1.52-.42c-1.68-.46-3.4.53-3.86,2.19L24.19,201.57c-.46,1.68.52,3.41,2.19,3.87l1.52.42c-1.67-.46-2.66-2.19-2.2-3.87Z"/>
      <path class="cls-1" d="M24.19,201.57L74.96,17.13c.46-1.67,2.19-2.66,3.86-2.19l-1.52-.42c-1.67-.46-3.41.52-3.87,2.19L22.67,201.15c-.46,1.68.53,3.41,2.2,3.87l1.52.42c-1.68-.46-2.65-2.19-2.19-3.87Z"/>
      <path class="cls-5" d="M22.67,201.15L73.44,16.71c.46-1.67,2.2-2.65,3.87-2.19l-1.51-.42c-1.68-.46-3.41.52-3.87,2.19L21.15,200.74c-.46,1.68.53,3.41,2.2,3.87l1.51.42c-1.67-.46-2.66-2.19-2.2-3.87Z"/>
      <path class="cls-1" d="M21.15,200.74L71.93,16.29c.46-1.67,2.2-2.65,3.87-2.19l-1.52-.42c-1.67-.46-3.4.53-3.86,2.19L19.64,200.32c-.46,1.68.52,3.41,2.19,3.87l1.52.42c-1.68-.46-2.67-2.19-2.2-3.87Z"/>
    </g>
    <g>
      <path class="cls-1" d="M272.41,269.9l50.77-184.45c.46-1.67-.52-3.4-2.19-3.86l1.52.42c1.67.46,2.66,2.19,2.2,3.86l-50.77,184.45c-.46,1.68-2.19,2.66-3.87,2.2l-1.52-.42c1.68.46,3.4-.52,3.86-2.2Z"/>
      <path class="cls-5" d="M273.93,270.32l50.77-184.45c.46-1.67-.53-3.4-2.2-3.86l1.51.42c1.68.46,2.67,2.19,2.21,3.86l-50.77,184.45c-.46,1.68-2.19,2.66-3.87,2.2l-1.51-.42c1.67.46,3.4-.52,3.87-2.2Z"/>
      <path class="cls-1" d="M275.44,270.73l50.77-184.45c.46-1.67-.53-3.4-2.21-3.86l1.52.42c1.67.46,2.66,2.19,2.19,3.86l-50.77,184.45c-.46,1.68-2.19,2.66-3.86,2.2l-1.52-.42c1.68.46,3.41-.52,3.87-2.2Z"/>
      <path class="cls-5" d="M276.96,271.15l50.77-184.45c.46-1.67-.52-3.4-2.19-3.86l1.52.42c1.68.46,2.65,2.19,2.19,3.86l-50.77,184.45c-.46,1.68-2.19,2.66-3.86,2.2l-1.52-.42c1.67.46,3.4-.52,3.86-2.2Z"/>
      <path class="cls-1" d="M278.47,271.57l50.77-184.45c.46-1.67-.52-3.4-2.19-3.86l1.51.42c1.67.46,2.66,2.19,2.2,3.86l-50.77,184.45c-.46,1.68-2.2,2.66-3.87,2.2l-1.51-.42c1.68.46,3.4-.52,3.86-2.2Z"/>
      <path class="cls-5" d="M279.99,271.99l50.77-184.45c.46-1.67-.53-3.4-2.2-3.86l1.52.42c1.68.46,2.66,2.19,2.2,3.86l-50.77,184.45c-.46,1.68-2.19,2.66-3.87,2.2l-1.52-.42c1.67.46,3.41-.52,3.87-2.2Z"/>
      <path class="cls-1" d="M281.51,272.4l50.77-184.45c.46-1.67-.53-3.4-2.2-3.86l1.52.42c1.67.46,2.66,2.19,2.2,3.86l-50.77,184.45c-.46,1.68-2.19,2.66-3.87,2.2l-1.52-.42c1.68.46,3.41-.52,3.87-2.2Z"/>
    </g>
    <path class="cls-5" d="M268.54,272.1c1.68.46,3.4-.52,3.86-2.2l50.77-184.45c.46-1.67-.52-3.4-2.19-3.86l-114.91-31.63-52.44,190.51,114.91,31.63Z"/>
    <g>
      <rect class="cls-1" x="131.84" y=".94" width=".32" height="90.94" transform="translate(52.21 161.36) rotate(-74.61)"/>
      <rect class="cls-1" x="128.67" y="12.46" width=".31" height="90.94" transform="translate(38.78 166.76) rotate(-74.61)"/>
      <rect class="cls-1" x="125.5" y="23.98" width=".32" height="90.94" transform="translate(25.35 172.17) rotate(-74.61)"/>
      <rect class="cls-1" x="122.33" y="35.49" width=".32" height="90.94" transform="translate(11.92 177.57) rotate(-74.61)"/>
      <rect class="cls-1" x="119.16" y="47.01" width=".32" height="90.94" transform="translate(-1.51 182.97) rotate(-74.61)"/>
      <rect class="cls-1" x="115.99" y="58.53" width=".32" height="90.94" transform="translate(-14.95 188.38) rotate(-74.61)"/>
      <rect class="cls-1" x="112.82" y="70.04" width=".32" height="90.94" transform="translate(-28.38 193.78) rotate(-74.61)"/>
      <rect class="cls-1" x="109.65" y="81.56" width=".31" height="90.94" transform="translate(-41.81 199.18) rotate(-74.61)"/>
      <rect class="cls-1" x="106.48" y="93.07" width=".31" height="90.94" transform="translate(-55.24 204.59) rotate(-74.61)"/>
      <rect class="cls-1" x="103.31" y="104.59" width=".32" height="90.94" transform="translate(-68.67 209.99) rotate(-74.61)"/>
      <rect class="cls-1" x="100.14" y="116.1" width=".32" height="90.94" transform="translate(-82.1 215.4) rotate(-74.61)"/>
      <rect class="cls-1" x="96.97" y="127.62" width=".31" height="90.94" transform="translate(-95.53 220.8) rotate(-74.61)"/>
      <rect class="cls-1" x="93.8" y="139.14" width=".32" height="90.94" transform="translate(-108.97 226.2) rotate(-74.61)"/>
      <rect class="cls-1" x="90.63" y="150.65" width=".31" height="90.94" transform="translate(-122.4 231.6) rotate(-74.61)"/>
    </g>
    <g>
      <rect class="cls-1" x="265.09" y="37.63" width=".32" height="90.93" transform="translate(114.74 316.78) rotate(-74.61)"/>
      <rect class="cls-1" x="261.93" y="49.15" width=".31" height="90.93" transform="translate(101.31 322.19) rotate(-74.61)"/>
      <rect class="cls-1" x="258.75" y="60.67" width=".32" height="90.93" transform="translate(87.87 327.59) rotate(-74.61)"/>
      <rect class="cls-1" x="255.58" y="72.18" width=".32" height="90.93" transform="translate(74.44 333) rotate(-74.61)"/>
      <rect class="cls-1" x="252.41" y="83.69" width=".32" height="90.93" transform="translate(61.01 338.4) rotate(-74.61)"/>
      <rect class="cls-1" x="249.24" y="95.21" width=".32" height="90.93" transform="translate(47.58 343.8) rotate(-74.61)"/>
      <rect class="cls-1" x="246.07" y="106.73" width=".32" height="90.93" transform="translate(34.15 349.21) rotate(-74.61)"/>
      <rect class="cls-1" x="242.91" y="118.24" width=".31" height="90.93" transform="translate(20.72 354.61) rotate(-74.61)"/>
      <rect class="cls-1" x="239.74" y="129.76" width=".31" height="90.93" transform="translate(7.28 360.01) rotate(-74.61)"/>
      <rect class="cls-1" x="236.56" y="141.27" width=".32" height="90.93" transform="translate(-6.14 365.42) rotate(-74.61)"/>
      <rect class="cls-1" x="233.4" y="152.79" width=".31" height="90.93" transform="translate(-19.58 370.82) rotate(-74.61)"/>
      <rect class="cls-1" x="230.23" y="164.31" width=".31" height="90.93" transform="translate(-33.01 376.22) rotate(-74.61)"/>
      <rect class="cls-1" x="227.05" y="175.82" width=".32" height="90.93" transform="translate(-46.44 381.63) rotate(-74.61)"/>
      <rect class="cls-1" x="223.89" y="187.34" width=".31" height="90.93" transform="translate(-59.87 387.03) rotate(-74.61)"/>
    </g>
    <g>
      <g>
        <path class="cls-4" d="M188.41,68.07c-.68,2.46-3.22,3.91-5.68,3.23-2.46-.68-3.91-3.22-3.23-5.68.68-2.46,3.23-3.9,5.68-3.23,2.46.68,3.91,3.22,3.23,5.68Z"/>
        <path class="cls-4" d="M214.62,75.29c-.68,2.46-3.22,3.91-5.68,3.23s-3.9-3.22-3.22-5.68c.68-2.46,3.22-3.9,5.67-3.23,2.46.68,3.9,3.22,3.23,5.68Z"/>
        <path class="cls-7" d="M210.74,71.98l-26.21-7.22c-1.15-.32-2.34.36-2.66,1.51s.36,2.34,1.51,2.66l26.21,7.22c1.16.32,2.34-.36,2.66-1.51.32-1.15-.36-2.34-1.51-2.66Z"/>
        <path class="cls-10" d="M210.53,72.74l-26.21-7.22c-.73-.2-1.49.23-1.69.96l28.87,7.95c.2-.73-.23-1.49-.96-1.69Z"/>
        <path class="cls-10" d="M182.01,67.77c.26.55.74.99,1.37,1.16l26.21,7.22c.63.17,1.27.04,1.77-.3l-29.35-8.08Z"/>
      </g>
      <g>
        <path class="cls-4" d="M180.38,97.22c-.68,2.46-3.22,3.91-5.68,3.23-2.46-.68-3.91-3.22-3.23-5.68s3.22-3.9,5.68-3.22c2.46.68,3.91,3.22,3.23,5.68Z"/>
        <path class="cls-4" d="M206.59,104.44c-.68,2.46-3.22,3.91-5.68,3.23-2.46-.68-3.9-3.22-3.22-5.68.67-2.45,3.22-3.9,5.67-3.22,2.46.68,3.9,3.22,3.23,5.67Z"/>
        <path class="cls-7" d="M202.71,101.13l-26.21-7.22c-1.15-.32-2.34.36-2.66,1.51s.36,2.34,1.51,2.66l26.21,7.22c1.16.32,2.34-.36,2.66-1.51s-.36-2.34-1.51-2.66Z"/>
        <path class="cls-10" d="M202.5,101.89l-26.21-7.22c-.73-.2-1.49.23-1.69.96l28.87,7.95c.2-.72-.23-1.48-.96-1.69Z"/>
        <path class="cls-10" d="M173.98,96.93c.26.54.74.98,1.37,1.15l26.21,7.22c.63.17,1.27.04,1.77-.29l-29.35-8.08Z"/>
      </g>
      <g>
        <path class="cls-4" d="M172.36,126.38c-.68,2.46-3.22,3.9-5.68,3.23-2.46-.68-3.91-3.22-3.23-5.68.68-2.46,3.23-3.9,5.68-3.23s3.91,3.22,3.23,5.68Z"/>
        <path class="cls-4" d="M198.57,133.6c-.68,2.46-3.22,3.9-5.68,3.23-2.46-.68-3.9-3.22-3.22-5.68.68-2.46,3.22-3.9,5.67-3.23,2.46.68,3.9,3.22,3.23,5.68Z"/>
        <path class="cls-7" d="M194.69,130.29l-26.21-7.22c-1.15-.32-2.34.36-2.66,1.51s.36,2.34,1.51,2.66l26.21,7.22c1.16.32,2.34-.36,2.66-1.51s-.36-2.34-1.51-2.66Z"/>
        <path class="cls-10" d="M194.48,131.04l-26.21-7.22c-.73-.2-1.49.23-1.7.96l28.87,7.95c.2-.73-.22-1.49-.96-1.69Z"/>
        <path class="cls-10" d="M165.96,126.08c.26.54.74.99,1.37,1.16l26.21,7.22c.63.17,1.27.04,1.77-.3l-29.35-8.08Z"/>
      </g>
      <g>
        <path class="cls-4" d="M148.28,213.84c-.68,2.46-3.22,3.9-5.68,3.22-2.46-.68-3.91-3.22-3.23-5.68.68-2.46,3.23-3.91,5.68-3.23,2.46.68,3.91,3.22,3.23,5.69Z"/>
        <path class="cls-4" d="M174.49,221.06c-.68,2.46-3.22,3.9-5.68,3.22-2.46-.68-3.9-3.22-3.22-5.67.68-2.46,3.22-3.91,5.68-3.24s3.9,3.22,3.23,5.69Z"/>
        <path class="cls-7" d="M170.61,217.74l-26.21-7.22c-1.15-.32-2.34.36-2.66,1.51s.36,2.34,1.51,2.65l26.21,7.22c1.16.32,2.34-.36,2.66-1.51s-.35-2.34-1.51-2.66Z"/>
        <path class="cls-10" d="M170.4,218.5l-26.21-7.22c-.73-.2-1.49.23-1.7.96l28.87,7.95c.2-.74-.22-1.49-.96-1.69Z"/>
        <path class="cls-10" d="M141.88,213.54c.26.55.74.98,1.37,1.16l26.21,7.22c.63.17,1.27.04,1.77-.29l-29.35-8.08Z"/>
      </g>
      <g>
        <path class="cls-4" d="M164.33,155.54c-.68,2.46-3.22,3.91-5.68,3.23-2.46-.68-3.91-3.22-3.23-5.68.68-2.46,3.23-3.91,5.68-3.23s3.91,3.22,3.23,5.68Z"/>
        <path class="cls-4" d="M190.54,162.75c-.68,2.46-3.22,3.91-5.68,3.23s-3.9-3.22-3.22-5.68,3.22-3.91,5.68-3.23c2.46.68,3.9,3.22,3.23,5.68Z"/>
        <path class="cls-7" d="M186.66,159.44l-26.21-7.22c-1.15-.32-2.34.36-2.66,1.51s.36,2.34,1.51,2.66l26.21,7.22c1.16.32,2.34-.36,2.66-1.51s-.36-2.34-1.51-2.66Z"/>
        <path class="cls-10" d="M186.45,160.2l-26.21-7.22c-.73-.2-1.49.23-1.69.96l28.87,7.95c.2-.73-.23-1.49-.96-1.69Z"/>
        <path class="cls-10" d="M157.93,155.24c.26.55.74.98,1.37,1.16l26.21,7.22c.63.17,1.27.04,1.77-.29l-29.35-8.08Z"/>
      </g>
      <g>
        <path class="cls-4" d="M156.31,184.69c-.68,2.46-3.22,3.9-5.68,3.23-2.46-.68-3.91-3.22-3.23-5.68.68-2.46,3.23-3.91,5.68-3.23,2.46.68,3.91,3.22,3.23,5.68Z"/>
        <path class="cls-4" d="M182.52,191.9c-.68,2.46-3.22,3.9-5.68,3.23-2.46-.68-3.9-3.22-3.22-5.68.68-2.46,3.22-3.91,5.68-3.23,2.46.68,3.9,3.22,3.23,5.68Z"/>
        <path class="cls-7" d="M178.64,188.59l-26.21-7.22c-1.15-.32-2.34.36-2.66,1.51-.32,1.15.36,2.34,1.51,2.66l26.21,7.22c1.16.32,2.34-.36,2.66-1.51.32-1.15-.35-2.34-1.51-2.66Z"/>
        <path class="cls-10" d="M178.43,189.35l-26.21-7.22c-.73-.2-1.49.23-1.69.96l28.87,7.95c.2-.73-.23-1.49-.96-1.69Z"/>
        <path class="cls-10" d="M149.91,184.39c.26.55.74.99,1.37,1.16l26.21,7.22c.63.17,1.27.04,1.77-.3l-29.35-8.08Z"/>
      </g>
    </g>
    <path class="cls-11" d="M232.65,48c-4.76-1.31-9.68,1.49-10.99,6.25l6.45,1.77c.33-1.2,1.57-1.91,2.77-1.58s1.9,1.57,1.57,2.78l-49.07,178.26,3.87-1.49,2.57,3.26,49.07-178.26c1.31-4.76-1.49-9.68-6.24-10.99Z"/>
    <g>
      <path class="cls-11" d="M54.41,50.83c-.84-.23-1.33-1.1-1.1-1.93l7.79-28.32c.23-.84,1.1-1.33,1.94-1.1l5.94,1.63-8.63,31.34-5.94-1.63Z"/>
      <path class="cls-2" d="M45.78,82.17c-.84-.23-1.33-1.1-1.1-1.93l7.79-28.31c.23-.84,1.1-1.33,1.94-1.1l5.94,1.63-8.63,31.34-5.94-1.63Z"/>
      <path class="cls-9" d="M37.15,113.51c-.84-.23-1.33-1.1-1.1-1.93l7.79-28.31c.23-.83,1.1-1.33,1.94-1.1l5.94,1.63-8.63,31.34-5.94-1.63Z"/>
      <path class="cls-3" d="M28.52,144.86c-.84-.23-1.33-1.1-1.1-1.93l7.79-28.31c.23-.84,1.1-1.33,1.94-1.1l5.94,1.63-8.63,31.34-5.94-1.63Z"/>
      <path class="cls-6" d="M19.9,176.2c-.84-.23-1.33-1.1-1.1-1.93l7.79-28.31c.23-.84,1.1-1.33,1.94-1.1l5.94,1.63-8.63,31.34-5.94-1.63Z"/>
    </g>
    <g>
      <path class="cls-11" d="M303.78,220.63c.83.23,1.33,1.1,1.1,1.94l-7.79,28.31c-.23.84-1.1,1.33-1.94,1.1l-5.94-1.63,8.63-31.34,5.94,1.63Z"/>
      <path class="cls-2" d="M312.4,189.28c.83.23,1.33,1.1,1.1,1.94l-7.79,28.31c-.23.83-1.1,1.33-1.94,1.1l-5.94-1.63,8.63-31.34,5.94,1.63Z"/>
      <path class="cls-9" d="M321.03,157.94c.83.23,1.33,1.1,1.1,1.93l-7.79,28.31c-.23.84-1.1,1.33-1.94,1.1l-5.94-1.63,8.63-31.34,5.94,1.63Z"/>
      <path class="cls-3" d="M329.66,126.59c.83.23,1.33,1.1,1.1,1.94l-7.79,28.31c-.23.84-1.1,1.33-1.94,1.1l-5.94-1.63,8.63-31.34,5.94,1.63Z"/>
      <path class="cls-6" d="M338.29,95.25c.83.23,1.33,1.1,1.1,1.93l-7.79,28.32c-.23.83-1.1,1.32-1.94,1.09l-5.94-1.63,8.63-31.34,5.94,1.63Z"/>
    </g>
  </g>
  <g>
    <path d="M94.53,41.02c.2-.95.45-2.08.68-2.91h-.03c-.44.71-.94,1.47-1.53,2.3l-2.06,2.92-.65-.18-.22-3.47c-.06-1.03-.1-1.96-.07-2.81h-.02c-.25.82-.6,1.93-.93,2.91l-.96,2.82-.82-.22,2.28-6.55,1.1.3.26,3.54c.05.9.08,1.69.06,2.43h.03c.35-.62.79-1.29,1.31-2.05l2.07-2.91,1.1.3-1.39,6.79-.84-.23.63-2.98Z"/>
    <path d="M97.86,38c.55.06,1.19.17,1.87.36,1.24.34,2.04.86,2.48,1.57.45.71.58,1.57.29,2.65-.3,1.09-.87,1.89-1.67,2.34-.79.46-1.92.51-3.21.16-.61-.17-1.12-.34-1.55-.5l1.78-6.57ZM97.12,44.14c.21.1.52.19.86.29,1.84.5,3.12-.26,3.61-2.06.44-1.57-.18-2.82-2.01-3.31-.45-.12-.79-.17-1.04-.19l-1.43,5.27Z"/>
    <path d="M104.46,39.78c.44.04,1,.13,1.69.32.85.23,1.42.6,1.72,1.06.28.42.37.96.21,1.56-.16.61-.47,1.03-.9,1.29-.59.36-1.4.41-2.24.18-.26-.07-.49-.14-.68-.25l-.73,2.68-.86-.23,1.79-6.6ZM104.45,43.23c.18.1.41.18.69.26,1.04.28,1.81-.05,2.06-.97.24-.88-.27-1.48-1.22-1.74-.38-.1-.67-.15-.83-.15l-.7,2.6Z"/>
    <path d="M109.94,47.81c.1-.37.42-.56.76-.46.35.09.5.41.42.78-.09.35-.39.55-.76.45-.35-.09-.51-.42-.42-.77ZM110.89,44.31c.1-.37.42-.56.76-.46.35.09.51.41.42.78-.09.35-.39.55-.76.45-.35-.09-.51-.43-.42-.77Z"/>
    <path d="M84.76,61.01h-.02s-1.28.3-1.28.3v-.71s1.62-.37,1.62-.37l.74.2-1.75,6.44-.84-.23,1.53-5.63Z"/>
    <path d="M86.43,67.51l.15-.54.86-.48c2.07-1.12,3.04-1.75,3.31-2.72.18-.65.02-1.34-.94-1.61-.58-.16-1.15,0-1.52.17l-.11-.69c.55-.26,1.26-.36,2-.16,1.39.38,1.71,1.49,1.46,2.41-.32,1.19-1.45,1.92-3.16,2.86l-.64.34v.02s2.89.79,2.89.79l-.2.72-4.11-1.12Z"/>
    <path d="M91.99,67.94c.21.23.71.63,1.32.79,1.12.3,1.66-.32,1.8-.85.23-.9-.47-1.51-1.32-1.74l-.49-.13.18-.65.49.13c.63.17,1.53.06,1.73-.7.14-.52-.06-1.06-.87-1.28-.51-.14-1.07-.05-1.4.08l-.06-.7c.4-.16,1.12-.23,1.82-.04,1.27.34,1.64,1.25,1.43,2.04-.18.66-.73,1.12-1.6,1.19v.02c.74.37,1.23,1.14.98,2.04-.28,1.03-1.33,1.71-2.87,1.29-.72-.2-1.3-.6-1.56-.89l.42-.61Z"/>
    <path d="M99.29,70.99l.48-1.75-2.99-.81.16-.57,3.99-3.33.94.25-1.09,4,.9.25-.19.68-.9-.25-.48,1.75-.82-.22ZM99.95,68.56l.58-2.15c.09-.34.19-.67.3-1h-.03c-.3.31-.53.55-.79.8l-2.17,1.76v.02s2.1.57,2.1.57Z"/>
    <path d="M107.07,66.98l-2.46-.67-.7,1.59c.15.02.3.04.54.1.5.13.96.38,1.29.72.43.42.69,1.09.47,1.91-.34,1.26-1.6,1.93-3,1.55-.7-.19-1.24-.55-1.5-.83l.4-.6c.22.23.7.57,1.28.73.82.22,1.67-.12,1.9-.98.22-.84-.18-1.58-1.47-1.93-.37-.1-.67-.14-.91-.17l1.26-2.98,3.08.84-.2.73Z"/>
    <path d="M112.02,68.19c-.18-.06-.41-.11-.67-.14-1.43-.14-2.42.66-2.86,1.68h.03c.42-.31,1.04-.51,1.76-.31,1.14.31,1.72,1.35,1.38,2.61-.32,1.18-1.42,2.05-2.76,1.69-1.38-.37-1.99-1.69-1.53-3.36.34-1.27,1.07-2.15,1.88-2.61.68-.38,1.48-.51,2.32-.39.27.03.49.08.65.12l-.19.71ZM110.76,71.84c.25-.92-.13-1.62-.93-1.84-.53-.14-1.1.05-1.46.45-.09.08-.16.2-.21.36-.27,1.07,0,1.98.92,2.23.75.21,1.43-.28,1.68-1.2Z"/>
    <path d="M80.08,76.29l-1.26,1.91-.89-.24,4.08-6.06,1.04.28.47,7.3-.92-.25-.14-2.29-2.37-.64ZM82.45,76.21l-.13-2.1c-.03-.48-.02-.9-.02-1.31h-.02c-.21.36-.43.74-.67,1.11l-1.18,1.75,2.01.55Z"/>
    <path d="M84.19,79.12l2.94-2.24c.28-.2.54-.38.83-.57v-.02s-2.59-.7-2.59-.7l.19-.7,3.66.99-.16.54-2.9,2.2c-.27.21-.53.4-.82.59v.02s2.8.76,2.8.76l-.19.69-3.89-1.06.14-.51Z"/>
    <path d="M89.87,78.8c-.3,1.19.32,1.88,1.19,2.11.62.17,1.03.16,1.4.11l-.02.67c-.35.06-.91.07-1.68-.14-1.48-.4-2.09-1.61-1.7-3.06.39-1.45,1.55-2.36,2.95-1.98,1.57.42,1.61,1.92,1.37,2.8-.05.18-.11.31-.14.4l-3.37-.91ZM92.59,78.87c.16-.55.16-1.48-.82-1.75-.88-.24-1.49.47-1.72,1.05l2.55.69Z"/>
    <path d="M94.63,78.96c.15-.57.27-1.05.37-1.51l.76.21-.23.95h.04c.39-.57,1.03-.84,1.61-.68.1.03.17.06.24.1l-.22.82c-.08-.04-.17-.08-.29-.11-.61-.17-1.18.18-1.47.8-.05.11-.11.25-.15.4l-.69,2.56-.86-.23.9-3.3Z"/>
    <path d="M99.94,77.31l-.37,1.38,1.25.34-.18.66-1.25-.34-.7,2.59c-.16.59-.08.98.4,1.11.23.06.4.08.52.08l-.14.67c-.19.02-.47,0-.81-.09-.41-.11-.7-.33-.84-.62-.18-.33-.15-.77,0-1.34l.71-2.62-.74-.2.18-.66.74.2.31-1.15h.91Z"/>
    <path d="M102.2,79.4l.28,3.12c.02.35.04.75.04,1.06h.02c.17-.26.37-.6.58-.91l1.71-2.56.92.25-2.24,3.07c-1.07,1.48-1.73,2.2-2.46,2.56-.53.26-1,.29-1.22.27l-.02-.79c.24-.01.56-.07.88-.22.29-.12.68-.38,1-.77.06-.08.11-.14.13-.19.01-.05.01-.12,0-.24l-.58-4.9.95.26Z"/>
    <path d="M108.39,80.19h-.02s-1.28.29-1.28.29v-.71s1.62-.37,1.62-.37l.74.2-1.75,6.44-.84-.23,1.53-5.63Z"/>
    <path d="M110.06,86.68l.15-.54.86-.48c2.07-1.12,3.04-1.75,3.31-2.72.18-.65.02-1.34-.94-1.61-.58-.16-1.15,0-1.52.17l-.11-.69c.55-.25,1.26-.36,2-.16,1.39.38,1.71,1.49,1.46,2.41-.32,1.19-1.45,1.92-3.16,2.86l-.64.34v.02s2.89.78,2.89.78l-.2.72-4.11-1.12Z"/>
    <path d="M115.62,87.12c.21.23.71.63,1.32.79,1.12.3,1.66-.31,1.8-.85.24-.9-.47-1.51-1.32-1.74l-.49-.13.18-.65.49.13c.63.17,1.53.06,1.73-.7.14-.52-.06-1.06-.87-1.28-.51-.14-1.07-.05-1.4.08l-.06-.7c.4-.16,1.12-.23,1.82-.04,1.27.34,1.64,1.25,1.43,2.04-.18.66-.73,1.12-1.6,1.19v.02c.74.37,1.23,1.14.98,2.04-.28,1.03-1.33,1.71-2.87,1.3-.72-.2-1.3-.6-1.56-.89l.42-.61Z"/>
    <path d="M122.92,90.17l.48-1.75-2.99-.81.16-.57,3.99-3.33.94.26-1.09,4,.9.24-.19.68-.9-.24-.48,1.75-.82-.22ZM123.58,87.73l.58-2.15c.09-.34.19-.67.3-1h-.03c-.3.32-.53.55-.79.8l-2.17,1.76v.02s2.1.57,2.1.57Z"/>
    <path d="M80.44,92.47c-.84-.48-1.65-.99-2.35-1.47-.12-.09-.25-.17-.38-.21-1.57-.49-2.61-2.03-2.03-4.18.58-2.14,2.26-3.16,4.07-2.68,1.81.49,2.61,2.22,2.08,4.19-.46,1.71-1.56,2.6-2.77,2.69v.04c.61.35,1.29.7,1.83.96l-.44.66ZM80.91,87.93c.36-1.34.04-2.9-1.38-3.29-1.46-.4-2.54.76-2.92,2.21-.39,1.41.04,2.91,1.39,3.27,1.38.37,2.49-.67,2.9-2.19Z"/>
    <path d="M83.79,87.17l-.03,2.61c0,.57-.01,1.1-.06,1.62h.03c.24-.45.54-.92.84-1.39l1.45-2.24.73.2.09,2.6c.02.62.02,1.17,0,1.68h.03c.21-.46.48-.93.79-1.45l1.34-2.22.86.23-2.85,4.38-.79-.21-.11-2.49c-.02-.58-.03-1.09,0-1.69h-.02c-.27.54-.56.99-.87,1.46l-1.39,2.07-.79-.21-.15-5.19.89.24Z"/>
    <path d="M90.42,91.72c-.3,1.19.32,1.88,1.19,2.11.62.17,1.03.16,1.4.11l-.02.66c-.35.06-.91.07-1.68-.13-1.48-.4-2.09-1.61-1.7-3.06.39-1.45,1.55-2.36,2.95-1.98,1.57.42,1.61,1.92,1.37,2.8-.05.18-.11.31-.14.4l-3.37-.91ZM93.15,91.79c.16-.55.16-1.48-.82-1.75-.88-.24-1.49.47-1.72,1.05l2.55.69Z"/>
    <path d="M95.19,91.87c.15-.56.27-1.05.37-1.51l.76.21-.23.95h.04c.39-.57,1.03-.84,1.61-.68.1.03.17.05.24.1l-.22.82c-.08-.04-.17-.08-.29-.11-.61-.17-1.18.18-1.47.8-.05.11-.11.25-.15.4l-.69,2.56-.86-.23.9-3.3Z"/>
    <path d="M100.5,90.23l-.37,1.38,1.25.34-.18.66-1.25-.34-.7,2.59c-.16.59-.08.98.4,1.11.23.06.4.08.52.08l-.14.67c-.19.02-.47,0-.81-.09-.41-.11-.7-.33-.84-.62-.18-.33-.15-.78,0-1.34l.71-2.62-.74-.2.18-.66.74.2.31-1.15h.91Z"/>
    <path d="M102.76,92.32l.28,3.12c.02.35.04.75.04,1.06h.02c.17-.26.37-.6.58-.91l1.71-2.56.92.25-2.24,3.06c-1.07,1.48-1.72,2.2-2.46,2.56-.53.26-1,.29-1.22.27l-.02-.79c.24-.01.56-.07.88-.22.29-.12.68-.38,1-.77.06-.08.11-.14.13-.19.01-.05.01-.12,0-.24l-.57-4.9.95.26Z"/>
    <path d="M106.21,97.74c.18.07.41.11.71.16.52.07,1.06-.01,1.52-.26.53-.27.99-.75,1.32-1.48h-.03c-.48.33-1.06.45-1.7.27-1.16-.31-1.67-1.39-1.37-2.49.33-1.22,1.5-2.05,2.82-1.69,1.32.36,1.84,1.65,1.39,3.29-.38,1.42-1.13,2.28-1.93,2.72-.63.35-1.39.46-2.11.35-.33-.04-.61-.1-.82-.17l.19-.71ZM107.53,94.12c-.22.8.11,1.5.87,1.7.59.16,1.12,0,1.45-.33.07-.07.13-.16.17-.3.3-1.1.12-2.05-.79-2.3-.74-.2-1.45.31-1.69,1.22Z"/>
    <path d="M110.98,97.94c.22-.81.86-1.26,1.75-1.38v-.03c-.62-.53-.78-1.17-.63-1.72.28-1.02,1.33-1.48,2.46-1.17,1.25.34,1.66,1.29,1.44,2.09-.15.54-.57,1.06-1.47,1.22v.03c.71.54,1.05,1.23.84,2.02-.3,1.12-1.47,1.61-2.7,1.28-1.35-.37-1.94-1.39-1.69-2.33ZM114.46,98.85c.21-.78-.23-1.31-1.04-1.79-.81.01-1.35.4-1.52,1.01-.21.65.13,1.36.96,1.58.78.21,1.42-.14,1.6-.8ZM112.94,94.97c-.17.64.22,1.12.91,1.52.61-.04,1.14-.32,1.3-.9.14-.51-.02-1.13-.81-1.35-.72-.2-1.25.17-1.4.73Z"/>
    <path d="M121.63,95.67l-.16.58-4.4,5.11-.9-.24,4.34-4.94v-.02s-3.15-.85-3.15-.85l.2-.72,4.06,1.1Z"/>
    <path d="M126.04,97.53c-.17-.06-.41-.11-.66-.14-1.43-.14-2.42.66-2.86,1.68h.03c.42-.31,1.04-.51,1.76-.31,1.14.31,1.72,1.35,1.38,2.61-.32,1.18-1.42,2.05-2.76,1.69-1.38-.37-1.99-1.69-1.53-3.36.34-1.27,1.07-2.15,1.88-2.61.68-.38,1.48-.51,2.32-.39.27.03.49.08.65.12l-.19.71ZM124.79,101.18c.25-.92-.13-1.62-.93-1.84-.53-.14-1.1.05-1.46.45-.09.08-.16.2-.2.36-.27,1.07,0,1.98.92,2.23.75.2,1.43-.28,1.68-1.2Z"/>
    <path d="M131.26,99.07l-2.46-.67-.7,1.59c.15.02.3.04.54.1.5.13.96.38,1.29.72.43.42.69,1.09.47,1.9-.34,1.26-1.6,1.93-3,1.55-.7-.19-1.24-.55-1.5-.83l.4-.61c.22.23.7.57,1.28.73.82.22,1.67-.12,1.9-.98.22-.83-.18-1.58-1.47-1.93-.37-.1-.67-.14-.91-.17l1.26-2.98,3.08.84-.2.73Z"/>
    <path d="M133.65,105.85l.48-1.75-2.99-.81.16-.57,3.99-3.33.94.25-1.09,4,.9.25-.19.68-.9-.25-.48,1.75-.82-.22ZM134.31,103.41l.58-2.15c.09-.34.19-.67.3-1h-.03c-.3.31-.53.55-.79.8l-2.17,1.76v.02s2.1.57,2.1.57Z"/>
    <path d="M136.52,105.55c.2.23.71.63,1.32.79,1.12.3,1.66-.32,1.8-.85.24-.9-.47-1.51-1.32-1.74l-.49-.13.18-.65.49.13c.63.17,1.53.06,1.73-.7.14-.52-.06-1.06-.87-1.28-.51-.14-1.07-.05-1.4.08l-.06-.7c.4-.16,1.12-.23,1.82-.04,1.27.34,1.64,1.25,1.43,2.04-.18.66-.73,1.12-1.6,1.19v.02c.74.37,1.23,1.14.98,2.04-.28,1.03-1.33,1.71-2.87,1.29-.72-.2-1.3-.6-1.56-.89l.42-.61Z"/>
    <path d="M141.12,107.87l.15-.54.86-.48c2.07-1.12,3.04-1.75,3.31-2.72.18-.65.02-1.35-.94-1.61-.58-.16-1.15,0-1.51.17l-.11-.69c.55-.25,1.26-.36,2-.16,1.39.38,1.71,1.49,1.46,2.41-.32,1.19-1.45,1.92-3.16,2.86l-.64.34v.02s2.89.78,2.89.78l-.2.72-4.11-1.12Z"/>
    <path d="M149.62,104.14h-.02s-1.28.3-1.28.3v-.71s1.62-.37,1.62-.37l.74.2-1.75,6.44-.84-.23,1.53-5.63Z"/>
    <path d="M156.46,108.5c-.59,2.19-1.73,3.18-3.16,2.79-1.26-.34-1.79-1.75-1.23-3.89.59-2.16,1.84-3.1,3.15-2.74,1.36.37,1.8,1.79,1.25,3.84ZM152.94,107.65c-.45,1.67-.2,2.77.6,2.98.89.24,1.6-.68,2.05-2.33.43-1.59.31-2.74-.6-2.98-.76-.21-1.57.57-2.05,2.33Z"/>
    <path d="M72.34,101.33c.18.07.41.11.71.16.52.07,1.06-.01,1.52-.26.53-.27.99-.75,1.32-1.48h-.03c-.48.33-1.06.45-1.7.28-1.16-.31-1.67-1.39-1.37-2.49.33-1.22,1.5-2.05,2.82-1.69,1.32.36,1.84,1.65,1.39,3.29-.38,1.42-1.13,2.28-1.93,2.72-.63.35-1.39.46-2.11.35-.33-.04-.61-.1-.82-.17l.19-.71ZM73.66,97.71c-.22.8.11,1.5.87,1.7.59.16,1.12,0,1.45-.33.07-.07.13-.16.17-.3.3-1.1.12-2.05-.79-2.3-.74-.2-1.45.31-1.69,1.22Z"/>
    <path d="M77.12,101.53c.22-.81.86-1.26,1.75-1.38v-.03c-.62-.53-.78-1.17-.63-1.72.28-1.02,1.33-1.48,2.46-1.17,1.25.34,1.66,1.29,1.44,2.09-.15.54-.57,1.06-1.47,1.22v.03c.71.53,1.05,1.23.84,2.02-.3,1.12-1.47,1.61-2.7,1.28-1.35-.37-1.94-1.39-1.69-2.33ZM80.6,102.43c.21-.78-.23-1.31-1.04-1.79-.81.01-1.35.4-1.52,1.01-.21.65.13,1.36.96,1.58.78.21,1.42-.14,1.6-.8ZM79.07,98.56c-.17.64.22,1.12.91,1.52.61-.04,1.14-.32,1.3-.9.14-.52-.02-1.13-.81-1.35-.72-.2-1.25.17-1.4.73Z"/>
    <path d="M87.77,99.25l-.16.58-4.4,5.11-.9-.25,4.34-4.94v-.02s-3.15-.85-3.15-.85l.2-.72,4.06,1.1Z"/>
    <path d="M92.18,101.11c-.18-.06-.41-.11-.66-.14-1.43-.14-2.42.66-2.86,1.68h.03c.42-.31,1.04-.51,1.76-.31,1.14.31,1.72,1.35,1.38,2.61-.32,1.18-1.42,2.05-2.76,1.69-1.38-.37-1.99-1.69-1.53-3.36.34-1.27,1.07-2.15,1.88-2.61.68-.38,1.48-.51,2.32-.39.27.03.49.08.65.12l-.19.71ZM90.92,104.76c.25-.92-.13-1.62-.93-1.84-.53-.14-1.1.05-1.46.45-.09.08-.16.2-.2.36-.27,1.07,0,1.98.92,2.23.75.21,1.43-.28,1.68-1.2Z"/>
    <path d="M97.4,102.65l-2.46-.67-.7,1.59c.15.02.3.04.54.1.5.13.96.38,1.29.72.43.42.69,1.09.47,1.91-.34,1.26-1.6,1.93-3,1.55-.7-.19-1.24-.55-1.5-.83l.4-.6c.22.23.7.57,1.28.73.82.22,1.67-.12,1.9-.98.22-.83-.18-1.58-1.47-1.93-.37-.1-.67-.14-.91-.17l1.25-2.98,3.08.84-.2.73Z"/>
    <path d="M99.78,109.43l.48-1.75-2.99-.81.16-.58,3.99-3.33.94.26-1.09,4,.9.24-.19.68-.9-.25-.48,1.75-.82-.22ZM100.44,106.99l.58-2.15c.09-.34.19-.67.3-1h-.03c-.3.32-.53.55-.79.8l-2.17,1.76v.02s2.1.57,2.1.57Z"/>
    <path d="M102.65,109.13c.2.23.71.63,1.32.79,1.12.3,1.66-.32,1.8-.85.24-.9-.47-1.51-1.32-1.74l-.49-.13.18-.65.49.13c.63.17,1.53.06,1.73-.7.14-.52-.06-1.06-.87-1.28-.51-.14-1.07-.05-1.4.08l-.06-.7c.4-.16,1.13-.23,1.82-.04,1.27.34,1.64,1.25,1.43,2.04-.18.66-.73,1.12-1.6,1.19v.02c.74.37,1.23,1.14.98,2.05-.28,1.03-1.33,1.71-2.87,1.29-.72-.2-1.3-.6-1.56-.89l.42-.61Z"/>
    <path d="M107.25,111.46l.15-.54.86-.48c2.07-1.12,3.04-1.75,3.31-2.72.18-.65.02-1.34-.94-1.61-.58-.16-1.15,0-1.52.17l-.11-.69c.55-.25,1.26-.36,2-.16,1.39.38,1.71,1.49,1.46,2.41-.32,1.19-1.45,1.92-3.16,2.86l-.64.34v.02s2.89.79,2.89.79l-.2.72-4.11-1.12Z"/>
    <path d="M115.76,107.72h-.02s-1.28.3-1.28.3v-.71s1.62-.37,1.62-.37l.74.2-1.75,6.44-.84-.23,1.53-5.63Z"/>
    <path d="M122.6,112.08c-.59,2.19-1.73,3.18-3.16,2.79-1.26-.34-1.79-1.75-1.23-3.89.59-2.16,1.84-3.1,3.15-2.74,1.36.37,1.8,1.79,1.25,3.84ZM119.07,111.23c-.45,1.67-.2,2.77.6,2.98.89.24,1.6-.68,2.05-2.33.43-1.59.3-2.74-.6-2.98-.76-.21-1.57.57-2.05,2.33Z"/>
    <path d="M122.75,115.12c.1-.36.41-.55.75-.46.36.1.52.42.42.77-.09.35-.4.55-.75.46-.35-.09-.51-.43-.42-.77ZM123.38,113.77l1.15-4.79.95.26-1.43,4.72-.67-.18Z"/>
  </g>
</svg>