<?xml version="1.0" encoding="UTF-8"?>
<svg xmlns="http://www.w3.org/2000/svg" viewBox="0 0 199.05 266.68">
  <defs>
    <style>
      .cls-1 {
        fill: #242424;
        mix-blend-mode: screen;
      }

      .cls-2 {
        isolation: isolate;
      }

      .cls-3 {
        fill: #2b2b2b;
      }

      .cls-4 {
        fill: #dedede;
        mix-blend-mode: multiply;
      }

      .cls-5 {
        fill: #1a4c0d;
      }

      .cls-6 {
        fill: #e63030;
      }
    </style>
  </defs>
  <g class="cls-2">
    <g id="Layer_1" data-name="Layer 1">
      <g>
        <path class="cls-3" d="M159.51,1.72H0v237.5h159.51c6.67,0,12.08-5.41,12.08-12.08V13.79c0-6.67-5.41-12.08-12.08-12.08Z"/>
        <g>
          <rect class="cls-5" x="131.07" y="1.72" width="12.07" height="237.5"/>
          <path class="cls-5" d="M143.14,0h-10.36c-.95,0-1.72.77-1.72,1.72h13.79c0-.95-.77-1.72-1.72-1.72Z"/>
          <path class="cls-5" d="M131.07,239.21c0,.95.77,1.72,1.72,1.72h10.36c.95,0,1.72-.77,1.72-1.72h-13.79Z"/>
        </g>
        <polygon class="cls-6" points="29.74 239.21 29.74 263.08 33.42 260.39 37.07 263.08 37.07 239.21 29.74 239.21"/>
        <rect class="cls-1" y="1.72" width="17.65" height="237.5"/>
        <rect class="cls-4" x="13.87" y="1.72" width="3.78" height="237.5"/>
      </g>
    </g>
  </g>
</svg>