<?xml version="1.0" encoding="UTF-8"?>
<svg xmlns="http://www.w3.org/2000/svg" viewBox="0 0 127.81 93.15">
  <defs>
    <style>
      .cls-1, .cls-2 {
        fill: #27411c;
      }

      .cls-2 {
        mix-blend-mode: screen;
      }

      .cls-3 {
        fill: #f0f0f0;
      }

      .cls-4 {
        fill: #cfba68;
      }

      .cls-5 {
        isolation: isolate;
      }

      .cls-6 {
        fill: #dbdbdb;
      }

      .cls-7 {
        fill: #ebebeb;
        mix-blend-mode: multiply;
      }

      .cls-8 {
        fill: #eaf3ff;
      }

      .cls-9 {
        fill: #ffe47f;
      }
    </style>
  </defs>
  <g class="cls-5">
    <g id="Layer_1" data-name="Layer 1">
      <g>
        <rect class="cls-7" x="8.4" y="12.53" width="114.13" height="70.08" rx="4.8" ry="4.8" transform="translate(-8.7 15.2) rotate(-12.43)"/>
        <path class="cls-7" d="M126.12,63.8c.57,2.6-1.07,5.16-3.66,5.73l-102.07,22.49c-2.59.57-5.16-1.06-5.73-3.66L1.64,29.31c-.57-2.59,1.07-5.15,3.66-5.73L107.38,1.09c2.59-.57,5.15,1.07,5.73,3.66l13.01,59.05Z"/>
        <rect class="cls-1" x="5.28" y="10.54" width="114.13" height="70.08" rx="4.81" ry="4.81" transform="translate(-8.35 14.49) rotate(-12.43)"/>
        <path class="cls-2" d="M114.33,16.27l-2.76-12.5c-.57-2.59-3.14-4.23-5.73-3.66L3.77,22.61c-2.59.57-4.23,3.13-3.66,5.73l12.38,56.16c46.02-12.37,82.84-38.12,101.84-68.22Z"/>
        <path class="cls-2" d="M69.2,8.19L3.77,22.61c-2.59.57-4.23,3.13-3.66,5.73l10.91,49.5c28.65-17.1,49.44-42.07,58.18-69.64Z"/>
        <path class="cls-6" d="M118.42,61.36c.14.65-.26,1.29-.91,1.43l-25.37,5.59c-.65.14-1.29-.27-1.43-.92l-2.62-11.88c-.14-.65.27-1.29.92-1.43l25.37-5.59c.65-.14,1.29.27,1.43.92l2.62,11.88Z"/>
        <g>
          <path class="cls-8" d="M22.75,65.38l-.92.2-.94-4.25c-.26.47-.6.83-1.01,1.12l-.23-1.02c.23-.16.45-.41.67-.73.22-.33.34-.68.37-1.05l.75-.16,1.3,5.9Z"/>
          <path class="cls-8" d="M28.25,63.07l.23,1.05-3.24.71c-.05-.4-.03-.8.07-1.2.1-.4.34-.94.73-1.63.3-.55.48-.92.54-1.11.09-.27.1-.52.05-.76-.06-.25-.16-.44-.3-.54-.14-.11-.31-.14-.49-.1-.41.09-.56.45-.46,1.07l-.95.09c-.08-.61,0-1.09.21-1.43.21-.34.55-.56,1.01-.66.5-.11.92-.03,1.25.24.33.27.54.62.64,1.05.05.24.07.48.05.72-.02.24-.07.49-.15.75-.09.26-.25.6-.49,1.02-.23.4-.37.66-.42.79-.05.12-.1.24-.12.35l1.84-.41Z"/>
          <path class="cls-8" d="M29.96,62.16l.87-.33c.08.27.21.47.37.58.16.12.33.16.5.12.19-.04.34-.16.43-.37.09-.2.11-.46.04-.76-.06-.29-.18-.5-.34-.63-.16-.14-.33-.18-.51-.14-.12.03-.25.09-.4.18l-.11-.94c.24-.04.42-.15.53-.32.11-.16.14-.36.08-.61-.04-.2-.13-.35-.25-.44-.13-.1-.27-.12-.42-.09s-.27.13-.36.29c-.09.16-.11.37-.08.63h-.89c-.03-.54.06-.97.26-1.27.2-.3.5-.49.89-.58.44-.1.82-.02,1.15.24.33.26.53.57.62.95.06.26.05.5-.02.73-.07.23-.2.45-.4.66.28.01.54.12.77.33.23.21.38.5.46.86.12.54.06,1.02-.19,1.44-.24.42-.58.68-1.02.78s-.81.02-1.17-.21c-.36-.23-.62-.6-.78-1.1Z"/>
          <path class="cls-8" d="M37.13,62.21l-.26-1.18-1.97.44-.22-.99,1.27-4.19.78-.17.82,3.72.6-.13.22.99-.6.13.26,1.18-.89.2ZM36.65,60.04l-.44-2.01-.66,2.25,1.11-.24Z"/>
          <path class="cls-8" d="M43.08,59.31l.9-.32c.08.25.2.44.37.55.17.12.33.16.49.12.19-.04.33-.17.43-.39.09-.22.1-.52.01-.91-.08-.37-.21-.63-.38-.77-.17-.15-.36-.2-.57-.15-.27.06-.47.26-.62.59l-.78.03-.2-3.17,2.44-.54.23,1.06-1.74.38.07,1.03c.18-.17.38-.28.59-.33.38-.08.74,0,1.07.24.42.31.7.78.83,1.4.11.52.08,1.02-.11,1.52-.19.5-.55.8-1.08.92-.43.09-.82.03-1.17-.18-.35-.22-.61-.58-.78-1.08Z"/>
          <path class="cls-8" d="M50.52,54.6l-.87.32c-.14-.43-.36-.6-.67-.54-.2.04-.34.19-.43.44-.08.25-.07.71.04,1.38.08-.19.18-.34.3-.46.13-.11.27-.19.45-.23.38-.08.74.02,1.1.31.36.29.6.73.73,1.31.14.62.09,1.14-.13,1.55-.22.42-.55.68-.99.77-.48.11-.93-.04-1.35-.42-.42-.39-.74-1.11-.98-2.17s-.24-1.89-.02-2.43c.23-.55.6-.87,1.11-.99.36-.08.68-.03.98.16.3.19.53.52.71.99ZM48.97,57.53c.08.37.21.64.39.8.18.17.36.23.54.19s.3-.15.38-.34c.08-.19.07-.47-.01-.84s-.2-.65-.37-.8c-.16-.15-.33-.2-.52-.16s-.31.15-.4.35c-.09.2-.09.46-.02.8Z"/>
          <path class="cls-8" d="M52.3,53.88l-.23-1.05,3.16-.7.18.82c-.19.37-.36.87-.5,1.51-.14.63-.21,1.3-.21,1.99,0,.69.06,1.3.18,1.84l-.89.2c-.16-.84-.21-1.7-.13-2.59.07-.89.25-1.72.54-2.48l-2.1.46Z"/>
          <path class="cls-8" d="M58.42,54.19c-.25-.07-.46-.19-.61-.37-.16-.18-.27-.41-.34-.69-.1-.46-.05-.86.15-1.19.2-.33.53-.54.97-.64.47-.1.86-.04,1.17.2.31.24.51.57.61.99.06.28.06.55-.02.78-.07.24-.2.43-.38.59.31.07.55.22.74.43.19.21.32.5.4.85s.08.7.01,1.01c-.08.31-.21.56-.42.76-.21.2-.45.33-.75.4-.47.1-.88.03-1.26-.23-.38-.26-.62-.65-.74-1.2-.08-.35-.07-.67,0-.95.08-.29.24-.52.47-.71ZM58.83,55.55c.07.31.19.54.36.68.17.14.35.19.54.15s.33-.16.42-.35c.09-.19.1-.45.03-.78-.06-.28-.18-.48-.34-.62s-.34-.18-.53-.14-.33.16-.42.35c-.1.2-.11.43-.05.7ZM58.36,53.02c.05.23.14.39.28.49.14.1.29.13.45.09s.29-.13.38-.27c.08-.14.1-.33.05-.56s-.14-.38-.27-.48c-.14-.1-.29-.13-.45-.09s-.3.13-.38.28c-.08.15-.1.33-.05.55Z"/>
          <path class="cls-8" d="M66.13,54.39l.87-.32c.14.43.36.6.67.54.2-.05.35-.19.43-.43.08-.25.07-.71-.04-1.38-.08.19-.18.34-.31.45-.13.11-.28.19-.45.23-.37.08-.73-.02-1.09-.31-.36-.29-.6-.72-.73-1.3-.14-.62-.1-1.14.13-1.56.22-.42.55-.68.98-.77.48-.11.94.03,1.35.42.42.39.75,1.11.98,2.17s.24,1.89.01,2.44c-.22.54-.6.87-1.12.99-.36.08-.69.03-.98-.16-.29-.19-.52-.52-.7-1.01ZM67.68,51.47c-.08-.37-.21-.63-.4-.8-.18-.17-.36-.23-.54-.19s-.3.15-.38.34c-.07.19-.07.47,0,.85s.21.64.37.79c.16.15.34.2.52.16.17-.04.31-.16.39-.35.09-.19.1-.46.02-.8Z"/>
          <path class="cls-8" d="M71.48,51.31c-.25-.07-.46-.19-.61-.37-.16-.18-.27-.41-.34-.69-.1-.46-.05-.86.15-1.19.2-.33.52-.54.97-.64.47-.1.86-.04,1.17.2.31.24.51.57.61.99.06.28.06.54-.02.78-.07.24-.2.43-.38.59.31.07.55.22.74.43.19.21.32.5.4.85s.08.7,0,1.01c-.08.31-.21.56-.42.76-.21.2-.45.33-.75.4-.46.1-.88.03-1.26-.23-.37-.26-.62-.65-.74-1.2-.08-.35-.08-.67,0-.95.08-.29.24-.52.47-.71ZM71.89,52.67c.07.31.19.54.36.68.17.14.35.19.54.15s.33-.15.42-.35c.09-.19.1-.45.03-.78-.06-.28-.18-.48-.34-.62-.17-.13-.35-.18-.54-.14s-.33.16-.42.35c-.09.2-.11.43-.05.7ZM71.42,50.14c.05.23.14.39.28.49.13.1.29.13.45.09s.29-.13.37-.27c.08-.14.1-.33.05-.56s-.14-.38-.27-.48c-.14-.1-.29-.13-.45-.09s-.3.13-.38.28c-.08.15-.1.33-.05.55Z"/>
          <path class="cls-8" d="M75.32,48.81l-.23-1.05,3.16-.7.18.82c-.19.37-.35.87-.49,1.51-.14.63-.21,1.3-.21,1.99,0,.69.06,1.3.18,1.84l-.89.2c-.17-.84-.21-1.7-.13-2.59.07-.89.25-1.72.54-2.48l-2.1.46Z"/>
          <path class="cls-8" d="M83.49,47.34l-.87.32c-.14-.43-.36-.6-.67-.54-.2.04-.34.19-.43.44-.08.25-.07.71.04,1.38.08-.19.18-.34.3-.46.12-.11.27-.19.44-.23.37-.08.74.02,1.1.31.36.29.6.72.73,1.31.14.62.09,1.14-.13,1.55-.22.42-.55.68-.99.77-.48.11-.93-.04-1.35-.42-.42-.39-.74-1.11-.98-2.17s-.24-1.89-.02-2.43c.22-.55.6-.87,1.11-.99.36-.08.68-.03.98.16.3.19.54.52.71.99ZM81.94,50.26c.08.37.21.64.39.8.18.17.36.23.54.19s.3-.15.37-.34c.08-.19.08-.47,0-.84s-.2-.65-.37-.8c-.16-.15-.33-.2-.52-.16s-.31.15-.4.35c-.09.2-.09.46-.02.79Z"/>
          <path class="cls-8" d="M89.11,49.17l.9-.32c.08.25.2.44.37.55.17.12.33.16.49.12.19-.04.33-.17.43-.39.09-.22.1-.52.01-.91-.08-.37-.21-.63-.38-.77-.17-.15-.37-.2-.58-.15-.27.06-.47.26-.62.59l-.78.03-.21-3.16,2.45-.54.23,1.06-1.74.38.07,1.03c.18-.17.38-.28.59-.33.38-.08.74,0,1.07.24.42.31.7.78.84,1.4.11.52.07,1.02-.11,1.52-.19.5-.55.8-1.08.92-.43.09-.82.03-1.16-.18-.35-.22-.61-.58-.78-1.08Z"/>
          <path class="cls-8" d="M96.21,49.19l-.26-1.18-1.97.43-.22-.99,1.27-4.19.78-.17.82,3.72.6-.13.22.99-.6.13.26,1.18-.9.2ZM95.73,47.02l-.44-2.01-.66,2.25,1.11-.24Z"/>
          <path class="cls-8" d="M99,46.94l.86-.33c.08.27.21.47.37.58.16.12.33.16.5.12.19-.04.33-.16.43-.37.09-.2.11-.46.04-.77-.06-.29-.18-.5-.34-.63-.16-.14-.33-.18-.51-.14-.12.03-.25.09-.4.18l-.1-.94c.24-.05.41-.15.53-.32.11-.16.13-.36.08-.61-.04-.2-.13-.35-.26-.44-.12-.1-.26-.12-.42-.09s-.28.13-.36.29c-.09.16-.11.37-.08.63h-.89c-.03-.54.06-.97.26-1.27.2-.3.5-.49.89-.58.44-.1.82-.02,1.15.24.33.26.53.57.62.95.06.26.05.5-.02.73-.07.23-.21.45-.4.66.28.01.54.12.76.33.22.21.38.5.46.86.12.54.06,1.02-.18,1.44-.24.42-.58.68-1.02.78s-.82.02-1.17-.21c-.36-.23-.62-.6-.78-1.1Z"/>
          <path class="cls-8" d="M107.25,45.66l.23,1.05-3.24.71c-.05-.4-.03-.8.07-1.2.09-.4.34-.94.72-1.63.3-.55.49-.92.54-1.11.09-.27.1-.52.05-.76-.06-.25-.16-.44-.3-.54-.14-.11-.31-.14-.5-.1-.41.09-.56.45-.45,1.07l-.95.09c-.08-.61,0-1.09.21-1.43.21-.34.55-.56,1.01-.66.51-.11.92-.03,1.25.24.33.27.54.62.64,1.05.05.24.07.48.05.72-.02.24-.07.49-.15.75-.09.26-.25.6-.49,1.02-.22.4-.36.66-.42.79-.05.12-.09.24-.12.35l1.84-.4Z"/>
        </g>
        <g>
          <path class="cls-8" d="M22.64,70.19c.3-.07.57.03.82.27.25.24.45.72.61,1.44s.17,1.23.05,1.56c-.12.33-.33.52-.63.59s-.58-.02-.82-.26c-.25-.24-.45-.72-.61-1.45s-.18-1.23-.05-1.55c.12-.33.33-.53.63-.59ZM22.77,70.79c-.12.03-.2.12-.23.29-.04.17.01.55.14,1.12s.24.93.35,1.07c.1.14.21.19.33.17s.2-.12.23-.29c.03-.17-.01-.54-.14-1.12s-.24-.93-.34-1.07c-.1-.14-.22-.19-.33-.17Z"/>
          <path class="cls-8" d="M25.84,69.48c.3-.07.57.03.82.27.25.24.45.72.61,1.44s.17,1.23.05,1.56c-.12.33-.33.52-.63.59s-.58-.02-.82-.26c-.25-.24-.45-.72-.61-1.45s-.17-1.23-.05-1.55c.12-.33.33-.53.63-.59ZM25.97,70.09c-.12.03-.2.12-.23.29-.04.17.01.55.14,1.12s.24.93.35,1.07c.1.14.21.19.33.17s.2-.12.23-.29c.03-.17,0-.54-.14-1.12s-.25-.93-.35-1.07c-.1-.14-.22-.19-.33-.17Z"/>
          <path class="cls-8" d="M29.04,68.78c.3-.07.57.03.82.27.25.24.45.72.61,1.44s.17,1.23.05,1.56c-.12.33-.33.52-.63.59s-.58-.02-.83-.26c-.24-.24-.45-.72-.61-1.45s-.17-1.23-.05-1.55c.12-.33.33-.53.63-.59ZM29.17,69.38c-.12.03-.19.12-.23.29-.03.17.01.54.14,1.12s.24.93.34,1.07c.1.14.21.19.33.17s.2-.12.23-.29c.03-.17,0-.54-.14-1.12s-.25-.93-.35-1.07c-.1-.14-.21-.19-.33-.17Z"/>
          <path class="cls-8" d="M32.24,68.07c.3-.07.57.03.82.27.25.24.45.72.61,1.44s.18,1.23.05,1.56c-.12.33-.33.52-.63.59s-.58-.02-.83-.26c-.24-.24-.45-.72-.61-1.45s-.17-1.23-.05-1.55c.12-.33.33-.53.63-.59ZM32.37,68.68c-.12.03-.19.12-.23.29-.04.17.01.54.14,1.12s.24.93.34,1.07c.1.14.21.19.33.17s.2-.12.23-.29c.03-.17,0-.54-.14-1.12s-.24-.93-.35-1.07c-.11-.14-.21-.19-.33-.17Z"/>
        </g>
        <g>
          <path class="cls-8" d="M57.49,62.51c.3-.07.57.03.82.27.25.24.45.72.61,1.44s.17,1.23.05,1.56c-.13.33-.33.52-.63.59s-.57-.02-.82-.26c-.24-.24-.45-.72-.61-1.45s-.17-1.23-.05-1.55c.12-.33.33-.53.63-.59ZM57.62,63.11c-.12.03-.2.12-.23.29-.03.17.01.55.14,1.12s.24.93.35,1.07c.1.14.21.19.33.17s.19-.12.23-.29c.03-.17,0-.54-.13-1.12s-.25-.93-.35-1.07c-.11-.14-.21-.19-.33-.17Z"/>
          <path class="cls-8" d="M62.04,65.48l-.59.13-.6-2.73c-.16.3-.38.54-.65.72l-.14-.65c.15-.1.3-.26.44-.47.14-.21.22-.44.24-.68l.48-.11.84,3.79Z"/>
          <path class="cls-8" d="M63.54,65.22l-.09-4.08.45-.1.08,4.08-.44.1Z"/>
          <path class="cls-8" d="M65.47,63.68l.56-.21c.05.17.14.3.24.37.1.08.21.1.32.08.13-.03.21-.11.28-.24.06-.13.07-.3.02-.49-.04-.18-.11-.32-.22-.41-.11-.09-.22-.12-.33-.09-.08.02-.16.05-.26.11l-.07-.61c.15-.03.27-.1.34-.2.07-.11.09-.24.05-.39-.03-.13-.09-.23-.16-.28-.08-.06-.17-.08-.27-.06s-.18.08-.23.18c-.06.1-.07.24-.05.41h-.58c-.02-.35.04-.63.17-.82.13-.19.32-.32.57-.38.28-.06.53-.01.74.15.21.16.34.37.4.61.04.17.03.32-.01.47-.05.15-.13.29-.26.42.18.01.35.08.49.22.14.13.24.32.29.55.08.35.04.65-.12.93-.15.27-.37.44-.66.5s-.52.02-.75-.13c-.23-.15-.4-.38-.5-.7Z"/>
          <path class="cls-8" d="M68.71,63l.57-.21c.05.16.13.28.24.36.11.07.21.1.32.08.12-.03.21-.11.27-.25.06-.14.06-.34,0-.59-.05-.23-.13-.4-.24-.5-.11-.09-.23-.13-.37-.1-.17.04-.3.16-.4.38l-.5.02-.13-2.04,1.57-.35.15.68-1.12.25.05.66c.12-.11.24-.18.38-.21.24-.05.47,0,.69.15.27.2.45.5.53.9.07.33.05.66-.07.98-.13.32-.35.51-.7.59-.27.06-.53.02-.75-.12-.22-.14-.39-.37-.5-.69Z"/>
        </g>
        <g>
          <path class="cls-8" d="M26.07,80.57l.66.1c0,.45-.09.79-.27,1.03-.18.24-.43.4-.75.47-.4.09-.76,0-1.09-.25-.37-.29-.61-.75-.75-1.36-.14-.64-.11-1.18.1-1.61.19-.37.49-.6.92-.7.35-.08.67-.02.95.16.2.13.38.36.53.67l-.58.32c-.09-.2-.2-.34-.34-.42-.14-.08-.29-.11-.45-.07-.23.05-.39.19-.49.42-.1.23-.1.58,0,1.04s.25.8.44.97c.18.17.39.23.62.18.16-.04.29-.13.38-.29.1-.15.14-.38.13-.67Z"/>
          <path class="cls-8" d="M31.1,80.92l-.68.15-.46-.79-1.24.27-.06.91-.67.15.37-4.04.67-.15,2.07,3.5ZM29.62,79.68l-.74-1.31-.11,1.5.85-.19Z"/>
          <path class="cls-8" d="M32.22,80.67l-.83-3.78,1.32-.29c.34-.07.58-.09.74-.06.16.04.3.13.43.28.13.15.22.34.27.57.06.29.05.55-.05.76-.11.21-.28.37-.53.47.15.07.29.15.4.24.11.09.27.27.49.54l.54.65-.74.16-.63-.72c-.23-.26-.38-.42-.45-.48-.08-.06-.15-.1-.22-.12-.07-.01-.18,0-.33.03-.13.03.22,1.61.22,1.61l-.62.14ZM32.37,78.35l.47-.1c.28-.06.46-.11.53-.15.07-.04.12-.11.16-.19.03-.09.03-.19,0-.32s-.07-.21-.14-.28c-.07-.06-.14-.1-.23-.1-.06,0-.23.02-.51.08l-.49.11.21.96Z"/>
          <path class="cls-8" d="M35.3,76.03l1.14-.25c.29-.06.51-.08.68-.05.16.03.32.11.48.23.16.13.3.3.42.54.13.23.23.52.31.88.07.33.1.62.08.88-.02.26-.07.47-.16.64-.08.16-.2.3-.34.41-.14.11-.34.19-.6.24l-1.17.26-.83-3.78ZM36.07,76.53l.55,2.5.47-.1c.2-.04.34-.1.43-.15.08-.05.14-.13.18-.22.04-.09.06-.22.06-.39,0-.17-.03-.4-.09-.67s-.13-.5-.2-.65c-.07-.15-.16-.27-.27-.34-.1-.07-.21-.11-.34-.12-.09,0-.26.03-.51.08l-.28.06Z"/>
          <path class="cls-8" d="M40.06,78.94l-.83-3.78.62-.14.33,1.49,1.23-.27-.33-1.49.62-.14.83,3.78-.62.14-.36-1.65-1.23.27.36,1.65-.62.14Z"/>
          <path class="cls-8" d="M43.43,76.24c-.1-.45-.11-.84-.05-1.16.07-.32.19-.57.38-.77.19-.19.43-.32.74-.38.44-.1.84,0,1.2.27.35.28.6.73.74,1.35s.1,1.16-.12,1.58c-.19.37-.51.61-.95.71s-.84.02-1.17-.24c-.38-.29-.63-.74-.76-1.37ZM44.07,76.07c.1.44.25.75.46.93.21.18.44.25.68.19s.43-.21.54-.46c.12-.25.12-.6.03-1.05s-.25-.74-.45-.92c-.2-.17-.44-.23-.69-.18s-.44.21-.55.45c-.11.25-.12.59-.02,1.03Z"/>
          <path class="cls-8" d="M48.15,77.16l-.83-3.75.62-.14.69,3.11,1.56-.34.14.64-2.18.48Z"/>
          <path class="cls-8" d="M50.73,72.63l1.14-.25c.29-.06.51-.08.67-.05.16.03.32.11.48.23.16.13.3.3.43.53.13.23.23.52.3.88.07.33.1.62.08.88-.02.26-.07.47-.15.63-.08.16-.2.3-.34.41-.14.11-.34.19-.6.24l-1.17.26-.83-3.78ZM51.5,73.13l.55,2.5.47-.1c.2-.04.34-.1.42-.15.08-.06.15-.13.18-.22.04-.09.06-.22.06-.39,0-.17-.03-.4-.09-.67s-.13-.5-.2-.65c-.07-.15-.16-.27-.26-.34-.1-.07-.22-.11-.34-.12-.09,0-.27.03-.52.08l-.28.06Z"/>
          <path class="cls-8" d="M55.49,75.54l-.83-3.78,2.3-.51.14.64-1.68.37.18.84,1.56-.34.14.63-1.56.34.23,1.03,1.73-.38.14.64-2.36.52Z"/>
          <path class="cls-8" d="M59.17,74.73l-.83-3.78,1.31-.29c.34-.07.59-.09.75-.06.16.04.3.13.43.28.13.15.22.34.27.57.06.29.05.55-.05.76-.1.21-.28.37-.53.47.16.07.29.15.4.24.11.09.28.27.49.54l.54.65-.74.16-.63-.72c-.23-.26-.38-.42-.45-.48-.08-.06-.15-.1-.22-.11-.07-.01-.18,0-.33.03-.13.03.22,1.61.22,1.61l-.62.14ZM59.31,72.41l.46-.1c.28-.06.46-.11.53-.16.07-.04.12-.11.15-.19.03-.09.04-.19,0-.32s-.07-.21-.14-.28c-.06-.06-.14-.1-.23-.1-.06,0-.23.02-.51.08l-.49.11.21.96Z"/>
          <path class="cls-8" d="M65.08,73.43l-.83-3.78.61-.13,1.82,2.24-.56-2.52.58-.13.83,3.78-.63.14-1.79-2.19.54,2.46-.58.13Z"/>
          <path class="cls-8" d="M71.79,71.95l-.68.15-.46-.79-1.24.27-.07.91-.66.15.37-4.04.67-.15,2.07,3.5ZM70.31,70.71l-.74-1.31-.11,1.5.85-.19Z"/>
          <path class="cls-8" d="M72.9,71.7l-.83-3.78.94-.21,1.13,2.46v-2.7s.93-.21.93-.21l.83,3.78-.58.13-.66-2.98.04,3.11-.6.13-1.27-2.84.66,2.98-.58.13Z"/>
          <path class="cls-8" d="M77.31,70.73l-.83-3.78,2.3-.51.14.64-1.68.37.18.84,1.56-.34.14.63-1.56.34.23,1.03,1.73-.38.14.64-2.36.52Z"/>
        </g>
        <g>
          <path class="cls-8" d="M81.21,18.55l1.02.16c0,.69-.14,1.22-.42,1.61-.27.38-.66.62-1.16.73-.63.14-1.19,0-1.69-.39-.57-.46-.96-1.17-1.17-2.11-.22-1-.17-1.84.16-2.5.29-.58.76-.94,1.42-1.09.54-.12,1.03-.03,1.48.25.32.21.59.55.83,1.04l-.9.5c-.13-.31-.31-.52-.53-.65-.22-.13-.46-.17-.71-.11-.36.08-.61.3-.77.66-.16.36-.15.89,0,1.61s.39,1.25.68,1.51c.29.27.61.36.95.28.26-.06.46-.21.6-.45.14-.24.21-.59.2-1.04Z"/>
          <path class="cls-8" d="M83.88,20.23l-1.3-5.88,2.05-.45c.52-.12.91-.14,1.16-.09.25.06.47.2.67.43.2.23.34.53.42.89.1.46.07.85-.09,1.18-.16.33-.43.57-.82.74.24.1.45.23.63.37.17.15.43.43.77.83l.84,1.02-1.16.26-.99-1.12c-.36-.41-.59-.66-.71-.76-.11-.1-.23-.16-.34-.17-.11-.02-.28-.01-.5.04l-.2.04.54,2.46-.97.21ZM84.1,16.62l.72-.16c.44-.1.72-.18.83-.24.11-.07.19-.17.24-.3.05-.13.05-.3,0-.5-.04-.19-.11-.33-.21-.43-.1-.1-.22-.15-.36-.17-.1-.01-.36.03-.8.13l-.76.17.33,1.49Z"/>
          <path class="cls-8" d="M89.15,19.07l-1.3-5.88,3.58-.79.22,1-2.61.57.29,1.3,2.42-.53.22.99-2.42.53.35,1.59,2.7-.59.22,1-3.67.81Z"/>
          <path class="cls-8" d="M92.75,12.11l1.77-.39c.45-.1.8-.12,1.05-.07.25.05.5.17.74.37.24.2.47.47.66.83.19.35.35.81.48,1.38.11.51.15.96.12,1.36-.03.4-.11.73-.24.99-.12.26-.3.47-.53.64-.23.16-.53.29-.93.38l-1.83.4-1.3-5.88ZM93.94,12.89l.86,3.89.73-.16c.31-.07.53-.14.66-.23.13-.09.22-.2.29-.34.07-.14.1-.34.1-.61,0-.27-.04-.61-.13-1.03s-.2-.77-.32-1.01c-.11-.24-.25-.42-.41-.53-.16-.12-.33-.18-.53-.18-.14,0-.41.04-.8.12l-.44.1Z"/>
          <path class="cls-8" d="M99.29,16.83l-1.3-5.88.97-.21,1.3,5.88-.97.21Z"/>
          <path class="cls-8" d="M102.68,16.09l-1.08-4.89-1.43.32-.22-1,3.83-.84.22,1-1.43.31,1.08,4.89-.97.21Z"/>
          <path class="cls-8" d="M83.38,28.4l1.02.16c0,.69-.14,1.22-.42,1.61-.27.38-.66.62-1.16.73-.63.14-1.19,0-1.69-.39-.57-.46-.96-1.16-1.17-2.11-.22-1-.17-1.84.16-2.5.29-.58.76-.94,1.42-1.09.54-.12,1.03-.03,1.48.25.32.21.59.55.83,1.04l-.9.5c-.13-.31-.31-.53-.53-.65-.22-.13-.46-.17-.71-.11-.36.08-.61.3-.77.66-.16.36-.15.9,0,1.61s.39,1.25.68,1.51c.29.26.61.36.95.28.26-.06.46-.21.6-.45.14-.24.21-.58.2-1.04Z"/>
          <path class="cls-8" d="M90.4,29.13l-1.06.23-.72-1.24-1.93.42-.11,1.42-1.03.23.58-6.29,1.03-.23,3.23,5.45ZM88.09,27.2l-1.15-2.04-.17,2.33,1.32-.29Z"/>
          <path class="cls-8" d="M91.32,28.92l-1.29-5.88,2.05-.45c.52-.12.91-.15,1.15-.09.25.06.48.2.67.43.2.23.34.53.42.89.1.46.07.86-.09,1.18-.16.33-.43.57-.82.74.24.11.45.23.62.38.18.15.43.43.77.84l.84,1.01-1.16.26-.98-1.12c-.36-.41-.59-.66-.71-.76-.11-.1-.23-.16-.34-.18-.11-.02-.28,0-.51.04l-.2.04.54,2.45-.97.21ZM91.54,25.32l.72-.16c.44-.1.71-.18.83-.24.11-.06.19-.16.24-.3.05-.13.05-.3,0-.49-.04-.19-.11-.33-.21-.43-.1-.1-.22-.15-.36-.16-.1-.01-.37.03-.8.13l-.76.17.33,1.49Z"/>
          <path class="cls-8" d="M95.29,21.89l1.78-.39c.45-.1.8-.13,1.05-.08.25.05.5.17.74.37.24.2.46.47.65.83.19.36.35.82.48,1.38.11.51.15.96.12,1.36-.03.4-.11.73-.24.99-.13.26-.3.47-.53.64-.23.17-.54.29-.93.38l-1.83.4-1.29-5.88ZM96.48,22.66l.86,3.89.73-.16c.31-.07.53-.14.66-.23.12-.09.22-.21.29-.34.06-.14.09-.35.1-.61,0-.27-.04-.61-.14-1.03-.1-.44-.2-.77-.31-1.01-.12-.24-.25-.42-.41-.53-.16-.12-.34-.18-.53-.18-.14,0-.41.04-.8.12l-.44.1Z"/>
        </g>
        <path class="cls-9" d="M17.73,39.49h13.67c.66,0,1.2.54,1.2,1.2v13.67c0,.66-.54,1.2-1.2,1.2h-13.67c-.66,0-1.2-.54-1.2-1.2v-13.67c0-.66.54-1.2,1.2-1.2Z" transform="translate(-9.65 6.4) rotate(-12.43)"/>
        <path class="cls-4" d="M31.96,43.77l-.26-1.17-4.64,1.02-1.02-4.65-1.17.26,1.02,4.65-4.06.89-1.02-4.65-1.17.26,1.02,4.65-4.65,1.02.26,1.17,4.65-1.02.89,4.06-4.65,1.02.26,1.17,4.65-1.02,1.02,4.65,1.17-.26-1.02-4.65,4.06-.89,1.02,4.65,1.17-.26-1.02-4.65,4.64-1.02-.26-1.17-4.64,1.02-.89-4.06,4.64-1.02ZM27.04,49.11l-4.06.89-.89-4.06,4.06-.89.89,4.06Z"/>
        <rect class="cls-3" x="93.86" y="52.73" width="4.89" height="14.57" transform="translate(-10.66 22.13) rotate(-12.43)"/>
        <rect class="cls-3" x="106.26" y="49.99" width="4.89" height="14.57" transform="translate(-9.78 24.74) rotate(-12.43)"/>
      </g>
    </g>
  </g>
</svg>