<?xml version="1.0" encoding="UTF-8"?>
<svg xmlns="http://www.w3.org/2000/svg" viewBox="0 0 109.75 201.18">
  <defs>
    <style>
      .cls-1 {
        fill: #cbccd1;
      }

      .cls-2 {
        mix-blend-mode: screen;
      }

      .cls-2, .cls-3, .cls-4 {
        fill: #40532e;
      }

      .cls-5 {
        isolation: isolate;
      }

      .cls-6 {
        fill: #c4c4c4;
      }

      .cls-7 {
        fill: #8d8e91;
      }

      .cls-4 {
        mix-blend-mode: multiply;
      }

      .cls-8 {
        fill: #ababab;
      }

      .cls-9 {
        fill: #aaabaf;
      }
    </style>
  </defs>
  <g class="cls-5">
    <g id="Layer_1" data-name="Layer 1">
      <g>
        <g>
          <path class="cls-8" d="M48.94,178.65l8.17-110.02-6.9-.51-1.26,17.07-10.52,4.65,2.97,88.29c.06,1.89,1.81,3.54,3.78,3.68,1.98.15,3.63-1.26,3.77-3.14Z"/>
          <g>
            <path class="cls-3" d="M59.09,76.57c.51-4.18,1.89-13.26,4.88-19.5,4.63-9.67,26.4-14.36,26.4-35.28C90.37,9.78,80.63.04,68.6.04,64.64.04,57.54.02,52.54,0c-3.14,0-5.69,2.54-5.69,5.68v1.9h-.52c-.63,0-1.14.51-1.14,1.14v11c0,.64.51,1.14,1.14,1.14h.52v55.71c0,1.26,1.02,2.27,2.27,2.27h7.45c1.26,0,2.37-1.01,2.52-2.26ZM52.73,21.8c0-8.76,7.11-15.88,15.88-15.88s15.88,7.12,15.88,15.88-7.11,15.88-15.88,15.88-15.88-7.11-15.88-15.88Z"/>
            <path class="cls-2" d="M51.4,32.8c3.63,5.66,9.99,9.43,17.21,9.43,2.04,0,4.02-.3,5.89-.86-1.19.93-2.41,1.83-3.62,2.72-4.56,3.39-8.88,6.58-11.01,11.02-2.86,5.98-4.35,14.01-5.07,19.18h-3.4v-41.49ZM51.4,5.68c0-.38.18-.65.33-.8.15-.15.41-.33.8-.33,1.55,0,3.31,0,5.11.01-2.5,1.6-4.63,3.73-6.24,6.23v-5.12Z"/>
            <path class="cls-4" d="M46.32,7.58c-.63,0-1.14.51-1.14,1.14v11c0,.64.51,1.14,1.14,1.14h.52V7.58h-.52Z"/>
          </g>
        </g>
        <g>
          <path class="cls-6" d="M41.43,178.65l-8.17-110.02,6.9-.51,1.27,17.07,10.52,4.65-2.97,88.29c-.06,1.89-1.82,3.54-3.78,3.68-1.99.15-3.63-1.26-3.77-3.14Z"/>
          <g>
            <path class="cls-3" d="M33.8,78.83h7.45c1.25,0,2.27-1.01,2.27-2.27V20.85h.52c.63,0,1.14-.5,1.14-1.14v-11c0-.63-.51-1.14-1.14-1.14h-.52v-1.9C43.52,2.54,40.98,0,37.83,0c-5.01.02-12.11.04-16.07.04C9.75.04,0,9.78,0,21.8c0,20.91,21.76,25.6,26.4,35.28,2.99,6.24,4.37,15.32,4.88,19.5.15,1.25,1.26,2.26,2.52,2.26ZM21.76,37.67c-8.77,0-15.88-7.11-15.88-15.88s7.11-15.88,15.88-15.88,15.88,7.12,15.88,15.88-7.11,15.88-15.88,15.88Z"/>
            <path class="cls-2" d="M38.97,74.29h-3.41c-.71-5.17-2.2-13.2-5.06-19.18-2.12-4.44-6.44-7.63-11-11.02-1.21-.9-2.43-1.79-3.62-2.72,1.86.56,3.84.86,5.89.86,7.22,0,13.58-3.77,17.21-9.43v41.49ZM38.97,10.8c-1.6-2.5-3.73-4.63-6.24-6.23,1.8,0,3.56,0,5.11-.01.38,0,.65.18.8.33.15.15.33.41.33.8v5.12Z"/>
            <path class="cls-4" d="M44.05,7.58c.63,0,1.14.51,1.14,1.14v11c0,.64-.51,1.14-1.14,1.14h-.52V7.58h.52Z"/>
          </g>
        </g>
        <g>
          <path class="cls-7" d="M45.18,100.31c2.08,0,3.76-1.69,3.76-3.77s-1.68-3.77-3.76-3.77-3.77,1.69-3.77,3.77,1.69,3.77,3.77,3.77Z"/>
          <path class="cls-1" d="M45.18,99.46c1.61,0,2.92-1.31,2.92-2.92s-1.31-2.92-2.92-2.92-2.92,1.31-2.92,2.92,1.31,2.92,2.92,2.92Z"/>
          <path class="cls-9" d="M48.1,96.55c0,1.61-1.31,2.92-2.92,2.92v-5.83c1.61,0,2.92,1.31,2.92,2.92Z"/>
        </g>
      </g>
    </g>
  </g>
</svg>