<?xml version="1.0" encoding="UTF-8"?>
<svg id="Layer_1" data-name="Layer 1" xmlns="http://www.w3.org/2000/svg" viewBox="0 0 534.71 141.25">
  <defs>
    <style>
      .cls-1 {
        fill: #b7b8bc;
      }

      .cls-2 {
        fill: #fff;
      }
    </style>
  </defs>
  <rect class="cls-1" x="0" width="534.71" height="141.25"/>
  <g>
    <rect class="cls-2" x="7.45" y="7.45" width="19.08" height="11.83"/>
    <rect class="cls-2" x="31.85" y="7.45" width="19.09" height="11.83"/>
    <rect class="cls-2" x="56.15" y="7.45" width="19.09" height="11.83"/>
    <rect class="cls-2" x="80.45" y="7.45" width="19.09" height="11.83"/>
    <rect class="cls-2" x="104.76" y="7.45" width="19.09" height="11.83"/>
    <rect class="cls-2" x="129.06" y="7.45" width="19.09" height="11.83"/>
    <rect class="cls-2" x="153.36" y="7.45" width="19.09" height="11.83"/>
    <rect class="cls-2" x="177.66" y="7.45" width="19.09" height="11.83"/>
    <rect class="cls-2" x="201.96" y="7.45" width="19.09" height="11.83"/>
    <rect class="cls-2" x="226.26" y="7.45" width="19.1" height="11.83"/>
    <rect class="cls-2" x="250.57" y="7.45" width="19.1" height="11.83"/>
    <rect class="cls-2" x="274.88" y="7.45" width="19.09" height="11.83"/>
    <rect class="cls-2" x="299.17" y="7.45" width="19.1" height="11.83"/>
    <rect class="cls-2" x="323.48" y="7.45" width="19.09" height="11.83"/>
    <rect class="cls-2" x="7.45" y="22.95" width="19.08" height="19.1"/>
    <rect class="cls-2" x="30.99" y="22.95" width="19.09" height="19.1"/>
    <rect class="cls-2" x="54.44" y="22.95" width="19.1" height="19.1"/>
    <rect class="cls-2" x="77.89" y="22.95" width="19.1" height="19.1"/>
    <rect class="cls-2" x="101.35" y="22.95" width="19.1" height="19.1"/>
    <rect class="cls-2" x="124.8" y="22.95" width="19.09" height="19.1"/>
    <rect class="cls-2" x="148.26" y="22.95" width="19.1" height="19.1"/>
    <rect class="cls-2" x="171.7" y="22.95" width="19.1" height="19.1"/>
    <rect class="cls-2" x="195.16" y="22.95" width="19.09" height="19.1"/>
    <rect class="cls-2" x="218.61" y="22.95" width="19.09" height="19.1"/>
    <rect class="cls-2" x="242.06" y="22.95" width="19.09" height="19.1"/>
    <rect class="cls-2" x="265.51" y="22.95" width="19.1" height="19.1"/>
    <rect class="cls-2" x="288.97" y="22.95" width="19.09" height="19.1"/>
    <rect class="cls-2" x="312.41" y="22.95" width="30.16" height="19.1"/>
    <g>
      <rect class="cls-2" x="356.99" y="7.45" width="19.1" height="11.83"/>
      <rect class="cls-2" x="380.8" y="7.45" width="19.1" height="11.84"/>
      <rect class="cls-2" x="404.62" y="7.45" width="19.09" height="11.84"/>
    </g>
    <g>
      <rect class="cls-2" x="356.99" y="22.95" width="19.1" height="19.1"/>
      <rect class="cls-2" x="380.8" y="22.95" width="19.1" height="19.1"/>
      <rect class="cls-2" x="404.62" y="22.95" width="19.09" height="19.1"/>
    </g>
    <g>
      <rect class="cls-2" x="356.99" y="45.89" width="19.1" height="19.1"/>
      <rect class="cls-2" x="380.8" y="45.89" width="19.1" height="19.1"/>
      <rect class="cls-2" x="404.62" y="45.89" width="19.09" height="19.1"/>
    </g>
    <rect class="cls-2" x="436.71" y="7.45" width="19.1" height="11.83"/>
    <rect class="cls-2" x="460.53" y="7.45" width="19.09" height="11.84"/>
    <rect class="cls-2" x="484.34" y="7.45" width="19.1" height="11.84"/>
    <rect class="cls-2" x="436.71" y="22.95" width="19.1" height="19.1"/>
    <rect class="cls-2" x="460.53" y="22.95" width="19.09" height="19.1"/>
    <rect class="cls-2" x="484.34" y="22.95" width="19.1" height="19.1"/>
    <rect class="cls-2" x="436.71" y="45.89" width="19.1" height="19.1"/>
    <rect class="cls-2" x="460.53" y="45.89" width="19.09" height="19.1"/>
    <rect class="cls-2" x="484.34" y="45.89" width="19.1" height="19.1"/>
    <rect class="cls-2" x="508.15" y="7.45" width="19.1" height="11.84"/>
    <rect class="cls-2" x="508.15" y="22.95" width="19.1" height="19.1"/>
    <rect class="cls-2" x="508.15" y="45.89" width="19.1" height="19.1"/>
    <rect class="cls-2" x="436.71" y="45.89" width="19.1" height="19.1"/>
    <rect class="cls-2" x="436.71" y="68.83" width="19.1" height="19.1"/>
    <rect class="cls-2" x="436.71" y="91.77" width="19.1" height="19.09"/>
    <rect class="cls-2" x="460.53" y="91.77" width="19.09" height="19.09"/>
    <rect class="cls-2" x="484.34" y="91.77" width="19.1" height="19.09"/>
    <rect class="cls-2" x="508.15" y="91.77" width="19.1" height="42.04"/>
    <rect class="cls-2" x="460.53" y="68.83" width="19.09" height="19.1"/>
    <rect class="cls-2" x="484.34" y="68.83" width="19.1" height="19.1"/>
    <rect class="cls-2" x="508.15" y="68.83" width="19.1" height="19.1"/>
    <rect class="cls-2" x="380.8" y="91.77" width="19.1" height="19.09"/>
    <g>
      <rect class="cls-2" x="356.99" y="114.71" width="19.1" height="19.1"/>
      <rect class="cls-2" x="380.8" y="114.71" width="19.1" height="19.1"/>
      <rect class="cls-2" x="404.62" y="114.71" width="19.09" height="19.1"/>
    </g>
    <rect class="cls-2" x="7.45" y="114.7" width="30.94" height="19.09"/>
    <rect class="cls-2" x="42.72" y="114.7" width="24.58" height="19.09"/>
    <rect class="cls-2" x="71.66" y="114.7" width="31.24" height="19.09"/>
    <rect class="cls-2" x="107.25" y="114.7" width="136.59" height="19.09"/>
    <rect class="cls-2" x="248.2" y="114.7" width="30.81" height="19.09"/>
    <rect class="cls-2" x="283.37" y="114.7" width="24.69" height="19.09"/>
    <rect class="cls-2" x="312.41" y="114.7" width="30.16" height="19.09"/>
    <rect class="cls-2" x="323.48" y="45.89" width="19.09" height="19.1"/>
    <rect class="cls-2" x="300.1" y="45.89" width="19.09" height="19.1"/>
    <rect class="cls-2" x="276.73" y="45.89" width="19.09" height="19.1"/>
    <rect class="cls-2" x="253.35" y="45.89" width="19.09" height="19.1"/>
    <rect class="cls-2" x="229.97" y="45.89" width="19.09" height="19.1"/>
    <rect class="cls-2" x="206.6" y="45.89" width="19.1" height="19.1"/>
    <rect class="cls-2" x="183.23" y="45.89" width="19.09" height="19.1"/>
    <rect class="cls-2" x="159.84" y="45.89" width="19.1" height="19.1"/>
    <rect class="cls-2" x="136.46" y="45.89" width="19.09" height="19.1"/>
    <rect class="cls-2" x="113.09" y="45.89" width="19.09" height="19.1"/>
    <rect class="cls-2" x="89.71" y="45.89" width="19.09" height="19.1"/>
    <rect class="cls-2" x="66.33" y="45.89" width="19.09" height="19.1"/>
    <rect class="cls-2" x="42.96" y="45.89" width="19.09" height="19.1"/>
    <rect class="cls-2" x="7.45" y="45.89" width="31.24" height="19.1"/>
    <rect class="cls-2" x="7.45" y="68.83" width="36.34" height="19.09"/>
    <rect class="cls-2" x="48.2" y="68.83" width="19.09" height="19.09"/>
    <rect class="cls-2" x="71.72" y="68.83" width="19.1" height="19.09"/>
    <rect class="cls-2" x="95.24" y="68.83" width="19.09" height="19.09"/>
    <rect class="cls-2" x="118.75" y="68.83" width="19.09" height="19.09"/>
    <rect class="cls-2" x="142.26" y="68.83" width="19.1" height="19.09"/>
    <rect class="cls-2" x="165.78" y="68.83" width="19.1" height="19.09"/>
    <rect class="cls-2" x="189.3" y="68.83" width="19.09" height="19.09"/>
    <rect class="cls-2" x="212.82" y="68.83" width="19.1" height="19.09"/>
    <rect class="cls-2" x="236.34" y="68.83" width="19.1" height="19.09"/>
    <rect class="cls-2" x="259.85" y="68.83" width="19.09" height="19.09"/>
    <rect class="cls-2" x="283.37" y="68.83" width="19.09" height="19.09"/>
    <rect class="cls-2" x="306.88" y="68.83" width="35.68" height="19.09"/>
    <rect class="cls-2" x="7.45" y="91.77" width="48.47" height="19.09"/>
    <rect class="cls-2" x="60.31" y="91.77" width="19.09" height="19.09"/>
    <rect class="cls-2" x="83.8" y="91.77" width="19.09" height="19.09"/>
    <rect class="cls-2" x="107.27" y="91.77" width="19.1" height="19.09"/>
    <rect class="cls-2" x="130.77" y="91.77" width="19.09" height="19.09"/>
    <rect class="cls-2" x="154.26" y="91.77" width="19.09" height="19.09"/>
    <rect class="cls-2" x="177.74" y="91.77" width="19.09" height="19.09"/>
    <rect class="cls-2" x="201.22" y="91.77" width="19.1" height="19.09"/>
    <rect class="cls-2" x="224.72" y="91.77" width="19.09" height="19.09"/>
    <rect class="cls-2" x="248.2" y="91.77" width="19.1" height="19.09"/>
    <rect class="cls-2" x="271.68" y="91.77" width="19.09" height="19.09"/>
    <rect class="cls-2" x="295.17" y="91.77" width="47.4" height="19.09"/>
    <rect class="cls-2" x="436.71" y="91.77" width="19.1" height="19.09"/>
    <rect class="cls-2" x="436.71" y="114.71" width="42.9" height="19.1"/>
    <rect class="cls-2" x="484.34" y="114.71" width="19.1" height="19.1"/>
  </g>
</svg>