<?xml version="1.0" encoding="UTF-8"?>
<svg xmlns="http://www.w3.org/2000/svg" viewBox="0 0 133.02 57.94">
  <defs>
    <style>
      .cls-1 {
        fill: #ffcb61;
      }

      .cls-2 {
        fill: #b4b4b4;
        opacity: .65;
      }

      .cls-2, .cls-3, .cls-4, .cls-5, .cls-6, .cls-7, .cls-8, .cls-9, .cls-10, .cls-11, .cls-12, .cls-13, .cls-14, .cls-15, .cls-16, .cls-17, .cls-18, .cls-19, .cls-20, .cls-21, .cls-22, .cls-23, .cls-24, .cls-25, .cls-26, .cls-27, .cls-28, .cls-29, .cls-30 {
        mix-blend-mode: multiply;
      }

      .cls-3 {
        fill: #d7d7d7;
        opacity: .35;
      }

      .cls-4 {
        fill: #c5c5c5;
        opacity: .5;
      }

      .cls-5 {
        fill: #fff;
        opacity: 0;
      }

      .cls-6 {
        fill: #cacaca;
        opacity: .46;
      }

      .cls-7 {
        fill: #cecece;
        opacity: .42;
      }

      .cls-8 {
        fill: #c1c1c1;
        opacity: .54;
      }

      .cls-9 {
        fill: #afafaf;
        opacity: .69;
      }

      .cls-10 {
        fill: #959595;
        opacity: .92;
      }

      .cls-11 {
        fill: #f2f2f2;
        opacity: .12;
      }

      .cls-12 {
        fill: #909090;
        opacity: .96;
      }

      .cls-13 {
        fill: #ababab;
        opacity: .73;
      }

      .cls-14 {
        fill: #9e9e9e;
        opacity: .85;
      }

      .cls-15 {
        fill: #e4e4e4;
        opacity: .23;
      }

      .cls-31 {
        isolation: isolate;
      }

      .cls-16 {
        fill: #b8b8b8;
        opacity: .62;
      }

      .cls-17 {
        fill: #fbfbfb;
        opacity: .04;
      }

      .cls-18, .cls-32 {
        fill: #cfcfcf;
      }

      .cls-19 {
        fill: #e0e0e0;
        opacity: .27;
      }

      .cls-20 {
        fill: #a2a2a2;
        opacity: .81;
      }

      .cls-21 {
        fill: #d3d3d3;
        opacity: .38;
      }

      .cls-22 {
        fill: #999;
        opacity: .88;
      }

      .cls-24 {
        fill: #8c8c8c;
      }

      .cls-25 {
        fill: #f6f6f6;
        opacity: .08;
      }

      .cls-26 {
        fill: #a7a7a7;
        opacity: .77;
      }

      .cls-27 {
        fill: #ededed;
        opacity: .15;
      }

      .cls-28 {
        fill: #e9e9e9;
        opacity: .19;
      }

      .cls-29 {
        fill: #bdbdbd;
        opacity: .58;
      }

      .cls-33 {
        fill: #ffb217;
      }

      .cls-30 {
        fill: #dcdcdc;
        opacity: .31;
      }
    </style>
  </defs>
  <g class="cls-31">
    <g id="Layer_1" data-name="Layer 1">
      <g>
        <g>
          <path class="cls-24" d="M9.03,34.58c-1.48-1.36-2.56-3.19-2.89-5.32-.79-5.04,2.65-9.77,7.69-10.56,2.14-.34,4.2.12,5.95,1.12-2-1.84-4.77-2.82-7.66-2.36-5.04.79-8.48,5.52-7.69,10.56.46,2.9,2.24,5.24,4.6,6.57Z"/>
          <path class="cls-12" d="M9.41,34.86c-1.48-1.36-2.56-3.19-2.89-5.32-.79-5.04,2.65-9.77,7.69-10.56,2.14-.34,4.2.12,5.95,1.12-2-1.84-4.77-2.82-7.66-2.36-5.04.79-8.48,5.52-7.69,10.56.46,2.9,2.24,5.24,4.6,6.57Z"/>
          <path class="cls-10" d="M9.79,35.13c-1.48-1.36-2.56-3.19-2.89-5.32-.79-5.04,2.65-9.77,7.69-10.56,2.14-.34,4.2.12,5.95,1.12-2-1.84-4.77-2.82-7.66-2.36-5.04.79-8.48,5.52-7.69,10.56.46,2.9,2.23,5.24,4.6,6.57Z"/>
          <path class="cls-22" d="M10.16,35.41c-1.48-1.36-2.56-3.19-2.89-5.32-.79-5.04,2.65-9.77,7.69-10.56,2.14-.34,4.21.12,5.96,1.12-2-1.84-4.77-2.82-7.66-2.36-5.04.79-8.48,5.52-7.69,10.56.46,2.9,2.23,5.24,4.6,6.57Z"/>
          <path class="cls-14" d="M10.54,35.69c-1.48-1.36-2.56-3.19-2.89-5.32-.79-5.04,2.65-9.77,7.69-10.56,2.14-.34,4.21.12,5.96,1.12-2-1.84-4.77-2.82-7.66-2.36-5.04.79-8.48,5.52-7.69,10.56.46,2.9,2.23,5.24,4.6,6.57Z"/>
          <path class="cls-20" d="M10.92,35.96c-1.48-1.36-2.56-3.19-2.89-5.33-.79-5.04,2.65-9.77,7.69-10.56,2.14-.34,4.21.12,5.96,1.12-2-1.84-4.77-2.82-7.66-2.36-5.04.79-8.48,5.52-7.69,10.56.46,2.9,2.23,5.23,4.6,6.57Z"/>
          <path class="cls-26" d="M11.3,36.24c-1.48-1.36-2.56-3.19-2.89-5.33-.79-5.04,2.65-9.77,7.69-10.56,2.14-.34,4.21.12,5.96,1.12-2-1.84-4.77-2.81-7.66-2.36-5.04.79-8.48,5.52-7.69,10.56.46,2.9,2.23,5.23,4.6,6.57Z"/>
          <path class="cls-13" d="M11.68,36.51c-1.48-1.36-2.56-3.19-2.89-5.33-.79-5.04,2.65-9.77,7.69-10.56,2.14-.34,4.21.12,5.96,1.12-2-1.84-4.77-2.81-7.66-2.36-5.04.79-8.48,5.52-7.69,10.56.46,2.9,2.23,5.23,4.6,6.57Z"/>
          <path class="cls-9" d="M12.06,36.79c-1.48-1.36-2.56-3.19-2.89-5.33-.79-5.04,2.65-9.77,7.69-10.56,2.14-.34,4.21.12,5.96,1.12-2-1.84-4.77-2.81-7.66-2.36-5.04.79-8.48,5.52-7.69,10.56.46,2.9,2.23,5.23,4.6,6.57Z"/>
          <path class="cls-2" d="M12.44,37.07c-1.48-1.36-2.56-3.19-2.89-5.33-.79-5.04,2.65-9.77,7.69-10.56,2.14-.34,4.21.12,5.96,1.12-2-1.84-4.77-2.81-7.66-2.36-5.04.79-8.48,5.52-7.69,10.56.46,2.9,2.23,5.23,4.6,6.57Z"/>
          <path class="cls-16" d="M12.82,37.34c-1.48-1.36-2.56-3.19-2.89-5.33-.79-5.04,2.65-9.77,7.69-10.56,2.14-.34,4.21.12,5.96,1.12-2-1.84-4.77-2.81-7.66-2.36-5.04.79-8.48,5.52-7.69,10.56.46,2.9,2.23,5.23,4.6,6.57Z"/>
          <path class="cls-29" d="M13.2,37.62c-1.48-1.36-2.56-3.19-2.89-5.33-.79-5.04,2.65-9.77,7.69-10.56,2.14-.34,4.21.12,5.96,1.12-2-1.84-4.77-2.81-7.66-2.36-5.04.79-8.48,5.52-7.69,10.56.46,2.9,2.23,5.23,4.6,6.57Z"/>
          <path class="cls-8" d="M13.58,37.89c-1.48-1.36-2.56-3.19-2.89-5.33-.79-5.04,2.65-9.77,7.69-10.56,2.14-.34,4.21.12,5.96,1.12-2-1.84-4.77-2.81-7.66-2.36-5.04.79-8.48,5.52-7.69,10.56.46,2.9,2.23,5.23,4.6,6.57Z"/>
          <path class="cls-4" d="M13.95,38.17c-1.48-1.36-2.56-3.19-2.89-5.33-.79-5.04,2.65-9.77,7.69-10.56,2.14-.34,4.21.12,5.96,1.12-2-1.84-4.77-2.81-7.66-2.36-5.04.79-8.48,5.52-7.69,10.56.46,2.9,2.23,5.23,4.6,6.57Z"/>
          <path class="cls-6" d="M14.33,38.45c-1.48-1.36-2.56-3.19-2.89-5.33-.79-5.04,2.65-9.77,7.69-10.56,2.14-.34,4.21.12,5.96,1.12-2-1.84-4.77-2.81-7.66-2.36-5.04.79-8.48,5.52-7.69,10.56.46,2.9,2.23,5.23,4.6,6.57Z"/>
          <path class="cls-7" d="M14.71,38.72c-1.48-1.36-2.56-3.19-2.89-5.33-.79-5.04,2.65-9.77,7.69-10.56,2.14-.34,4.21.12,5.96,1.12-2-1.84-4.77-2.81-7.66-2.36-5.04.79-8.48,5.52-7.69,10.56.46,2.9,2.23,5.23,4.6,6.57Z"/>
          <path class="cls-21" d="M15.09,39c-1.48-1.36-2.56-3.19-2.89-5.33-.79-5.04,2.65-9.77,7.69-10.56,2.14-.34,4.21.12,5.96,1.12-2-1.84-4.77-2.81-7.66-2.36-5.04.79-8.48,5.52-7.69,10.56.46,2.9,2.23,5.23,4.6,6.57Z"/>
          <path class="cls-3" d="M15.47,39.27c-1.48-1.36-2.56-3.19-2.89-5.33-.79-5.04,2.65-9.77,7.69-10.56,2.14-.34,4.21.13,5.96,1.12-2-1.84-4.77-2.81-7.66-2.36-5.04.79-8.48,5.52-7.69,10.56.46,2.9,2.23,5.23,4.6,6.57Z"/>
          <path class="cls-30" d="M15.85,39.55c-1.48-1.36-2.56-3.19-2.89-5.33-.79-5.04,2.65-9.77,7.69-10.56,2.14-.34,4.21.13,5.96,1.12-2-1.84-4.77-2.81-7.66-2.36-5.04.79-8.48,5.52-7.69,10.56.46,2.9,2.23,5.23,4.6,6.57Z"/>
          <path class="cls-19" d="M16.23,39.83c-1.48-1.36-2.56-3.19-2.89-5.33-.79-5.04,2.65-9.77,7.69-10.56,2.14-.34,4.21.13,5.96,1.12-2-1.84-4.77-2.81-7.66-2.36-5.04.79-8.48,5.52-7.69,10.56.46,2.9,2.23,5.23,4.6,6.57Z"/>
          <path class="cls-15" d="M16.61,40.1c-1.48-1.36-2.56-3.19-2.89-5.33-.79-5.04,2.65-9.77,7.69-10.56,2.14-.34,4.21.13,5.96,1.12-2-1.84-4.77-2.81-7.66-2.35-5.04.79-8.48,5.52-7.69,10.56.46,2.9,2.23,5.23,4.6,6.57Z"/>
          <path class="cls-28" d="M16.99,40.38c-1.48-1.36-2.56-3.19-2.89-5.33-.79-5.04,2.65-9.77,7.69-10.56,2.14-.34,4.21.13,5.96,1.12-2-1.84-4.77-2.81-7.66-2.35-5.04.79-8.48,5.52-7.69,10.56.46,2.9,2.23,5.23,4.6,6.57Z"/>
          <path class="cls-27" d="M17.36,40.65c-1.48-1.36-2.56-3.19-2.89-5.33-.79-5.04,2.65-9.77,7.69-10.56,2.14-.34,4.21.13,5.96,1.12-2-1.84-4.77-2.81-7.66-2.35-5.04.79-8.48,5.52-7.69,10.56.46,2.9,2.23,5.23,4.6,6.57Z"/>
          <path class="cls-11" d="M17.74,40.93c-1.48-1.36-2.56-3.19-2.89-5.33-.79-5.04,2.65-9.77,7.68-10.56,2.14-.34,4.21.13,5.96,1.12-2-1.84-4.77-2.81-7.67-2.35-5.04.79-8.48,5.52-7.68,10.56.46,2.9,2.23,5.23,4.6,6.57Z"/>
          <path class="cls-25" d="M18.12,41.21c-1.48-1.36-2.56-3.19-2.89-5.33-.79-5.04,2.65-9.77,7.68-10.56,2.14-.34,4.21.13,5.96,1.12-2-1.84-4.77-2.81-7.67-2.35-5.04.79-8.48,5.52-7.68,10.56.46,2.9,2.23,5.23,4.6,6.57Z"/>
          <path class="cls-17" d="M18.5,41.48c-1.48-1.36-2.56-3.19-2.89-5.33-.79-5.04,2.65-9.77,7.68-10.56,2.14-.34,4.21.13,5.96,1.12-2-1.84-4.77-2.81-7.67-2.35-5.04.79-8.48,5.52-7.68,10.56.46,2.9,2.23,5.23,4.6,6.57Z"/>
          <path class="cls-5" d="M18.88,41.76c-1.48-1.36-2.56-3.18-2.89-5.33-.79-5.04,2.65-9.77,7.68-10.56,2.14-.34,4.21.13,5.96,1.12-2-1.84-4.77-2.81-7.67-2.35-5.04.79-8.48,5.51-7.68,10.56.46,2.9,2.23,5.23,4.6,6.57Z"/>
        </g>
        <polygon class="cls-1" points="123.17 9.44 118.4 15.86 113.09 20.26 103.26 20.05 94.27 23.22 86.77 20.83 74.62 27.57 67.72 23.83 62.04 31.54 38.92 35.18 35.52 13.56 121.68 0 123.17 9.44"/>
        <rect class="cls-18" x="35.98" y="9.91" width="87.22" height="6.34" transform="translate(-1.07 12.53) rotate(-8.94)"/>
        <path class="cls-33" d="M20.6,2.3C7.29,4.4-1.79,16.87.3,30.18c2.09,13.3,14.57,22.38,27.87,20.29,13.3-2.09,22.39-14.57,20.3-27.87C46.38,9.3,33.9.21,20.6,2.3ZM16.7,36.94c-5.04.79-9.77-2.65-10.56-7.68-.79-5.04,2.65-9.77,7.69-10.56,5.04-.79,9.76,2.65,10.56,7.69.79,5.04-2.65,9.76-7.68,10.55Z"/>
        <path class="cls-18" d="M38.92,35.18l13.15-2.07c.86-3.55,1.06-7.32.46-11.15-.6-3.84-1.95-7.36-3.86-10.47l-13.15,2.07,3.4,21.62Z"/>
        <path class="cls-1" d="M20.6,2.3C7.29,4.4-1.79,16.87.3,30.18c2.09,13.3,14.57,22.38,27.87,20.29,13.3-2.09,22.39-14.57,20.3-27.87C46.38,9.3,33.9.21,20.6,2.3ZM16.7,36.94c-5.04.79-9.77-2.65-10.56-7.68-.79-5.04,2.65-9.77,7.69-10.56,5.04-.79,9.76,2.65,10.56,7.69.79,5.04-2.65,9.76-7.68,10.55Z"/>
        <g class="cls-23">
          <path class="cls-32" d="M27.85,48.46c-12.17,1.92-23.63-6.43-25.54-18.6C.39,17.69,8.73,6.23,20.91,4.32c12.17-1.92,23.63,6.43,25.55,18.6,1.92,12.17-6.43,23.63-18.6,25.54ZM21.14,5.76c-5.52.87-10.36,3.83-13.64,8.34-3.28,4.51-4.61,10.02-3.75,15.54,1.79,11.37,12.5,19.17,23.88,17.38,11.37-1.79,19.18-12.5,17.39-23.87-1.79-11.37-12.5-19.17-23.88-17.39Z"/>
        </g>
      </g>
    </g>
  </g>
</svg>