<?xml version="1.0" encoding="UTF-8"?>
<svg id="Layer_1" data-name="Layer 1" xmlns="http://www.w3.org/2000/svg" viewBox="0 0 303.08 355.93">
  <defs>
    <style>
      .cls-1 {
        fill: #f79c10;
      }

      .cls-2 {
        fill: #dcdde2;
      }

      .cls-3 {
        fill: #d9d8d9;
      }

      .cls-4 {
        fill: #e5e4e5;
      }

      .cls-5 {
        fill: #d9d8d8;
      }

      .cls-6 {
        fill: #e4e4e5;
      }

      .cls-7 {
        fill: #e0dfe0;
      }

      .cls-8 {
        fill: #dadce1;
      }

      .cls-9 {
        fill: #f1f1f1;
      }

      .cls-10 {
        fill: #f8f9fa;
      }

      .cls-11 {
        fill: #dad8d9;
      }

      .cls-12 {
        fill: #dcdcdc;
      }

      .cls-13 {
        fill: #e4e4e4;
      }

      .cls-14 {
        fill: #dbdce1;
      }

      .cls-15 {
        fill: #d9d9d9;
      }

      .cls-16 {
        fill: #fdfdfd;
      }
    </style>
  </defs>
  <path class="cls-1" d="M291.71,5.92l2,2.67c2.68,35.66,4.85,71.31,6.52,106.97-.5,4.83-3.77,9.78-8.35,11.62-1.83.73-6.98,1.93-7.93.18-.05.41-.16,1.01-.47,1.07-1.72.34-7.6.47-8.36-1.07l.89,2.83c3.39,66.41,7.01,132.21,10.86,197.4-1.15,11.91-12.23,13.53-22.25,13.24l-.74-1.08c-2.62.84-4.03.65-4.24-.57l1.27-15.78c3.52-.57,6.81-1.1,9.85-1.59l.61-.25c.1-.68.46-1.27,1.07-1.79l-6.08-64.19c-.82-5.25-.75-10.36.2-15.34l-.35-17.13,10.44-193.96-12.59-.73-.71-1.1c-1.13-2.33-1.49-5.01-1.08-8.04-5.04,0-10.06-.32-15.05-.94-.6-3.55-1.06-7.13-1.38-10.75l-111.12,9.56c-35.9-.91-71.74-1.72-107.5-2.41l-3.5-.8,1.07.6v9.88l-1.07.75-.36,1.11-13.82,1.55c.63,2.42.36,4.21-.8,5.36-.05,1.47-7.65,1.93-7.98,1.66-.31-1.74-.5-3.54-.58-5.4.14-1.83-.11-3.44.24-5.38,1.01-5.68,5.61-9.55,11.27-10.13,11.98-1.22,24.32-.94,36.36-1.62,64.09-3.6,128.37-7.1,192.59-10.14,12.79-.61,25.72-1.88,38.47-2.18,6.97-.17,8.08,1.75,12.59,5.91Z"/>
  <path class="cls-1" d="M19.98,220.99c1.03.49,1.04,1.12,0,1.6v22.47c.75,25.87.54,51.53-.63,76.97l.31,6.68-.75.88c4.44.86,8.99,1.32,13.64,1.4.79,5.43,1.39,10.92,1.8,16.45,33.98-4.55,68.06-8,102.24-10.36l12.29-.46,73.52,3.66c.51.65.84,1.37.11,1.63l-4.08.52c-3.79,1.79-9.54,2.19-13.37.53l-6.42.53c-1.04,1.05-2.17,1.05-3.21,0l-6.95.53c-1.22,1.05-2.52,1.05-3.74,0l-5.88.53c-1.22,1.05-2.52,1.05-3.74,0l-6.95.53c-.86,1.05-1.81,1.04-2.67,0l-7.49.53c-1.04,1.05-2.17,1.05-3.21,0l-8.02.53c-.3,1.02-.77,1.02-1.07,0l-9.09.53c-.49,1.03-1.11,1.03-1.6,0l-40.65,2.14c-.49,1.04-1.12,1.04-1.6,0l-8.56.53c-.86,1.04-1.81,1.04-2.67,0l-6.95.53c-1.04,1.05-2.17,1.05-3.21,0l-6.42.53c-1.4,1.05-2.87,1.05-4.28,0l-5.88.53-2.35,1.14-19.23,1.08c-3.59.64-6.57.08-8.91-1.68-4.13-3.35-6.89-5.01-7.48-10.97C13.43,251.99,6.02,163.49,2.87,74.93l-.53-5.35c-.03-1.42.06-2.86,0-4.28l1.12.39,15.84,139.69.69,15.61Z"/>
  <path class="cls-4" d="M291.71,5.92c2.38,2.19,3.72,1.92,5.07,5.9,2.15,6.35,1.45,20.69,1.89,28.07,1.41,23.32,3.62,47.32,4.3,70.6.24,8.32,1.05,18.22-9.52,19.95-1.16.19-4.87.67-5.75.67h-8.29c.55,8.63.62,17.31,1.08,25.94,2.33,43.81,5.3,87.71,7.51,131.59.66,13.18,2.29,28.99,2.06,41.81-.11,6.32-4.24,11.39-10.43,12.46-2.44.42-13.45.29-14.04.67-.74.46-.31,3.59-.91,3.69-13.2-.46-26.37-2.01-39.57-1.65-38.06,1.05-76.38,4.47-114.42,6.46-23.42,1.22-47.84,3.23-71.14,3.74-4.59.1-9.52.63-13.39-2.17-.88-.63-1.34-1.7-1.88-2.14.95.3,1.9.51,2.92.56,9.13.43,18.42-.93,27.57-1.09l5.88-.53c1.42,0,2.86,0,4.28,0l6.42-.53c1.07,0,2.14,0,3.21,0l6.95-.53c.89,0,1.78,0,2.67,0l8.56-.53c.53,0,1.07,0,1.6,0l40.65-2.14c.53,0,1.07,0,1.6,0l9.09-.53c.36,0,.71,0,1.07,0l8.02-.53c1.07,0,2.14,0,3.21,0l7.49-.53c.89,0,1.78,0,2.67,0l6.95-.53c1.25,0,2.5,0,3.74,0l5.88-.53c1.25,0,2.5,0,3.74,0l6.95-.53c1.07,0,2.14,0,3.21,0l6.42-.53c4.5-.02,8.89-.42,13.37-.53,1.89-.04,3.57-.42,5.06-1.12,11.88.32,23.92.86,35.86,1.74.52-.93.9-2.02,1.14-3.28,1.06.34,2.36.42,3.41-.01,4.15.06,11.78-.25,15.34-2.04,3.67-1.84,6.55-6.38,6.59-10.53,0-.9-.53-1.8-.53-2.68-.12-16.4-1.86-32.84-2.7-49.19-1.95-37.91-3.94-75.67-5.86-113.45-.58-11.5-.84-23.02-1.61-34.5h8.83c.94,0,5.02-.53,6.18-.77,4.93-1.02,9.03-6.91,9.06-11.8.07-11.53-1.49-25.58-2.14-37.44-1.05-19.06-2.39-38.24-3.73-57.26-.34-4.83.48-9.47-1.61-14.17Z"/>
  <path class="cls-6" d="M.19,29.46c1.16.65.21,3.96.53,4.28.64.63,6.62-.96,8.03-.54.68,2.18,1.35,4.39,1.57,6.67,3.85,38.7,7.54,77.46,10.66,116.23.97,8.01,1,15.91.07,23.7,1.1,12.49.79,25,.08,37.5-.04.62-.21,1.23-.4,1.85s-.46,1.24-.75,1.85L2.33,65.3C1.85,53.44-.71,41.43.19,29.46Z"/>
  <path class="cls-6" d="M2.87,74.93c-1-1.24-.49-3.66-.53-5.35,1.02,1.25.47,3.65.53,5.35Z"/>
  <path class="cls-16" d="M8.75,33.2c-.15-2.14.1-4.24-.52-6.4l15.5-1.63v-11.23c15.24.42,30.51.25,45.76.51,21.69.38,43.56,1.05,65.23,1.63l111.73-9.66c.94.26,1.21,9.66,1.39,11.27l15.52.53c-.06,3.02.08,6.08,0,9.1.36,5.98.71,11.98.62,17.98l-2.24,125.68c2.39,23.03,4.01,46.13,4.84,69.28.95,26.1,5.04,53.27,6.95,79.47.24,3.3-1.08,1.22-2.13,1.85-2.59.88-5.49,1.31-8.7,1.28-1.06.75-1.9.68-2.54-.21-1.85.57-3.11,1.78-3.21,3.83.53,3.2-.08,5.38-1.81,6.54l-73.14-.95c-48.31,1.73-96.46,5.11-144.46,10.16-1.9.65-2.85.15-3.71-1.15-.27-.4-.95-8.56-.94-9.64l1.01-.77-1.65-11.29c-4.37-45.63-8.99-97.32-11.19-139.58-1.46-48.06-8.85-98.3-12.3-146.59Z"/>
  <path class="cls-12" d="M266.57,240.25l-5.91-69.26c.93-47.95,1.39-95.8,2.7-143.67,1.99.09,13.67.3,14.22,1.04-2.84,63.03-7.09,125.98-9.95,189.14-.34,7.61-1.34,15.08-1.06,22.74Z"/>
  <path class="cls-7" d="M271.38,321.57s.22.93-.36,1.08c-1.5.38-8.67.3-9.2,1.14l-1.14,15.97c1.07.02,2.14-.01,3.21,0-.37,1-2.31.25-2.65.57-.27.25.16,4.22-2.41,3.75-6.76-.68-13.56-.74-20.34-1.11-7.27-.4-12.62-.71-20.07-.53l4.28-1.06-86.11-4.29c.52-.34,1.05-.65,1.61-.91s1.09-.48,1.65-.56c10.87-1.6,21.8-3.19,32.79-3.58,28.13.49,56.25.75,84.36.76l-.12-5.23c-.06-2.36.77-4.46,3.26-4.92,3.7-.72,7.53-.36,11.23-1.07Z"/>
  <path class="cls-9" d="M33.89,330.66c-.38,1.69-1.51,1.04-2.56.18-4.19.03-8.32-.39-12.41-1.25-.91-.92-.61-8.52-.56-10.45.65-24.65,1.24-49.4,1.63-74.08v-22.47c0-.53,0-1.07,0-1.6.21-13.66,1.49-27.49,1.07-41.19l1.6,14.72c3.53,45.42,7.51,90.74,11.24,136.15Z"/>
  <path class="cls-13" d="M260.15,322.64c-3.79,2.43-1.59,7.34-2.14,11.24l-85.34-1.09c-12.16.74-24.22,2.96-36.08,4.3-34.38,3.89-68.84,7.37-103.23,11.23l-1.61-17.12c-2.41.09-11.27-.02-12.84-1.6l14.98,1.07c.13,1.58.7,10.28,1.13,10.64,13.97-.78,27.97-2.51,41.93-3.68,34.15-2.85,68.65-6.33,102.67-6.4,9.48-.02,18.96.4,28.35.53,15.52.22,31.04.33,46.56.51,2.99-.55-.52-7.45,3.5-9.36.87-.41,1.46-.15,2.11-.28Z"/>
  <path class="cls-6" d="M19.98,245.06c.12-7.48-.11-14.99,0-22.47v22.47Z"/>
  <path class="cls-7" d="M134.99,346.71l-11.48,1.09c-9.75.14-19.42.97-29.17,1.05l12.01-1.09c9.57-.07,19.07-.92,28.64-1.05Z"/>
  <path class="cls-7" d="M145.68,346.18c-2.58.99-6.2.53-9.09.53,2.58-.99,6.19-.52,9.09-.53Z"/>
  <path class="cls-7" d="M92.73,348.85c-2.39.99-5.84.53-8.56.53,2.39-.99,5.84-.53,8.56-.53Z"/>
  <path class="cls-7" d="M154.78,345.64c-2.2.99-5.48.53-8.02.53,2.2-.99,5.48-.53,8.02-.53Z"/>
  <path class="cls-7" d="M165.47,345.11c-2.02.99-5.13.53-7.49.53,2.01-.99,5.13-.53,7.49-.53Z"/>
  <path class="cls-7" d="M175.1,344.57c-1.78.99-4.76.53-6.95.53,1.78-.99,4.76-.53,6.95-.53Z"/>
  <path class="cls-7" d="M195.43,343.5c-1.78.99-4.76.53-6.95.53,1.78-.99,4.76-.53,6.95-.53Z"/>
  <path class="cls-7" d="M81.5,349.39c-1.78.99-4.76.53-6.95.53,1.78-.99,4.76-.53,6.95-.53Z"/>
  <path class="cls-7" d="M205.06,342.97c-1.59.99-4.4.53-6.42.53,1.59-.99,4.4-.53,6.42-.53Z"/>
  <path class="cls-7" d="M71.33,349.92c-1.59.99-4.4.53-6.42.53,1.59-.99,4.4-.53,6.42-.53Z"/>
  <path class="cls-7" d="M184.73,344.04c-1.41.98-4.03.53-5.88.53,1.41-.98,4.03-.53,5.88-.53Z"/>
  <path class="cls-7" d="M60.64,350.46c-1.42,1-4.02.5-5.88.53,1.41-.98,4.03-.53,5.88-.53Z"/>
  <path class="cls-3" d="M39.35,173.25c-1.1-.64-1.56-3.59-.12-4.44.39-.23,4.57-.67,5.62-.79,26.62-3.16,54.47-4.15,81.3-6.43,33.81-2.87,69.57-7.79,103.24-9.09,1.85-.07,7.37-.78,7.76,1.34.64,3.43-2.34,3.16-5.1,3.47-38.96,4.35-79.04,6.37-118.2,9.64-23.68,1.98-47.44,4.93-71.15,6.41-.86.05-2.75.24-3.36-.11Z"/>
  <path class="cls-3" d="M232.78,132.83c2.26-.66,3.39,1.85,2.7,3.82-.34.98-3.42,1.27-4.49,1.4-36.51,4.56-75.43,6.02-112.32,9.11-23.32,1.95-46.67,4.25-70.07,5.89-2.26.16-8.82,1.51-10.42.79-1.32-.59-2.28-2.56-1.09-3.75.77-.76,5.66-1.15,7.23-1.32,62.59-6.95,125.84-8.99,188.45-15.93Z"/>
  <path class="cls-3" d="M232.76,162.83c1.43-.06,3.48-.64,4.71.32.85.67,1.1,2.4.51,3.29-.62.93-6.95,1.42-8.58,1.58-52.1,5.19-104.52,8.54-156.72,12.85-8.86.73-17.88,2.32-26.75,2.66-1.42.06-4.01.26-5.24-.1-2.44-.72-1.83-4.76,1-4.67l191.08-15.92Z"/>
  <path class="cls-5" d="M220.46,33.36c1.62-.07,4.98-.75,6.04.59,1.13,1.42.52,3.79-1.4,4.05-63.68,5-127.31,10.56-190.95,16.06-5.01,1.17-9.46-2.37-3.18-4.78l189.48-15.92Z"/>
  <path class="cls-3" d="M221.53,54.76c2.01-.1,6.81-1.01,7.5,1.29.6,2.01-.38,3.04-2.35,3.33-64.04,4.9-128.01,10.64-192,16.08-4.47,1.41-6.76-4.08-2.1-4.77l188.94-15.93Z"/>
  <path class="cls-3" d="M227.94,102.38c1.6-.08,4.22-.8,4.84,1.29,1.17,3.97-4.24,3.57-7.13,3.9-61.27,6.84-123.24,8.76-184.54,15.51-7.33,1.51-10.89-3.77-2.13-4.8l188.97-15.9Z"/>
  <path class="cls-3" d="M227.41,112.54c1.62-.07,4.98-.75,6.04.59,1.48,1.87.25,3.7-1.95,4.03-13.41,2.03-29.02,2.07-42.75,3.25-49.39,4.24-98.78,8.67-148.17,12.83-5.53,1.43-8.69-3.98-2.14-4.81l188.97-15.89Z"/>
  <path class="cls-3" d="M225.81,92.21c1.74-.07,5.83-.96,6.45,1.29.76,2.73-2.57,3.09-4.48,3.36l-189.89,16.05c-4.04,1.1-6.74-2.92-2.66-4.8l190.57-15.9Z"/>
  <path class="cls-3" d="M192.64,77.77c1.6-.08,4.22-.8,4.84,1.29,1.09,3.71-3.38,3.59-6.06,3.9-20.45,2.37-41.95,3.06-62.58,4.82-29.59,2.52-60.94,6.86-90.4,8.02-4.91.19-10.71-.99-3.71-4.78l157.92-13.24Z"/>
  <path class="cls-3" d="M166.99,128.01c3.55-.16,4.4,3.86,1.86,4.59-1.02.29-3.86.47-5.24.64-40.02,4.77-80.83,5.46-120.89,10.16-1.93-.32-6.25,1.06-6.69-1.34-.61-3.29,1.95-3.16,4.56-3.46,14.24-1.64,29-2.51,43.32-3.75,27.22-2.36,55.95-5.6,83.08-6.84Z"/>
  <path class="cls-3" d="M166.97,178.35c1.47-.07,3.84-.75,4.66.91,1.85,3.72-2.83,3.97-5.36,4.28-22.47,2.73-46.31,3.49-68.99,5.36-17.44,1.44-34.96,3.72-52.43,4.8-1.01.06-2.81.21-3.67-.07-1.67-.55-1.14-4.7,1.01-4.72l124.77-10.55Z"/>
  <path class="cls-2" d="M94.76,258.59c7.02-.17,18.01,4.23,22.33,9.99,6.22,8.28,8.63,17.46,5.76,27.75-.89,3.17-6.41,11.57-8.99,13.48-11.84,8.77-28.61,9.04-39.33-1.87-17.89-18.21-5.18-48.74,20.23-49.34Z"/>
  <path class="cls-11" d="M130.06,72.95c1.78-.08,6.01-.77,7.11.59,1.81,2.24-.92,3.72-3.04,4.02-31.18,4.29-64.35,3.91-95.7,8.07-1.99-.36-6.77,1.1-7.23-1.34-.64-3.43,2.34-3.16,5.1-3.47,29.89-3.33,63.81-6.56,93.76-7.87Z"/>
  <path class="cls-3" d="M127.92,51.55c4.26-.25,11.72-.38,5.18,4.65-32.13,1.74-64.17,6.22-96.27,8.03-2.51.14-9.75,1.3-7.49-3.21.58-1.16,4.38-1.42,5.89-1.6,29.73-3.45,62.78-6.11,92.69-7.87Z"/>
  <path class="cls-3" d="M110.8,229.17c4.6-1.92,7.35,3.9,2.49,4.62-15.15,2.24-32.63,2.52-48.1,3.78-6.77.55-13.59,1.46-20.36,2.16-3.35-.06-3.9-4.64,1.69-5.32,21.28-2.59,42.99-2.57,64.28-5.25Z"/>
  <path class="cls-3" d="M238.66,218.44c3.57-.9,4.75,4.06,1.42,4.68l-55.62,4.88c-1.29.3-3.48-1.15-3.48-2.46,0-2.38,4.4-2.7,6.17-2.94,16.79-2.22,34.64-1.84,51.52-4.16Z"/>
  <path class="cls-3" d="M88.87,241.47c1.45-.08,6.67-.65,7.37.34,1.86,2.64-1.7,3.99-3.84,4.26-14.72,1.81-30.11,1.67-44.86,3.84-3.98,1.26-5.8-4.09-2.13-4.83,14.49-.84,28.98-2.84,43.46-3.61Z"/>
  <path class="cls-15" d="M216.71,230.77c1.28-.05,5.06-.67,5.76.34,1.94,2.81-1.08,3.96-3.3,4.25-9.55,1.28-22.39,2.39-32.01,2.76-4.77.18-7.68-1.72-2.69-4.82,10.77-.29,21.5-2.09,32.24-2.53Z"/>
  <path class="cls-12" d="M244.64,301.24c.47,1.43-2.1,1.52-2.94,1.6-5.66.53-11.44.58-17.11,1.08-14.87,1.31-29.77,3.05-44.66,3.74-.47-1.43,2.09-1.51,2.94-1.6,18.32-1.86,38.4-3.86,56.7-4.81,1.69-.09,3.39.04,5.07,0Z"/>
  <path class="cls-10" d="M93.7,261.79c33.1-1.91,36.28,48.11,4.64,51.21-35.94,3.52-38.87-49.24-4.64-51.21Z"/>
  <path class="cls-8" d="M91,263.93c36.54-4.96,36.84,51.11.94,47.47-26.85-2.72-27.62-43.85-.94-47.47Z"/>
  <path class="cls-16" d="M91.53,270.35c7.45-1.08,14.1,1.37,18.21,7.72,10.58,16.34-9.58,35.27-25.75,23.08-11.28-8.51-6.55-28.76,7.54-30.8Z"/>
  <path class="cls-14" d="M80.97,293.21c-5.08-13.28,9.09-26.02,21.38-18.46-1.03.73-2.52,3.08-3.59,3.39-1.32.38-2.96-.52-4.61-.42-4.63.28-8.51,4.92-8.93,9.36-.09,1,.66,2.02.3,2.9-.29.72-3.91,3.81-4.56,3.22Z"/>
  <path class="cls-14" d="M104.61,284.76c.13-.23,3.62-2.6,4.16-3.32,4.3,11.71-3.61,22.48-16.26,20.82-1.44-.19-5.39-.99-4.07-2.91,3.4-4.93,10.36.49,14.69-6.17,2.04-3.14.77-7.2,1.48-8.42Z"/>
</svg>