<?xml version="1.0" encoding="UTF-8"?>
<svg xmlns="http://www.w3.org/2000/svg" viewBox="0 0 840.48 283.19">
  <defs>
    <style>
      .cls-1 {
        fill: #4f4f4f;
      }

      .cls-2 {
        fill: #b8b8b8;
      }

      .cls-3 {
        fill: #fff;
      }

      .cls-4 {
        fill: #ffeb87;
      }

      .cls-5 {
        fill: #f2f2f2;
      }

      .cls-5, .cls-6 {
        mix-blend-mode: multiply;
      }

      .cls-7 {
        isolation: isolate;
      }

      .cls-6 {
        fill: #cfcfcf;
      }

      .cls-8 {
        fill: #d5d5d9;
      }

      .cls-9 {
        fill: #262626;
        mix-blend-mode: screen;
      }

      .cls-10 {
        fill: #d8d9dd;
      }

      .cls-11 {
        fill: #207c99;
      }

      .cls-12 {
        fill: #242424;
      }
    </style>
  </defs>
  <g class="cls-7">
    <g id="Layer_1" data-name="Layer 1">
      <g>
        <g>
          <g>
            <path class="cls-10" d="M467.69,45.51c0,10.23-8.29,18.51-18.52,18.51h-57.85c-10.23,0-18.52-8.29-18.52-18.51v-27c0-10.22,8.3-18.51,18.52-18.51h57.85c10.23,0,18.52,8.29,18.52,18.51v27Z"/>
            <path class="cls-6" d="M391.32,64.02h57.85c10.23,0,18.52-8.29,18.52-18.51v-22.22h-94.89v22.22c0,10.23,8.3,18.51,18.52,18.51Z"/>
          </g>
          <path class="cls-10" d="M342.59,203.01h155.3c10.09,0,18.27,8.19,18.27,18.27v14.47c0,10.08-8.19,18.27-18.27,18.27h-155.3c-10.08,0-18.27-8.19-18.27-18.27v-14.47c0-10.08,8.19-18.27,18.27-18.27Z"/>
          <polygon class="cls-8" points="840.48 43.91 0 43.91 150.74 226.61 689.74 226.61 840.48 43.91"/>
          <rect class="cls-12" x="150.74" y="221.28" width="539.01" height="5.33"/>
          <polygon class="cls-1" points="4.94 43.91 150.74 221.28 689.74 221.28 835.54 43.91 4.94 43.91"/>
          <polygon class="cls-11" points="157.13 207.76 33.57 57.43 806.91 57.43 683.35 207.76 157.13 207.76"/>
          <rect class="cls-3" y="30.58" width="840.48" height="13.33"/>
          <path class="cls-9" d="M87.39,144.22c98.81,12.72,212.22,19.97,332.85,19.97s234.04-7.24,332.84-19.97l82.46-100.31H4.94l82.45,100.31Z"/>
          <polygon class="cls-2" points="150.41 199.58 157.13 207.76 683.35 207.76 690.07 199.58 150.41 199.58"/>
        </g>
        <g>
          <polygon class="cls-4" points="823.54 52.39 779.71 101.78 686.78 97.08 702.44 47.71 823.54 52.39"/>
          <path class="cls-5" d="M823.54,52.39l-121.1-4.68-15.66,49.37,52.59,2.66c29.47-8.22,54.2-19.74,71.86-33.48l12.31-13.88Z"/>
          <path class="cls-5" d="M692.57,78.82c.32,0,.64.01.96.01,46.66,0,89.75-7.56,124.57-20.31l5.44-6.14-121.1-4.68-9.87,31.12Z"/>
        </g>
      </g>
    </g>
  </g>
</svg>