<?xml version="1.0" encoding="UTF-8"?>
<svg xmlns="http://www.w3.org/2000/svg" xmlns:xlink="http://www.w3.org/1999/xlink" viewBox="0 0 840.48 283.19">
  <defs>
    <style>
      .cls-1 {
        fill: #e7e8e9;
        opacity: .35;
      }

      .cls-1, .cls-2, .cls-3, .cls-4, .cls-5, .cls-6, .cls-7, .cls-8, .cls-9, .cls-10, .cls-11, .cls-12, .cls-13, .cls-14, .cls-15, .cls-16, .cls-17, .cls-18, .cls-19, .cls-20, .cls-21, .cls-22, .cls-23, .cls-24, .cls-25, .cls-26, .cls-27, .cls-28, .cls-29, .cls-30 {
        mix-blend-mode: multiply;
      }

      .cls-2 {
        fill: #eff0f0;
        opacity: .23;
      }

      .cls-31 {
        fill: #4f4f4f;
      }

      .cls-3 {
        fill: #eaeaeb;
        opacity: .31;
      }

      .cls-4 {
        fill: #cbcbce;
        opacity: .77;
      }

      .cls-5 {
        fill: #cdced0;
        opacity: .73;
      }

      .cls-6 {
        opacity: 0;
      }

      .cls-6, .cls-32 {
        fill: #fff;
      }

      .cls-33 {
        fill: #b8b8b8;
      }

      .cls-7 {
        fill: #c3c4c6;
        opacity: .88;
      }

      .cls-8 {
        fill: url(#radial-gradient);
      }

      .cls-9 {
        fill: #c0c1c4;
        opacity: .92;
      }

      .cls-10 {
        fill: #e5e5e6;
        opacity: .38;
      }

      .cls-11 {
        fill: #fafafa;
        opacity: .08;
      }

      .cls-12 {
        fill: #bbbcbf;
      }

      .cls-13 {
        fill: #dadbdd;
        opacity: .54;
      }

      .cls-34 {
        fill: #ffeb87;
      }

      .cls-14 {
        fill: #f2f2f2;
      }

      .cls-35 {
        isolation: isolate;
      }

      .cls-15 {
        fill: #d8d8da;
        opacity: .58;
      }

      .cls-16 {
        fill: #e0e0e1;
        opacity: .46;
      }

      .cls-17 {
        fill: #ededee;
        opacity: .27;
      }

      .cls-18 {
        fill: #bebfc1;
        opacity: .96;
      }

      .cls-19 {
        fill: #dddedf;
        opacity: .5;
      }

      .cls-20 {
        fill: #cfcfcf;
      }

      .cls-21 {
        fill: #fcfcfd;
        opacity: .04;
      }

      .cls-36 {
        fill: #d5d5d9;
      }

      .cls-37 {
        fill: #262626;
        mix-blend-mode: screen;
      }

      .cls-22 {
        fill: #f5f5f5;
        opacity: .15;
      }

      .cls-38 {
        fill: #d8d9dd;
      }

      .cls-39 {
        fill: #207c99;
      }

      .cls-23 {
        fill: #f7f7f8;
        opacity: .12;
      }

      .cls-24 {
        fill: #d0d1d3;
        opacity: .69;
      }

      .cls-25 {
        fill: #c5c6c9;
        opacity: .85;
      }

      .cls-26 {
        fill: #e2e3e4;
        opacity: .42;
      }

      .cls-27 {
        fill: #d5d6d8;
        opacity: .62;
      }

      .cls-28 {
        fill: #f2f2f3;
        opacity: .19;
      }

      .cls-40 {
        fill: #242424;
      }

      .cls-29 {
        fill: #c8c9cb;
        opacity: .81;
      }

      .cls-30 {
        fill: #d3d3d5;
        opacity: .65;
      }
    </style>
    <radialGradient id="radial-gradient" cx="1484.57" cy="1138.3" fx="1484.57" fy="1138.3" r="250.93" gradientTransform="translate(-2038.8 31.45) scale(1.66 .18)" gradientUnits="userSpaceOnUse">
      <stop offset="0" stop-color="#6c6d6e"/>
      <stop offset=".17" stop-color="#98999a"/>
      <stop offset=".34" stop-color="#bdbdbe"/>
      <stop offset=".51" stop-color="#dadada"/>
      <stop offset=".67" stop-color="#eee"/>
      <stop offset=".84" stop-color="#fafafa"/>
      <stop offset="1" stop-color="#fff"/>
    </radialGradient>
  </defs>
  <g class="cls-35">
    <g id="Layer_1" data-name="Layer 1">
      <g>
        <g>
          <g>
            <path class="cls-38" d="M467.69,45.51c0,10.23-8.29,18.51-18.52,18.51h-57.85c-10.23,0-18.52-8.29-18.52-18.51v-27c0-10.22,8.3-18.51,18.52-18.51h57.85c10.23,0,18.52,8.29,18.52,18.51v27Z"/>
            <path class="cls-20" d="M391.32,64.02h57.85c10.23,0,18.52-8.29,18.52-18.51v-22.22h-94.89v22.22c0,10.23,8.3,18.51,18.52,18.51Z"/>
          </g>
          <ellipse class="cls-8" cx="420.24" cy="237.71" rx="415.56" ry="45.48"/>
          <g>
            <path class="cls-12" d="M508.96,206.84c2.36,3.08,3.82,6.89,3.82,11.07v14.47c0,10.09-8.18,18.27-18.27,18.27h-155.3c-4.18,0-7.99-1.46-11.07-3.82,3.35,4.35,8.54,7.21,14.45,7.21h155.3c10.09,0,18.27-8.19,18.27-18.27v-14.47c0-5.91-2.85-11.11-7.2-14.45Z"/>
            <path class="cls-18" d="M517.03,236.62v-14.47c0-5.91-2.85-11.11-7.2-14.45,2.36,3.08,3.82,6.89,3.82,11.07v14.47c0,10.09-8.18,18.27-18.27,18.27h-155.3c-4.18,0-7.99-1.46-11.07-3.82,3.35,4.35,8.54,7.21,14.45,7.21h155.3c10.09,0,18.27-8.19,18.27-18.27Z"/>
            <path class="cls-9" d="M517.9,237.49v-14.47c0-5.91-2.85-11.11-7.2-14.45,2.36,3.08,3.82,6.89,3.82,11.07v14.47c0,10.09-8.18,18.27-18.27,18.27h-155.3c-4.18,0-7.99-1.46-11.07-3.82,3.35,4.35,8.54,7.21,14.45,7.21h155.3c10.09,0,18.27-8.19,18.27-18.27Z"/>
            <path class="cls-7" d="M518.77,238.36v-14.47c0-5.91-2.85-11.11-7.2-14.45,2.36,3.08,3.82,6.89,3.82,11.07v14.47c0,10.09-8.18,18.27-18.27,18.27h-155.3c-4.18,0-7.99-1.46-11.07-3.82,3.35,4.35,8.54,7.21,14.45,7.21h155.3c10.09,0,18.27-8.19,18.27-18.27Z"/>
            <path class="cls-25" d="M519.65,239.23v-14.47c0-5.91-2.85-11.11-7.2-14.45,2.36,3.08,3.82,6.89,3.82,11.07v14.47c0,10.09-8.18,18.27-18.27,18.27h-155.3c-4.18,0-7.99-1.46-11.07-3.82,3.35,4.35,8.54,7.21,14.45,7.21h155.3c10.09,0,18.27-8.19,18.27-18.27Z"/>
            <path class="cls-29" d="M520.52,240.1v-14.47c0-5.91-2.85-11.11-7.2-14.45,2.36,3.08,3.82,6.89,3.82,11.07v14.47c0,10.09-8.18,18.27-18.27,18.27h-155.3c-4.18,0-7.99-1.46-11.07-3.82,3.35,4.35,8.54,7.21,14.45,7.21h155.3c10.09,0,18.27-8.19,18.27-18.27Z"/>
            <path class="cls-4" d="M521.39,240.98v-14.47c0-5.91-2.85-11.11-7.2-14.45,2.36,3.08,3.82,6.89,3.82,11.07v14.47c0,10.09-8.18,18.27-18.27,18.27h-155.3c-4.18,0-7.99-1.46-11.07-3.82,3.35,4.35,8.54,7.2,14.45,7.2h155.3c10.09,0,18.27-8.18,18.27-18.27Z"/>
            <path class="cls-5" d="M522.26,241.85v-14.47c0-5.91-2.85-11.11-7.2-14.45,2.36,3.08,3.82,6.89,3.82,11.07v14.47c0,10.09-8.18,18.27-18.27,18.27h-155.3c-4.18,0-7.99-1.46-11.07-3.82,3.34,4.35,8.54,7.2,14.45,7.2h155.3c10.09,0,18.27-8.18,18.27-18.27Z"/>
            <path class="cls-24" d="M523.13,242.72v-14.47c0-5.91-2.85-11.11-7.2-14.45,2.36,3.08,3.82,6.89,3.82,11.07v14.47c0,10.09-8.18,18.27-18.27,18.27h-155.3c-4.18,0-7.99-1.46-11.07-3.82,3.34,4.35,8.54,7.2,14.45,7.2h155.3c10.09,0,18.27-8.18,18.27-18.27Z"/>
            <path class="cls-30" d="M524,243.59v-14.47c0-5.91-2.85-11.11-7.2-14.45,2.36,3.08,3.82,6.89,3.82,11.07v14.47c0,10.09-8.18,18.27-18.27,18.27h-155.3c-4.18,0-7.99-1.46-11.07-3.82,3.34,4.35,8.54,7.2,14.45,7.2h155.3c10.09,0,18.27-8.18,18.27-18.27Z"/>
            <path class="cls-27" d="M524.87,244.46v-14.47c0-5.91-2.85-11.11-7.2-14.45,2.36,3.08,3.82,6.89,3.82,11.07v14.47c0,10.09-8.18,18.27-18.27,18.27h-155.3c-4.18,0-7.99-1.46-11.07-3.82,3.34,4.35,8.54,7.2,14.45,7.2h155.3c10.09,0,18.27-8.18,18.27-18.27Z"/>
            <path class="cls-15" d="M525.74,245.33v-14.47c0-5.91-2.85-11.11-7.2-14.45,2.36,3.08,3.82,6.89,3.82,11.07v14.47c0,10.09-8.18,18.27-18.27,18.27h-155.3c-4.19,0-7.99-1.46-11.07-3.82,3.34,4.35,8.54,7.2,14.45,7.2h155.3c10.09,0,18.27-8.18,18.27-18.27Z"/>
            <path class="cls-13" d="M526.61,246.2v-14.47c0-5.91-2.85-11.11-7.2-14.45,2.36,3.08,3.82,6.89,3.82,11.07v14.47c0,10.09-8.18,18.27-18.27,18.27h-155.3c-4.19,0-7.99-1.46-11.07-3.82,3.34,4.35,8.54,7.2,14.45,7.2h155.3c10.09,0,18.27-8.18,18.27-18.27Z"/>
            <path class="cls-19" d="M527.48,247.07v-14.47c0-5.91-2.85-11.11-7.2-14.45,2.36,3.08,3.82,6.89,3.82,11.07v14.47c0,10.09-8.18,18.27-18.27,18.27h-155.3c-4.19,0-7.99-1.46-11.07-3.82,3.34,4.35,8.54,7.2,14.45,7.2h155.3c10.09,0,18.27-8.18,18.27-18.27Z"/>
            <path class="cls-16" d="M528.35,247.94v-14.47c0-5.91-2.85-11.11-7.2-14.45,2.36,3.08,3.82,6.89,3.82,11.07v14.47c0,10.09-8.18,18.27-18.27,18.27h-155.3c-4.19,0-7.99-1.46-11.07-3.82,3.34,4.35,8.54,7.2,14.45,7.2h155.3c10.09,0,18.27-8.18,18.27-18.27Z"/>
            <path class="cls-26" d="M529.22,248.81v-14.47c0-5.91-2.85-11.11-7.2-14.45,2.36,3.08,3.82,6.89,3.82,11.07v14.47c0,10.09-8.18,18.27-18.27,18.27h-155.3c-4.19,0-7.99-1.46-11.07-3.82,3.34,4.35,8.54,7.2,14.45,7.2h155.3c10.09,0,18.27-8.18,18.27-18.27Z"/>
            <path class="cls-10" d="M530.09,249.68v-14.47c0-5.91-2.85-11.11-7.2-14.45,2.36,3.08,3.83,6.89,3.83,11.07v14.47c0,10.09-8.19,18.27-18.27,18.27h-155.3c-4.19,0-7.99-1.46-11.07-3.82,3.34,4.35,8.54,7.2,14.45,7.2h155.3c10.09,0,18.27-8.18,18.27-18.27Z"/>
            <path class="cls-1" d="M530.96,250.55v-14.47c0-5.91-2.85-11.11-7.2-14.45,2.36,3.08,3.83,6.89,3.83,11.07v14.47c0,10.09-8.19,18.27-18.27,18.27h-155.3c-4.19,0-7.99-1.46-11.07-3.82,3.34,4.35,8.54,7.2,14.45,7.2h155.3c10.09,0,18.27-8.18,18.27-18.27Z"/>
            <path class="cls-3" d="M531.83,251.42v-14.47c0-5.91-2.85-11.11-7.21-14.45,2.36,3.08,3.83,6.89,3.83,11.07v14.47c0,10.09-8.19,18.27-18.27,18.27h-155.3c-4.19,0-7.99-1.46-11.07-3.82,3.34,4.35,8.54,7.2,14.45,7.2h155.3c10.09,0,18.27-8.18,18.27-18.27Z"/>
            <path class="cls-17" d="M532.7,252.29v-14.47c0-5.91-2.85-11.11-7.21-14.45,2.36,3.08,3.83,6.89,3.83,11.07v14.47c0,10.09-8.19,18.27-18.27,18.27h-155.3c-4.19,0-7.99-1.46-11.07-3.82,3.34,4.35,8.54,7.2,14.45,7.2h155.3c10.09,0,18.27-8.18,18.27-18.27Z"/>
            <path class="cls-2" d="M533.57,253.16v-14.47c0-5.91-2.85-11.11-7.21-14.45,2.36,3.08,3.83,6.89,3.83,11.07v14.47c0,10.09-8.19,18.27-18.27,18.27h-155.3c-4.19,0-7.99-1.46-11.07-3.82,3.34,4.35,8.54,7.2,14.45,7.2h155.3c10.09,0,18.27-8.18,18.27-18.27Z"/>
            <path class="cls-28" d="M534.44,254.03v-14.47c0-5.91-2.85-11.11-7.21-14.45,2.36,3.08,3.83,6.89,3.83,11.07v14.47c0,10.09-8.19,18.27-18.27,18.27h-155.3c-4.19,0-7.99-1.46-11.07-3.82,3.34,4.35,8.54,7.2,14.45,7.2h155.3c10.09,0,18.27-8.18,18.27-18.27Z"/>
            <path class="cls-22" d="M535.31,254.9v-14.47c0-5.91-2.85-11.11-7.21-14.45,2.37,3.08,3.83,6.89,3.83,11.07v14.47c0,10.09-8.19,18.27-18.27,18.27h-155.3c-4.19,0-7.99-1.46-11.07-3.82,3.34,4.35,8.54,7.2,14.45,7.2h155.3c10.09,0,18.27-8.18,18.27-18.27Z"/>
            <path class="cls-23" d="M536.18,255.77v-14.47c0-5.91-2.85-11.11-7.21-14.45,2.37,3.08,3.83,6.89,3.83,11.07v14.47c0,10.09-8.19,18.27-18.27,18.27h-155.3c-4.19,0-7.99-1.46-11.07-3.82,3.34,4.35,8.54,7.2,14.45,7.2h155.3c10.09,0,18.27-8.18,18.27-18.27Z"/>
            <path class="cls-11" d="M537.05,256.64v-14.47c0-5.91-2.85-11.11-7.21-14.45,2.37,3.08,3.83,6.89,3.83,11.07v14.47c0,10.09-8.19,18.27-18.27,18.27h-155.3c-4.19,0-7.99-1.46-11.07-3.82,3.34,4.35,8.54,7.2,14.45,7.2h155.3c10.09,0,18.27-8.18,18.27-18.27Z"/>
            <path class="cls-21" d="M537.92,257.51v-14.47c0-5.91-2.85-11.11-7.21-14.45,2.37,3.08,3.83,6.89,3.83,11.07v14.47c0,10.09-8.19,18.27-18.27,18.27h-155.3c-4.19,0-7.99-1.46-11.07-3.82,3.34,4.35,8.54,7.2,14.45,7.2h155.3c10.09,0,18.27-8.18,18.27-18.27Z"/>
            <path class="cls-6" d="M531.59,229.46c2.37,3.08,3.83,6.89,3.83,11.07v14.47c0,10.09-8.19,18.27-18.27,18.27h-155.3c-4.19,0-7.99-1.46-11.07-3.82,3.34,4.35,8.54,7.2,14.45,7.2h155.3c10.09,0,18.27-8.18,18.27-18.27v-14.47c0-5.91-2.85-11.11-7.21-14.45Z"/>
          </g>
          <path class="cls-38" d="M342.59,203.01h155.3c10.08,0,18.27,8.19,18.27,18.27v14.47c0,10.08-8.19,18.27-18.27,18.27h-155.3c-10.08,0-18.27-8.19-18.27-18.27v-14.47c0-10.08,8.19-18.27,18.27-18.27Z"/>
          <polygon class="cls-36" points="840.48 43.91 0 43.91 150.74 226.61 689.74 226.61 840.48 43.91"/>
          <rect class="cls-40" x="150.74" y="221.28" width="539.01" height="5.33"/>
          <polygon class="cls-31" points="4.94 43.91 150.74 221.28 689.74 221.28 835.54 43.91 4.94 43.91"/>
          <polygon class="cls-39" points="157.13 207.76 33.57 57.43 806.91 57.43 683.35 207.76 157.13 207.76"/>
          <rect class="cls-32" y="30.58" width="840.48" height="13.33"/>
          <path class="cls-37" d="M87.39,144.22c98.81,12.72,212.22,19.97,332.85,19.97s234.04-7.24,332.84-19.97l82.46-100.31H4.94l82.45,100.31Z"/>
          <polygon class="cls-33" points="150.41 199.58 157.13 207.76 683.35 207.76 690.07 199.58 150.41 199.58"/>
        </g>
        <g>
          <polygon class="cls-34" points="823.54 52.39 779.71 101.78 686.78 97.08 702.44 47.71 823.54 52.39"/>
          <path class="cls-14" d="M823.54,52.39l-121.1-4.68-15.66,49.37,52.59,2.66c29.47-8.22,54.2-19.74,71.86-33.48l12.31-13.88Z"/>
          <path class="cls-14" d="M692.57,78.82c.32,0,.64.01.96.01,46.66,0,89.75-7.56,124.57-20.31l5.44-6.14-121.1-4.68-9.87,31.12Z"/>
        </g>
      </g>
    </g>
  </g>
</svg>