<?xml version="1.0" encoding="UTF-8"?>
<svg id="security_room" data-name="security room" xmlns="http://www.w3.org/2000/svg" viewBox="0 0 1114.73 268.82">
  <defs>
    <style>
      .cls-1 {
        fill: #1d0422;
      }

      .cls-2 {
        fill: #290c34;
      }

      .cls-3 {
        fill: #aad1d7;
      }

      .cls-4, .cls-5 {
        fill: #1d1d1b;
      }

      .cls-6 {
        fill: #ffc217;
      }

      .cls-7 {
        fill: #584278;
      }

      .cls-8 {
        fill: #53a9eb;
      }

      .cls-9 {
        fill: #ff1717;
      }

      .cls-10 {
        fill: #5392fa;
      }

      .cls-11 {
        fill: #6bbcd9;
      }

      .cls-12 {
        fill: #73ffe5;
      }

      .cls-5 {
        opacity: .43;
      }
    </style>
  </defs>
  <g>
    <polygon class="cls-2" points="1107.57 4.54 1107.57 264.81 763.01 264.81 763.01 23.53 1107.57 4.54"/>
    <polygon class="cls-1" points="1107.57 264.81 1112.49 264.81 1114.73 7.67 1107.57 4.54 1107.57 264.81"/>
    <polygon class="cls-4" points="771.2 253.05 1101.93 253.05 1101.93 10.55 767.95 27.81 771.2 253.05"/>
    <rect class="cls-9" x="1084.34" y="255.06" width="15.35" height="5.66"/>
    <polygon class="cls-7" points="767.95 261.71 771 254.88 862.95 254.88 856.45 261.71 767.95 261.71"/>
  </g>
  <g>
    <polygon class="cls-2" points="5.96 0 5.96 268.82 350.53 268.82 350.53 21.99 5.96 0"/>
    <polygon class="cls-1" points="5.96 0 0 5.41 0 268.82 5.96 268.82 5.96 0"/>
    <polygon class="cls-4" points="9.81 257.82 340.55 262.69 340.55 28.79 9.81 6.66 9.81 257.82"/>
    <rect class="cls-9" x="12.6" y="260.23" width="15.35" height="5.66"/>
    <rect class="cls-6" x="32.22" y="260.23" width="9.27" height="5.66"/>
    <polygon class="cls-7" points="222.08 267.11 224.79 263.06 330.41 263.06 325.47 267.11 222.08 267.11"/>
    <polygon class="cls-7" points="218.57 267.11 220.33 263.06 208.25 263.06 205.98 267.11 218.57 267.11"/>
  </g>
  <g>
    <polygon class="cls-2" points="369.02 268.68 371.88 27.23 739.96 27.23 745.6 265.05 369.02 268.68"/>
    <polygon class="cls-4" points="375.9 261.13 738.57 256.8 733.7 34.33 375.9 34.33 375.9 261.13"/>
    <polygon class="cls-12" points="706.78 263.49 707.58 258.41 734.86 258.22 735.13 263.47 706.78 263.49"/>
  </g>
  <g>
    <polygon class="cls-3" points="141.99 61.46 78.79 58.56 78.77 15.12 141.96 18.02 141.99 61.46"/>
    <path class="cls-10" d="M129.12,26.31l-4.35-.2c.04-.26.07-.54.07-.82,0-2.44-1.74-4.5-3.88-4.59s-3.88,1.8-3.87,4.24c0,.28.03.56.07.82l-4.35-.2.02,26.8,3.43.16v5.03s2.89.13,2.89.13v-5.03s4.05.19,4.05.19v5.03s2.89.13,2.89.13v-5.03s3.06.14,3.06.14l-.02-26.8Z"/>
    <polygon class="cls-4" points="76.81 57.92 13.62 55.03 13.59 11.59 76.78 14.48 76.81 57.92"/>
    <polygon class="cls-11" points="207.16 65.8 143.97 62.9 143.94 19.46 207.13 22.36 207.16 65.8"/>
    <polygon class="cls-3" points="272.34 68.89 209.15 65.99 209.12 22.55 272.31 25.45 272.34 68.89"/>
    <polygon class="cls-4" points="337.52 73.86 274.32 70.97 274.29 27.53 337.49 30.42 337.52 73.86"/>
    <polygon class="cls-3" points="76.84 106.22 13.65 103.32 13.62 59.88 76.81 62.78 76.84 106.22"/>
    <polygon class="cls-3" points="142.11 109.85 78.92 106.96 78.89 63.52 142.08 66.41 142.11 109.85"/>
    <polygon class="cls-4" points="207.19 114.1 144 111.21 143.97 67.77 207.17 70.66 207.19 114.1"/>
    <polygon class="cls-3" points="272.62 117.09 209.43 114.19 209.4 70.76 272.59 73.65 272.62 117.09"/>
    <polygon class="cls-11" points="337.55 120.07 274.35 117.18 274.32 73.74 337.52 76.63 337.55 120.07"/>
    <polygon class="cls-3" points="76.87 156.18 13.68 153.29 13.65 109.85 76.84 112.74 76.87 156.18"/>
    <polygon class="cls-3" points="142.05 159.95 78.86 157.05 78.83 113.61 142.02 116.51 142.05 159.95"/>
    <polygon class="cls-8" points="207.22 161.64 144.03 158.75 144 115.31 207.2 118.2 207.22 161.64"/>
    <polygon class="cls-4" points="272.4 166.41 209.21 163.51 209.18 120.07 272.37 122.97 272.4 166.41"/>
    <polygon class="cls-3" points="337.58 168.41 274.38 165.51 274.35 122.07 337.55 124.97 337.58 168.41"/>
    <polygon class="cls-3" points="76.9 206.53 13.71 203.63 13.68 160.19 76.87 163.09 76.9 206.53"/>
    <polygon class="cls-3" points="142.08 209.51 78.89 206.62 78.86 163.18 142.05 166.07 142.08 209.51"/>
    <polygon class="cls-3" points="207.25 209.51 144.06 206.62 144.03 163.18 207.23 166.07 207.25 209.51"/>
    <polygon class="cls-3" points="272.43 212.5 209.24 209.6 209.21 166.16 272.4 169.06 272.43 212.5"/>
    <polygon class="cls-3" points="337.61 215.53 274.41 212.63 274.38 169.19 337.58 172.09 337.61 215.53"/>
    <polygon class="cls-11" points="76.93 255.72 13.74 252.83 13.71 209.39 76.9 212.29 76.93 255.72"/>
    <polygon class="cls-4" points="142.11 257.52 78.92 254.63 78.89 211.19 142.08 214.08 142.11 257.52"/>
    <polygon class="cls-3" points="207.28 258.71 144.09 255.82 144.06 212.38 207.26 215.27 207.28 258.71"/>
    <polygon class="cls-8" points="272.46 260.25 209.27 257.36 209.24 213.92 272.43 216.81 272.46 260.25"/>
    <polygon class="cls-4" points="337.64 262.21 274.44 259.31 274.41 215.87 337.61 218.77 337.64 262.21"/>
    <polygon class="cls-8" points="141.99 61.46 80.78 58.65 80.76 37.4 141.97 40.2 141.99 61.46"/>
    <path class="cls-11" d="M95.56,34.79l-4.15-.19v-3.12c1.27-.58,2.16-1.98,2.16-3.66,0-2.27-1.62-4.18-3.61-4.27s-3.6,1.67-3.6,3.94c0,1.76.98,3.31,2.35,3.95v3.04s-4.05-.19-4.05-.19v14.27s2.26.1,2.26.1v10.27s2.62.12,2.62.12v-10.27s2.61.12,2.61.12v10.27s2.35.11,2.35.11v-10.27s1.08.05,1.08.05v-14.27Z"/>
    <path class="cls-11" d="M310.25,189.72l-4.15-.19v-3.12c1.27-.58,2.16-1.98,2.16-3.66,0-2.27-1.62-4.18-3.61-4.27s-3.6,1.67-3.6,3.94c0,1.76.98,3.31,2.35,3.95v3.04s-4.05-.19-4.05-.19v14.27s2.26.1,2.26.1v10.27s2.62.12,2.62.12v-10.27s2.61.12,2.61.12v10.27s2.35.11,2.35.11v-10.27s1.08.05,1.08.05v-14.27Z"/>
    <polygon class="cls-11" points="228.92 66.9 212.33 66.14 212.31 29.38 228.89 30.14 228.92 66.9"/>
    <polygon class="cls-11" points="337.61 215.53 274.41 212.63 274.4 196.92 337.6 199.82 337.61 215.53"/>
    <polygon class="cls-11" points="142.08 209.51 110.48 208.07 110.45 164.63 142.05 166.07 142.08 209.51"/>
    <polygon class="cls-11" points="76.82 74.49 25.74 72.15 25.76 103.88 76.84 106.22 76.82 74.49"/>
    <polygon class="cls-11" points="207.26 215.27 144.06 212.38 144.07 225.62 207.26 228.52 207.26 215.27"/>
    <path class="cls-10" d="M63.6,123.74l-4.35-.2c.04-.26.07-.54.07-.82,0-2.44-1.74-4.5-3.88-4.59s-3.88,1.8-3.87,4.24c0,.28.03.56.07.82l-4.35-.2.02,26.8,3.43.16v5.03s2.89.13,2.89.13v-5.03s4.05.19,4.05.19v5.03s2.89.13,2.89.13v-5.03s3.06.14,3.06.14l-.02-26.8Z"/>
  </g>
  <g>
    <rect class="cls-8" x="379.93" y="39.05" width="68.54" height="41.36"/>
    <rect class="cls-3" x="450.62" y="39.05" width="68.54" height="41.36"/>
    <rect class="cls-4" x="521.31" y="39.05" width="68.54" height="41.36"/>
    <rect class="cls-8" x="592" y="39.05" width="68.54" height="41.36"/>
    <rect class="cls-3" x="662.69" y="39.05" width="68.54" height="41.36"/>
    <rect class="cls-11" x="379.93" y="83.05" width="68.54" height="41.36"/>
    <rect class="cls-3" x="450.62" y="83.05" width="68.54" height="41.36"/>
    <rect class="cls-3" x="521.31" y="83.05" width="68.54" height="41.36"/>
    <rect class="cls-8" x="592" y="83.05" width="68.54" height="41.36"/>
    <rect class="cls-11" x="662.69" y="83.05" width="68.54" height="41.36"/>
    <rect class="cls-4" x="379.93" y="127.05" width="68.54" height="41.36"/>
    <rect class="cls-3" x="450.62" y="127.05" width="68.54" height="41.36"/>
    <rect class="cls-4" x="521.31" y="127.05" width="68.54" height="41.36"/>
    <rect class="cls-3" x="592" y="127.05" width="68.54" height="41.36"/>
    <rect class="cls-4" x="662.69" y="127.05" width="68.54" height="41.36"/>
    <rect class="cls-3" x="379.93" y="171.05" width="68.54" height="41.36"/>
    <rect class="cls-4" x="450.62" y="171.05" width="68.54" height="41.36"/>
    <rect class="cls-11" x="521.31" y="171.05" width="68.54" height="41.36"/>
    <rect class="cls-3" x="592" y="171.05" width="68.54" height="41.36"/>
    <rect class="cls-3" x="662.69" y="171.05" width="68.54" height="41.36"/>
    <rect class="cls-8" x="379.93" y="215.05" width="68.54" height="41.36"/>
    <rect class="cls-4" x="450.62" y="215.05" width="68.54" height="41.36"/>
    <rect class="cls-3" x="521.31" y="215.05" width="68.54" height="41.36"/>
    <rect class="cls-11" x="592" y="215.05" width="68.54" height="41.36"/>
    <rect class="cls-4" x="662.69" y="215.05" width="68.54" height="41.36"/>
    <path class="cls-11" d="M560.19,101.03h-4.5v-2.97c1.38-.6,2.35-1.98,2.35-3.58,0-2.16-1.75-3.91-3.91-3.91s-3.91,1.75-3.91,3.91c0,1.68,1.06,3.1,2.54,3.66v2.89h-4.4v13.59h2.44v9.78h2.84v-9.78h2.84v9.78h2.54v-9.78h1.17v-13.59Z"/>
    <rect class="cls-11" x="521.31" y="109.45" width="68.54" height="14.96"/>
    <path class="cls-10" d="M505.23,135.51h-4.72c.05-.25.08-.51.08-.78,0-2.32-1.88-4.2-4.2-4.2s-4.2,1.88-4.2,4.2c0,.27.03.53.08.78h-4.72v25.52h3.72v4.79h3.13v-4.79h4.4v4.79h3.13v-4.79h3.32v-25.52Z"/>
    <path class="cls-10" d="M579.71,226.09h-4.72c.05-.25.08-.51.08-.78,0-2.32-1.88-4.2-4.2-4.2s-4.2,1.88-4.2,4.2c0,.27.03.53.08.78h-4.72v25.52h3.72v4.79h3.13v-4.79h4.4v4.79h3.13v-4.79h3.32v-25.52Z"/>
    <rect class="cls-8" x="452.77" y="148.17" width="66.39" height="20.24"/>
    <path class="cls-11" d="M468.82,145.04h-4.5v-2.97c1.38-.6,2.35-1.98,2.35-3.58,0-2.16-1.75-3.91-3.91-3.91s-3.91,1.75-3.91,3.91c0,1.68,1.06,3.1,2.54,3.66v2.89h-4.4v13.59h2.44v9.78h2.84v-9.78h2.84v9.78h2.54v-9.78h1.17v-13.59Z"/>
    <rect class="cls-11" x="491.33" y="39.05" width="27.83" height="41.36"/>
    <rect class="cls-11" x="592" y="171.05" width="62.41" height="36.47"/>
  </g>
  <g>
    <polygon class="cls-3" points="834.93 65.65 771.39 66.77 771.04 29.02 834.58 25.59 834.93 65.65"/>
    <polygon class="cls-11" points="900.47 64.49 836.92 65.61 836.58 25.59 900.12 22 900.47 64.49"/>
    <polygon class="cls-8" points="966 63.34 902.46 64.46 902.12 21.96 965.66 20.84 966 63.34"/>
    <polygon class="cls-3" points="1031.54 62.18 968 63.3 967.65 20.81 1031.2 19.69 1031.54 62.18"/>
    <polygon class="cls-4" points="1097.08 61.03 1033.54 62.15 1033.19 19.65 1096.73 18.53 1097.08 61.03"/>
    <polygon class="cls-11" points="835.3 112.57 771.76 113.69 771.41 71.19 834.95 70.07 835.3 112.57"/>
    <polygon class="cls-3" points="900.47 111.04 836.92 112.15 836.58 69.66 900.12 68.54 900.47 111.04"/>
    <polygon class="cls-4" points="966.37 108.55 902.83 109.67 902.48 67.17 966.03 66.05 966.37 108.55"/>
    <polygon class="cls-8" points="1032.64 111.04 969.1 112.15 968.76 69.66 1032.3 68.54 1032.64 111.04"/>
    <polygon class="cls-3" points="1099.69 108.55 1036.15 109.67 1035.8 67.17 1099.34 66.05 1099.69 108.55"/>
    <polygon class="cls-3" points="835.67 159.08 772.12 160.2 771.78 117.7 835.32 116.58 835.67 159.08"/>
    <polygon class="cls-8" points="901.2 157.67 837.66 158.79 837.31 116.29 900.86 115.17 901.2 157.67"/>
    <polygon class="cls-3" points="966.48 156.19 902.94 157.31 902.59 114.81 966.14 113.69 966.48 156.19"/>
    <polygon class="cls-8" points="1032.64 157.67 969.1 158.79 968.76 116.29 1032.3 115.17 1032.64 157.67"/>
    <polygon class="cls-4" points="1099.69 157.67 1036.15 158.79 1035.8 116.29 1099.34 115.17 1099.69 157.67"/>
    <polygon class="cls-4" points="836.03 205.33 772.49 206.45 772.15 163.96 835.69 162.84 836.03 205.33"/>
    <polygon class="cls-3" points="901.94 202.41 838.4 203.53 838.05 161.03 901.59 159.91 901.94 202.41"/>
    <polygon class="cls-4" points="967.11 202.69 903.56 203.81 903.22 161.32 966.76 160.2 967.11 202.69"/>
    <polygon class="cls-3" points="1032.64 202.69 969.1 203.81 968.76 161.32 1032.3 160.2 1032.64 202.69"/>
    <polygon class="cls-11" points="1098.55 202.69 1035.01 203.81 1034.66 161.32 1098.2 160.2 1098.55 202.69"/>
    <polygon class="cls-8" points="836.4 251.68 772.86 252.8 772.51 210.3 836.06 209.18 836.4 251.68"/>
    <polygon class="cls-11" points="901.94 248.95 838.4 250.07 838.05 207.57 901.59 206.45 901.94 248.95"/>
    <polygon class="cls-4" points="967.48 249.76 903.93 250.88 903.59 208.38 967.13 207.26 967.48 249.76"/>
    <polygon class="cls-3" points="1033.01 249.86 969.47 250.98 969.12 208.49 1032.67 207.37 1033.01 249.86"/>
    <polygon class="cls-3" points="1098.55 249.86 1035.01 250.98 1034.66 208.49 1098.2 207.37 1098.55 249.86"/>
    <path class="cls-11" d="M938.79,132.66l-4.17.07-.02-3.05c1.28-.64,2.16-2.07,2.15-3.72-.02-2.22-1.66-3.99-3.66-3.95s-3.61,1.86-3.59,4.08c.01,1.72,1.01,3.17,2.39,3.72l.02,2.97-4.08.07.11,13.96,2.27-.04.08,10.05,2.63-.05-.08-10.05,2.63-.05.08,10.05,2.36-.04-.08-10.05,1.09-.02-.11-13.96Z"/>
    <polygon class="cls-11" points="966.48 156.19 902.94 157.31 902.81 141.94 966.36 140.82 966.48 156.19"/>
    <path class="cls-10" d="M811.11,34.92l-4.38.08c.04-.26.07-.53.06-.8-.02-2.39-1.78-4.29-3.93-4.25s-3.88,2-3.86,4.39c0,.27.03.54.08.8l-4.38.08.21,26.22,3.44-.06.04,4.92,2.9-.05-.04-4.92,4.08-.07.04,4.92,2.9-.05-.04-4.92,3.08-.05-.21-26.22Z"/>
    <path class="cls-10" d="M1019.82,216.29l-4.38.08c.04-.26.07-.53.06-.8-.02-2.39-1.78-4.29-3.93-4.25s-3.88,2-3.86,4.39c0,.27.03.54.08.8l-4.38.08.21,26.22,3.44-.06.04,4.92,2.9-.05-.04-4.92,4.08-.07.04,4.92,2.9-.05-.04-4.92,3.08-.05-.21-26.22Z"/>
    <polygon class="cls-8" points="1033.01 249.86 971.46 250.95 971.29 230.15 1032.84 229.07 1033.01 249.86"/>
    <path class="cls-11" d="M986.15,226.68l-4.17.07-.02-3.05c1.28-.64,2.16-2.07,2.15-3.72-.02-2.22-1.66-3.99-3.66-3.95s-3.61,1.86-3.59,4.08c.01,1.72,1.01,3.17,2.39,3.72l.02,2.97-4.08.07.11,13.96,2.27-.04.08,10.05,2.63-.05-.08-10.05,2.63-.05.08,10.05,2.36-.04-.08-10.05,1.09-.02-.11-13.96Z"/>
    <polygon class="cls-11" points="1031.5 56.86 980.56 57.76 980.25 20.58 1031.2 19.69 1031.5 56.86"/>
    <polygon class="cls-11" points="835.67 159.08 772.12 160.2 771.98 142.81 835.52 141.69 835.67 159.08"/>
    <polygon class="cls-11" points="1059.84 250.55 1035.01 250.98 1034.66 208.49 1059.5 208.05 1059.84 250.55"/>
  </g>
  <polygon class="cls-5" points="9.81 257.82 340.55 262.69 340.55 28.79 9.81 6.66 9.81 257.82"/>
  <polygon class="cls-5" points="375.9 261.13 738.57 256.8 733.7 34.33 375.9 34.33 375.9 261.13"/>
  <polygon class="cls-5" points="771.2 253.05 1101.93 253.05 1101.93 10.55 767.95 27.81 771.2 253.05"/>
</svg>