<?xml version="1.0" encoding="UTF-8"?>
<svg id="security_room" data-name="security room" xmlns="http://www.w3.org/2000/svg" viewBox="0 0 233.56 195.68">
  <defs>
    <style>
      .cls-1 {
        fill: #1d0422;
      }

      .cls-2 {
        fill: #290c34;
      }

      .cls-3 {
        fill: #1d1d1b;
      }

      .cls-4 {
        fill: #584278;
      }

      .cls-5 {
        fill: #ff1717;
      }
    </style>
  </defs>
  <g>
    <polygon class="cls-1" points="185.74 184.24 155.21 192.15 47.83 188.72 81.17 180.7 185.74 184.24"/>
    <polygon class="cls-1" points="80.59 186.43 143.6 188.63 165.23 183.74 160.24 148.97 83.23 148.97 80.59 186.43"/>
    <polygon class="cls-2" points="231.67 0 210.92 158.6 0 150.14 33.16 5.28 231.67 0"/>
    <polygon class="cls-2" points="143.6 188.63 140.59 168.8 82.41 160.64 80.59 186.43 143.6 188.63"/>
    <polygon class="cls-2" points="47.83 188.72 47.83 192.15 153.15 195.68 155.21 192.15 47.83 188.72"/>
    <polygon class="cls-1" points="185.66 184.24 188.33 188.72 153.08 195.68 155.14 192.15 185.66 184.24"/>
    <polygon class="cls-1" points="231.67 0 233.56 4.72 212.95 161.26 4.02 152.99 0 150.14 208.96 156.47 231.67 0"/>
    <polygon class="cls-3" points="206.35 146.99 9.82 144.47 36.44 10.12 225.7 5.52 206.35 146.99"/>
  </g>
  <rect class="cls-5" x="199.06" y="149.15" width="5.76" height="3.52" transform="translate(-9.34 13.39) rotate(-3.71)"/>
  <polygon class="cls-4" points="73.4 192.88 80.76 189.65 131.18 191.26 130.41 194.78 73.4 192.88"/>
</svg>