<?xml version="1.0" encoding="UTF-8"?>
<svg xmlns="http://www.w3.org/2000/svg" xmlns:xlink="http://www.w3.org/1999/xlink" viewBox="0 0 246.5 185.19">
  <defs>
    <style>
      .cls-1 {
        fill: #1d0422;
      }

      .cls-2 {
        fill: #290c34;
      }

      .cls-3 {
        fill: #5049ce;
      }

      .cls-4 {
        fill: url(#_ÂÁ_Ï_ÌÌ_È_ËÂÌÚ_52-2);
      }

      .cls-4, .cls-5 {
        mix-blend-mode: color-dodge;
        opacity: .5;
      }

      .cls-6 {
        fill: url(#_ÂÁ_Ï_ÌÌ_È_ËÂÌÚ_72);
      }

      .cls-7 {
        fill: #584278;
      }

      .cls-8 {
        isolation: isolate;
      }

      .cls-9 {
        mix-blend-mode: overlay;
      }

      .cls-5 {
        fill: url(#_ÂÁ_Ï_ÌÌ_È_ËÂÌÚ_52);
      }

      .cls-10 {
        fill: #1c13bf;
      }

      .cls-11 {
        fill: url(#_ÂÁ_Ï_ÌÌ_È_ËÂÌÚ_3);
      }

      .cls-12 {
        fill: url(#_ÂÁ_Ï_ÌÌ_È_ËÂÌÚ_3-2);
      }
    </style>
    <radialGradient id="_ÂÁ_Ï_ÌÌ_È_ËÂÌÚ_72" data-name="¡ÂÁ˚ÏˇÌÌ˚È „‡‰ËÂÌÚ 72" cx="125.2" cy="70.67" fx="125.2" fy="70.67" r="93.72" gradientUnits="userSpaceOnUse">
      <stop offset="0" stop-color="#1fb8b4"/>
      <stop offset="1" stop-color="#57f6c9"/>
    </radialGradient>
    <linearGradient id="_ÂÁ_Ï_ÌÌ_È_ËÂÌÚ_3" data-name="¡ÂÁ˚ÏˇÌÌ˚È „‡‰ËÂÌÚ 3" x1="240.67" y1="69.76" x2="8.99" y2="69.76" gradientUnits="userSpaceOnUse">
      <stop offset="0" stop-color="#ffffd1"/>
      <stop offset="1" stop-color="#ffdac0"/>
    </linearGradient>
    <linearGradient id="_ÂÁ_Ï_ÌÌ_È_ËÂÌÚ_3-2" data-name="¡ÂÁ˚ÏˇÌÌ˚È „‡‰ËÂÌÚ 3" x1="8.99" y1="85.53" x2="240.67" y2="85.53" xlink:href="#_ÂÁ_Ï_ÌÌ_È_ËÂÌÚ_3"/>
    <linearGradient id="_ÂÁ_Ï_ÌÌ_È_ËÂÌÚ_52" data-name="¡ÂÁ˚ÏˇÌÌ˚È „‡‰ËÂÌÚ 52" x1="108.78" y1="130.03" x2="108.78" y2="7.59" gradientUnits="userSpaceOnUse">
      <stop offset="0" stop-color="#000"/>
      <stop offset="1" stop-color="#d9ff5e"/>
    </linearGradient>
    <linearGradient id="_ÂÁ_Ï_ÌÌ_È_ËÂÌÚ_52-2" data-name="¡ÂÁ˚ÏˇÌÌ˚È „‡‰ËÂÌÚ 52" x1="132.91" y1="124.84" x2="132.91" y2="8.58" xlink:href="#_ÂÁ_Ï_ÌÌ_È_ËÂÌÚ_52"/>
  </defs>
  <g class="cls-8">
    <g id="security_room" data-name="security room">
      <g>
        <polygon class="cls-1" points="188.32 178.01 192.61 185.19 60.26 184.01 65.06 178.01 188.32 178.01"/>
        <polygon class="cls-2" points="188.32 178.01 166.22 172.13 92.34 172.13 65.06 178.01 188.32 178.01"/>
        <polygon class="cls-1" points="158.37 138.37 158.37 175.83 94.5 175.83 98.29 140.19 158.37 138.37"/>
        <polygon class="cls-2" points="96.92 153.07 155.15 161.37 155.15 175.07 94.5 175.83 96.92 153.07"/>
        <polygon class="cls-2" points="0 138.37 4.99 0 244.51 0 246.5 141.47 0 138.37"/>
        <polygon class="cls-6" points="9.36 132.65 241.04 135.09 241.04 6.26 9.36 6.26 9.36 132.65"/>
        <polygon class="cls-1" points="0 138.02 3.18 141.47 243.52 144.92 246.5 141.12 0 138.02"/>
        <polygon class="cls-7" points="89.18 184.26 92.23 178.01 118.21 178.01 115.98 184.26 89.18 184.26"/>
        <polygon class="cls-7" points="121.05 184.55 123.25 178.01 126.44 178.01 124.83 184.26 121.05 184.55"/>
        <polygon class="cls-7" points="95.27 3.85 163.68 3.45 166.12 0 98.32 0 95.27 3.85"/>
        <g class="cls-9">
          <polygon class="cls-11" points="240.67 134.17 240.67 5.34 8.99 5.34 8.99 131.73 240.67 134.17"/>
          <polygon class="cls-10" points="8.99 131.73 8.99 103.32 240.67 91.8 240.67 134.17 8.99 131.73"/>
          <polygon class="cls-10" points="240.67 73.78 8.99 75.1 8.99 66.78 240.67 63.53 240.67 73.78"/>
          <polygon class="cls-3" points="240.67 91.8 240.67 73.78 8.99 75.1 8.99 103.32 240.67 91.8"/>
          <polygon class="cls-12" points="8.99 88.55 240.67 80.99 240.67 82.81 8.99 90.07 8.99 88.55"/>
          <path class="cls-10" d="M8.99,36.74s47.91,20.57,63.06,23.01c15.16,2.44,53.05-6.77,64.14-6.77s34.64,7.18,40.6,7.18,63.87-23.42,63.87-23.42v26.79l-231.68,3.25v-30.05Z"/>
        </g>
        <polygon class="cls-5" points="118.06 7.59 32.62 129.55 40.88 130.03 184.94 8.54 118.06 7.59"/>
        <polygon class="cls-4" points="190.85 8.58 214.62 8.71 60.51 124.84 51.19 123.96 190.85 8.58"/>
      </g>
    </g>
  </g>
</svg>