<?xml version="1.0" encoding="UTF-8"?>
<svg xmlns="http://www.w3.org/2000/svg" xmlns:xlink="http://www.w3.org/1999/xlink" viewBox="0 0 233.56 195.68">
  <defs>
    <style>
      .cls-1 {
        fill: #1d0422;
      }

      .cls-2 {
        fill: #290c34;
      }

      .cls-3 {
        fill: #5049ce;
      }

      .cls-4 {
        fill: url(#_ÂÁ_Ï_ÌÌ_È_ËÂÌÚ_52-2);
      }

      .cls-4, .cls-5 {
        mix-blend-mode: color-dodge;
        opacity: .5;
      }

      .cls-6 {
        fill: #ffc217;
      }

      .cls-7 {
        fill: url(#_ÂÁ_Ï_ÌÌ_È_ËÂÌÚ_72);
      }

      .cls-8 {
        fill: #584278;
      }

      .cls-9 {
        isolation: isolate;
      }

      .cls-10 {
        mix-blend-mode: overlay;
      }

      .cls-5 {
        fill: url(#_ÂÁ_Ï_ÌÌ_È_ËÂÌÚ_52);
      }

      .cls-11 {
        fill: #1c13bf;
      }

      .cls-12 {
        fill: url(#_ÂÁ_Ï_ÌÌ_È_ËÂÌÚ_3);
      }

      .cls-13 {
        fill: url(#_ÂÁ_Ï_ÌÌ_È_ËÂÌÚ_3-2);
      }

      .cls-14 {
        fill: #e0bdc7;
      }
    </style>
    <radialGradient id="_ÂÁ_Ï_ÌÌ_È_ËÂÌÚ_72" data-name="¡ÂÁ˚ÏˇÌÌ˚È „‡‰ËÂÌÚ 72" cx="115.8" cy="76.26" fx="115.8" fy="76.26" r="91.26" gradientUnits="userSpaceOnUse">
      <stop offset="0" stop-color="#1fb8b4"/>
      <stop offset="1" stop-color="#57f6c9"/>
    </radialGradient>
    <linearGradient id="_ÂÁ_Ï_ÌÌ_È_ËÂÌÚ_3" data-name="¡ÂÁ˚ÏˇÌÌ˚È „‡‰ËÂÌÚ 3" x1="185.45" y1="142.14" x2="193.5" y2="9.9" gradientUnits="userSpaceOnUse">
      <stop offset="0" stop-color="#ffffd1"/>
      <stop offset="1" stop-color="#ffdac0"/>
    </linearGradient>
    <linearGradient id="_ÂÁ_Ï_ÌÌ_È_ËÂÌÚ_3-2" data-name="¡ÂÁ˚ÏˇÌÌ˚È „‡‰ËÂÌÚ 3" x1="25.56" y1="146.89" x2="34.07" y2="7.12" xlink:href="#_ÂÁ_Ï_ÌÌ_È_ËÂÌÚ_3"/>
    <linearGradient id="_ÂÁ_Ï_ÌÌ_È_ËÂÌÚ_52" data-name="¡ÂÁ˚ÏˇÌÌ˚È „‡‰ËÂÌÚ 52" x1="101.88" y1="138.52" x2="101.88" y2="16.07" gradientUnits="userSpaceOnUse">
      <stop offset="0" stop-color="#000"/>
      <stop offset="1" stop-color="#d9ff5e"/>
    </linearGradient>
    <linearGradient id="_ÂÁ_Ï_ÌÌ_È_ËÂÌÚ_52-2" data-name="¡ÂÁ˚ÏˇÌÌ˚È „‡‰ËÂÌÚ 52" x1="123.5" y1="133.32" x2="123.5" y2="17.07" xlink:href="#_ÂÁ_Ï_ÌÌ_È_ËÂÌÚ_52"/>
  </defs>
  <g class="cls-9">
    <g id="security_room" data-name="security room">
      <g>
        <polygon class="cls-1" points="47.83 184.24 78.35 192.15 185.74 188.72 152.39 180.7 47.83 184.24"/>
        <polygon class="cls-1" points="152.98 186.43 89.96 188.63 68.34 183.74 73.32 148.97 150.33 148.97 152.98 186.43"/>
        <polygon class="cls-2" points="1.89 0 22.64 158.6 233.56 150.14 200.4 5.28 1.89 0"/>
        <polygon class="cls-2" points="89.96 188.63 92.98 168.8 151.16 160.64 152.98 186.43 89.96 188.63"/>
        <polygon class="cls-2" points="185.74 188.72 185.74 192.15 80.41 195.68 78.35 192.15 185.74 188.72"/>
        <polygon class="cls-1" points="47.9 184.24 45.23 188.72 80.48 195.68 78.43 192.15 47.9 184.24"/>
        <polygon class="cls-1" points="1.89 0 0 4.72 20.61 161.26 229.54 152.99 233.56 150.14 24.6 156.47 1.89 0"/>
        <polygon class="cls-7" points="27.22 146.99 223.75 144.47 197.12 10.12 7.86 5.52 27.22 146.99"/>
        <g class="cls-10">
          <polygon class="cls-3" points="27.22 146.99 53.11 126.4 164.08 123.99 223.75 144.47 27.22 146.99"/>
          <polygon class="cls-12" points="164.08 123.99 153.09 42.26 197.12 10.12 223.75 144.47 164.08 123.99"/>
          <polygon class="cls-13" points="53.11 126.4 41.56 42.26 7.86 5.52 27.22 146.99 53.11 126.4"/>
          <polygon class="cls-11" points="153.09 42.26 41.56 42.26 7.86 5.52 197.12 10.12 153.09 42.26"/>
          <polygon class="cls-14" points="164.08 123.99 53.11 126.4 41.56 42.26 153.09 42.26 164.08 123.99"/>
          <polygon class="cls-11" points="89.96 125.6 83.65 69.05 125.48 69.05 132.04 124.69 89.96 125.6"/>
          <polygon class="cls-3" points="84.01 72.31 117.73 72.31 125.48 124.83 89.96 125.6 84.01 72.31"/>
        </g>
        <polygon class="cls-5" points="110.19 16.07 33.65 138.03 41.04 138.52 170.12 17.03 110.19 16.07"/>
        <polygon class="cls-4" points="175.41 17.07 196.71 17.2 58.64 133.32 50.29 132.45 175.41 17.07"/>
        <rect class="cls-6" x="30.77" y="149.22" width="5.76" height="3.52" transform="translate(-9.7 2.49) rotate(-3.71)"/>
        <polygon class="cls-8" points="106.38 194.91 104.75 191.31 134.5 190.36 136 193.82 106.38 194.91"/>
        <polygon class="cls-8" points="25.73 .63 33.65 5.52 114.23 7.08 111.12 2.9 25.73 .63"/>
        <polygon class="cls-8" points="114.23 2.99 117.73 7.08 125.48 7.08 120.73 3.16 114.23 2.99"/>
      </g>
    </g>
  </g>
</svg>