<?xml version="1.0" encoding="UTF-8"?>
<svg id="security_room" data-name="security room" xmlns="http://www.w3.org/2000/svg" viewBox="0 0 212.58 450.47">
  <defs>
    <style>
      .cls-1 {
        fill: #aad1d7;
        stroke-width: 5px;
      }

      .cls-1, .cls-2 {
        stroke: #fff;
        stroke-miterlimit: 10;
      }

      .cls-3 {
        fill: #cdffff;
      }

      .cls-2 {
        fill: #6bbcd9;
        stroke-width: 2px;
      }
    </style>
  </defs>
  <path class="cls-2" d="M208.43,1.24c1.05,149.28,2.09,298.56,3.14,447.85-68.99-22.3-137.98-44.59-206.96-66.89-.7-111.83-1.4-223.67-2.09-335.5C71.15,31.55,139.79,16.39,208.43,1.24Z"/>
  <path class="cls-1" d="M2.51,46.7l2.09,335.5c30.11,9.88,60.21,19.76,90.32,29.63-.29-128.8-.58-257.61-.87-386.41-30.51,7.09-61.03,14.18-91.54,21.27Z"/>
  <path class="cls-3" d="M62.42,35.04C43.94,82.54,25.46,130.05,6.98,177.55c.26,9.28.52,18.57.79,27.85,27.45-58.94,54.91-117.87,82.36-176.81-9.24,2.15-18.47,4.29-27.71,6.44Z"/>
  <path class="cls-3" d="M90.47,138.74c-27.74,49.79-55.49,99.58-83.23,149.36.17,7.2.35,14.4.52,21.6,27.57-48.23,55.14-96.47,82.71-144.7v-26.27Z"/>
</svg>