<?xml version="1.0" encoding="UTF-8"?>
<svg id="security_room" data-name="security room" xmlns="http://www.w3.org/2000/svg" viewBox="0 0 214.44 454.37">
  <defs>
    <style>
      .cls-1 {
        fill: #aad1d7;
        stroke-width: 5px;
      }

      .cls-1, .cls-2 {
        stroke: #fff;
        stroke-miterlimit: 10;
      }

      .cls-3 {
        fill: #cdffff;
      }

      .cls-2 {
        fill: #6bbcd9;
        stroke-width: 2px;
      }
    </style>
  </defs>
  <g>
    <path class="cls-2" d="M208.43,3.26c1.05,149.28,2.09,298.56,3.14,447.85-68.99-22.3-137.98-44.59-206.96-66.89-.7-111.83-1.4-223.67-2.09-335.5C71.15,33.56,139.79,18.41,208.43,3.26Z"/>
    <path class="cls-1" d="M2.51,48.72l2.09,335.5c30.11,9.88,60.21,19.76,90.32,29.63-.29-128.8-.58-257.61-.87-386.41-30.51,7.09-61.03,14.18-91.54,21.27Z"/>
    <path class="cls-3" d="M62.42,37.05C43.94,84.56,25.46,132.07,6.98,179.57c.26,9.28.52,18.57.79,27.85,27.45-58.94,54.91-117.87,82.36-176.81-9.24,2.15-18.47,4.29-27.71,6.44Z"/>
    <path class="cls-3" d="M90.47,140.76c-27.74,49.79-55.49,99.58-83.23,149.36.17,7.2.35,14.4.52,21.6,27.57-48.23,55.14-96.47,82.71-144.7v-26.27Z"/>
  </g>
  <g>
    <path class="cls-1" d="M99.74,26.13c.53,129.69,1.06,259.37,1.59,389.06,36.86,11.91,73.73,23.83,110.59,35.74-1.05-149.28-2.09-298.56-3.14-447.85-36.35,7.68-72.7,15.37-109.04,23.05Z"/>
    <path class="cls-3" d="M204.94,95.7c-33.24,46.6-66.48,93.21-99.72,139.81-.03,4.62-.05,9.24-.08,13.86,33.35-45.61,66.71-91.21,100.06-136.82-.09-5.62-.17-11.23-.26-16.85Z"/>
    <path class="cls-3" d="M206.08,176.08c-33.79,52.14-67.59,104.29-101.38,156.43v16.58c33.79-51.27,67.59-102.54,101.38-153.8v-19.2Z"/>
  </g>
</svg>