<?xml version="1.0" encoding="UTF-8"?>
<svg xmlns="http://www.w3.org/2000/svg" viewBox="0 0 46.73 39.66">
  <defs>
    <style>
      .cls-1 {
        fill: #bababa;
      }

      .cls-2 {
        fill: #204094;
      }

      .cls-3 {
        isolation: isolate;
      }

      .cls-4 {
        fill: #cfcfcf;
        mix-blend-mode: multiply;
      }

      .cls-5 {
        fill: #2853bf;
      }

      .cls-6 {
        fill: #d6d6d6;
      }
    </style>
  </defs>
  <g class="cls-3">
    <g id="Layer_1" data-name="Layer 1">
      <g>
        <path class="cls-5" d="M5.49,1.54L.93,7.15c-1.45,1.79-1.18,4.41.61,5.87l2.63-3.24,4.55-5.61,2.63-3.24c-1.79-1.45-4.41-1.18-5.86.61Z"/>
        <rect class="cls-2" x="9.06" y="3.29" width="10.25" height="19.93" transform="translate(-5.04 15.92) rotate(-50.95)"/>
        <path class="cls-5" d="M17.3,15.78c-4.14,5.1-3.37,12.59,1.74,16.74l14.99-18.48c-5.11-4.14-12.6-3.36-16.74,1.74Z"/>
        <polygon class="cls-1" points="41.76 33.25 27.7 21.85 25.38 24.71 39.44 36.12 46.73 39.66 41.76 33.25"/>
        <polygon class="cls-6" points="27.12 22.56 26.54 23.28 46.73 39.66 44.25 36.46 27.12 22.56"/>
        <path class="cls-4" d="M3.21,4.35L.93,7.15c-1.45,1.79-1.18,4.41.61,5.87l1.68-2.07,11.77,9.55c-1.04,4.31.38,9.04,4.06,12.02l6.33-7.81,14.06,11.41,7.3,3.55L3.21,4.35Z"/>
      </g>
    </g>
  </g>
</svg>