<?xml version="1.0" encoding="UTF-8"?>
<svg id="security_room" data-name="security room" xmlns="http://www.w3.org/2000/svg" xmlns:xlink="http://www.w3.org/1999/xlink" viewBox="0 0 286.28 835.27">
  <defs>
    <style>
      .cls-1 {
        fill: #d7ad62;
      }

      .cls-2 {
        fill: url(#Dégradé_sans_nom_358);
      }

      .cls-3 {
        fill: #2e1e21;
      }
    </style>
    <linearGradient id="Dégradé_sans_nom_358" data-name="Dégradé sans nom 358" x1="286.28" y1="417.63" x2="572.57" y2="417.63" gradientTransform="translate(572.57) rotate(-180) scale(1 -1)" gradientUnits="userSpaceOnUse">
      <stop offset="0" stop-color="#210500"/>
      <stop offset="1" stop-color="#552421"/>
    </linearGradient>
  </defs>
  <g>
    <path class="cls-2" d="M283.91.31c.79,278.32,1.58,556.64,2.37,834.96H0C.64,556.84,1.29,278.42,1.93,0c93.99.1,187.99.2,281.98.31Z"/>
    <polygon class="cls-1" points="283.91 .31 286.28 835.27 281.69 832.19 281.69 1.29 283.91 .31"/>
  </g>
  <g>
    <ellipse class="cls-1" cx="41.64" cy="423.23" rx="11.44" ry="12.34"/>
    <path class="cls-3" d="M37.16,422.12c12.16.06,21.78-.16,28.51-.4,5.96-.21,12.6-.52,14.19,1.44.79.97.18,2.3-.85,3.14-2.56,2.1-8.41,1.77-16.52,1.18-6.93-.51-15.74-1.23-26.04-2.26-.27-.08-.65-.23-1.04-.46-.51-.3-1.01-.72-.94-1.25.14-1.05,2.68-1.4,2.68-1.4Z"/>
    <path class="cls-1" d="M38.29,421.44c1.41,0,3.69,0,6.49,0,23.99-.1,32.59-1.06,35.09,1.73.66.74.89,1.72.28,2.46-1.49,1.81-7.44,1.85-16.52,1.18-6.93-.51-15.74-1.23-26.04-2.26-.27-.08-.65-.23-1.04-.46-.51-.3-1.01-.72-.94-1.25.14-1.05,2.68-1.4,2.68-1.4Z"/>
  </g>
</svg>