<?xml version="1.0" encoding="UTF-8"?>
<svg id="security_room" data-name="security room" xmlns="http://www.w3.org/2000/svg" xmlns:xlink="http://www.w3.org/1999/xlink" viewBox="0 0 286.28 835.27">
  <defs>
    <style>
      .cls-1 {
        fill: #d7ad62;
      }

      .cls-2 {
        fill: url(#Dégradé_sans_nom_358);
      }

      .cls-3 {
        fill: #2e1e21;
      }
    </style>
    <linearGradient id="Dégradé_sans_nom_358" data-name="Dégradé sans nom 358" x1="0" y1="417.63" x2="286.28" y2="417.63" gradientUnits="userSpaceOnUse">
      <stop offset="0" stop-color="#210500"/>
      <stop offset="1" stop-color="#552421"/>
    </linearGradient>
  </defs>
  <g>
    <path class="cls-2" d="M2.37.31C1.58,278.63.79,556.95,0,835.27h286.28c-.64-278.42-1.29-556.84-1.93-835.27C190.36.1,96.37.2,2.37.31Z"/>
    <polygon class="cls-1" points="2.37 .31 0 835.27 4.6 832.19 4.6 1.29 2.37 .31"/>
  </g>
  <g>
    <ellipse class="cls-1" cx="244.64" cy="423.23" rx="11.44" ry="12.34"/>
    <path class="cls-3" d="M249.12,422.12c-12.16.06-21.78-.16-28.51-.4-5.96-.21-12.6-.52-14.19,1.44-.79.97-.18,2.3.85,3.14,2.56,2.1,8.41,1.77,16.52,1.18,6.93-.51,15.74-1.23,26.04-2.26.27-.08.65-.23,1.04-.46.51-.3,1.01-.72.94-1.25-.14-1.05-2.68-1.4-2.68-1.4Z"/>
    <path class="cls-1" d="M247.99,421.44c-1.41,0-3.69,0-6.49,0-23.99-.1-32.59-1.06-35.09,1.73-.66.74-.89,1.72-.28,2.46,1.49,1.81,7.44,1.85,16.52,1.18,6.93-.51,15.74-1.23,26.04-2.26.27-.08.65-.23,1.04-.46.51-.3,1.01-.72.94-1.25-.14-1.05-2.68-1.4-2.68-1.4Z"/>
  </g>
</svg>