<?xml version="1.0" encoding="UTF-8"?>
<svg id="security_room" data-name="security room" xmlns="http://www.w3.org/2000/svg" xmlns:xlink="http://www.w3.org/1999/xlink" viewBox="0 0 178.26 834.96">
  <defs>
    <style>
      .cls-1 {
        fill: #d7ad62;
      }

      .cls-2 {
        fill: url(#Dégradé_sans_nom_358);
      }

      .cls-3 {
        fill: #2e1e21;
      }
    </style>
    <linearGradient id="Dégradé_sans_nom_358" data-name="Dégradé sans nom 358" x1="0" y1="417.48" x2="178.26" y2="417.48" gradientUnits="userSpaceOnUse">
      <stop offset="0" stop-color="#210500"/>
      <stop offset="1" stop-color="#552421"/>
    </linearGradient>
  </defs>
  <path class="cls-2" d="M2.37,0C1.58,278.32.79,556.64,0,834.96c58.72-37.05,117.45-74.1,176.17-111.15.7-215.44,1.4-430.89,2.09-646.33C119.63,51.65,61,25.83,2.37,0Z"/>
  <g>
    <ellipse class="cls-1" cx="152.04" cy="405.14" rx="8.08" ry="12.34"/>
    <path class="cls-3" d="M155.2,404.03c-8.58.06-15.38-.16-20.13-.4-4.21-.21-8.89-.52-10.02,1.44-.56.97-.13,2.3.6,3.14,1.81,2.1,5.94,1.77,11.66,1.18,4.89-.51,11.12-1.23,18.39-2.26.19-.08.46-.23.74-.46.36-.3.71-.72.66-1.25-.1-1.05-1.89-1.4-1.89-1.4Z"/>
    <path class="cls-1" d="M154.41,403.35c-1,0-2.6,0-4.58,0-16.94-.1-23.01-1.06-24.77,1.73-.47.74-.63,1.72-.2,2.46,1.05,1.81,5.25,1.85,11.66,1.18,4.89-.51,11.12-1.23,18.39-2.26.19-.08.46-.23.74-.46.36-.3.71-.72.66-1.25-.1-1.05-1.89-1.4-1.89-1.4Z"/>
  </g>
  <polygon class="cls-1" points="2.37 0 0 834.96 4.6 831.88 4.6 .98 2.37 0"/>
</svg>