<?xml version="1.0" encoding="UTF-8"?>
<svg xmlns="http://www.w3.org/2000/svg" viewBox="0 0 116.22 116.21">
  <defs>
    <style>
      .cls-1 {
        fill: #ffeb87;
      }

      .cls-2 {
        fill: #f2f2f2;
      }

      .cls-2, .cls-3 {
        mix-blend-mode: multiply;
      }

      .cls-4 {
        isolation: isolate;
      }

      .cls-3 {
        fill: #ebebeb;
      }
    </style>
  </defs>
  <g class="cls-4">
    <g id="Layer_1" data-name="Layer 1">
      <g>
        <g>
          <polygon class="cls-3" points="116.22 116.21 3.36 116.21 0 112.85 0 0 112.85 0 116.22 3.36 116.22 116.21"/>
          <rect class="cls-1" width="112.85" height="112.85"/>
          <polygon class="cls-2" points="112.85 112.85 112.85 91.77 47.28 112.85 112.85 112.85"/>
          <rect class="cls-2" width="112.85" height="20.33"/>
        </g>
        <g>
          <path d="M29.01,75.44c-.48.4-1.51.94-2.91,1.27-3.24.77-6.17-.69-7.06-4.46s1-6.62,4.57-7.47c1.43-.34,2.41-.25,2.85-.14l-.07,1.3c-.63-.14-1.48-.15-2.43.07-2.69.64-4.08,2.79-3.36,5.81.67,2.81,2.72,4.24,5.52,3.57.9-.22,1.78-.62,2.31-1.05l.59,1.1Z"/>
          <path d="M37.19,69.46c.73,3.05-1.07,4.89-3.07,5.36-2.23.53-4.35-.7-4.97-3.3-.66-2.76.76-4.81,3.05-5.36,2.37-.56,4.38.78,4.98,3.3ZM30.66,71.1c.43,1.81,1.8,2.93,3.26,2.58s2.19-1.95,1.74-3.8c-.33-1.4-1.45-3.01-3.23-2.58s-2.15,2.24-1.78,3.81Z"/>
          <path d="M44.33,59.39l2.38,9.98c.17.73.39,1.57.58,2.12l-1.35.32-.41-1.42h-.03c-.24,1.04-1.08,1.98-2.43,2.3-2,.48-3.93-.85-4.53-3.35-.67-2.74.63-4.84,2.64-5.32,1.26-.3,2.26.09,2.79.67h.03s-1.17-4.94-1.17-4.94l1.5-.36ZM44.55,66.97c-.04-.19-.12-.44-.22-.61-.45-.9-1.45-1.49-2.58-1.22-1.55.37-2.15,1.95-1.71,3.78.4,1.67,1.55,2.86,3.17,2.47,1.01-.24,1.77-1.12,1.77-2.31,0-.22-.03-.43-.09-.66l-.34-1.43Z"/>
          <path d="M49.63,66.86c.52,2.02,2.01,2.55,3.51,2.19,1.07-.26,1.68-.6,2.18-.97l.51,1.01c-.47.36-1.31.85-2.62,1.17-2.54.61-4.46-.71-5.05-3.2-.59-2.49.41-4.8,2.81-5.37,2.69-.64,3.98,1.56,4.34,3.08.07.31.1.55.11.71l-5.8,1.38ZM53.78,64.73c-.21-.96-.97-2.35-2.66-1.94-1.52.36-1.85,1.92-1.72,2.99l4.38-1.04Z"/>
          <path d="M61.4,68.13l-.22-.92.9-1.42c2.19-3.37,3.13-5.11,2.75-6.78-.27-1.12-1.06-2.03-2.72-1.64-1.01.24-1.72.95-2.13,1.5l-.73-.94c.61-.83,1.59-1.57,2.87-1.87,2.39-.57,3.78.83,4.16,2.41.49,2.05-.6,4.05-2.4,6.86l-.69,1.03v.03s4.99-1.19,4.99-1.19l.3,1.25-7.08,1.69Z"/>
          <path d="M74.43,54.64l-4.23,1.01.25,2.95c.25-.1.48-.19.89-.28.85-.2,1.75-.22,2.53.03.99.29,1.93,1.07,2.26,2.47.52,2.16-.82,4.2-3.23,4.77-1.21.29-2.32.19-2.93-.02l.1-1.23c.53.16,1.51.29,2.52.05,1.42-.34,2.41-1.55,2.05-3.03-.36-1.43-1.56-2.22-3.77-1.7-.63.15-1.11.34-1.51.48l-.55-5.49,5.3-1.26.3,1.26Z"/>
          <path d="M78.1,61.18c-.33-1.4.27-2.59,1.49-3.49l-.03-.05c-1.37-.29-2.12-1.12-2.35-2.07-.42-1.76.78-3.3,2.73-3.77,2.15-.51,3.54.58,3.87,1.96.22.94,0,2.05-1.21,3.03v.05c1.52.22,2.61.99,2.93,2.33.46,1.93-.89,3.62-3,4.12-2.32.55-4.05-.5-4.43-2.12ZM84.05,59.69c-.32-1.35-1.41-1.77-3.02-1.84-1.21.68-1.7,1.7-1.45,2.76.22,1.14,1.31,1.92,2.72,1.59s2.02-1.36,1.75-2.51ZM78.61,55.13c.26,1.11,1.24,1.51,2.6,1.54.88-.55,1.45-1.41,1.21-2.41-.21-.89-.96-1.68-2.31-1.36-1.24.3-1.73,1.28-1.5,2.23Z"/>
          <path d="M93.68,54.46c.9,3.77,0,6.18-2.46,6.77-2.17.52-4.12-1.16-5.02-4.82-.89-3.72.23-6.15,2.48-6.68,2.34-.56,4.16,1.21,5,4.74ZM87.7,56.06c.69,2.88,1.96,4.31,3.33,3.98,1.54-.37,1.84-2.33,1.17-5.16-.65-2.73-1.78-4.35-3.33-3.98-1.31.31-1.89,2.14-1.17,5.16Z"/>
        </g>
      </g>
    </g>
  </g>
</svg>