<?xml version="1.0" encoding="UTF-8"?>
<svg xmlns="http://www.w3.org/2000/svg" viewBox="0 0 116.22 116.21">
  <defs>
    <style>
      .cls-1 {
        fill: #ffeb87;
      }

      .cls-2 {
        fill: #f2f2f2;
      }

      .cls-2, .cls-3 {
        mix-blend-mode: multiply;
      }

      .cls-4 {
        isolation: isolate;
      }

      .cls-3 {
        fill: #ebebeb;
      }
    </style>
  </defs>
  <g class="cls-4">
    <g id="Layer_1" data-name="Layer 1">
      <g>
        <g>
          <polygon class="cls-3" points="116.22 116.21 3.36 116.21 0 112.85 0 0 112.85 0 116.22 3.36 116.22 116.21"/>
          <rect class="cls-1" width="112.85" height="112.85"/>
          <polygon class="cls-2" points="112.85 112.85 112.85 91.77 47.28 112.85 112.85 112.85"/>
          <rect class="cls-2" width="112.85" height="20.33"/>
        </g>
        <g>
          <path d="M16.3,14.95c-.36.18-1.08.36-2,.36-2.14,0-3.74-1.35-3.74-3.83s1.61-3.98,3.96-3.98c.94,0,1.54.2,1.8.34l-.24.8c-.37-.18-.9-.32-1.53-.32-1.78,0-2.96,1.14-2.96,3.13,0,1.85,1.07,3.05,2.91,3.05.6,0,1.2-.12,1.6-.32l.2.78Z"/>
          <path d="M22.29,12.43c0,2.01-1.39,2.89-2.71,2.89-1.47,0-2.61-1.08-2.61-2.8,0-1.82,1.19-2.89,2.7-2.89s2.62,1.13,2.62,2.8ZM17.97,12.49c0,1.19.69,2.09,1.65,2.09s1.65-.89,1.65-2.11c0-.92-.46-2.09-1.63-2.09s-1.68,1.08-1.68,2.11Z"/>
          <path d="M23.54,11.23c0-.56-.01-1.02-.04-1.47h.88l.06.9h.02c.27-.52.9-1.02,1.8-1.02.75,0,1.92.45,1.92,2.32v3.25h-.99v-3.14c0-.88-.33-1.61-1.26-1.61-.65,0-1.16.46-1.33,1.01-.04.12-.07.29-.07.46v3.27h-.99v-3.97Z"/>
          <path d="M29.88,15.2v-4.69h-.77v-.75h.77v-.29c0-1.44.84-2.37,2.37-2.37.51,0,1.1.16,1.38.36l-.28.75c-.24-.17-.66-.32-1.15-.32-1.05,0-1.35.73-1.35,1.6v.27h3.16v5.44h-.98v-4.69h-2.18v4.69h-.98Z"/>
          <path d="M40.35,7.21v6.58c0,.48.01,1.03.04,1.4h-.89l-.04-.94h-.02c-.3.61-.97,1.07-1.85,1.07-1.32,0-2.33-1.11-2.33-2.77-.01-1.81,1.11-2.92,2.44-2.92.83,0,1.39.39,1.64.83h.02v-3.25h.99ZM39.36,11.97c0-.12-.01-.29-.04-.42-.15-.63-.69-1.15-1.43-1.15-1.02,0-1.63.9-1.63,2.1,0,1.1.54,2.01,1.61,2.01.66,0,1.27-.44,1.45-1.18.03-.14.04-.27.04-.43v-.94Z"/>
          <path d="M42.55,12.65c.02,1.34.88,1.89,1.87,1.89.71,0,1.14-.12,1.51-.28l.17.71c-.35.16-.94.34-1.81.34-1.68,0-2.68-1.1-2.68-2.74s.97-2.93,2.55-2.93c1.78,0,2.25,1.56,2.25,2.56,0,.2-.02.36-.03.46h-3.82ZM45.45,11.95c.01-.63-.26-1.61-1.37-1.61-1,0-1.44.92-1.52,1.61h2.89Z"/>
          <path d="M47.63,11.23c0-.56-.01-1.02-.04-1.47h.88l.06.9h.02c.27-.52.9-1.02,1.8-1.02.75,0,1.92.45,1.92,2.32v3.25h-.99v-3.14c0-.88-.33-1.61-1.26-1.61-.65,0-1.16.46-1.33,1.01-.04.12-.07.29-.07.46v3.27h-.99v-3.97Z"/>
          <path d="M55.01,8.19v1.56h1.42v.75h-1.42v2.93c0,.67.19,1.06.74,1.06.26,0,.45-.03.57-.07l.04.74c-.19.08-.49.14-.88.14-.46,0-.83-.15-1.07-.42-.28-.29-.38-.78-.38-1.42v-2.97h-.84v-.75h.84v-1.3l.97-.26Z"/>
          <path d="M58.64,8.23c.01.34-.24.61-.63.61-.35,0-.6-.27-.6-.61s.26-.62.62-.62.61.27.61.62ZM57.54,15.2v-5.44h.99v5.44h-.99Z"/>
          <path d="M60.72,12.65c.02,1.34.88,1.89,1.87,1.89.71,0,1.14-.12,1.51-.28l.17.71c-.35.16-.94.34-1.81.34-1.68,0-2.68-1.1-2.68-2.74s.97-2.93,2.55-2.93c1.78,0,2.25,1.56,2.25,2.56,0,.2-.02.36-.03.46h-3.82ZM63.62,11.95c.01-.63-.26-1.61-1.37-1.61-1,0-1.44.92-1.52,1.61h2.89Z"/>
          <path d="M65.8,7.21h.99v7.98h-.99v-7.98Z"/>
          <path d="M70.6,10.65c0-.42.28-.71.67-.71s.65.29.66.71c0,.39-.26.7-.67.7-.39,0-.66-.3-.66-.7ZM70.6,14.62c0-.42.28-.71.67-.71s.65.29.66.71c0,.39-.26.7-.67.7-.39,0-.66-.3-.66-.7Z"/>
          <path d="M15.77,29.53v.56h-5.62v-.56h5.62Z"/>
          <path d="M21.39,29.53v.56h-5.62v-.56h5.62Z"/>
          <path d="M27.01,29.53v.56h-5.62v-.56h5.62Z"/>
          <path d="M32.63,29.53v.56h-5.62v-.56h5.62Z"/>
          <path d="M38.25,29.53v.56h-5.62v-.56h5.62Z"/>
          <path d="M43.87,29.53v.56h-5.62v-.56h5.62Z"/>
          <path d="M49.49,29.53v.56h-5.62v-.56h5.62Z"/>
          <path d="M55.11,29.53v.56h-5.62v-.56h5.62Z"/>
          <path d="M60.73,29.53v.56h-5.62v-.56h5.62Z"/>
          <path d="M66.35,29.53v.56h-5.62v-.56h5.62Z"/>
          <path d="M71.98,29.53v.56h-5.62v-.56h5.62Z"/>
          <path d="M77.6,29.53v.56h-5.62v-.56h5.62Z"/>
          <path d="M83.22,29.53v.56h-5.62v-.56h5.62Z"/>
          <path d="M88.84,29.53v.56h-5.62v-.56h5.62Z"/>
          <path d="M94.46,29.53v.56h-5.62v-.56h5.62Z"/>
          <path d="M100.08,29.53v.56h-5.62v-.56h5.62Z"/>
          <path d="M15.77,43.02v.56h-5.62v-.56h5.62Z"/>
          <path d="M21.39,43.02v.56h-5.62v-.56h5.62Z"/>
          <path d="M27.01,43.02v.56h-5.62v-.56h5.62Z"/>
          <path d="M32.63,43.02v.56h-5.62v-.56h5.62Z"/>
          <path d="M38.25,43.02v.56h-5.62v-.56h5.62Z"/>
          <path d="M43.87,43.02v.56h-5.62v-.56h5.62Z"/>
          <path d="M15.77,56.51v.56h-5.62v-.56h5.62Z"/>
          <path d="M21.39,56.51v.56h-5.62v-.56h5.62Z"/>
          <path d="M27.01,56.51v.56h-5.62v-.56h5.62Z"/>
          <path d="M32.63,56.51v.56h-5.62v-.56h5.62Z"/>
          <path d="M38.25,56.51v.56h-5.62v-.56h5.62Z"/>
          <path d="M43.87,56.51v.56h-5.62v-.56h5.62Z"/>
          <path d="M49.49,56.51v.56h-5.62v-.56h5.62Z"/>
          <path d="M55.11,56.51v.56h-5.62v-.56h5.62Z"/>
          <path d="M60.73,56.51v.56h-5.62v-.56h5.62Z"/>
          <path d="M66.35,56.51v.56h-5.62v-.56h5.62Z"/>
          <path d="M71.98,56.51v.56h-5.62v-.56h5.62Z"/>
          <path d="M77.6,56.51v.56h-5.62v-.56h5.62Z"/>
          <path d="M15.77,70v.56h-5.62v-.56h5.62Z"/>
          <path d="M21.39,70v.56h-5.62v-.56h5.62Z"/>
          <path d="M27.01,70v.56h-5.62v-.56h5.62Z"/>
          <path d="M32.63,70v.56h-5.62v-.56h5.62Z"/>
          <path d="M38.25,70v.56h-5.62v-.56h5.62Z"/>
          <path d="M43.87,70v.56h-5.62v-.56h5.62Z"/>
          <path d="M49.49,70v.56h-5.62v-.56h5.62Z"/>
          <path d="M55.11,70v.56h-5.62v-.56h5.62Z"/>
          <path d="M60.73,70v.56h-5.62v-.56h5.62Z"/>
          <path d="M66.35,70v.56h-5.62v-.56h5.62Z"/>
          <path d="M71.98,70v.56h-5.62v-.56h5.62Z"/>
          <path d="M77.6,70v.56h-5.62v-.56h5.62Z"/>
          <path d="M83.22,70v.56h-5.62v-.56h5.62Z"/>
          <path d="M88.84,70v.56h-5.62v-.56h5.62Z"/>
          <path d="M15.77,83.49v.56h-5.62v-.56h5.62Z"/>
          <path d="M21.39,83.49v.56h-5.62v-.56h5.62Z"/>
          <path d="M27.01,83.49v.56h-5.62v-.56h5.62Z"/>
          <path d="M32.63,83.49v.56h-5.62v-.56h5.62Z"/>
          <path d="M38.25,83.49v.56h-5.62v-.56h5.62Z"/>
          <path d="M43.87,83.49v.56h-5.62v-.56h5.62Z"/>
          <path d="M15.77,96.98v.56h-5.62v-.56h5.62Z"/>
          <path d="M21.39,96.98v.56h-5.62v-.56h5.62Z"/>
          <path d="M27.01,96.98v.56h-5.62v-.56h5.62Z"/>
        </g>
      </g>
    </g>
  </g>
</svg>