<?xml version="1.0" encoding="UTF-8"?>
<svg id="Layer_1" data-name="Layer 1" xmlns="http://www.w3.org/2000/svg" viewBox="0 0 57.27 55.32">
  <defs>
    <style>
      .cls-1 {
        fill: #4d4d4d;
      }

      .cls-2 {
        fill: #dedede;
      }

      .cls-3 {
        fill: #b3b3b3;
      }

      .cls-4 {
        fill: #adadad;
      }

      .cls-5 {
        fill: #3d3d3d;
      }

      .cls-6 {
        fill: #242424;
      }

      .cls-7 {
        fill: #7a7a7a;
      }
    </style>
  </defs>
  <rect class="cls-6" x="9.99" y="34.33" width="52.38" height="4.24" transform="translate(-15.06 32.93) rotate(-41.28)"/>
  <polygon class="cls-1" points="52.57 19.24 17 50.47 0 34.93 39.37 .38 52.57 19.24"/>
  <polygon class="cls-3" points="39.37 .38 35.68 0 .1 31.23 0 34.93 39.37 .38"/>
  <polygon class="cls-5" points="13.54 47.31 17 50.47 52.57 19.24 49.89 15.41 13.54 47.31"/>
  <polygon class="cls-7" points="2.89 37.57 41.61 3.57 39.37 .38 0 34.93 2.89 37.57"/>
  <path class="cls-2" d="M49.26,26.06l-5.73,5.03L19.83,14.33l.27-.61c1.16-2.62.7-5.6-1.21-7.78-2.67-3.04-7.31-3.34-10.35-.67-3.04,2.66-3.34,7.31-.67,10.35,1.91,2.17,4.81,3.02,7.56,2.21l.64-.19,13.55,25.67-5.73,5.03c-.34.29-.85.26-1.15-.08-.3-.33-.26-.86.07-1.15l4.76-4.18-12.34-23.37c-3.13.67-6.45-.41-8.59-2.86-3.26-3.71-2.89-9.39.82-12.65,3.72-3.26,9.39-2.89,12.65.82,2.18,2.49,2.82,5.84,1.72,8.89l21.58,15.26,4.76-4.18c.34-.3.86-.27,1.15.07.3.34.27.85-.07,1.16Z"/>
  <rect class="cls-4" x="14.79" y="47.07" width="13.77" height="4.24" transform="translate(-27.06 26.52) rotate(-41.28)"/>
  <rect class="cls-4" x="43.8" y="21.59" width="13.78" height="4.24" transform="translate(-3.05 39.33) rotate(-41.27)"/>
  <rect class="cls-4" x="29.15" y="34.46" width="13.77" height="4.24" transform="translate(-15.18 32.88) rotate(-41.29)"/>
  <rect class="cls-1" x="15.49" y="48.92" width="13.77" height="2.12" transform="translate(-27.41 27.18) rotate(-41.28)"/>
  <rect class="cls-1" x="44.5" y="23.45" width="13.78" height="2.12" transform="translate(-3.4 39.98) rotate(-41.27)"/>
  <rect class="cls-1" x="29.85" y="36.32" width="13.78" height="2.12" transform="translate(-15.53 33.54) rotate(-41.29)"/>
</svg>