<?xml version="1.0" encoding="UTF-8"?>
<svg xmlns="http://www.w3.org/2000/svg" xmlns:xlink="http://www.w3.org/1999/xlink" viewBox="0 0 1920 1080">
  <defs>
    <style>
      .cls-1 {
        fill: url(#Dégradé_sans_nom_358-2);
      }

      .cls-2 {
        fill: #1d0422;
      }

      .cls-3, .cls-4 {
        opacity: .5;
      }

      .cls-3, .cls-5, .cls-6, .cls-7, .cls-8, .cls-9, .cls-10, .cls-11 {
        mix-blend-mode: multiply;
      }

      .cls-3, .cls-12 {
        fill: #751813;
      }

      .cls-13 {
        fill: #290c34;
      }

      .cls-14 {
        fill: url(#Dégradé_sans_nom_358-29);
      }

      .cls-15 {
        fill: url(#Dégradé_sans_nom_358-15);
      }

      .cls-16 {
        fill: url(#Dégradé_sans_nom_358-7);
      }

      .cls-17 {
        fill: #d7ad62;
      }

      .cls-18 {
        fill: #511813;
      }

      .cls-19 {
        fill: url(#Dégradé_sans_nom_358-10);
      }

      .cls-4 {
        fill: url(#_ÂÁ_Ï_ÌÌ_È_ËÂÌÚ_86);
        mix-blend-mode: color-dodge;
      }

      .cls-20 {
        fill: url(#Dégradé_sans_nom_358-20);
      }

      .cls-21 {
        fill: url(#Dégradé_sans_nom_358-4);
      }

      .cls-22 {
        fill: #584278;
      }

      .cls-23 {
        fill: none;
      }

      .cls-24 {
        fill: #ac7077;
      }

      .cls-25 {
        fill: #11001e;
      }

      .cls-26 {
        fill: url(#_ÂÁ_Ï_ÌÌ_È_ËÂÌÚ_151);
      }

      .cls-5 {
        fill: url(#_ÂÁ_Ï_ÌÌ_È_ËÂÌÚ_59-5);
      }

      .cls-27 {
        fill: url(#Dégradé_sans_nom_358-18);
      }

      .cls-28 {
        fill: url(#Dégradé_sans_nom_358);
      }

      .cls-29 {
        fill: url(#Dégradé_sans_nom_358-28);
      }

      .cls-30 {
        fill: url(#Dégradé_sans_nom_358-9);
      }

      .cls-6 {
        fill: url(#_ÂÁ_Ï_ÌÌ_È_ËÂÌÚ_59-4);
      }

      .cls-31 {
        fill: url(#Dégradé_sans_nom_358-5);
      }

      .cls-32 {
        isolation: isolate;
      }

      .cls-7 {
        fill: url(#_ÂÁ_Ï_ÌÌ_È_ËÂÌÚ_59-3);
      }

      .cls-33 {
        fill: #00e7d8;
        mix-blend-mode: soft-light;
      }

      .cls-34 {
        fill: url(#Dégradé_sans_nom_358-16);
      }

      .cls-8 {
        fill: #6bbcd9;
      }

      .cls-8, .cls-11 {
        opacity: .3;
      }

      .cls-35 {
        fill: url(#Dégradé_sans_nom_358-12);
      }

      .cls-36 {
        fill: url(#Dégradé_sans_nom_358-23);
      }

      .cls-37 {
        fill: url(#Dégradé_sans_nom_358-8);
      }

      .cls-38 {
        fill: url(#Dégradé_sans_nom_358-3);
      }

      .cls-39 {
        fill: url(#Dégradé_sans_nom_562);
      }

      .cls-40 {
        fill: url(#Dégradé_sans_nom_358-17);
      }

      .cls-41 {
        fill: url(#Dégradé_sans_nom_358-14);
      }

      .cls-42 {
        fill: url(#Dégradé_sans_nom_358-6);
      }

      .cls-43 {
        fill: #73ffe5;
      }

      .cls-44 {
        fill: #361b41;
      }

      .cls-45 {
        fill: url(#Dégradé_sans_nom_714);
      }

      .cls-46 {
        fill: url(#Dégradé_sans_nom_549);
      }

      .cls-47 {
        fill: url(#_ÂÁ_Ï_ÌÌ_È_ËÂÌÚ_157);
      }

      .cls-48 {
        fill: url(#Dégradé_sans_nom_358-22);
      }

      .cls-49 {
        fill: url(#Dégradé_sans_nom_358-13);
      }

      .cls-50 {
        fill: url(#Dégradé_sans_nom_358-24);
      }

      .cls-51 {
        fill: url(#Dégradé_sans_nom_358-27);
      }

      .cls-52 {
        fill: url(#Dégradé_sans_nom_358-26);
      }

      .cls-52, .cls-53 {
        opacity: .2;
      }

      .cls-9 {
        fill: url(#_ÂÁ_Ï_ÌÌ_È_ËÂÌÚ_59-2);
      }

      .cls-54 {
        fill: url(#Dégradé_sans_nom_358-11);
      }

      .cls-10 {
        fill: url(#_ÂÁ_Ï_ÌÌ_È_ËÂÌÚ_59);
      }

      .cls-55 {
        fill: #0088a6;
      }

      .cls-56 {
        fill: url(#Dégradé_sans_nom_358-19);
      }

      .cls-53 {
        fill: url(#Dégradé_sans_nom_358-25);
      }

      .cls-57 {
        clip-path: url(#clippath);
      }

      .cls-58 {
        fill: url(#Dégradé_sans_nom_358-21);
      }
    </style>
    <clipPath id="clippath">
      <rect class="cls-23" x="-26.51" y="-179.89" width="1971.27" height="1314.18"/>
    </clipPath>
    <radialGradient id="Dégradé_sans_nom_714" data-name="Dégradé sans nom 714" cx="948.17" cy="15966.33" fx="948.17" fy="15966.33" r="701.41" gradientTransform="translate(0 -5278.89) scale(1 .34)" gradientUnits="userSpaceOnUse">
      <stop offset="0" stop-color="#aa9b7b"/>
      <stop offset="1" stop-color="#bba96a"/>
    </radialGradient>
    <linearGradient id="Dégradé_sans_nom_358" data-name="Dégradé sans nom 358" x1="-52.27" y1="991.51" x2="1961.5" y2="991.51" gradientUnits="userSpaceOnUse">
      <stop offset="0" stop-color="#210500"/>
      <stop offset="1" stop-color="#552421"/>
    </linearGradient>
    <linearGradient id="Dégradé_sans_nom_358-2" data-name="Dégradé sans nom 358" x1="-13.25" y1="997.73" x2="439.22" y2="997.73" xlink:href="#Dégradé_sans_nom_358"/>
    <linearGradient id="Dégradé_sans_nom_358-3" data-name="Dégradé sans nom 358" x1="279.95" y1="996.99" x2="578.89" y2="996.99" xlink:href="#Dégradé_sans_nom_358"/>
    <linearGradient id="Dégradé_sans_nom_358-4" data-name="Dégradé sans nom 358" x1="820.62" y1="995.55" x2="875.8" y2="995.55" xlink:href="#Dégradé_sans_nom_358"/>
    <linearGradient id="Dégradé_sans_nom_358-5" data-name="Dégradé sans nom 358" x1="575.41" y1="996.26" x2="719.26" y2="996.26" xlink:href="#Dégradé_sans_nom_358"/>
    <linearGradient id="Dégradé_sans_nom_358-6" data-name="Dégradé sans nom 358" y1="944.57" x2="271.83" y2="944.57" xlink:href="#Dégradé_sans_nom_358"/>
    <linearGradient id="Dégradé_sans_nom_358-7" data-name="Dégradé sans nom 358" x1="1443.36" y1="992.44" x2="1925.46" y2="992.44" xlink:href="#Dégradé_sans_nom_358"/>
    <linearGradient id="Dégradé_sans_nom_358-8" data-name="Dégradé sans nom 358" x1="1321.71" y1="992.85" x2="1632.26" y2="992.85" xlink:href="#Dégradé_sans_nom_358"/>
    <linearGradient id="Dégradé_sans_nom_358-9" data-name="Dégradé sans nom 358" x1="1053.35" y1="994.47" x2="1108.91" y2="994.47" xlink:href="#Dégradé_sans_nom_358"/>
    <linearGradient id="Dégradé_sans_nom_358-10" data-name="Dégradé sans nom 358" x1="1188.01" y1="993.79" x2="1336.8" y2="993.79" xlink:href="#Dégradé_sans_nom_358"/>
    <linearGradient id="Dégradé_sans_nom_358-11" data-name="Dégradé sans nom 358" x1="1571.33" y1="937.73" x2="1964.48" y2="937.73" xlink:href="#Dégradé_sans_nom_358"/>
    <linearGradient id="Dégradé_sans_nom_358-12" data-name="Dégradé sans nom 358" y1="1054.69" x2="1962.44" y2="1054.69" xlink:href="#Dégradé_sans_nom_358"/>
    <linearGradient id="Dégradé_sans_nom_358-13" data-name="Dégradé sans nom 358" x1="-13.25" y1="964.8" y2="964.8" xlink:href="#Dégradé_sans_nom_358"/>
    <linearGradient id="Dégradé_sans_nom_358-14" data-name="Dégradé sans nom 358" x1="109.78" y1="911.13" x2="1795.37" y2="911.13" xlink:href="#Dégradé_sans_nom_358"/>
    <linearGradient id="Dégradé_sans_nom_358-15" data-name="Dégradé sans nom 358" x1="157.9" y1="884.3" x2="1715.06" y2="884.3" xlink:href="#Dégradé_sans_nom_358"/>
    <linearGradient id="Dégradé_sans_nom_358-16" data-name="Dégradé sans nom 358" x1="184.93" y1="864.63" x2="1644.09" y2="864.63" xlink:href="#Dégradé_sans_nom_358"/>
    <linearGradient id="Dégradé_sans_nom_358-17" data-name="Dégradé sans nom 358" x1="825.45" y1="1097.88" x2="852.26" y2="1097.88" xlink:href="#Dégradé_sans_nom_358"/>
    <linearGradient id="Dégradé_sans_nom_358-18" data-name="Dégradé sans nom 358" x1="1289.32" y1="1092.27" x2="1340.93" y2="1092.27" xlink:href="#Dégradé_sans_nom_358"/>
    <linearGradient id="Dégradé_sans_nom_358-19" data-name="Dégradé sans nom 358" x1="1528.63" y1="1089.61" x2="1632.26" y2="1089.61" xlink:href="#Dégradé_sans_nom_358"/>
    <linearGradient id="Dégradé_sans_nom_358-20" data-name="Dégradé sans nom 358" x1="1801.94" y1="1079.88" x2="1855.39" y2="1079.88" xlink:href="#Dégradé_sans_nom_358"/>
    <linearGradient id="Dégradé_sans_nom_358-21" data-name="Dégradé sans nom 358" x1="279.95" y1="1099.02" x2="363.29" y2="1099.02" xlink:href="#Dégradé_sans_nom_358"/>
    <linearGradient id="Dégradé_sans_nom_358-22" data-name="Dégradé sans nom 358" x1="113.69" y1="1004.2" x2="287.29" y2="1004.2" xlink:href="#Dégradé_sans_nom_358"/>
    <linearGradient id="Dégradé_sans_nom_358-23" data-name="Dégradé sans nom 358" x1="1554.11" y1="944.81" x2="1659.86" y2="944.81" xlink:href="#Dégradé_sans_nom_358"/>
    <linearGradient id="Dégradé_sans_nom_358-24" data-name="Dégradé sans nom 358" x1="1717.67" y1="1022.37" x2="1750.38" y2="1022.37" xlink:href="#Dégradé_sans_nom_358"/>
    <linearGradient id="Dégradé_sans_nom_358-25" data-name="Dégradé sans nom 358" x1="583.61" y1="1097.91" x2="835.55" y2="1097.91" xlink:href="#Dégradé_sans_nom_358"/>
    <linearGradient id="Dégradé_sans_nom_358-26" data-name="Dégradé sans nom 358" x1="1250.38" y1="1009.26" x2="1529.61" y2="1009.26" xlink:href="#Dégradé_sans_nom_358"/>
    <linearGradient id="Dégradé_sans_nom_358-27" data-name="Dégradé sans nom 358" x1="839.75" y1="1058.21" x2="1089.25" y2="1058.21" xlink:href="#Dégradé_sans_nom_358"/>
    <linearGradient id="Dégradé_sans_nom_358-28" data-name="Dégradé sans nom 358" x1="470.81" y1="998.39" x2="664.05" y2="998.39" xlink:href="#Dégradé_sans_nom_358"/>
    <linearGradient id="Dégradé_sans_nom_358-29" data-name="Dégradé sans nom 358" x1="1076.69" y1="1008.57" x2="1246.41" y2="1008.57" xlink:href="#Dégradé_sans_nom_358"/>
    <radialGradient id="Dégradé_sans_nom_562" data-name="Dégradé sans nom 562" cx="360.58" cy="452.56" fx="360.58" fy="452.56" r="484.64" gradientUnits="userSpaceOnUse">
      <stop offset=".21" stop-color="#aa9b7b"/>
      <stop offset="1" stop-color="#002700"/>
    </radialGradient>
    <radialGradient id="Dégradé_sans_nom_549" data-name="Dégradé sans nom 549" cx="1749.43" cy="477.2" fx="1749.43" fy="477.2" r="484.73" gradientUnits="userSpaceOnUse">
      <stop offset="0" stop-color="#aa9b7b"/>
      <stop offset="1" stop-color="#002700"/>
    </radialGradient>
    <radialGradient id="_ÂÁ_Ï_ÌÌ_È_ËÂÌÚ_151" data-name="¡ÂÁ˚ÏˇÌÌ˚È „‡‰ËÂÌÚ 151" cx="1014.44" cy="49.69" fx="1014.44" fy="49.69" r="245.53" gradientUnits="userSpaceOnUse">
      <stop offset="0" stop-color="#ffddc0"/>
      <stop offset="1" stop-color="#fff"/>
    </radialGradient>
    <radialGradient id="_ÂÁ_Ï_ÌÌ_È_ËÂÌÚ_157" data-name="¡ÂÁ˚ÏˇÌÌ˚È „‡‰ËÂÌÚ 157" cx="1017.16" cy="46.36" fx="1017.16" fy="46.36" r="247.32" gradientUnits="userSpaceOnUse">
      <stop offset="0" stop-color="#ffc498"/>
      <stop offset="1" stop-color="#ffdcca"/>
    </radialGradient>
    <linearGradient id="_ÂÁ_Ï_ÌÌ_È_ËÂÌÚ_86" data-name="¡ÂÁ˚ÏˇÌÌ˚È „‡‰ËÂÌÚ 86" x1="890.37" y1="706.45" x2="948.86" y2="706.45" gradientUnits="userSpaceOnUse">
      <stop offset="0" stop-color="#000"/>
      <stop offset="1" stop-color="#6dd6e0"/>
    </linearGradient>
    <linearGradient id="_ÂÁ_Ï_ÌÌ_È_ËÂÌÚ_59" data-name="¡ÂÁ˚ÏˇÌÌ˚È „‡‰ËÂÌÚ 59" x1="1004.77" y1="925.24" x2="1004.77" y2="772.53" gradientUnits="userSpaceOnUse">
      <stop offset="0" stop-color="#005665"/>
      <stop offset=".53" stop-color="#004f73"/>
      <stop offset="1" stop-color="#004d7b"/>
    </linearGradient>
    <linearGradient id="_ÂÁ_Ï_ÌÌ_È_ËÂÌÚ_59-2" data-name="¡ÂÁ˚ÏˇÌÌ˚È „‡‰ËÂÌÚ 59" x1="1030.66" y1="807.84" x2="1030.66" y2="805.73" xlink:href="#_ÂÁ_Ï_ÌÌ_È_ËÂÌÚ_59"/>
    <linearGradient id="_ÂÁ_Ï_ÌÌ_È_ËÂÌÚ_59-3" data-name="¡ÂÁ˚ÏˇÌÌ˚È „‡‰ËÂÌÚ 59" x1="1032.75" x2="1032.75" y2="835.18" xlink:href="#_ÂÁ_Ï_ÌÌ_È_ËÂÌÚ_59"/>
    <linearGradient id="_ÂÁ_Ï_ÌÌ_È_ËÂÌÚ_59-4" data-name="¡ÂÁ˚ÏˇÌÌ˚È „‡‰ËÂÌÚ 59" x1="1031.93" y1="861.46" x2="1031.93" y2="826.66" xlink:href="#_ÂÁ_Ï_ÌÌ_È_ËÂÌÚ_59"/>
    <linearGradient id="_ÂÁ_Ï_ÌÌ_È_ËÂÌÚ_59-5" data-name="¡ÂÁ˚ÏˇÌÌ˚È „‡‰ËÂÌÚ 59" x1="1032.28" x2="1032.28" y2="923.55" xlink:href="#_ÂÁ_Ï_ÌÌ_È_ËÂÌÚ_59"/>
  </defs>
  <g class="cls-32">
    <g id="security_room" data-name="security room">
      <g class="cls-57">
        <polygon class="cls-45" points="1944.76 -179.89 1660.57 86.23 269.6 86.23 -26.51 -179.89 1944.76 -179.89"/>
        <g class="cls-11">
          <polygon class="cls-24" points="1900.33 -193.91 1451.72 88.28 1447.86 88.32 1894.04 -193.91 1900.33 -193.91"/>
          <polygon class="cls-24" points="1607.13 -193.91 1310.37 89.77 1308.19 89.79 1599.53 -193.91 1607.13 -193.91"/>
          <polygon class="cls-24" points="1061.63 -193.91 1011.28 92.68 1014.23 92.65 1066.46 -193.91 1061.63 -193.91"/>
          <polygon class="cls-24" points="1303.47 -193.91 1167.82 91.27 1168.77 91.27 1311.67 -193.91 1303.47 -193.91"/>
          <polygon class="cls-24" points="1939.35 -85.83 1615.25 86.56 1617.99 86.53 1939.35 -83.79 1939.35 -85.83"/>
          <polygon class="cls-24" points="-38.38 -193.91 442.67 98.77 443.72 98.9 -32.09 -193.91 -38.38 -193.91"/>
          <polygon class="cls-24" points="254.82 -193.91 563.11 98.08 565.37 98.08 262.42 -193.91 254.82 -193.91"/>
          <polygon class="cls-24" points="782.99 -193.91 833.73 94.85 832.59 94.85 778.17 -193.91 782.99 -193.91"/>
          <polygon class="cls-24" points="558.48 -193.91 699.07 96.21 698.12 96.21 550.28 -193.91 558.48 -193.91"/>
          <polygon class="cls-24" points="-77.4 -85.83 315.75 100.25 313.95 99.9 -77.4 -83.79 -77.4 -85.83"/>
          <polygon class="cls-24" points="1777.3 35.9 91.71 30.78 96.3 32.61 1775.19 36.83 1777.3 35.9"/>
          <polygon class="cls-24" points="1729.18 57.11 172.02 62.84 175.32 64.16 1727.88 57.69 1729.18 57.11"/>
          <polygon class="cls-24" points="1701.07 69.5 244.02 91.58 242.99 91.17 1702.15 69.03 1701.07 69.5"/>
        </g>
        <g>
          <polygon class="cls-28" points="1961.5 1138.85 1961.5 980.47 1620.06 844.17 223.55 858.88 -52.27 980.47 -52.27 1138.85 1961.5 1138.85"/>
          <g class="cls-11">
            <polygon class="cls-1" points="-13.25 1138.85 435.36 856.65 439.22 856.61 -6.96 1138.85 -13.25 1138.85"/>
            <polygon class="cls-38" points="279.95 1138.85 576.71 855.16 578.89 855.14 287.55 1138.85 279.95 1138.85"/>
            <polygon class="cls-21" points="825.45 1138.85 875.8 852.25 872.85 852.28 820.62 1138.85 825.45 1138.85"/>
            <polygon class="cls-31" points="583.61 1138.85 719.26 853.66 718.31 853.66 575.41 1138.85 583.61 1138.85"/>
            <polygon class="cls-42" points="-52.27 1030.77 271.83 858.38 269.09 858.4 -52.27 1028.72 -52.27 1030.77"/>
            <polygon class="cls-16" points="1925.46 1138.85 1444.41 846.16 1443.36 846.03 1919.17 1138.85 1925.46 1138.85"/>
            <polygon class="cls-37" points="1632.26 1138.85 1323.97 846.85 1321.71 846.85 1624.66 1138.85 1632.26 1138.85"/>
            <polygon class="cls-30" points="1104.09 1138.85 1053.35 850.09 1054.49 850.09 1108.91 1138.85 1104.09 1138.85"/>
            <polygon class="cls-19" points="1328.6 1138.85 1188.01 848.72 1188.96 848.72 1336.8 1138.85 1328.6 1138.85"/>
            <polygon class="cls-54" points="1964.48 1030.77 1571.33 844.69 1573.13 845.03 1964.48 1028.72 1964.48 1030.77"/>
            <polygon class="cls-35" points="1962.44 1043.53 -52.27 1060.81 -52.27 1065.85 1962.44 1045.68 1962.44 1043.53"/>
            <polygon class="cls-49" points="-10.59 952.27 1961.5 974.42 1961.5 977.33 -13.25 954.9 -10.59 952.27"/>
            <polygon class="cls-41" points="109.78 909.03 1795.37 914.15 1790.78 912.32 111.89 908.11 109.78 909.03"/>
            <polygon class="cls-15" points="157.9 887.82 1715.06 882.09 1711.76 880.77 159.2 887.25 157.9 887.82"/>
            <polygon class="cls-34" points="186.01 875.43 1643.06 853.35 1644.09 853.76 184.93 875.91 186.01 875.43"/>
          </g>
          <polygon class="cls-40" points="825.45 1138.85 839.84 1056.92 852.26 1058.11 842.91 1058.25 825.45 1138.85"/>
          <polygon class="cls-27" points="1336.8 1138.85 1289.32 1045.68 1303.25 1061.17 1308.28 1076.07 1340.93 1138.85 1336.8 1138.85"/>
          <polygon class="cls-56" points="1632.26 1138.85 1528.63 1040.37 1537.59 1042.53 1543.33 1048.31 1632.26 1138.85"/>
          <polygon class="cls-20" points="1801.94 1063.7 1821.11 1071.02 1855.39 1096.06 1801.94 1063.7"/>
          <polygon class="cls-58" points="279.95 1138.85 292.49 1117.86 322.67 1096.55 341.83 1075.85 363.29 1059.18 279.95 1138.85"/>
          <polygon class="cls-48" points="113.69 1058.6 117.63 1052.48 287.29 949.8 113.69 1058.6"/>
          <path class="cls-36" d="M1659.86,977.33l-105.74-65.03s27.41,13.74,28.83,15.15c1.41,1.41,5.13,5.15,5.13,5.15l36.44,21.86,35.35,22.88Z"/>
          <polygon class="cls-50" points="1750.38 1032.33 1742.71 1025.15 1717.67 1012.42 1750.38 1032.33"/>
          <polygon class="cls-53" points="583.61 1138.85 621.78 1058.6 835.55 1056.96 820.62 1138.85 583.61 1138.85"/>
          <polygon class="cls-52" points="1292.56 1049.27 1529.61 1047.24 1451.06 971.53 1250.38 969.25 1292.56 1049.27"/>
          <polygon class="cls-51" points="1089.25 1054.42 842.91 1058.25 839.75 1062.01 1089.25 1054.42"/>
          <polygon class="cls-29" points="470.81 960.39 656.65 964.8 658.71 967.76 626.76 1036.38 664.05 961.6 470.81 960.39"/>
          <polygon class="cls-14" points="1092.03 1049.27 1076.69 967.88 1246.41 969.25 1246.41 969.25 1081.13 970.8 1079.25 972.31 1092.03 1049.27"/>
        </g>
        <polygon class="cls-17" points="1561.72 906.23 1660.57 86.23 269.6 86.23 247.66 887.88 1561.72 906.23"/>
        <polygon class="cls-39" points="-26.51 -179.89 360.91 86.23 363.29 888.82 -26.51 1134.29 -26.51 -179.89"/>
        <polygon class="cls-46" points="1944.76 -179.89 1554.11 86.23 1561.72 906.23 1944.76 1134.29 1944.76 -179.89"/>
        <polygon class="cls-8" points="1560.44 918.91 1625.96 163.01 1972.7 -98.64 1973.31 -122.72 1563.71 81.62 363.57 85.52 -25.35 -173.32 -26.51 -127.34 341.01 145.7 342.82 905.06 1560.44 918.91"/>
        <g>
          <polygon class="cls-26" points="667.43 37.33 680.95 62.05 1338.81 59.5 1361.46 37.53 667.43 37.33"/>
          <polygon class="cls-47" points="667.65 37.12 668.5 33.22 1366.67 34.34 1340.94 58.17 1338.81 59.5 1361.46 37.53 667.65 37.12"/>
        </g>
      </g>
      <g>
        <path class="cls-13" d="M952.34,719.87c-17.05,4.25-39.36,0-39.36,0l-23.06-3.93s.16-.16.45-.42c3.15-3.05,21.53-19.84,39.46-17.99,10.26,1.07,15.95,7.15,19.03,12.67,2.83,5.07,3.48,9.68,3.48,9.68Z"/>
        <g>
          <path class="cls-22" d="M894.26,712.04s12.95-4.76,21.61-2.46c8.66,2.3,12.03,11.98,12.03,11.98l-7.84-.67s-9.94-12.49-26.76-8.04l.95-.8Z"/>
          <path class="cls-4" d="M948.86,710.2c-13.8,1.98-27.44-7.66-38.26-5.78-9.45,1.69-18.22,9.26-20.23,11.11,3.15-3.05,21.53-19.84,39.46-17.99,10.26,1.07,15.95,7.15,19.03,12.67Z"/>
        </g>
      </g>
      <g>
        <polygon class="cls-2" points="650.01 713.2 645.96 720.6 850.11 719.86 837.71 713.92 650.01 713.2"/>
        <polygon class="cls-2" points="864.3 706.36 837.71 713.92 850.11 719.86 869.16 710.41 864.3 706.36"/>
        <polygon class="cls-13" points="864.3 706.36 685.92 706.36 650.01 713.2 837.71 713.92 864.3 706.36"/>
      </g>
      <g>
        <polygon class="cls-2" points="1004.71 776.99 1060.39 776.99 1069.38 925.24 995.19 925.24 1004.71 776.99"/>
        <polygon class="cls-13" points="1052.39 772.53 1063.59 925.24 1069.38 925.24 1060.85 772.43 1052.39 772.53"/>
        <polygon class="cls-13" points="1000.18 772.53 995.19 925.24 999.82 925.24 1008.22 772.53 1000.18 772.53"/>
        <polygon class="cls-25" points="1000.18 772.53 1005.24 765.66 1045.54 765.66 1060.85 772.43 1052.39 772.53 1043.49 767.02 1010.25 766.71 1008.22 772.53 1000.18 772.53"/>
        <polygon class="cls-25" points="1052.72 776.99 1041.65 769.09 1010.7 769.09 1008.13 776.99 1052.72 776.99"/>
        <polygon class="cls-2" points="1052.72 776.99 1041.65 769.09 1010.7 769.09 1008.13 776.99 1008.22 772.53 1010.25 766.71 1043.49 767.02 1052.39 772.53 1052.72 776.99"/>
        <polygon class="cls-10" points="1008.22 772.53 999.82 925.24 1004.7 925.24 1009.73 776.99 1008.22 772.53"/>
        <polygon class="cls-9" points="1006.39 805.73 1054.92 806.94 1054.98 807.84 1006.34 806.72 1006.39 805.73"/>
        <polygon class="cls-7" points="1004.61 838.09 1054.02 867.02 1057.64 925.24 1060.88 925.24 1055.04 866.19 1004.77 835.18 1004.61 838.09"/>
        <polygon class="cls-33" points="1007.6 839.84 1054.02 867.02 1057.64 925.24 1055.18 925.24 1052.89 867.07 1007.6 839.84"/>
        <polygon class="cls-44" points="1008.13 806.76 1054.98 807.84 1054.98 808.65 1008.22 807.71 1008.13 806.76"/>
        <polygon class="cls-43" points="1016.32 784.78 1017.7 787.73 1043.23 787.73 1045 784.78 1036.93 784.78 1034.62 782.52 1025.73 782.52 1023.99 784.85 1016.32 784.78"/>
        <polygon class="cls-55" points="1017.7 787.73 1016.68 788.2 1043.85 788.2 1043.23 787.73 1017.7 787.73"/>
        <polygon class="cls-13" points="1005.24 826.66 1058.62 857.44 1057.5 842.13 1006.03 812.28 1005.24 826.66"/>
        <polygon class="cls-6" points="1005.24 826.66 1007.6 830.6 1058.62 861.46 1058.62 857.44 1005.24 826.66"/>
        <polygon class="cls-44" points="1008.22 772.53 1004.7 813.27 1057.64 844.06 1057.5 842.13 1006.03 812.28 1008.22 772.53"/>
        <polygon class="cls-2" points="1043.49 767.02 1052.39 772.53 1057.64 844.06 1053.95 772.53 1043.49 767.02"/>
        <polygon class="cls-43" points="1016.17 919.5 1018.63 922.37 1045.3 922.37 1046.94 919.5 1016.17 919.5"/>
        <polygon class="cls-5" points="995.19 925.24 995.19 923.55 1069.38 924.4 1069.38 925.24 995.19 925.24"/>
      </g>
      <g>
        <polygon class="cls-18" points="86.79 783.13 96.68 937.91 189.84 1059.22 317.28 1056.78 319.31 783.13 86.79 783.13"/>
        <polygon class="cls-12" points="317.28 1056.78 323.14 1048.51 330.8 783.13 319.31 783.13 317.28 1056.78"/>
        <polygon class="cls-18" points="459.89 733.63 459.89 939.07 395.02 913.54 362.44 829.69 363.39 688.57 459.89 733.63"/>
        <polygon class="cls-12" points="459.89 939.07 464.65 936.77 469.16 730.14 459.89 733.63 459.89 939.07"/>
        <polygon class="cls-12" points="922.9 932 931.64 932 933.15 723.06 921.48 725.67 922.9 932"/>
        <polygon class="cls-18" points="1461.97 733.63 1461.97 939.07 1526.84 913.54 1560.83 829.69 1560.83 692.64 1461.97 733.63"/>
        <polygon class="cls-12" points="1461.97 939.07 1457.2 936.77 1452.69 730.14 1461.97 733.63 1461.97 939.07"/>
        <polygon class="cls-12" points="1657.07 730.14 1657.07 737.3 1559.41 736.33 1514.64 735.18 1460.57 735.06 475.52 730.07 440.11 738.13 352.36 784.84 64.55 785.79 59.75 771.71 309.17 743.54 452.75 709.89 1531.68 709.89 1597.08 716.71 1657.07 730.14"/>
        <polygon class="cls-12" points="1498.72 730.14 1457.02 728.84 474.9 723.09 433.85 730.85 352.36 771.71 59.75 771.71 363.39 688.57 1559.74 688.57 1657.07 730.14 1498.72 730.14"/>
        <polygon class="cls-12" points="352.36 784.84 352.36 771.71 59.75 771.71 64.55 785.79 352.36 784.84"/>
        <polygon class="cls-3" points="330.26 801.83 319.14 806.72 88.75 813.82 86.79 785.79 330.75 784.91 330.26 801.83"/>
      </g>
    </g>
  </g>
</svg>