<?xml version="1.0" encoding="UTF-8"?>
<svg xmlns="http://www.w3.org/2000/svg" xmlns:xlink="http://www.w3.org/1999/xlink" viewBox="0 0 1920 1080">
  <defs>
    <style>
      .cls-1 {
        fill: url(#Dégradé_sans_nom_358-2);
      }

      .cls-2 {
        fill: #1d0422;
      }

      .cls-3, .cls-4, .cls-5, .cls-6, .cls-7, .cls-8, .cls-9, .cls-10, .cls-11, .cls-12, .cls-13 {
        opacity: .5;
      }

      .cls-3, .cls-14, .cls-15, .cls-16, .cls-17, .cls-18, .cls-19, .cls-20, .cls-21, .cls-22, .cls-23, .cls-12, .cls-24 {
        mix-blend-mode: multiply;
      }

      .cls-3, .cls-25 {
        fill: #751813;
      }

      .cls-26, .cls-14 {
        fill: #290c34;
      }

      .cls-4 {
        fill: url(#_ÂÁ_Ï_ÌÌ_È_ËÂÌÚ_100);
      }

      .cls-4, .cls-5, .cls-6, .cls-7, .cls-8, .cls-9, .cls-10, .cls-11, .cls-13 {
        mix-blend-mode: color-dodge;
      }

      .cls-27 {
        fill: url(#Dégradé_sans_nom_358-29);
      }

      .cls-28 {
        fill: url(#Dégradé_sans_nom_358-15);
      }

      .cls-29 {
        fill: #5049ce;
      }

      .cls-5 {
        fill: url(#_ÂÁ_Ï_ÌÌ_È_ËÂÌÚ_52-2);
      }

      .cls-14, .cls-15, .cls-16, .cls-20, .cls-21, .cls-24 {
        opacity: .3;
      }

      .cls-30 {
        fill: url(#Dégradé_sans_nom_358-7);
      }

      .cls-31 {
        fill: #d7ad62;
      }

      .cls-32 {
        fill: #1d1d1b;
      }

      .cls-33, .cls-12 {
        fill: #511813;
      }

      .cls-34 {
        fill: url(#Dégradé_sans_nom_358-10);
      }

      .cls-35 {
        fill: #ffc217;
      }

      .cls-36 {
        fill: url(#_ÂÁ_Ï_ÌÌ_È_ËÂÌÚ_3-4);
      }

      .cls-15 {
        fill: url(#Dégradé_sans_nom_122);
      }

      .cls-6 {
        fill: url(#_ÂÁ_Ï_ÌÌ_È_ËÂÌÚ_52-3);
      }

      .cls-37 {
        fill: url(#_ÂÁ_Ï_ÌÌ_È_ËÂÌÚ_72);
      }

      .cls-7 {
        fill: url(#_ÂÁ_Ï_ÌÌ_È_ËÂÌÚ_86);
      }

      .cls-38 {
        fill: url(#Dégradé_sans_nom_358-20);
      }

      .cls-39 {
        fill: url(#Dégradé_sans_nom_358-4);
      }

      .cls-40 {
        fill: url(#_ÂÁ_Ï_ÌÌ_È_ËÂÌÚ_72-3);
      }

      .cls-41 {
        fill: #584278;
      }

      .cls-42 {
        fill: #ac7077;
      }

      .cls-16 {
        fill: #290c46;
      }

      .cls-43 {
        fill: #11001e;
      }

      .cls-8 {
        fill: url(#_ÂÁ_Ï_ÌÌ_È_ËÂÌÚ_52-4);
      }

      .cls-44 {
        fill: #ff1717;
      }

      .cls-17 {
        fill: url(#_ÂÁ_Ï_ÌÌ_È_ËÂÌÚ_59-5);
      }

      .cls-45 {
        fill: url(#Dégradé_sans_nom_358-18);
      }

      .cls-46 {
        fill: url(#Dégradé_sans_nom_358);
      }

      .cls-47 {
        fill: url(#Dégradé_sans_nom_358-28);
      }

      .cls-48 {
        fill: url(#_ÂÁ_Ï_ÌÌ_È_ËÂÌÚ_72-2);
      }

      .cls-49 {
        fill: url(#Dégradé_sans_nom_358-9);
      }

      .cls-18 {
        fill: url(#_ÂÁ_Ï_ÌÌ_È_ËÂÌÚ_59-4);
      }

      .cls-50 {
        fill: url(#Dégradé_sans_nom_358-5);
      }

      .cls-51 {
        isolation: isolate;
      }

      .cls-19 {
        fill: url(#_ÂÁ_Ï_ÌÌ_È_ËÂÌÚ_59-3);
      }

      .cls-52 {
        fill: url(#_ÂÁ_Ï_ÌÌ_È_ËÂÌÚ_3-5);
      }

      .cls-9 {
        fill: url(#_ÂÁ_Ï_ÌÌ_È_ËÂÌÚ_52-5);
      }

      .cls-53 {
        fill: #00e7d8;
        mix-blend-mode: soft-light;
      }

      .cls-54 {
        fill: url(#Dégradé_sans_nom_358-16);
      }

      .cls-55 {
        fill: url(#Dégradé_sans_nom_358-12);
      }

      .cls-20 {
        fill: #290c54;
      }

      .cls-56 {
        fill: url(#Dégradé_sans_nom_358-23);
      }

      .cls-21 {
        fill: #1a6397;
      }

      .cls-57 {
        fill: url(#Dégradé_sans_nom_358-8);
      }

      .cls-58 {
        fill: url(#Dégradé_sans_nom_358-3);
      }

      .cls-59 {
        fill: url(#Dégradé_sans_nom_562);
      }

      .cls-60 {
        fill: url(#Dégradé_sans_nom_358-17);
      }

      .cls-61 {
        fill: url(#Dégradé_sans_nom_358-14);
      }

      .cls-62 {
        fill: url(#Dégradé_sans_nom_358-6);
      }

      .cls-63 {
        fill: #73ffe5;
      }

      .cls-64 {
        mix-blend-mode: overlay;
      }

      .cls-10 {
        fill: url(#_ÂÁ_Ï_ÌÌ_È_ËÂÌÚ_99);
      }

      .cls-65 {
        fill: url(#_ÂÁ_Ï_ÌÌ_È_ËÂÌÚ_3-3);
      }

      .cls-11 {
        fill: url(#_ÂÁ_Ï_ÌÌ_È_ËÂÌÚ_52);
      }

      .cls-66 {
        fill: #361b41;
      }

      .cls-67 {
        fill: url(#Dégradé_sans_nom_714);
      }

      .cls-68 {
        fill: url(#Dégradé_sans_nom_549);
      }

      .cls-69 {
        fill: url(#Dégradé_sans_nom_358-22);
      }

      .cls-70 {
        fill: url(#Dégradé_sans_nom_358-13);
      }

      .cls-71 {
        fill: url(#Dégradé_sans_nom_358-24);
      }

      .cls-72 {
        fill: url(#Dégradé_sans_nom_358-27);
      }

      .cls-73 {
        fill: url(#Dégradé_sans_nom_358-26);
      }

      .cls-73, .cls-74 {
        opacity: .2;
      }

      .cls-75 {
        fill: #1c13bf;
      }

      .cls-76 {
        fill: url(#_ÂÁ_Ï_ÌÌ_È_ËÂÌÚ_3);
      }

      .cls-22 {
        fill: url(#_ÂÁ_Ï_ÌÌ_È_ËÂÌÚ_59-2);
      }

      .cls-77 {
        fill: url(#Dégradé_sans_nom_358-11);
      }

      .cls-23 {
        fill: url(#_ÂÁ_Ï_ÌÌ_È_ËÂÌÚ_59);
      }

      .cls-78 {
        fill: #0088a6;
      }

      .cls-79 {
        fill: url(#_ÂÁ_Ï_ÌÌ_È_ËÂÌÚ_3-2);
      }

      .cls-80 {
        fill: url(#Dégradé_sans_nom_358-19);
      }

      .cls-74 {
        fill: url(#Dégradé_sans_nom_358-25);
      }

      .cls-81 {
        fill: #e0bdc7;
      }

      .cls-13 {
        fill: url(#_ÂÁ_Ï_ÌÌ_È_ËÂÌÚ_52-6);
      }

      .cls-82 {
        fill: url(#Dégradé_sans_nom_358-21);
      }
    </style>
    <radialGradient id="Dégradé_sans_nom_549" data-name="Dégradé sans nom 549" cx="1735.08" cy="474.69" fx="1735.08" fy="474.69" r="479.17" gradientUnits="userSpaceOnUse">
      <stop offset="0" stop-color="#aa9b7b"/>
      <stop offset="1" stop-color="#002700"/>
    </radialGradient>
    <radialGradient id="Dégradé_sans_nom_122" data-name="Dégradé sans nom 122" cx="1795.43" cy="418.39" fx="1795.43" fy="418.39" r="168.52" gradientUnits="userSpaceOnUse">
      <stop offset="0" stop-color="#761c01"/>
      <stop offset="1" stop-color="#002700"/>
    </radialGradient>
    <radialGradient id="Dégradé_sans_nom_714" data-name="Dégradé sans nom 714" cx="943" cy="19647.42" fx="943" fy="19647.42" r="693.38" gradientTransform="translate(0 -6512.59) scale(1 .34)" gradientUnits="userSpaceOnUse">
      <stop offset="0" stop-color="#aa9b7b"/>
      <stop offset="1" stop-color="#bba96a"/>
    </radialGradient>
    <linearGradient id="Dégradé_sans_nom_358" data-name="Dégradé sans nom 358" x1="-45.98" y1="983.11" x2="1944.72" y2="983.11" gradientUnits="userSpaceOnUse">
      <stop offset="0" stop-color="#210500"/>
      <stop offset="1" stop-color="#552421"/>
    </linearGradient>
    <linearGradient id="Dégradé_sans_nom_358-2" data-name="Dégradé sans nom 358" x1="-7.41" y1="989.26" x2="439.88" y2="989.26" xlink:href="#Dégradé_sans_nom_358"/>
    <linearGradient id="Dégradé_sans_nom_358-3" data-name="Dégradé sans nom 358" x1="282.44" y1="988.54" x2="577.95" y2="988.54" xlink:href="#Dégradé_sans_nom_358"/>
    <linearGradient id="Dégradé_sans_nom_358-4" data-name="Dégradé sans nom 358" x1="816.91" y1="987.11" x2="871.46" y2="987.11" xlink:href="#Dégradé_sans_nom_358"/>
    <linearGradient id="Dégradé_sans_nom_358-5" data-name="Dégradé sans nom 358" x1="574.51" y1="987.8" x2="716.71" y2="987.8" xlink:href="#Dégradé_sans_nom_358"/>
    <linearGradient id="Dégradé_sans_nom_358-6" data-name="Dégradé sans nom 358" y1="936.71" x2="274.41" y2="936.71" xlink:href="#Dégradé_sans_nom_358"/>
    <linearGradient id="Dégradé_sans_nom_358-7" data-name="Dégradé sans nom 358" x1="1432.51" y1="984.03" x2="1909.09" y2="984.03" xlink:href="#Dégradé_sans_nom_358"/>
    <linearGradient id="Dégradé_sans_nom_358-8" data-name="Dégradé sans nom 358" x1="1312.26" y1="984.44" x2="1619.24" y2="984.44" xlink:href="#Dégradé_sans_nom_358"/>
    <linearGradient id="Dégradé_sans_nom_358-9" data-name="Dégradé sans nom 358" x1="1046.97" y1="986.04" x2="1101.9" y2="986.04" xlink:href="#Dégradé_sans_nom_358"/>
    <linearGradient id="Dégradé_sans_nom_358-10" data-name="Dégradé sans nom 358" x1="1180.09" y1="985.36" x2="1327.17" y2="985.36" xlink:href="#Dégradé_sans_nom_358"/>
    <linearGradient id="Dégradé_sans_nom_358-11" data-name="Dégradé sans nom 358" x1="1559.02" y1="929.95" x2="1947.66" y2="929.95" xlink:href="#Dégradé_sans_nom_358"/>
    <linearGradient id="Dégradé_sans_nom_358-12" data-name="Dégradé sans nom 358" y1="1045.57" x2="1945.64" y2="1045.57" xlink:href="#Dégradé_sans_nom_358"/>
    <linearGradient id="Dégradé_sans_nom_358-13" data-name="Dégradé sans nom 358" x1="-7.41" y1="956.71" y2="956.71" xlink:href="#Dégradé_sans_nom_358"/>
    <linearGradient id="Dégradé_sans_nom_358-14" data-name="Dégradé sans nom 358" x1="114.22" y1="903.65" x2="1780.48" y2="903.65" xlink:href="#Dégradé_sans_nom_358"/>
    <linearGradient id="Dégradé_sans_nom_358-15" data-name="Dégradé sans nom 358" x1="161.79" y1="877.13" x2="1701.1" y2="877.13" xlink:href="#Dégradé_sans_nom_358"/>
    <linearGradient id="Dégradé_sans_nom_358-16" data-name="Dégradé sans nom 358" x1="188.51" y1="857.69" x2="1630.94" y2="857.69" xlink:href="#Dégradé_sans_nom_358"/>
    <linearGradient id="Dégradé_sans_nom_358-17" data-name="Dégradé sans nom 358" x1="821.68" y1="1088.27" x2="848.19" y2="1088.27" xlink:href="#Dégradé_sans_nom_358"/>
    <linearGradient id="Dégradé_sans_nom_358-18" data-name="Dégradé sans nom 358" x1="1280.24" y1="1082.71" x2="1331.26" y2="1082.71" xlink:href="#Dégradé_sans_nom_358"/>
    <linearGradient id="Dégradé_sans_nom_358-19" data-name="Dégradé sans nom 358" x1="1516.8" y1="1080.09" x2="1619.24" y2="1080.09" xlink:href="#Dégradé_sans_nom_358"/>
    <linearGradient id="Dégradé_sans_nom_358-20" data-name="Dégradé sans nom 358" x1="1786.99" y1="1070.47" x2="1839.82" y2="1070.47" xlink:href="#Dégradé_sans_nom_358"/>
    <linearGradient id="Dégradé_sans_nom_358-21" data-name="Dégradé sans nom 358" x1="282.44" y1="1089.39" x2="364.82" y2="1089.39" xlink:href="#Dégradé_sans_nom_358"/>
    <linearGradient id="Dégradé_sans_nom_358-22" data-name="Dégradé sans nom 358" x1="118.08" y1="995.65" x2="289.69" y2="995.65" xlink:href="#Dégradé_sans_nom_358"/>
    <linearGradient id="Dégradé_sans_nom_358-23" data-name="Dégradé sans nom 358" x1="1541.99" y1="936.95" x2="1646.53" y2="936.95" xlink:href="#Dégradé_sans_nom_358"/>
    <linearGradient id="Dégradé_sans_nom_358-24" data-name="Dégradé sans nom 358" x1="1703.68" y1="1013.62" x2="1736.02" y2="1013.62" xlink:href="#Dégradé_sans_nom_358"/>
    <linearGradient id="Dégradé_sans_nom_358-25" data-name="Dégradé sans nom 358" x1="582.62" y1="1088.29" x2="831.66" y2="1088.29" xlink:href="#Dégradé_sans_nom_358"/>
    <linearGradient id="Dégradé_sans_nom_358-26" data-name="Dégradé sans nom 358" x1="1241.74" y1="1000.66" x2="1517.78" y2="1000.66" xlink:href="#Dégradé_sans_nom_358"/>
    <linearGradient id="Dégradé_sans_nom_358-27" data-name="Dégradé sans nom 358" x1="835.82" y1="1049.05" x2="1082.46" y2="1049.05" xlink:href="#Dégradé_sans_nom_358"/>
    <linearGradient id="Dégradé_sans_nom_358-28" data-name="Dégradé sans nom 358" x1="471.1" y1="989.91" x2="662.13" y2="989.91" xlink:href="#Dégradé_sans_nom_358"/>
    <linearGradient id="Dégradé_sans_nom_358-29" data-name="Dégradé sans nom 358" x1="1070.04" y1="999.98" x2="1237.82" y2="999.98" xlink:href="#Dégradé_sans_nom_358"/>
    <radialGradient id="Dégradé_sans_nom_562" data-name="Dégradé sans nom 562" cx="362.14" cy="450.34" fx="362.14" fy="450.34" r="479.09" gradientUnits="userSpaceOnUse">
      <stop offset=".21" stop-color="#aa9b7b"/>
      <stop offset="1" stop-color="#002700"/>
    </radialGradient>
    <linearGradient id="_ÂÁ_Ï_ÌÌ_È_ËÂÌÚ_99" data-name="¡ÂÁ˚ÏˇÌÌ˚È „‡‰ËÂÌÚ 99" x1="1478.37" y1="751.11" x2="1848.59" y2="751.11" gradientUnits="userSpaceOnUse">
      <stop offset="0" stop-color="#31528d"/>
      <stop offset="1" stop-color="#000"/>
    </linearGradient>
    <linearGradient id="_ÂÁ_Ï_ÌÌ_È_ËÂÌÚ_100" data-name="¡ÂÁ˚ÏˇÌÌ˚È „‡‰ËÂÌÚ 100" x1="96.25" y1="747.96" x2="406.13" y2="747.96" gradientUnits="userSpaceOnUse">
      <stop offset="0" stop-color="#000"/>
      <stop offset="1" stop-color="#31528d"/>
    </linearGradient>
    <linearGradient id="_ÂÁ_Ï_ÌÌ_È_ËÂÌÚ_86" data-name="¡ÂÁ˚ÏˇÌÌ˚È „‡‰ËÂÌÚ 86" x1="890.37" y1="706.45" x2="948.86" y2="706.45" gradientUnits="userSpaceOnUse">
      <stop offset="0" stop-color="#000"/>
      <stop offset="1" stop-color="#6dd6e0"/>
    </linearGradient>
    <linearGradient id="_ÂÁ_Ï_ÌÌ_È_ËÂÌÚ_59" data-name="¡ÂÁ˚ÏˇÌÌ˚È „‡‰ËÂÌÚ 59" x1="1004.77" y1="925.24" x2="1004.77" y2="772.53" gradientUnits="userSpaceOnUse">
      <stop offset="0" stop-color="#005665"/>
      <stop offset=".53" stop-color="#004f73"/>
      <stop offset="1" stop-color="#004d7b"/>
    </linearGradient>
    <linearGradient id="_ÂÁ_Ï_ÌÌ_È_ËÂÌÚ_59-2" data-name="¡ÂÁ˚ÏˇÌÌ˚È „‡‰ËÂÌÚ 59" x1="1030.66" y1="807.84" x2="1030.66" y2="805.73" xlink:href="#_ÂÁ_Ï_ÌÌ_È_ËÂÌÚ_59"/>
    <linearGradient id="_ÂÁ_Ï_ÌÌ_È_ËÂÌÚ_59-3" data-name="¡ÂÁ˚ÏˇÌÌ˚È „‡‰ËÂÌÚ 59" x1="1032.75" x2="1032.75" y2="835.18" xlink:href="#_ÂÁ_Ï_ÌÌ_È_ËÂÌÚ_59"/>
    <linearGradient id="_ÂÁ_Ï_ÌÌ_È_ËÂÌÚ_59-4" data-name="¡ÂÁ˚ÏˇÌÌ˚È „‡‰ËÂÌÚ 59" x1="1031.93" y1="861.46" x2="1031.93" y2="826.66" xlink:href="#_ÂÁ_Ï_ÌÌ_È_ËÂÌÚ_59"/>
    <linearGradient id="_ÂÁ_Ï_ÌÌ_È_ËÂÌÚ_59-5" data-name="¡ÂÁ˚ÏˇÌÌ˚È „‡‰ËÂÌÚ 59" x1="1032.28" x2="1032.28" y2="923.55" xlink:href="#_ÂÁ_Ï_ÌÌ_È_ËÂÌÚ_59"/>
    <radialGradient id="_ÂÁ_Ï_ÌÌ_È_ËÂÌÚ_72" data-name="¡ÂÁ˚ÏˇÌÌ˚È „‡‰ËÂÌÚ 72" cx="564.34" cy="590.12" fx="564.34" fy="590.12" r="90.63" gradientUnits="userSpaceOnUse">
      <stop offset="0" stop-color="#1fb8b4"/>
      <stop offset="1" stop-color="#57f6c9"/>
    </radialGradient>
    <radialGradient id="_ÂÁ_Ï_ÌÌ_È_ËÂÌÚ_72-2" data-name="¡ÂÁ˚ÏˇÌÌ˚È „‡‰ËÂÌÚ 72" cx="850.13" cy="588.21" fx="850.13" fy="588.21" r="98.83" xlink:href="#_ÂÁ_Ï_ÌÌ_È_ËÂÌÚ_72"/>
    <radialGradient id="_ÂÁ_Ï_ÌÌ_È_ËÂÌÚ_72-3" data-name="¡ÂÁ˚ÏˇÌÌ˚È „‡‰ËÂÌÚ 72" cx="1135.73" cy="589.15" fx="1135.73" fy="589.15" r="93.08" xlink:href="#_ÂÁ_Ï_ÌÌ_È_ËÂÌÚ_72"/>
    <linearGradient id="_ÂÁ_Ï_ÌÌ_È_ËÂÌÚ_3" data-name="¡ÂÁ˚ÏˇÌÌ˚È „‡‰ËÂÌÚ 3" x1="633.51" y1="655.55" x2="641.51" y2="524.21" gradientUnits="userSpaceOnUse">
      <stop offset="0" stop-color="#ffffd1"/>
      <stop offset="1" stop-color="#ffdac0"/>
    </linearGradient>
    <linearGradient id="_ÂÁ_Ï_ÌÌ_È_ËÂÌÚ_3-2" data-name="¡ÂÁ˚ÏˇÌÌ˚È „‡‰ËÂÌÚ 3" x1="474.72" y1="660.27" x2="483.17" y2="521.45" xlink:href="#_ÂÁ_Ï_ÌÌ_È_ËÂÌÚ_3"/>
    <linearGradient id="_ÂÁ_Ï_ÌÌ_È_ËÂÌÚ_52" data-name="¡ÂÁ˚ÏˇÌÌ˚È „‡‰ËÂÌÚ 52" x1="550.52" y1="651.95" x2="550.52" y2="530.34" gradientUnits="userSpaceOnUse">
      <stop offset="0" stop-color="#000"/>
      <stop offset="1" stop-color="#d9ff5e"/>
    </linearGradient>
    <linearGradient id="_ÂÁ_Ï_ÌÌ_È_ËÂÌÚ_52-2" data-name="¡ÂÁ˚ÏˇÌÌ˚È „‡‰ËÂÌÚ 52" x1="571.99" y1="646.79" x2="571.99" y2="531.33" xlink:href="#_ÂÁ_Ï_ÌÌ_È_ËÂÌÚ_52"/>
    <linearGradient id="_ÂÁ_Ï_ÌÌ_È_ËÂÌÚ_3-3" data-name="¡ÂÁ˚ÏˇÌÌ˚È „‡‰ËÂÌÚ 3" x1="726.35" y1="589.01" x2="973.14" y2="589.01" xlink:href="#_ÂÁ_Ï_ÌÌ_È_ËÂÌÚ_3"/>
    <linearGradient id="_ÂÁ_Ï_ÌÌ_È_ËÂÌÚ_52-3" data-name="¡ÂÁ˚ÏˇÌÌ˚È „‡‰ËÂÌÚ 52" x1="836.54" y1="649.95" x2="836.54" y2="528.34" xlink:href="#_ÂÁ_Ï_ÌÌ_È_ËÂÌÚ_52"/>
    <linearGradient id="_ÂÁ_Ï_ÌÌ_È_ËÂÌÚ_52-4" data-name="¡ÂÁ˚ÏˇÌÌ˚È „‡‰ËÂÌÚ 52" x1="860.5" y1="644.79" x2="860.5" y2="529.33" xlink:href="#_ÂÁ_Ï_ÌÌ_È_ËÂÌÚ_52"/>
    <linearGradient id="_ÂÁ_Ï_ÌÌ_È_ËÂÌÚ_3-4" data-name="¡ÂÁ˚ÏˇÌÌ˚È „‡‰ËÂÌÚ 3" x1="1250.77" y1="589.15" x2="1020.68" y2="589.15" xlink:href="#_ÂÁ_Ï_ÌÌ_È_ËÂÌÚ_3"/>
    <linearGradient id="_ÂÁ_Ï_ÌÌ_È_ËÂÌÚ_3-5" data-name="¡ÂÁ˚ÏˇÌÌ˚È „‡‰ËÂÌÚ 3" x1="1020.68" y1="604.81" x2="1250.77" y2="604.81" xlink:href="#_ÂÁ_Ï_ÌÌ_È_ËÂÌÚ_3"/>
    <linearGradient id="_ÂÁ_Ï_ÌÌ_È_ËÂÌÚ_52-5" data-name="¡ÂÁ˚ÏˇÌÌ˚È „‡‰ËÂÌÚ 52" x1="1120.99" y1="649.01" x2="1120.99" y2="527.4" xlink:href="#_ÂÁ_Ï_ÌÌ_È_ËÂÌÚ_52"/>
    <linearGradient id="_ÂÁ_Ï_ÌÌ_È_ËÂÌÚ_52-6" data-name="¡ÂÁ˚ÏˇÌÌ˚È „‡‰ËÂÌÚ 52" x1="1144.95" y1="643.85" x2="1144.95" y2="528.39" xlink:href="#_ÂÁ_Ï_ÌÌ_È_ËÂÌÚ_52"/>
  </defs>
  <g class="cls-51">
    <g id="security_room" data-name="security room">
      <polygon class="cls-68" points="1928.16 -174.86 1541.99 88.21 1549.52 898.81 1928.16 1124.25 1928.16 -174.86"/>
      <g>
        <polygon class="cls-15" points="1662.7 484.44 1717.89 539.15 1928.16 616.33 1928.16 256.98 1848.42 220.45 1662.7 484.44"/>
        <polygon points="1758.62 479.57 1651.88 460.68 1647.04 283.89 1754.8 237.76 1724.47 221.98 1585.62 288.35 1586.49 467.1 1727.83 490.12 1758.62 479.57"/>
        <polygon class="cls-33" points="1585.62 467.1 1651.88 460.68 1647.04 283.89 1585.62 288.35 1585.62 467.1"/>
        <polygon class="cls-2" points="1753.61 484.44 1651.88 460.68 1647.04 283.89 1724.83 250.59 1753.61 484.44"/>
        <polygon class="cls-33" points="1848.42 220.45 1841.7 496.55 1731.74 499.05 1731.74 212.69 1848.42 220.45"/>
        <path class="cls-25" d="M1731.74,212.69v286.36l-150.26-26.02v-189.15l150.26-71.19ZM1585.62,467.1l137.32,22.23,1.53-267.36-138.86,66.38v178.75Z"/>
        <polygon class="cls-25" points="1730.68 360.47 1582.01 373.4 1581.6 369.61 1731.74 349.38 1730.68 360.47"/>
        <polygon class="cls-25" points="1724.47 493.51 1637.17 475.45 1640.73 262.01 1717.87 221.98 1724.47 493.51"/>
        <polygon class="cls-33" points="1724.47 221.98 1717.87 221.98 1716.49 491.86 1724.47 493.51 1724.47 221.98"/>
        <polygon points="1585.62 288.35 1559.02 250.77 1559.02 490.12 1585.62 471.15 1585.62 288.35"/>
        <polygon class="cls-33" points="1559.02 490.12 1551.24 490.12 1547.56 248.59 1559.02 248.59 1559.02 490.12"/>
      </g>
      <polygon class="cls-67" points="1928.16 -174.86 1647.23 88.21 272.2 88.21 -20.51 -174.86 1928.16 -174.86"/>
      <g class="cls-24">
        <polygon class="cls-42" points="1884.25 -188.72 1440.77 90.24 1436.97 90.28 1878.03 -188.72 1884.25 -188.72"/>
        <polygon class="cls-42" points="1594.4 -188.72 1301.05 91.71 1298.89 91.73 1586.89 -188.72 1594.4 -188.72"/>
        <polygon class="cls-42" points="1055.16 -188.72 1005.38 94.59 1008.3 94.56 1059.93 -188.72 1055.16 -188.72"/>
        <polygon class="cls-42" points="1294.22 -188.72 1160.13 93.19 1161.07 93.19 1302.33 -188.72 1294.22 -188.72"/>
        <polygon class="cls-42" points="1922.82 -81.88 1602.43 88.53 1605.14 88.51 1922.82 -79.86 1922.82 -81.88"/>
        <polygon class="cls-42" points="-32.25 -188.72 443.29 100.6 444.33 100.73 -26.03 -188.72 -32.25 -188.72"/>
        <polygon class="cls-42" points="257.6 -188.72 562.35 99.93 564.59 99.93 265.11 -188.72 257.6 -188.72"/>
        <polygon class="cls-42" points="779.71 -188.72 829.87 96.73 828.74 96.73 774.94 -188.72 779.71 -188.72"/>
        <polygon class="cls-42" points="557.78 -188.72 696.75 98.07 695.81 98.07 549.67 -188.72 557.78 -188.72"/>
        <polygon class="cls-42" points="-70.82 -81.88 317.82 102.07 316.05 101.73 -70.82 -79.86 -70.82 -81.88"/>
        <polygon class="cls-42" points="1762.63 38.46 96.36 33.4 100.89 35.21 1760.54 39.37 1762.63 38.46"/>
        <polygon class="cls-42" points="1715.05 59.42 175.75 65.09 179.01 66.39 1713.77 59.99 1715.05 59.42"/>
        <polygon class="cls-42" points="1687.27 71.67 246.92 93.5 245.9 93.09 1688.34 71.2 1687.27 71.67"/>
      </g>
      <g>
        <polygon class="cls-46" points="1944.72 1128.76 1944.72 972.2 1607.19 837.47 226.68 852.01 -45.98 972.2 -45.98 1128.76 1944.72 1128.76"/>
        <g class="cls-24">
          <polygon class="cls-1" points="-7.41 1128.76 436.07 849.8 439.88 849.76 -1.19 1128.76 -7.41 1128.76"/>
          <polygon class="cls-58" points="282.44 1128.76 575.8 848.33 577.95 848.31 289.95 1128.76 282.44 1128.76"/>
          <polygon class="cls-39" points="821.68 1128.76 871.46 845.45 868.54 845.48 816.91 1128.76 821.68 1128.76"/>
          <polygon class="cls-50" points="582.62 1128.76 716.71 846.85 715.77 846.85 574.51 1128.76 582.62 1128.76"/>
          <polygon class="cls-62" points="-45.98 1021.92 274.41 851.51 271.7 851.53 -45.98 1019.9 -45.98 1021.92"/>
          <polygon class="cls-30" points="1909.09 1128.76 1433.55 839.43 1432.51 839.31 1902.87 1128.76 1909.09 1128.76"/>
          <polygon class="cls-57" points="1619.24 1128.76 1314.5 840.11 1312.26 840.11 1611.73 1128.76 1619.24 1128.76"/>
          <polygon class="cls-49" points="1097.13 1128.76 1046.97 843.31 1048.1 843.31 1101.9 1128.76 1097.13 1128.76"/>
          <polygon class="cls-34" points="1319.07 1128.76 1180.09 841.96 1181.03 841.96 1327.17 1128.76 1319.07 1128.76"/>
          <polygon class="cls-77" points="1947.66 1021.92 1559.02 837.97 1560.79 838.31 1947.66 1019.9 1947.66 1021.92"/>
          <polygon class="cls-55" points="1945.64 1034.53 -45.98 1051.62 -45.98 1056.6 1945.64 1036.66 1945.64 1034.53"/>
          <polygon class="cls-70" points="-4.77 944.33 1944.72 966.22 1944.72 969.09 -7.41 946.92 -4.77 944.33"/>
          <polygon class="cls-61" points="114.22 901.58 1780.48 906.64 1775.95 904.83 116.3 900.67 114.22 901.58"/>
          <polygon class="cls-28" points="161.79 880.61 1701.1 874.95 1697.83 873.65 163.07 880.05 161.79 880.61"/>
          <polygon class="cls-54" points="189.58 868.36 1629.92 846.54 1630.94 846.95 188.51 868.84 189.58 868.36"/>
        </g>
        <polygon class="cls-60" points="821.68 1128.76 835.91 1047.77 848.19 1048.95 838.95 1049.09 821.68 1128.76"/>
        <polygon class="cls-45" points="1327.17 1128.76 1280.24 1036.66 1294.01 1051.97 1298.99 1066.71 1331.26 1128.76 1327.17 1128.76"/>
        <polygon class="cls-80" points="1619.24 1128.76 1516.8 1031.41 1525.66 1033.55 1531.34 1039.26 1619.24 1128.76"/>
        <polygon class="cls-38" points="1786.99 1054.47 1805.93 1061.71 1839.82 1086.47 1786.99 1054.47"/>
        <polygon class="cls-82" points="282.44 1128.76 294.83 1108.02 324.67 1086.95 343.61 1066.49 364.82 1050.01 282.44 1128.76"/>
        <polygon class="cls-69" points="118.08 1049.43 121.98 1043.38 289.69 941.88 118.08 1049.43"/>
        <path class="cls-56" d="M1646.53,969.09l-104.53-64.29s27.1,13.58,28.5,14.98c1.4,1.4,5.07,5.09,5.07,5.09l36.02,21.61,34.94,22.61Z"/>
        <polygon class="cls-71" points="1736.02 1023.46 1728.44 1016.37 1703.68 1003.78 1736.02 1023.46"/>
        <polygon class="cls-74" points="582.62 1128.76 620.35 1049.43 831.66 1047.82 816.91 1128.76 582.62 1128.76"/>
        <polygon class="cls-73" points="1283.44 1040.22 1517.78 1038.21 1440.13 963.36 1241.74 961.11 1283.44 1040.22"/>
        <polygon class="cls-72" points="1082.46 1045.3 838.95 1049.09 835.82 1052.8 1082.46 1045.3"/>
        <polygon class="cls-47" points="471.1 952.35 654.82 956.71 656.85 959.63 625.27 1027.47 662.13 953.54 471.1 952.35"/>
        <polygon class="cls-27" points="1085.21 1040.22 1070.04 959.75 1237.82 961.11 1237.82 961.11 1074.44 962.64 1072.57 964.13 1085.21 1040.22"/>
      </g>
      <polygon class="cls-31" points="1549.52 898.81 1647.23 88.21 272.2 88.21 250.52 880.67 1549.52 898.81"/>
      <polygon class="cls-59" points="-20.51 -174.86 362.46 88.21 364.82 881.6 -20.51 1124.25 -20.51 -174.86"/>
      <polygon class="cls-21" points="1576.49 913.44 1641.74 160.62 1987.07 -99.96 1987.68 -123.95 1579.74 79.57 384.5 83.45 -2.84 -174.34 -4 -128.55 362.03 143.39 363.83 899.64 1576.49 913.44"/>
      <g>
        <path class="cls-2" d="M1033.98,903.62c-.75-.12-77.55-12.47-257.96-11.27-2.6.02-5.2.03-7.75.03-189.82,0-239.62-48.68-252.39-77.97-14.93-34.25-19.8-119.67-20-123.29l3.24-.18c.05.88,5.04,88.46,19.73,122.17,10.03,23.02,54.43,76.02,249.62,76.02,2.49,0,4.99,0,7.52-.03,180.73-1.2,257.76,11.18,258.52,11.31l-.53,3.2Z"/>
        <path class="cls-2" d="M1051.7,897.15l-.41-3.22c.33-.04,33.28-4.35,42.96-14.03,7.11-7.11,6.65-113.81,4.6-183.79l3.25-.1c.52,17.96,4.83,175.79-5.55,186.18-10.46,10.46-43.45,14.78-44.84,14.95Z"/>
        <path class="cls-2" d="M1366.06,905.59c-120.96,0-297.72-7.67-308.48-8.14l.14-3.24c3.84.17,384.91,16.7,416.96,2.09,2.25-1.02,3.81-2.95,4.76-5.87,11.26-34.56-68.79-177.25-69.6-178.69l2.83-1.59c3.34,5.92,81.55,145.39,69.85,181.29-1.23,3.78-3.42,6.42-6.51,7.82-10.33,4.71-54.23,6.34-109.96,6.34Z"/>
        <path class="cls-2" d="M769.12,901.27c-.51,0-.98,0-1.41,0-36.18-.06-99.5-2.25-107.29-10.04-1.5-1.5-1.47-3.41.1-4.97,9.4-9.39,113.91-7.57,195.24-4.64-27.63-4.78-79.31-8.8-111.37-11.3-39.83-3.1-64.48-5.12-69.27-7.38-13.65-6.44,6.61-113.87,10.8-135.33l3.19.62c-11.95,61.12-20.43,128.08-12.6,131.77,4.48,2.12,35.4,4.53,68.13,7.08,62,4.83,109.36,8.96,126.35,15.11,38.8,1.51,69.99,3.12,78.94,3.6l-.17,3.24c-22.44-1.2-47.27-2.35-72.67-3.35.26.31.44.63.56.95.28.77.52,2.3-1.09,3.91-10.1,10.1-88.25,10.73-107.43,10.73ZM662.56,888.87c.06,0,1,1.61,10.25,3.44,43.41,8.58,189.9,7.47,201.45-4.07.32-.32.34-.48.34-.48-.12-.78-1.16-1.55-2.97-2.31-97.22-3.71-200.76-4.97-208.82,3.09-.21.21-.25.32-.25.32,0,0,0,0,0,0Z"/>
      </g>
      <path class="cls-16" d="M1848.59,778.3l-306.59-60.83-1102.14-7.31-343.62,47.09-116.76,172.69v194.32l262,4.51,100.81-79.34-59.86-191.75,109.52-58.72,73.7,135.72,477.2-34.01,42.9,29.28h8.65l32.49-24.92,421,29.64,23.95-169.3,96.17,47.61,115,38.52-89.28,201.95,120.3,75.32,152.42-4.51h61.71v-290.68l-79.57-55.28ZM76.92,1062.55l46.96-123.38,83.08,100.1-130.04,23.29ZM1719.85,1055.86l92.2-120.07,34.51,140.16-126.71-20.09Z"/>
      <polygon class="cls-14" points="460.95 936.95 333.5 987.8 274.41 941.88 396.75 911.68 460.95 936.95"/>
      <polygon class="cls-14" points="494.48 1003.13 399.66 1128.77 265.16 1124.25 404.53 1004.58 494.48 1003.13"/>
      <polygon class="cls-14" points="1516.8 911.68 1447.9 934.67 1658.6 955.41 1580.36 917.17 1516.8 911.68"/>
      <g>
        <polygon class="cls-33" points="1821.83 782.63 1812.04 935.79 1719.85 1055.85 1593.74 1053.44 1591.73 782.63 1821.83 782.63"/>
        <polygon class="cls-25" points="1593.74 1053.44 1587.94 1045.25 1580.36 782.63 1591.73 782.63 1593.74 1053.44"/>
        <polygon class="cls-33" points="1452.61 733.64 1452.61 936.95 1516.8 911.68 1549.05 828.71 1548.1 689.05 1452.61 733.64"/>
        <polygon class="cls-25" points="1452.61 936.95 1447.9 934.67 1443.43 730.19 1452.61 733.64 1452.61 936.95"/>
        <polygon class="cls-25" points="994.41 929.95 985.76 929.95 984.27 723.18 995.82 725.76 994.41 929.95"/>
        <polygon class="cls-33" points="460.95 733.64 460.95 936.95 396.75 911.68 364.51 828.71 365.45 689.05 460.95 733.64"/>
        <polygon class="cls-25" points="460.95 936.95 465.66 934.67 470.12 730.19 460.95 733.64 460.95 936.95"/>
        <polygon class="cls-25" points="96.25 757.25 96.25 771.06 364.51 771.06 408.82 746.77 462.32 735.06 1437.14 730.12 1472.18 738.1 1559.02 784.32 1843.84 785.26 1848.59 771.33 1601.76 743.45 1459.67 710.15 391.96 710.15 250.52 742.1 96.25 757.25"/>
        <polygon class="cls-25" points="1548.1 689.05 364.19 689.05 96.25 757.25 359.39 757.25 406.13 738.67 465.84 728.9 1437.75 723.21 1478.37 730.89 1559.02 771.33 1848.59 771.33 1548.1 689.05"/>
        <polygon class="cls-25" points="1559.02 784.32 1559.02 771.33 1848.59 771.33 1843.84 785.26 1559.02 784.32"/>
        <polygon class="cls-25" points="364.51 771.06 359.39 757.25 96.25 757.25 96.25 771.06 364.51 771.06"/>
        <polygon class="cls-33" points="114.22 771.06 123.89 939.17 206.95 1039.26 342.31 1039.26 344.32 771.06 114.22 771.06"/>
        <polygon class="cls-25" points="342.31 1039.26 348.11 1031.15 355.69 771.06 344.32 771.06 342.31 1039.26"/>
        <polygon class="cls-3" points="1580.89 801.13 1591.9 805.97 1819.89 813 1821.83 785.26 1580.41 784.39 1580.89 801.13"/>
        <polygon class="cls-3" points="355.69 771.06 355.33 783.53 115.82 798.97 114.22 771.06 355.69 771.06"/>
      </g>
      <polygon class="cls-41" points="1756.65 392.12 1827.29 389.68 1830.64 386.71 1759.71 388.59 1756.65 392.12"/>
      <polygon class="cls-10" points="1848.59 771.33 1559.02 765.78 1478.37 730.89 1559.02 771.33 1848.59 771.33"/>
      <polygon class="cls-4" points="96.25 757.25 359.39 757.25 406.13 738.67 363.71 751.91 96.25 757.25"/>
      <path class="cls-16" d="M990.03,718.45c0,2.45-25.66,4.44-57.31,4.44s-57.31-1.99-57.31-4.44,25.66-4.44,57.31-4.44,57.31,1.99,57.31,4.44Z"/>
      <g>
        <path class="cls-26" d="M952.34,719.87c-17.05,4.25-39.36,0-39.36,0l-23.06-3.93s.16-.16.45-.42c3.15-3.05,21.53-19.84,39.46-17.99,10.26,1.07,15.95,7.15,19.03,12.67,2.83,5.07,3.48,9.68,3.48,9.68Z"/>
        <g>
          <path class="cls-41" d="M894.26,712.04s12.95-4.76,21.61-2.46c8.66,2.3,12.03,11.98,12.03,11.98l-7.84-.67s-9.94-12.49-26.76-8.04l.95-.8Z"/>
          <path class="cls-7" d="M948.86,710.2c-13.8,1.98-27.44-7.66-38.26-5.78-9.45,1.69-18.22,9.26-20.23,11.11,3.15-3.05,21.53-19.84,39.46-17.99,10.26,1.07,15.95,7.15,19.03,12.67Z"/>
        </g>
      </g>
      <g>
        <polygon class="cls-2" points="650.01 713.2 645.96 720.6 850.11 719.86 837.71 713.92 650.01 713.2"/>
        <polygon class="cls-2" points="864.3 706.36 837.71 713.92 850.11 719.86 869.16 710.41 864.3 706.36"/>
        <polygon class="cls-26" points="864.3 706.36 685.92 706.36 650.01 713.2 837.71 713.92 864.3 706.36"/>
      </g>
      <g>
        <polygon class="cls-16" points="251.19 484.44 196.01 539.15 -20.51 618.63 -20.51 248.59 65.47 220.45 251.19 484.44"/>
        <polygon class="cls-25" points="155.27 479.57 262.01 460.68 266.85 283.89 159.09 237.76 189.42 221.98 328.28 288.35 327.41 467.1 186.07 490.12 155.27 479.57"/>
        <polygon class="cls-12" points="328.28 467.1 262.01 460.68 266.85 283.89 328.28 288.35 328.28 467.1"/>
        <polygon points="160.28 484.44 262.01 460.68 266.85 283.89 189.06 250.59 160.28 484.44"/>
        <polygon class="cls-33" points="65.47 220.45 72.19 496.55 182.15 499.05 182.15 212.69 65.47 220.45"/>
        <path class="cls-25" d="M182.15,212.69v286.36l150.26-26.02v-189.15l-150.26-71.19ZM328.28,467.1l-137.32,22.23-1.53-267.36,138.86,66.38v178.75Z"/>
        <polygon class="cls-25" points="183.21 360.47 331.88 373.4 332.29 369.61 182.15 349.38 183.21 360.47"/>
      </g>
      <polygon class="cls-2" points="286.4 723.35 285.91 725.95 281.84 726.63 286.4 723.35"/>
      <polygon class="cls-20" points="341.23 726.75 442.65 719.94 359.39 757.25 172.15 757.25 227.67 745.78 275.85 734.85 314.85 735.95 341.23 726.75"/>
      <polygon class="cls-16" points="1586.47 755.93 1638.03 771.33 1709.75 771.33 1614.1 755.58 1586.47 755.93"/>
      <g>
        <polygon class="cls-2" points="1004.71 776.99 1060.39 776.99 1069.38 925.24 995.19 925.24 1004.71 776.99"/>
        <polygon class="cls-26" points="1052.39 772.53 1063.59 925.24 1069.38 925.24 1060.85 772.43 1052.39 772.53"/>
        <polygon class="cls-26" points="1000.18 772.53 995.19 925.24 999.82 925.24 1008.22 772.53 1000.18 772.53"/>
        <polygon class="cls-43" points="1000.18 772.53 1005.24 765.66 1045.54 765.66 1060.85 772.43 1052.39 772.53 1043.49 767.02 1010.25 766.71 1008.22 772.53 1000.18 772.53"/>
        <polygon class="cls-43" points="1052.72 776.99 1041.65 769.09 1010.7 769.09 1008.13 776.99 1052.72 776.99"/>
        <polygon class="cls-2" points="1052.72 776.99 1041.65 769.09 1010.7 769.09 1008.13 776.99 1008.22 772.53 1010.25 766.71 1043.49 767.02 1052.39 772.53 1052.72 776.99"/>
        <polygon class="cls-23" points="1008.22 772.53 999.82 925.24 1004.7 925.24 1009.73 776.99 1008.22 772.53"/>
        <polygon class="cls-22" points="1006.39 805.73 1054.92 806.94 1054.98 807.84 1006.34 806.72 1006.39 805.73"/>
        <polygon class="cls-19" points="1004.61 838.09 1054.02 867.02 1057.64 925.24 1060.88 925.24 1055.04 866.19 1004.77 835.18 1004.61 838.09"/>
        <polygon class="cls-53" points="1007.6 839.84 1054.02 867.02 1057.64 925.24 1055.18 925.24 1052.89 867.07 1007.6 839.84"/>
        <polygon class="cls-66" points="1008.13 806.76 1054.98 807.84 1054.98 808.65 1008.22 807.71 1008.13 806.76"/>
        <polygon class="cls-63" points="1016.32 784.78 1017.7 787.73 1043.23 787.73 1045 784.78 1036.93 784.78 1034.62 782.52 1025.73 782.52 1023.99 784.85 1016.32 784.78"/>
        <polygon class="cls-78" points="1017.7 787.73 1016.68 788.2 1043.85 788.2 1043.23 787.73 1017.7 787.73"/>
        <polygon class="cls-26" points="1005.24 826.66 1058.62 857.44 1057.5 842.13 1006.03 812.28 1005.24 826.66"/>
        <polygon class="cls-18" points="1005.24 826.66 1007.6 830.6 1058.62 861.46 1058.62 857.44 1005.24 826.66"/>
        <polygon class="cls-66" points="1008.22 772.53 1004.7 813.27 1057.64 844.06 1057.5 842.13 1006.03 812.28 1008.22 772.53"/>
        <polygon class="cls-2" points="1043.49 767.02 1052.39 772.53 1057.64 844.06 1053.95 772.53 1043.49 767.02"/>
        <polygon class="cls-63" points="1016.17 919.5 1018.63 922.37 1045.3 922.37 1046.94 919.5 1016.17 919.5"/>
        <polygon class="cls-17" points="995.19 925.24 995.19 923.55 1069.38 924.4 1069.38 925.24 995.19 925.24"/>
      </g>
      <g>
        <g>
          <path class="cls-2" d="M550.48,695.46c-6.47-.16-63.38-1.86-68.11-13.68-.63-1.57-.76-4.07,2.2-7.02,15.78-15.78,177.35-207.3,178.98-209.23l2.47,2.08c-6.66,7.9-163.29,193.56-179.16,209.43-2.08,2.08-1.63,3.18-1.49,3.54,2.97,7.42,41.56,11.08,65.19,11.66l-.08,3.23Z"/>
          <path class="cls-2" d="M892.94,696.16c-19.04,0-31.96-.24-34.43-.85-4.33-1.07-9.16-8.79-12.45-15.09-13.94-26.65-28.77-81.79-12.51-124.44,21.31-55.87,74.93-86.3,75.46-86.6l1.57,2.82c-.53.3-53.15,30.18-74.02,84.93-15.89,41.66-1.32,95.66,12.35,121.8,4.83,9.23,8.6,13.01,10.37,13.45,9.16,2.27,184.57-.94,276.03-2.97l.07,3.23c-8.57.19-169.88,3.73-242.45,3.73Z"/>
          <path class="cls-2" d="M1431.23,701.05l-2.29-2.27c.39-.39,39.1-39.92,30.71-85.82-8.48-46.38-83.01-144.42-83.76-145.41l2.56-1.96c3.09,4.05,75.75,99.65,84.37,146.78,8.7,47.58-31.19,88.27-31.6,88.68Z"/>
          <path class="cls-2" d="M1369.16,704.05c-.27-.14-26.58-14.14-23.08-38.21l3.19.47c-3.18,21.83,21.13,34.75,21.37,34.88l-1.49,2.86Z"/>
          <path class="cls-2" d="M1101.19,698.94c-8.19-1.71-49.06-10.88-49.06-23.05s53.03-17.62,63.66-18.56l.28,3.21c-25.21,2.22-60.72,8.45-60.72,15.35,0,7.41,28.52,16.13,46.5,19.89l-.66,3.16Z"/>
          <path class="cls-2" d="M591.16,698.98l-.09-3.23c.54-.02,54.14-2.41,97.37-11.63,43.06-9.18,89.52-41.2,89.99-41.52l1.84,2.65c-.47.32-47.47,32.71-91.15,42.02-16.69,3.56-34.91,6.1-51.05,7.89l180.2-2.22.04,3.23-227.14,2.8Z"/>
        </g>
        <polygon class="cls-20" points="1570.91 483.51 1167.04 474.1 653.23 484.23 420.72 498.29 420.72 249.92 441.54 227.95 1268.9 249.92 1533.01 227.95 1561.5 249.92 1570.91 483.51"/>
        <g>
          <polygon class="cls-2" points="496.83 697.36 527.15 705.22 633.8 701.81 600.68 693.84 496.83 697.36"/>
          <polygon class="cls-2" points="601.26 699.53 538.68 701.72 517.2 696.87 522.15 662.33 598.64 662.33 601.26 699.53"/>
          <polygon class="cls-26" points="451.21 514.38 471.82 671.9 681.3 663.5 648.37 519.62 451.21 514.38"/>
          <polygon class="cls-26" points="538.68 701.72 541.67 682.03 599.46 673.92 601.26 699.53 538.68 701.72"/>
          <polygon class="cls-26" points="633.8 701.81 633.8 705.22 529.19 708.72 527.15 705.22 633.8 701.81"/>
          <polygon class="cls-2" points="496.91 697.36 494.25 701.81 529.27 708.72 527.22 705.22 496.91 697.36"/>
          <polygon class="cls-2" points="451.21 514.38 449.33 519.07 469.81 674.54 677.31 666.32 681.3 663.5 473.76 669.78 451.21 514.38"/>
          <polygon class="cls-37" points="476.37 660.37 671.55 657.86 645.11 524.43 457.14 519.87 476.37 660.37"/>
        </g>
        <g>
          <polygon class="cls-2" points="1481.61 697.36 1451.29 705.22 1344.65 701.81 1377.77 693.84 1481.61 697.36"/>
          <polygon class="cls-2" points="1377.18 699.53 1439.77 701.72 1461.24 696.87 1456.29 662.33 1379.81 662.33 1377.18 699.53"/>
          <polygon class="cls-26" points="1527.23 514.38 1506.62 671.9 1297.15 663.5 1330.08 519.62 1527.23 514.38"/>
          <polygon class="cls-26" points="1439.77 701.72 1436.77 682.03 1378.99 673.92 1377.18 699.53 1439.77 701.72"/>
          <polygon class="cls-26" points="1344.65 701.81 1344.65 705.22 1449.25 708.72 1451.29 705.22 1344.65 701.81"/>
          <polygon class="cls-2" points="1481.54 697.36 1484.19 701.81 1449.18 708.72 1451.22 705.22 1481.54 697.36"/>
          <polygon class="cls-2" points="1527.23 514.38 1529.11 519.07 1508.64 674.54 1301.14 666.32 1297.15 663.5 1504.68 669.78 1527.23 514.38"/>
          <polygon class="cls-32" points="1502.08 660.37 1306.9 657.86 1333.34 524.43 1521.31 519.87 1502.08 660.37"/>
        </g>
        <polygon class="cls-26" points="447.46 205.3 447.46 472.28 789.67 472.28 789.67 227.14 447.46 205.3"/>
        <polygon class="cls-26" points="1538.61 209.55 1538.61 468.03 1196.4 468.03 1196.4 228.41 1538.61 209.55"/>
        <polygon class="cls-26" points="807.41 472.46 810.25 232.66 1175.82 232.66 1181.42 468.86 807.41 472.46"/>
        <polygon class="cls-2" points="1538.61 468.03 1543.5 468.03 1545.72 212.65 1538.61 209.55 1538.61 468.03"/>
        <polygon class="cls-2" points="447.46 205.3 441.54 210.68 441.54 472.28 447.46 472.28 447.46 205.3"/>
        <polygon class="cls-32" points="451.28 461.36 779.75 466.2 779.75 233.9 451.28 211.92 451.28 461.36"/>
        <polygon class="cls-32" points="814.24 464.96 1174.43 460.66 1169.6 239.71 814.24 239.71 814.24 464.96"/>
        <polygon class="cls-32" points="1204.54 456.36 1533.01 456.36 1533.01 215.52 1201.31 232.66 1204.54 456.36"/>
        <polygon class="cls-2" points="782.62 696.66 778.36 703.79 909.8 702.62 905.03 696.66 782.62 696.66"/>
        <polygon class="cls-26" points="782.62 696.66 804.57 690.82 877.95 690.82 905.03 696.66 782.62 696.66"/>
        <polygon class="cls-2" points="812.36 657.29 812.36 694.49 875.8 694.49 872.04 659.1 812.36 657.29"/>
        <polygon class="cls-2" points="1199.98 696.66 1204.24 703.79 1072.8 702.62 1077.57 696.66 1199.98 696.66"/>
        <polygon class="cls-26" points="1199.98 696.66 1178.04 690.82 1104.65 690.82 1077.57 696.66 1199.98 696.66"/>
        <polygon class="cls-2" points="1170.24 657.29 1170.24 694.49 1106.8 694.49 1110.57 659.1 1170.24 657.29"/>
        <polygon class="cls-26" points="1109.21 671.9 1167.04 680.14 1167.04 693.74 1106.8 694.49 1109.21 671.9"/>
        <polygon class="cls-26" points="817.33 677.58 873.61 673.92 875.8 694.49 812.36 694.49 817.33 677.58"/>
        <polygon class="cls-26" points="722.66 660.37 722.66 519.87 969.96 519.87 979.9 660.37 722.66 660.37"/>
        <polygon class="cls-48" points="973.91 653.12 726.35 653.12 726.35 523.29 966.38 523.29 973.91 653.12"/>
        <polygon class="cls-2" points="979.9 660.37 973.91 664.14 726.35 664.14 722.66 660.37 979.9 660.37"/>
        <polygon class="cls-26" points="1012.95 657.29 1017.9 519.87 1255.79 519.87 1257.76 660.37 1012.95 657.29"/>
        <polygon class="cls-40" points="1020.68 650.7 1250.77 653.12 1250.77 525.17 1020.68 525.17 1020.68 650.7"/>
        <polygon class="cls-2" points="1012.95 657.29 1016.11 660.72 1254.81 664.14 1257.76 660.37 1012.95 657.29"/>
        <g class="cls-64">
          <polygon class="cls-29" points="476.37 660.37 502.08 639.92 612.29 637.53 671.55 657.86 476.37 660.37"/>
          <polygon class="cls-76" points="612.29 637.53 601.37 556.35 645.11 524.43 671.55 657.86 612.29 637.53"/>
          <polygon class="cls-79" points="502.08 639.92 490.61 556.35 457.14 519.87 476.37 660.37 502.08 639.92"/>
          <polygon class="cls-75" points="601.37 556.35 490.61 556.35 457.14 519.87 645.11 524.43 601.37 556.35"/>
          <polygon class="cls-81" points="612.29 637.53 502.08 639.92 490.61 556.35 601.37 556.35 612.29 637.53"/>
          <polygon class="cls-75" points="538.68 639.12 532.41 582.96 573.96 582.96 580.48 638.22 538.68 639.12"/>
          <polygon class="cls-29" points="532.77 586.2 566.26 586.2 573.96 638.36 538.68 639.12 532.77 586.2"/>
        </g>
        <polygon class="cls-11" points="558.77 530.34 482.75 651.47 490.1 651.95 618.29 531.29 558.77 530.34"/>
        <polygon class="cls-5" points="623.54 531.33 644.7 531.46 507.57 646.79 499.27 645.92 623.54 531.33"/>
        <g class="cls-64">
          <polygon class="cls-75" points="973.14 639.92 726.35 618.71 726.35 653.12 973.91 653.12 973.14 639.92"/>
          <polygon class="cls-65" points="726.35 556.35 967.24 538.11 973.14 639.92 726.35 618.71 726.35 556.35"/>
          <polygon class="cls-81" points="726.35 523.29 726.35 556.35 967.24 538.11 966.38 523.29 726.35 523.29"/>
          <polygon class="cls-75" points="767.05 622.21 767.05 573.02 792.74 570.87 792.74 624.42 767.05 622.21"/>
          <polygon class="cls-75" points="883.92 632.25 883.92 570.87 916.25 566.03 916.25 635.92 883.92 632.25"/>
          <polygon class="cls-29" points="916.25 633.36 887.42 630.74 887.42 572.28 916.25 567.64 916.25 633.36"/>
          <polygon class="cls-29" points="792.74 622.48 769.69 620.66 769.69 574.9 792.74 572.48 792.74 622.48"/>
        </g>
        <polygon class="cls-6" points="845.75 528.34 760.9 649.47 769.1 649.95 912.18 529.29 845.75 528.34"/>
        <polygon class="cls-8" points="918.04 529.33 941.65 529.46 788.6 644.79 779.34 643.93 918.04 529.33"/>
        <g class="cls-64">
          <polygon class="cls-36" points="1250.77 653.12 1250.77 525.17 1020.68 525.17 1020.68 650.7 1250.77 653.12"/>
          <polygon class="cls-75" points="1020.68 650.7 1020.68 622.48 1250.77 611.04 1250.77 653.12 1020.68 650.7"/>
          <polygon class="cls-75" points="1250.77 593.14 1020.68 594.46 1020.68 586.2 1250.77 582.96 1250.77 593.14"/>
          <polygon class="cls-29" points="1250.77 611.04 1250.77 593.14 1020.68 594.46 1020.68 622.48 1250.77 611.04"/>
          <polygon class="cls-52" points="1020.68 607.81 1250.77 600.3 1250.77 602.12 1020.68 609.32 1020.68 607.81"/>
          <path class="cls-75" d="M1020.68,556.35s47.58,20.43,62.63,22.85c15.05,2.42,52.68-6.72,63.71-6.72s34.41,7.13,40.32,7.13,63.44-23.26,63.44-23.26v26.61l-230.09,3.23v-29.84Z"/>
        </g>
        <polygon class="cls-9" points="1130.2 527.4 1045.35 648.53 1053.55 649.01 1196.63 528.35 1130.2 527.4"/>
        <polygon class="cls-13" points="1202.49 528.39 1226.11 528.52 1073.05 643.85 1063.79 642.98 1202.49 528.39"/>
        <rect class="cls-44" x="454.05" y="463.75" width="15.24" height="5.62"/>
        <rect class="cls-44" x="1515.54" y="458.35" width="15.24" height="5.62"/>
        <rect class="cls-35" x="473.54" y="463.75" width="9.21" height="5.62"/>
        <rect class="cls-35" x="479.89" y="662.58" width="5.72" height="3.49" transform="translate(-41.99 32.64) rotate(-3.71)"/>
        <rect class="cls-44" x="1487.39" y="662.4" width="5.72" height="3.49" transform="translate(-39.86 97.85) rotate(-3.71)"/>
        <polygon class="cls-41" points="1362.59 705.82 1369.9 702.62 1419.98 704.22 1419.21 707.72 1362.59 705.82"/>
        <polygon class="cls-41" points="1101.52 702.87 1104.55 696.66 1130.35 696.66 1128.13 702.87 1101.52 702.87"/>
        <polygon class="cls-41" points="1133.18 703.15 1135.36 696.66 1138.52 696.66 1136.92 702.87 1133.18 703.15"/>
        <polygon class="cls-41" points="795.7 703.63 799.73 696.66 839.24 696.66 840.85 703.63 795.7 703.63"/>
        <polygon class="cls-41" points="554.99 707.96 553.36 704.38 582.91 703.44 584.41 706.88 554.99 707.96"/>
        <polygon class="cls-41" points="474.89 515.01 482.75 519.87 562.78 521.41 559.7 517.27 474.89 515.01"/>
        <polygon class="cls-41" points="562.78 517.35 566.26 521.41 573.96 521.41 569.24 517.52 562.78 517.35"/>
        <polygon class="cls-41" points="810.05 513.07 810.05 514.62 910.95 515.69 910.95 513.07 810.05 513.07"/>
        <polygon class="cls-41" points="1107.57 523.69 1175.51 523.29 1177.93 519.87 1110.59 519.87 1107.57 523.69"/>
        <polygon class="cls-41" points="1449.68 519.87 1519.84 517.44 1523.16 514.49 1452.72 516.36 1449.68 519.87"/>
        <polygon class="cls-41" points="1201.31 464.96 1204.34 458.17 1295.66 458.17 1289.21 464.96 1201.31 464.96"/>
        <polygon class="cls-41" points="662.1 470.58 664.79 466.56 769.69 466.56 764.78 470.58 662.1 470.58"/>
        <polygon class="cls-41" points="658.61 470.58 660.36 466.56 648.37 466.56 646.11 470.58 658.61 470.58"/>
        <polygon class="cls-63" points="1142.86 467.3 1143.66 462.26 1170.75 462.07 1171.02 467.29 1142.86 467.3"/>
      </g>
    </g>
  </g>
</svg>