<?xml version="1.0" encoding="UTF-8"?>
<svg id="Layer_1" data-name="Layer 1" xmlns="http://www.w3.org/2000/svg" viewBox="0 0 116.77 201.76">
  <defs>
    <style>
      .cls-1 {
        fill: #525252;
      }

      .cls-2 {
        fill: #171717;
      }

      .cls-3 {
        fill: #2b2b2b;
      }

      .cls-4 {
        fill: #3d3d3d;
      }
    </style>
  </defs>
  <rect class="cls-2" x="1.78" y=".84" width="100.38" height="187.77" rx="9.45" ry="9.45" transform="translate(-2 1.12) rotate(-1.21)"/>
  <rect class="cls-3" x="8.34" y="13.84" width="87.15" height="156.48" transform="translate(-1.94 1.12) rotate(-1.21)"/>
  <rect class="cls-3" x="31.9" y="175.6" width="43.7" height="5.91" transform="translate(-3.77 1.18) rotate(-1.21)"/>
  <path class="cls-3" d="M53.66,7.29c.04,1.96-1.52,3.58-3.47,3.62-1.95.04-3.58-1.52-3.62-3.47s1.52-3.58,3.47-3.62c1.95-.04,3.58,1.51,3.62,3.47Z"/>
  <path class="cls-4" d="M9.83,162.95c35.3-9.56,65.43-31.21,85.89-60.21l-1.9-89.81L6.69,14.78l3.14,148.17Z"/>
  <path class="cls-1" d="M9.46,145.37c38.98-29.96,63.8-77.28,62.68-130.21-.01-.6-.11-1.18-.13-1.77L6.69,14.78l2.77,130.59Z"/>
</svg>