<?xml version="1.0" encoding="UTF-8"?>
<svg xmlns="http://www.w3.org/2000/svg" viewBox="0 0 38.86 66.63">
  <defs>
    <style>
      .cls-1 {
        isolation: isolate;
      }

      .cls-2 {
        mix-blend-mode: multiply;
      }

      .cls-3 {
        fill: #ebebeb;
      }

      .cls-4 {
        fill: #ededed;
      }
    </style>
  </defs>
  <g class="cls-1">
    <g id="Layer_1" data-name="Layer 1">
      <g>
        <g class="cls-2">
          <path class="cls-3" d="M7.13,66.1c-4.85-1.7-7.41-7.02-5.71-11.87L17.16,9.34c.98-2.81,3.01-5.08,5.69-6.37,2.69-1.29,5.72-1.46,8.54-.47,5.81,2.03,8.88,8.41,6.84,14.22l-12.19,34.76c-.19.54-.79.83-1.33.64-.55-.19-.83-.79-.64-1.33l12.19-34.77c1.66-4.72-.84-9.9-5.56-11.56-2.29-.8-4.75-.66-6.93.38-2.18,1.05-3.83,2.89-4.63,5.17L3.39,54.93c-1.31,3.76.66,7.88,4.43,9.2,3.75,1.32,7.88-.67,9.19-4.43l11.43-32.6c.93-2.65-.47-5.57-3.13-6.5-2.65-.93-5.57.47-6.5,3.13l-7.9,22.46c-.19.55-.79.84-1.33.65-.54-.19-.83-.79-.64-1.34l8.32-23.42c1.63-3.11,5.34-4.64,8.76-3.44,3.74,1.31,5.72,5.42,4.41,9.17l-11.43,32.6c-1.7,4.84-7.02,7.41-11.86,5.71Z"/>
        </g>
        <path class="cls-4" d="M6.23,64.24c-4.84-1.7-7.4-7.02-5.7-11.87L16.26,7.48c.99-2.81,3.01-5.07,5.7-6.37,2.69-1.29,5.72-1.46,8.53-.47,5.81,2.03,8.87,8.41,6.84,14.22l-12.19,34.77c-.19.55-.78.83-1.33.64-.55-.19-.83-.79-.65-1.33l12.19-34.77c1.66-4.72-.84-9.9-5.56-11.56-2.29-.8-4.75-.67-6.93.38-2.19,1.05-3.83,2.89-4.63,5.17L2.5,53.06c-1.32,3.76.66,7.88,4.42,9.2,3.75,1.31,7.88-.66,9.2-4.42l11.43-32.6c.93-2.66-.47-5.57-3.12-6.51-2.66-.93-5.57.47-6.51,3.13l-7.9,22.46c-.19.55-.79.84-1.33.65-.55-.19-.84-.79-.65-1.34l8.31-23.42c1.63-3.11,5.35-4.64,8.76-3.45,3.74,1.31,5.72,5.43,4.41,9.17l-11.43,32.6c-1.7,4.84-7.02,7.4-11.87,5.71Z"/>
      </g>
    </g>
  </g>
</svg>