<?xml version="1.0" encoding="UTF-8"?>
<svg id="Layer_1" data-name="Layer 1" xmlns="http://www.w3.org/2000/svg" viewBox="0 0 200.05 51.66">
  <defs>
    <style>
      .cls-1 {
        fill: #9ac44b;
      }

      .cls-2 {
        fill: #776781;
      }

      .cls-3 {
        fill: #1c1c22;
      }

      .cls-4 {
        fill: #5baf30;
      }

      .cls-5 {
        fill: #ae9cb9;
      }

      .cls-6 {
        fill: #3f3b39;
      }
    </style>
  </defs>
  <rect class="cls-2" x="169.74" y="9.79" width="30.31" height="30.31" transform="translate(209.84 -159.95) rotate(90)"/>
  <rect class="cls-5" x="169.74" y="11.57" width="30.31" height="30.31" transform="translate(211.61 -158.17) rotate(90)"/>
  <path class="cls-6" d="M173.86,19.42v-1.76c0-.72.58-1.3,1.3-1.3h0c.72,0,1.3.58,1.3,1.3v1.76c0,.72-.58,1.3-1.3,1.3h0c-.72,0-1.3-.58-1.3-1.3Z"/>
  <path class="cls-6" d="M173.86,35.54v-1.76c0-.72.58-1.3,1.3-1.3h0c.72,0,1.3.58,1.3,1.3v1.76c0,.72-.58,1.3-1.3,1.3h0c-.72,0-1.3-.58-1.3-1.3Z"/>
  <path class="cls-6" d="M187.41,23.08h-4.18c-.27,0-.52-.08-.73-.21-.38-.24-.64-.67-.64-1.15v-4.91c0-.6.39-1.11.92-1.29.14-.05.29-.08.44-.08h4.18c.75,0,1.36.61,1.36,1.36v4.91c0,.75-.61,1.36-1.36,1.36Z"/>
  <path class="cls-6" d="M187.41,37.83h-4.18c-.27,0-.52-.08-.73-.21-.38-.24-.64-.67-.64-1.15v-4.91c0-.6.39-1.11.92-1.29.14-.05.29-.08.44-.08h4.18c.75,0,1.36.61,1.36,1.36v4.91c0,.75-.61,1.36-1.36,1.36Z"/>
  <path class="cls-3" d="M156.47,51.66H15.5C7.29,51.66.57,45.27.04,37.19c-.07-.95-.03-.28-.04-21.7C0,6.94,6.94,0,15.5,0h140.97c8.57,0,15.5,6.94,15.5,15.5,0,23,0,21.08-.04,21.7-.53,8.08-7.25,14.46-15.46,14.46Z"/>
  <rect class="cls-4" x="54.05" y="-12.51" width="32.88" height="76.78" rx="8.43" ry="8.43" transform="translate(96.36 -44.61) rotate(90)"/>
  <rect class="cls-1" x="72.19" y="-27" width="32.88" height="105.76" rx="8.43" ry="8.43" transform="translate(114.51 -62.75) rotate(90)"/>
</svg>