<?xml version="1.0" encoding="UTF-8"?>
<svg id="typo" xmlns="http://www.w3.org/2000/svg" version="1.1" viewBox="0 0 355.4 140.2">
  <!-- Generator: Adobe Illustrator 30.0.0, SVG Export Plug-In . SVG Version: 2.1.1 Build 123)  -->
  <defs>
    <style>
      .st0 {
        fill: #f9de3e;
      }
    </style>
  </defs>
  <polygon class="st0" points="290.9 111.1 72.6 107.9 60.2 30 300.2 56.2 290.9 111.1"/>
  <g>
    <path d="M91.7,59.3c1.6.2,3,.3,4.1.4,1.1,0,2,.2,2.6.2h1.9c0,.1,10.5.8,10.5.8,0,.5,0,.9,0,1.4,0,.4,0,.8,0,1.1,0,.4,0,.8-.1,1.1,0,.3-.1.7-.2,1,0,.3-.1.7-.2,1,0,.4-.2.8-.3,1.1-.2-1.3-.6-2.3-1.1-3-.5-.7-1-1.2-1.6-1.5-.6-.4-1.3-.6-2-.7-1,0-1.7,0-2.3,0-.5,0-1,.2-1.3.4-.3.2-.6.4-.7.7-.2.3-.3.5-.5.9-.2.3-.3.7-.5,1.3-.2.5-.3,1.1-.5,2s-.3,1.9-.6,3.2c.6-.1,1.2-.3,1.6-.4.4-.1.7-.3,1-.4.3-.1.5-.2.6-.3.1-.1.3-.4.5-.7.2-.3.4-.7.7-1.3.3-.5.6-1.3,1.1-2.3,0,1.1,0,2-.1,2.7,0,.7,0,1.3,0,1.7,0,.5,0,.9,0,1.2v1.3c-.1.5-.2,1.2-.2,2,0,.8,0,1.9-.1,3.1-.2-.9-.4-1.6-.6-2.1-.2-.5-.4-.9-.5-1.2-.2-.3-.3-.5-.4-.7-.2,0-.4-.1-.7-.2-.3,0-.6,0-1,0-.4,0-.9,0-1.5,0-.2,1.3-.2,2.3-.2,3.1,0,.8,0,1.4.1,1.8,0,.5.2.9.4,1.1.2.2.6.4,1.2.6.6.2,1.3.3,2.1.3s1.6,0,2.5-.2c.9-.2,1.6-.5,2.3-1,.5-.4,1.1-.9,1.7-1.6.5-.6,1.1-1.3,1.7-2.1.6-.9,1.3-1.9,1.9-3.1-.2,1-.3,1.9-.4,2.6,0,.7-.2,1.2-.2,1.7,0,.5-.1.9-.2,1.1,0,.3,0,.7-.2,1.2,0,.4-.2,1-.4,1.8-.2.8-.4,1.7-.6,2.9-1.1,0-2.1-.1-3.1-.2-1,0-1.8,0-2.6-.1-.9,0-1.7,0-2.5,0-.8,0-1.6,0-2.6,0-.8,0-1.8,0-2.9,0-1.1,0-2.3,0-3.7.1.2-1.6.4-3.1.6-4.5.2-1.4.3-2.7.4-3.7.1-1.3.2-2.4.2-3.5.3-2.7.4-4.9.3-6.5s-.3-2.8-.5-3.2c-.1-.2-.3-.4-.6-.6-.2-.2-.5-.4-.8-.7-.4-.3-.8-.6-1.3-1Z"/>
    <path d="M114.9,81c.2-.8.4-1.4.5-2,.1-.6.2-1.1.3-1.5,0-.5.1-.9.2-1.2,0-.4,0-.9,0-1.4,0-.5,0-1.1,0-1.7,0-.6,0-1,0-1.5,0-.4,0-.7-.1-.9,0-.2-.2-.4-.3-.6-.3-.4-.8-.8-1.4-1.3.5,0,1-.1,1.4-.2.4,0,.7-.1,1-.2.3,0,.5-.1.8-.2.2,0,.4-.1.7-.2.2,0,.5,0,.8-.1.3,0,.7-.1,1.1-.2l-.3,3.2c.8-.8,1.6-1.5,2.4-1.8.8-.4,1.5-.7,2.2-.8.8-.2,1.6-.2,2.3-.2.9.1,1.8.3,2.6.6.8.3,1.5.7,2,1s1,.8,1.4,1.2c.3.4.5.7.6,1,.2.9.2,1.8,0,2.5-.2.8-.4,1.5-.7,2.2-.3.7-.5,1.4-.7,2.1-.2.7-.2,1.5,0,2.3,0,.2.2.4.2.7,0,.2.2.4.3.6.1.2.3.4.5.5-.3,0-.5,0-.8-.1s-.5,0-.7,0c-.3,0-.5,0-.7-.1-.2,0-.5,0-.9,0-.7,0-1.7,0-3.2-.1.2-.5.4-.9.6-1.2.2-.3.3-.6.4-.8.1-.3.2-.4.3-.6.3-.7.5-1.4.7-2.3.1-.9.1-1.7,0-2.6,0-.3-.1-.7-.3-1.1s-.3-.9-.6-1.3c-.2-.4-.5-.8-.9-1.1-.3-.3-.7-.5-1.2-.6-.5,0-1,0-1.6.2-.6.2-1.2.7-1.9,1.4-.5.6-1,1.3-1.3,2.2-.3.8-.5,1.7-.7,2.9s-.1,2.5.1,4.1c-.3,0-.6-.1-.9-.1-.3,0-.5,0-.7-.1-.2,0-.4,0-.6-.1-.2,0-.4,0-.7,0-.2,0-.5,0-.9,0-.3,0-.8,0-1.2-.1Z"/>
    <path d="M146.8,70.2c.4,0,.8,0,1.2,0,.4,0,.7,0,.9,0,.3,0,.6,0,.8,0,.4,0,.7,0,1.1-.1.3,0,.7,0,1-.1.4,0,.7-.1,1.1-.2-.2.3-.3.6-.4.9-.1.3-.2.5-.3.7,0,.2-.1.4-.1.5,0,.2,0,.4,0,.6,0,.4,0,1-.1,1.9,1.3-1,2.4-1.7,3.2-2.2.9-.5,1.6-.9,2.1-1.2.6-.3,1.1-.5,1.4-.6.9,0,1.6.2,2.2.8.3.3.5.6.7,1,.2.4.4.9.6,1.6.1.6.2,1.4.3,2.3,0,.9,0,1.9-.2,3.1-.5,0-.9,0-1.3,0-.4,0-.7,0-1,0-.3,0-.6,0-.8,0h-1c-.3,0-.7,0-1.2,0-.5,0-1.1,0-1.7,0,1-.7,1.7-1.4,2.1-2,.3-.6.5-1.1.5-1.5,0-.4-.2-.8-.6-1.2-.4-.3-.9-.4-1.4-.4-.4,0-1,.2-1.6.5s-1.3.9-2,1.8c0,1.5,0,2.7,0,3.7,0,1,0,1.8,0,2.4,0,.7,0,1.3,0,1.7,0,.4.2.7.3,1.2.1.3.4.7.6,1.1.3.4.6.8,1.1,1.3-1-.1-1.9-.2-2.5-.2-.4,0-.8,0-1.1,0-.3,0-.7,0-1.1,0-.3,0-.7,0-1.2,0-.4,0-.9,0-1.4,0,.2-.2.4-.5.5-.9.1-.3.3-.6.3-.9.1-.3.2-.7.3-1.1,0-.3,0-.8.2-1.5,0-.7,0-1.4.1-2.2,0-.8,0-1.7,0-2.6s0-1.8,0-2.6c0-.8,0-1.5,0-2.1,0-.6-.1-1-.2-1.3,0-.3-.2-.6-.4-.9-.1-.3-.3-.6-.5-.9-.2-.3-.4-.6-.6-1Z"/>
    <path d="M173.7,73.1c.6,0,1.2.2,1.9.5.6.3,1.3.6,1.8,1,.6.4,1.1.8,1.6,1.2.5.4.9.8,1.2,1.2.5.7.9,1.5,1,2.6s.1,2.2,0,3.3c-.2,1.1-.6,2.1-1.2,3.1-.6.9-1.3,1.6-2.3,2-.7.3-1.3.5-2,.6s-1.3.2-1.9.3c-.6,0-1.1,0-1.7,0-.5,0-1,0-1.3-.1-.7,0-1.4-.4-2.1-.9-.7-.5-1.4-1.1-2-1.8-.6-.7-1.1-1.5-1.6-2.3-.4-.8-.6-1.6-.7-2.3,0-1,0-2,.1-3,.2-1,.6-2,1.2-2.8.7-.8,1.6-1.5,2.9-2,1.3-.5,3-.7,5.1-.5ZM171.6,86.6c.3,0,.6,0,1.1-.1.5-.1.9-.4,1.4-.8.5-.4.9-.8,1.3-1.4.4-.6.6-1.3.8-2.2.1-.9.2-1.7.2-2.4,0-.7,0-1.4-.2-1.9-.1-.6-.3-1-.5-1.4-.2-.4-.4-.6-.6-.8-.4-.2-.9-.4-1.4-.6-.6-.2-1-.2-1.4,0-.2,0-.4.3-.7.5-.3.3-.6.6-.9,1.1-.3.4-.6.9-.9,1.5-.3.6-.5,1.2-.6,1.8-.1.6-.2,1.3-.2,2,0,.7.1,1.4.3,2.1.2.7.5,1.2.9,1.7.4.5.9.8,1.6.9Z"/>
    <path d="M183.6,73.3c.6.2,1.1.3,1.6.4.5,0,.8.2,1.2.2.4,0,.7.1,1,.2.3,0,.6,0,1,.1.6,0,1.5.1,2.7.2-.7,0-1.2,0-1.6.4-.4.4-.7.8-.9,1.3-.3.6-.4,1.2-.5,2-.1,1-.1,2,0,2.8,0,.8.2,1.6.5,2.1.3.6.6,1,1.1,1.3s1.1.4,1.9.4c.8,0,1.4-.3,1.8-.7.4-.4.8-.9,1-1.6.2-.6.4-1.4.5-2.2,0-.8.2-1.7.3-2.6,0-.9,0-1.5.1-1.9,0-.4,0-.6,0-.8,0-.1,0-.2,0-.2,0,0-.1,0-.2-.2,0,0-.1-.2-.2-.3,0,0-.1-.2-.3-.4-.1-.1-.2-.3-.4-.4.6,0,1.1.1,1.6.2.5,0,.9,0,1.2.1.4,0,.7,0,1,.1.3,0,.6,0,1,.2.3,0,.8.1,1.4.2.6,0,1.2.2,2,.3-.5,0-1,.2-1.3.4-.3.2-.6.4-.8.6-.2.2-.4.5-.5.8,0,.4-.1,1-.1,1.8,0,.7,0,1.7.1,3,.1,1.3.3,3,.5,5l-2.9,1.5-.2-4.7c-.8,1.1-1.5,1.9-2.3,2.5s-1.5,1-2.2,1.2c-.8.3-1.6.4-2.3.4-1,0-1.8-.2-2.5-.4-.7-.2-1.3-.4-1.7-.6-.5-.2-.9-.5-1.1-.8-.3-.3-.5-.6-.6-.9-.3-.6-.4-1.4-.4-2.3s.1-1.8.3-2.8c.2-.9.3-1.8.5-2.5.2-.8.2-1.3.2-1.6,0-.2,0-.5-.2-.7,0-.2-.2-.5-.3-.7-.1-.3-.3-.6-.5-.9Z"/>
    <path d="M202.5,68.6c.7.1,1.3.2,1.8.3.5,0,.9.1,1.2.2.3,0,.6,0,.8,0,.2,0,.5,0,.8,0,.3,0,.7,0,1.2,0,.5,0,1.1,0,1.9,0-.2.2-.3.4-.4.6s-.2.3-.3.5l-.2.4c0,.1-.1.3-.2.4,0,.1-.1.3-.2.4,0,.2,0,.3-.1.5l5.4.4-.7,2.8-4.9-.6c-.2,1.2-.3,2.1-.4,2.8,0,.7-.2,1.1-.2,1.4v.6c-.2.9-.4,1.8-.5,2.9-.1,1-.2,2-.3,2.9,0,.9,0,1.6,0,2.2,0,.6.3.9.7.9.4,0,.7,0,1-.2s.6-.4.8-.6c.2-.2.4-.5.6-.8s.2-.5.2-.6c0-.1,0-.3,0-.5,0-.4-.3-.8-.5-1.4.7.2,1.3.4,1.8.6.3.1.5.2.7.3.2.1.5.2.8.4.2.1.6.3,1,.5s.8.4,1.4.7c-.5,0-.9.2-1.2.4-.1,0-.3.2-.3.3-.2.2-.4.6-.6,1-.2.4-.6.8-1,1.2s-1,.7-1.8,1c-.7.3-1.7.4-2.9.4-1.2,0-2.2-.3-2.8-.8-.6-.5-1-1.1-1.3-1.7-.2-.6-.4-1.3-.4-1.9,0-.6,0-1,0-1.2,0-.2,0-.7.1-1.6,0-.8.2-1.8.3-2.8.1-1,.2-2,.3-2.9.1-.9.2-1.6.2-2.1,0-.2,0-.5,0-.7,0-.2,0-.4,0-.7s0-.5,0-.7l-5.1-.4v-2c0,0,5,.5,5,.5,0-.3,0-.5-.1-.7,0-.2,0-.4-.1-.6,0-.2-.1-.3-.2-.4,0-.1-.2-.3-.3-.4-.1-.1-.3-.3-.4-.5-.2-.2-.4-.4-.6-.7Z"/>
    <path d="M223.2,86.5c.7,0,1.3,0,1.8,0,.5,0,.9-.2,1.4-.5s.8-.6.9-1.2c.5.1.9.2,1.2.3.3,0,.6.2.8.2.3,0,.5.2.7.2.2,0,.4.1.7.2.2,0,.5.1.8.2.3,0,.7.2,1.2.3-.3,0-.7,0-1.1,0-.4,0-.7.2-1.1.3-.4.1-.7.3-1.1.5-.2.1-.5.3-.8.6-.3.3-.7.5-1.2.7-.5.2-1.2.4-2,.5-.8.1-1.9.1-3.1,0-1.5-.1-2.8-.5-3.8-1.1s-1.8-1.2-2.4-2c-.6-.8-1-1.6-1.2-2.5s-.3-1.7-.3-2.5c0-.8.3-1.5.8-2.3s1.2-1.5,2.1-2.1,2-1.1,3.2-1.5c1.2-.4,2.6-.5,4-.4.8,0,1.6.2,2.3.5.7.2,1.3.6,1.9.9.6.4,1.1.8,1.5,1.2.4.4.8.9,1,1.3.3.5.5,1,.7,1.5.2.4.3.9.4,1.5s0,1.1,0,1.7c-1.8,0-3.2-.1-4.3-.2-1.1,0-1.9,0-2.5-.1h-1.6c0-.1-1.2-.2-1.2-.2-.4,0-1,0-1.7,0-.7,0-1.5,0-2.5,0,0,.9.3,1.7.7,2.2.4.5.9.9,1.5,1.2.6.3,1.2.5,2,.6ZM220.5,80c.7,0,1.4.2,1.9.2.5,0,.9.1,1.2.2.3,0,.6,0,.8,0h.9c.6,0,1.7.1,3.3.2,0-1-.2-1.8-.5-2.4-.3-.6-.7-1-1.1-1.3-.4-.3-1-.5-1.5-.6-1.5,0-2.7.2-3.4.7-.8.6-1.3,1.5-1.6,2.9Z"/>
    <path d="M251.3,89c.1.3.2.6.2.9,0,.3,0,.6-.1.9-.1.3-.3.6-.5.9-.2.3-.6.5-.9.6-.8.3-1.4.3-2,.1-.6-.2-1-.5-1.2-1-.1-.2-.2-.5-.2-.8,0-.3,0-.6.2-.9.1-.3.3-.5.6-.8.3-.2.6-.4,1-.6.8-.3,1.4-.3,1.9-.2.5.1.8.4,1,.8ZM248.8,68.5c.4.1.9.3,1.2.3.4,0,.7.2,1,.2.3,0,.7.1,1,.2.3,0,.7,0,1.2.1.4,0,.9,0,1.4.1.6,0,1.2,0,2,.1-.8,1.6-1.4,2.9-1.9,4-.5,1.1-.9,2-1.2,2.7-.3.8-.5,1.5-.7,2-.1.5-.3,1.2-.5,1.9-.2.7-.4,1.5-.7,2.5-.3,1-.6,2.1-.9,3.5l-3.1-.3c.3-1.2.5-2.3.6-3.1.1-.9.2-1.6.3-2.2,0-.7.2-1.2.2-1.7,0-.5,0-1.2,0-2.1,0-.8,0-1.8,0-3.2,0-1.3,0-3,0-5.1Z"/>
  </g>
</svg>