<?xml version="1.0" encoding="UTF-8"?>
<svg id="typo" xmlns="http://www.w3.org/2000/svg" version="1.1" viewBox="0 0 355.4 140.2">
  <!-- Generator: Adobe Illustrator 30.0.0, SVG Export Plug-In . SVG Version: 2.1.1 Build 123)  -->
  <defs>
    <style>
      .st0 {
        isolation: isolate;
      }

      .st1 {
        fill: #f9de3e;
      }
    </style>
  </defs>
  <polygon class="st1" points="76.5 123.6 291.8 86.1 304 21 56.3 51.5 76.5 123.6"/>
  <g class="st0">
    <g class="st0">
      <path d="M113.6,67.4c-.2.8-.4,1.5-.5,2.1-.2.6-.3,1.1-.4,1.5-.1.5-.2.9-.3,1.3,0,.3-.2.6-.3,1.1-.1.4-.2,1-.4,1.7-.2.7-.3,1.6-.6,2.6-.4-.8-.8-1.5-1.2-2.1-.4-.6-.8-1.1-1.3-1.5-.4-.4-.9-.8-1.3-1-.4-.2-.9-.4-1.3-.6-.9-.3-1.9-.4-2.8-.3-1.2.3-2.2.7-2.8,1.1-.6.5-1.1.9-1.3,1.4-.2.5-.3,1-.3,1.4,0,.5.2.8.4,1.1.2.3.6.5,1.4.7s1.7.5,2.8.8c1.1.3,2.3.6,3.5,1,1.3.4,2.4.8,3.6,1.4,1.1.5,2.1,1.1,2.9,1.8.8.7,1.4,1.5,1.6,2.4.3,1.2.5,2.2.5,3.2,0,1,0,1.8-.5,2.6-.4.8-1.2,1.5-2.3,2.1-1.1.6-2.7,1.1-4.7,1.6-2.1.5-3.9.7-5.3.6-1.4,0-2.6-.3-3.5-.7-.9-.4-1.7-.9-2.2-1.5-.5-.6-.9-1.2-1.2-1.8s-.5-1.1-.7-1.5c-.2-.4-.3-.7-.5-.7-.2,0-.4-.2-.6-.2-.2,0-.4-.1-.6-.2-.2,0-.4,0-.6-.1l9.8-3.5c-.5.6-.9,1.1-1.1,1.5-.2.4-.4.8-.5,1.2-.1.4-.2.7-.2,1,0,.3.2.7.5,1.2.3.4.8.8,1.3,1.2s1.1.6,1.8.8c.7.2,1.3.2,1.9,0,.8-.2,1.4-.5,1.9-1,.4-.4.8-.9.9-1.5.2-.6.2-1.1.2-1.7,0-.6-.2-1.2-.5-1.8-.3-.6-.6-1.1-1-1.5-.4-.5-.9-.8-1.4-1.1-.4-.2-1.1-.4-2-.5s-1.8-.2-2.9-.3c-1.1-.1-2.1-.3-3.3-.5-1.1-.2-2.2-.5-3.1-.9-.9-.4-1.7-1-2.4-1.7s-1-1.6-1.1-2.7c0-1,0-1.8.5-2.5.4-.7,1-1.4,1.7-1.9.7-.5,1.6-1,2.5-1.3.9-.4,1.9-.7,2.9-.9,1-.2,2-.4,3.1-.5,1-.1,1.9-.2,2.8-.3.8,0,1.5,0,2.1-.1.6,0,.9,0,1.1,0,.6,0,1.2-.2,1.8-.4.5-.1,1.1-.4,1.7-.6.6-.3,1.2-.7,1.7-1.1Z"/>
      <path d="M118.3,78.2c0-.2.1-.4,0-.8,0-.4,0-.8,0-1.3,0-.5.2-1.1.5-1.7.3-.6.8-1.2,1.5-1.8.7-.6,1.5-1,2.2-1.3s1.5-.3,2.2-.3c.7,0,1.4.2,2.1.4.7.2,1.3.5,1.9.8.4.2.7.6,1,1,.3.5.6,1,.8,1.7.2.6.4,1.3.6,2,.2.7.3,1.4.5,2,.1.7.3,1.2.4,1.8.1.5.2,1,.4,1.3.2.5.4.9.7,1.2.3.3.6.6.9.8.3.2.6.3.9.4.3,0,.6.1.8.2.2,0,.3,0,.4,0,.2,0,.4,0,.5,0,0,.3-.2.6-.2.9,0,.3-.1.5-.2.6,0,.2-.1.4-.2.5,0,.2-.1.3-.2.4,0,.1-.1.3-.2.4s-.2.3-.3.5c-.3,0-.6-.1-.9-.3-.3-.1-.6-.2-.8-.3-.3-.1-.5-.2-.8-.4-.2-.1-.5-.3-.7-.4-.2-.2-.4-.3-.6-.5-.2-.2-.4-.4-.6-.6,0,.3-.3.8-.8,1.5-.4.6-1,1.3-1.8,1.9-.7.6-1.7,1.1-2.7,1.5s-2.3.5-3.7.3c-.6,0-1.2-.3-1.8-.5-.6-.3-1.1-.6-1.5-1.1-.5-.4-.8-1-1.1-1.6s-.4-1.4-.4-2.2c0-.8.2-1.6.5-2.2s.7-1.2,1.2-1.6c.5-.5,1.1-.8,1.8-1.1.7-.3,1.4-.6,2.1-.8.6-.1,1.2-.2,1.8-.2.5,0,1.1,0,1.7.2s1.1.4,1.6.8c-.2-1.2-.5-2.2-.7-2.9-.2-.7-.3-1.3-.5-1.6-.2-.4-.3-.8-.4-.9-.1-.1-.3-.3-.5-.5-.2-.2-.4-.3-.6-.5-.2-.1-.5-.2-.8-.3-.3,0-.6,0-1,0-.4,0-.7.3-.9.5s-.3.5-.4.7c0,.3-.1.5,0,.8,0,.3,0,.5.2.7,0,.1.2.3.3.4.1.1.3.2.5.4.2.1.4.2.7.3-.5.2-1,.3-1.4.4-.4.1-.8.2-1.1.3-.3.1-.6.2-.9.3-.2,0-.5.2-.9.3-.3.1-.7.2-1.1.4-.4.1-.9.3-1.5.6.1-.2.2-.4.3-.5,0-.2.2-.3.2-.5,0-.2.1-.3.2-.4ZM124.2,81.4c-.4,0-.8.3-1.2.5-.4.2-.7.6-1,.9-.3.4-.5.8-.6,1.2-.1.4-.2.9,0,1.4,0,.5.3.9.6,1.2s.7.5,1.1.7c.4.2.9.2,1.4.2s.9-.2,1.4-.4c.4-.2.8-.6,1.1-1s.6-.9.8-1.4c.2-.5.3-.9.4-1.4,0-.4,0-.8-.2-1.1-.3-.6-.8-.9-1.5-1s-1.4,0-2.2.1Z"/>
      <path d="M139,90.2c.4-.4.7-.9.9-1.5.2-.6.3-1.1.3-1.7,0-.6,0-1.3,0-1.9,0-.4-.2-1-.4-1.9-.2-.7-.4-1.7-.7-2.9s-.8-2.8-1.3-4.8c-.2,0-.5.1-.6.2s-.3,0-.4,0h-.4c-.1,0-.3.1-.4.2-.1,0-.3.1-.5.2-.2,0-.5.2-.7.3,0-.2,0-.4,0-.6,0-.2,0-.4,0-.5,0-.2,0-.4,0-.5v-.5c-.1-.2-.2-.3-.2-.5s0-.4,0-.6l2.7-.4c-.3-1-.5-1.9-.6-2.7-.1-.8-.2-1.5-.3-2.1,0-.7,0-1.3,0-1.8,0-.7.2-1.3.3-1.8.2-.6.5-1.1.9-1.6.4-.5,1-.8,1.6-1.2.7-.3,1.5-.6,2.5-.8,1.2-.2,2.1-.2,2.8,0,.7.1,1.3.4,1.7.7.4.3.7.8.8,1.3.1.5.2,1,.2,1.5,0,.5,0,.9,0,1.3,0,.4,0,.7,0,.9,0,.1.1.3.3.5.1.2.3.4.5.6.2.2.5.5.8.8-.4,0-.8,0-1.1,0-.4,0-.7,0-1.1.1-.4,0-.7,0-1.1.2-.3,0-.7.2-1.1.3-.3.1-.7.2-1,.3-.4.1-.7.2-1,.4.4-.4.7-.8.9-1.2.2-.4.3-.7.4-1,.1-.4.1-.7.1-1,0-.4-.1-.8-.3-1.3-.1-.5-.3-.9-.6-1.3-.2-.4-.5-.7-.8-.9-.3-.2-.6-.3-.9-.1-.5.3-.8.8-1.1,1.6-.2.7-.4,1.6-.5,2.9-.1,1.3,0,3,.3,5.1.4,0,.9,0,1.2-.1.4,0,.7-.1,1-.1.3,0,.7,0,1-.1s.6-.1,1-.2c.3,0,.7-.2,1.1-.3.4,0,.9-.2,1.4-.4l.3,1.8c-.4.1-.8.2-1.2.3-.4,0-.7.2-1,.3-.3,0-.7.2-1,.2-.3,0-.6.2-1,.3-.3,0-.6.2-1,.3-.4.1-.8.2-1.2.4.8,2.5,1.5,4.6,2,6.2s1,2.8,1.3,3.6c.4,1,.7,1.7.9,2.1.2.3.4.6.7.9.2.2.4.4.7.6.3.2.6.3.9.3-.8,0-1.4,0-2,0-.5,0-1,0-1.4.1-.4,0-.8.1-1.1.2-.3,0-.6.2-1,.3-.7.2-1.5.5-2.7,1Z"/>
      <path d="M157.4,79.9c.6-.1,1.2-.3,1.8-.5.4-.2.8-.5,1.2-.8.4-.3.6-.8.6-1.3.5,0,.9,0,1.2,0,.3,0,.6,0,.9,0,.3,0,.5,0,.7,0,.2,0,.4,0,.7,0,.2,0,.5,0,.9,0,.3,0,.8,0,1.2,0-.4,0-.7.1-1,.3-.3.2-.7.4-1,.6-.3.2-.7.5-.9.8-.2.2-.4.4-.6.8-.2.3-.5.7-1,1-.4.3-1,.7-1.8,1-.8.3-1.8.6-3,.7-1.5.2-2.8.2-3.9-.1s-2-.8-2.8-1.4c-.8-.6-1.3-1.3-1.8-2.1-.4-.8-.7-1.6-.9-2.3-.2-.7,0-1.5.2-2.4.3-.9.8-1.7,1.6-2.6.7-.8,1.6-1.6,2.8-2.2,1.1-.6,2.4-1.1,3.8-1.4.8-.2,1.6-.2,2.4-.1s1.4.2,2.1.4c.6.2,1.2.5,1.7.8.5.3,1,.7,1.3,1,.4.4.7.8,1,1.2.3.4.5.8.7,1.3.2.5.3,1,.4,1.6-1.7.4-3.2.7-4.2.9-1.1.2-1.9.4-2.5.5l-1.6.3-1.2.2c-.4,0-1,.2-1.6.3-.7.1-1.5.3-2.4.5.3.9.7,1.6,1.3,2,.6.4,1.1.7,1.7.9.6.2,1.3.2,2.1.1ZM153.1,74.2c.7,0,1.4-.2,1.9-.2.5,0,.9-.1,1.2-.2.4,0,.6,0,.8-.1l.9-.2c.6-.1,1.6-.3,3.2-.7-.3-1-.6-1.7-1.1-2.2-.5-.5-.9-.8-1.3-1-.5-.2-1-.3-1.6-.2-1.5.3-2.6.8-3.2,1.5-.6.7-.9,1.8-.8,3.2Z"/>
      <path d="M173.9,56.5c.8,0,1.4,0,2.1,0,.6,0,1.1,0,1.6,0,.5,0,1,0,1.4,0,.5,0,1.2-.2,2.1-.7.9-.4,1.9-.8,3.1-1.3,1.1-.4,2.3-.8,3.5-1,1.2-.3,2.4-.2,3.5,0,1.1.3,2,.6,2.8,1s1.3.8,1.8,1.3c.5.5.9,1,1.1,1.6.3.6.5,1.2.6,1.9.2,1.1.1,2.1-.2,3.2-.1.5-.3.9-.6,1.4-.3.5-.6,1-1,1.5-.4.5-.9,1-1.5,1.5-.6.5-1.3,1-2.1,1.4.9,0,1.7.3,2.3.5.6.2,1.1.5,1.5.7.5.3.9.6,1.1.9.3.4.6.8.7,1.2.2.3.3.6.4,1,0,.3.2.6.3.9.1.3.3.7.7,1,.2.3.5.6.8.9.3.3.6.5,1,.8s.8.6,1.3.8c-.6.1-1.2.3-1.8.4-.5,0-1,.2-1.4.3-.5,0-.9.2-1.3.2-.4,0-.9.1-1.6.2-.5,0-1.2.2-2,.4-.8.1-1.8.3-3,.6.4-.5.8-1,1-1.4.3-.5.4-.9.6-1.2.1-.4.2-.8.3-1.2,0-.6-.1-1.3-.3-1.9-.2-.6-.5-1.2-.9-1.8-.4-.6-1-1.3-1.8-1.9-.6.2-1.2.4-1.6.6s-.8.3-1.1.4c-.4.1-.7.2-.9.3-.2,0-.4.1-.7.2-.2,0-.4.1-.7.2-.2,0-.5.2-.7.2.1,1,.3,1.9.5,2.6.2.7.3,1.3.5,1.8.2.6.4,1,.6,1.4.2.4.4.8.7,1.1.2.3.5.6.8.9.3.3.7.6,1,.7-.6.1-1.2.2-1.7.3-.5,0-1,.2-1.5.2-.5,0-1,.2-1.5.2-.5,0-1,.1-1.6.2-.5,0-1.1.2-1.7.3-.7.1-1.4.3-2.1.4.5-.7.9-1.3,1.1-1.8.3-.5.5-.9.6-1.3.1-.4.2-.7.2-.9,0-.4-.1-1-.2-2-.1-1-.3-2.1-.5-3.3-.2-1.2-.4-2.6-.7-3.9-.2-1.4-.5-2.6-.7-3.8-.2-1.2-.4-2.2-.6-3-.2-.8-.3-1.4-.4-1.6-.1-.4-.4-.8-.7-1.2-.3-.3-.6-.7-1-1.1-.4-.4-1-.8-1.7-1.1ZM189.2,66.3c.2-.2.4-.4.5-.5.1-.2.2-.4.3-.7s0-.8,0-1.4c0-.6,0-1.4-.1-2.4,0-1-.3-1.8-.6-2.4-.3-.6-.7-1.1-1.1-1.4-.4-.3-.9-.5-1.3-.6-.5,0-.8,0-1.2,0-.6.1-1.2.4-1.8.9-.6.5-.9,1.1-1.1,1.8,0,.3,0,.8,0,1.5,0,.6.1,1.5.3,2.5.2,1.1.5,2.5.9,4.2.9,0,1.7-.1,2.3-.3.7-.2,1.2-.3,1.7-.5.5-.2,1-.5,1.3-.7Z"/>
      <path d="M208.4,60.3c.6-.1,1.2-.1,1.9,0,.7.1,1.4.3,2,.5.7.2,1.3.5,1.8.8.6.3,1,.6,1.4.9.7.5,1.2,1.3,1.6,2.3.4,1,.6,2.1.7,3.2,0,1.1,0,2.2-.4,3.3-.3,1.1-.9,1.9-1.7,2.5-.6.4-1.2.8-1.8,1.1-.6.3-1.2.5-1.7.7s-1.1.3-1.6.4c-.5,0-.9.2-1.3.2-.7,0-1.5,0-2.3-.3-.8-.3-1.6-.7-2.4-1.2-.8-.5-1.5-1.1-2.1-1.8-.6-.7-1-1.4-1.2-2-.3-.9-.5-1.9-.6-3,0-1.1,0-2.1.5-3.1s1.2-1.9,2.3-2.7c1.1-.8,2.7-1.4,4.8-1.8ZM209.7,74c.3,0,.6-.1,1-.4.4-.3.8-.6,1.1-1.1s.6-1,.9-1.7c.2-.7.3-1.5.2-2.3,0-.9-.2-1.7-.4-2.4-.2-.7-.4-1.3-.7-1.8s-.5-.9-.8-1.2c-.3-.3-.5-.5-.8-.6-.4-.1-.9-.2-1.5-.2-.6,0-1,0-1.4.3-.2.1-.4.4-.6.7-.2.4-.4.8-.6,1.3-.2.5-.3,1.1-.5,1.7-.1.6-.2,1.2-.1,1.9,0,.6.1,1.3.3,2,.2.7.5,1.4.8,1.9.3.6.8,1.1,1.3,1.4.5.4,1.1.5,1.8.5Z"/>
      <path d="M227.2,56.9c.6-.1,1.2-.1,1.9,0,.7.1,1.4.3,2,.5.7.2,1.3.5,1.8.8.6.3,1,.6,1.4.9.7.5,1.2,1.3,1.6,2.3.4,1,.6,2.1.7,3.2,0,1.1,0,2.2-.4,3.3-.3,1.1-.9,1.9-1.7,2.5-.6.4-1.2.8-1.8,1.1-.6.3-1.2.5-1.7.7s-1.1.3-1.6.4c-.5,0-.9.2-1.3.2-.7,0-1.5,0-2.3-.3-.8-.3-1.6-.7-2.4-1.2-.8-.5-1.5-1.1-2.1-1.8-.6-.7-1-1.4-1.2-2-.3-.9-.5-1.9-.6-3,0-1.1,0-2.1.5-3.1.4-1,1.2-1.9,2.3-2.7,1.1-.8,2.7-1.4,4.8-1.8ZM228.5,70.5c.3,0,.6-.1,1-.4.4-.3.8-.6,1.1-1.1.4-.5.6-1,.9-1.7.2-.7.3-1.5.2-2.3,0-.9-.2-1.7-.4-2.4-.2-.7-.4-1.3-.7-1.8s-.5-.9-.8-1.2c-.3-.3-.5-.5-.8-.6-.4-.1-.9-.2-1.5-.2-.6,0-1,0-1.4.3-.2.1-.4.4-.6.7s-.4.8-.6,1.3c-.2.5-.3,1.1-.5,1.7-.1.6-.2,1.2-.1,1.9,0,.6.1,1.3.3,2,.2.7.5,1.4.8,1.9.3.6.8,1.1,1.3,1.4.5.4,1.1.5,1.8.5Z"/>
      <path d="M236.5,54.3c.5-.1,1-.3,1.3-.4.4-.1.7-.2.9-.3.3-.1.5-.2.7-.3.2,0,.4-.1.7-.3.2,0,.5-.2.7-.3.3-.1.6-.3.9-.5l.6,4.4c.4-.9.8-1.6,1.4-2.2s1.2-1,1.7-1.3c.7-.4,1.4-.7,2.1-.8.7-.1,1.4-.1,2.1,0,.6,0,1.2.3,1.8.6.6.3,1.1.8,1.6,1.5.6-.9,1.3-1.7,2-2.3.7-.6,1.3-1.1,1.9-1.4.7-.4,1.3-.7,1.9-.8.8-.2,1.6-.2,2.4,0s1.4.4,2.1.8c.6.4,1.1.7,1.5,1.2.4.4.7.8.8,1.2.2.5.2,1.2.3,2,0,.8,0,1.7,0,2.5,0,.9,0,1.6,0,2.3,0,.7,0,1.2,0,1.5.1.2.3.5.6.7.3.2.7.5,1.2.8.5.3,1.3.7,2.2,1-.7.1-1.4.2-2,.3-.6,0-1.1.1-1.5.2-.5,0-.9,0-1.2.1-.3,0-.6,0-1,.1-.3,0-.8,0-1.3.1-.5,0-1.1.1-1.8.2.2-.1.4-.3.5-.5.1-.2.2-.4.3-.6,0-.3.1-.5.1-.8,0-.2,0-.6,0-1.1,0-.5-.1-1.1-.2-1.8,0-.7-.2-1.3-.3-2.1-.1-.7-.2-1.4-.4-2-.1-.6-.3-1.2-.5-1.7-.2-.5-.3-.9-.5-1.2-.1-.2-.3-.3-.6-.4-.3,0-.5-.1-.8,0-.3,0-.6,0-.9.2-.3.1-.5.3-.7.4-.2.2-.4.5-.7.8-.3.3-.6.7-1,1.3-.4.5-.9,1.2-1.5,2,.2,1.5.4,2.6.5,3.5s.2,1.6.3,2c0,.6.1.9.2,1.1,0,.2,0,.4.1.5.1.3.3.6.6.9-.3,0-.6,0-.9,0-.3,0-.6,0-.9,0-.3,0-.6,0-.9.1-.3,0-.5.1-.8.2-.2,0-.6.2-.9.3-.4.1-.8.2-1.2.3.2-.1.3-.3.4-.5,0-.2.2-.3.2-.5,0-.2.1-.3.1-.5,0-.1,0-.5,0-1s0-1.2-.2-1.9c-.1-.7-.3-1.5-.4-2.3-.2-.8-.4-1.5-.7-2.2-.3-.7-.6-1.2-.9-1.6-.4-.4-.8-.5-1.2-.4-.5.1-1.1.4-1.6.7-.5.3-.9.6-1.4,1.1-.5.5-.9,1.1-1.3,1.8.2,1.7.4,3.1.6,4.1.2,1,.3,1.8.4,2.3.1.6.2,1,.3,1.3,0,.2.1.3.3.5,0,.1.2.3.3.4.1.2.3.3.5.5l-5.6.7c.2-.1.3-.3.4-.5.1-.2.2-.4.3-.5,0-.2.1-.4.2-.6,0-.2,0-.6,0-1.2,0-.6-.1-1.3-.2-2.2-.1-.8-.2-1.7-.4-2.6-.1-.9-.3-1.8-.4-2.6-.1-.8-.3-1.5-.4-2-.1-.6-.2-.9-.2-1-.1-.2-.3-.4-.5-.7-.2-.2-.5-.3-.8-.5-.3-.2-.7-.3-1.2-.3Z"/>
    </g>
  </g>
</svg>