<?xml version="1.0" encoding="UTF-8"?>
<svg id="typo" xmlns="http://www.w3.org/2000/svg" version="1.1" viewBox="0 0 355.4 140.2">
  <!-- Generator: Adobe Illustrator 30.0.0, SVG Export Plug-In . SVG Version: 2.1.1 Build 123)  -->
  <defs>
    <style>
      .st0 {
        isolation: isolate;
      }

      .st1 {
        fill: #f9de3e;
      }
    </style>
  </defs>
  <polygon class="st1" points="47.7 90.4 289.8 115.7 312.6 40.2 63.2 31.4 47.7 90.4"/>
  <g class="st0">
    <g class="st0">
      <path d="M95,48.2c.7.2,1.3.3,1.8.4.5,0,1,.2,1.3.2.4,0,.8,0,1.1.1.3,0,.7,0,1.3,0,.5,0,1.1,0,1.9,0,.8,0,1.7,0,2.8-.1-.3,0-.7.3-1,.7-.3.4-.6.9-.8,1.3-.3.6-.6,1.2-.8,1.9-.2.6-.5,1.5-.8,2.5-.3,1.1-.7,2.3-1,3.5s-.6,2.6-.8,3.9c-.2,1.3-.3,2.5-.3,3.6s.1,2,.4,2.8c.3.7.8,1.2,1.5,1.3,1.1.2,2,.3,2.8.2.7,0,1.4-.1,1.8-.2.5-.1.9-.3,1.1-.5.3-.2.5-.4.6-.6.4-.5.9-1.2,1.3-2,.5-.8.9-1.6,1.3-2.3.4-.7.7-1.4.9-1.9.3-.5.4-.8.4-.7,0,0,0,.3,0,.8,0,.5-.1,1-.2,1.7s-.1,1.4-.2,2.1c0,.7-.1,1.3-.2,1.9,0,.4-.1.9-.2,1.4,0,.4-.1,1-.2,1.6,0,.6-.1,1.3-.2,2-1-.1-1.9-.3-2.8-.4-.9,0-1.7-.2-2.3-.2-.8,0-1.5-.1-2.2-.1-.7,0-1.6,0-2.5,0-.8,0-1.8,0-3.1,0-1.2,0-2.6,0-4.2,0,.2-.3.4-.6.5-.9.1-.3.3-.5.4-.7.1-.2.2-.4.2-.6.2-.7.4-1.7.6-2.8.2-1.2.3-2.4.5-3.7.2-1.3.3-2.6.4-4s.2-2.6.3-3.8c0-1.2,0-2.2.1-3.1,0-.9,0-1.5,0-1.8,0-.4-.2-.8-.3-1.2-.1-.3-.3-.7-.4-1-.2-.4-.4-.7-.6-.9Z"/>
      <path d="M123.5,60.1c.6,0,1.2.2,1.9.5.6.3,1.2.6,1.8,1,.6.4,1.1.8,1.6,1.2.5.4.9.8,1.2,1.2.5.7.9,1.6,1,2.6.1,1.1.1,2.2-.1,3.3s-.6,2.1-1.2,3.1c-.6.9-1.4,1.6-2.3,2-.7.3-1.3.5-2,.6-.6.1-1.3.2-1.9.3-.6,0-1.1,0-1.7,0-.5,0-1,0-1.3-.1-.7,0-1.4-.4-2.1-.9-.7-.5-1.4-1.1-2-1.8-.6-.7-1.1-1.5-1.5-2.3-.4-.8-.6-1.6-.7-2.3,0-1,0-2,.2-3,.2-1,.6-2,1.3-2.8.7-.8,1.6-1.5,2.9-2s3-.7,5.1-.5ZM121.3,73.7c.3,0,.6,0,1.1-.1.5-.1.9-.4,1.4-.8.5-.4.9-.8,1.3-1.4.4-.6.6-1.3.8-2.2.1-.9.2-1.7.2-2.4,0-.7,0-1.4-.2-1.9-.1-.6-.3-1-.5-1.4-.2-.4-.4-.6-.6-.8-.4-.2-.8-.4-1.4-.6-.6-.2-1-.2-1.4,0-.2,0-.4.3-.7.5-.3.3-.6.6-.9,1.1-.3.4-.6.9-.9,1.5-.3.6-.5,1.2-.6,1.8-.1.6-.2,1.3-.2,2,0,.7,0,1.4.3,2.1.2.7.5,1.2.9,1.7.4.5.9.8,1.6.9Z"/>
      <path d="M152.5,65.6c-.3,0-.6-.1-1-.2-.4,0-.8,0-1.2-.1-.4,0-.9,0-1.3,0-.5,0-1,0-1.5,0-.4,0-.9,0-1.4,0-.5,0-1,0-1.5,0,.2,0,.4-.2.5-.3.2-.2.3-.3.4-.5.1-.2.3-.4.4-.6.1-.3.2-.8,0-1.3-.1-.5-.3-1-.6-1.4-.3-.4-.8-.8-1.3-1.1-.5-.3-1.1-.4-1.8-.3-.7.1-1.4.3-1.9.6-.6.3-1.1.7-1.5,1.2-.4.5-.7,1.2-.9,2-.2.8-.3,1.8-.3,3,0,1.4.1,2.6.4,3.5.3.9.7,1.5,1.2,2,.5.5,1.1.8,1.7.9.6.1,1.3.2,1.9.2.5,0,.9-.2,1.3-.5.3-.2.6-.6.9-1.1.3-.5.5-1.1.5-2h4.3c-.6,1.5-1.3,2.5-2,3.3-.8.8-1.5,1.3-2.2,1.7-.8.5-1.6.8-2.4.9-1,0-1.8,0-2.6,0-.7,0-1.4-.3-2-.5-.6-.2-1.1-.5-1.6-.8-.5-.3-1-.7-1.4-1-.3-.2-.6-.6-.9-1.1-.3-.5-.6-1.1-.9-1.8-.3-.7-.5-1.5-.6-2.4-.1-.9-.2-1.7,0-2.6.1-.9.4-1.8.8-2.7.4-.9,1.1-1.7,2-2.5,1.3-1.2,2.7-1.9,4.2-2.2,1.4-.3,2.8-.3,4,0,1.2.3,2.3.7,3.3,1.4.9.6,1.6,1.3,1.9,2,.3.7.6,1.2.8,1.6.2.4.3.6.4.8,0,.2.2.3.3.4,0,0,.2.2.3.4.1.1.2.3.4.4.1.1.3.3.5.5.2.2.4.4.6.6Z"/>
      <path d="M152.6,52.7c.2.1.6.2.9.3.4,0,.7.1,1,.1.4,0,.8,0,1.2,0,.4,0,.9,0,1.6,0,.5,0,1.1,0,1.8,0,.7,0,1.5,0,2.4,0-.3.1-.6.3-.9.5-.2.2-.5.3-.6.5-.2.2-.4.4-.5.6-.2.3-.4.7-.8,1.4-.3.7-.6,1.4-1,2.2-.3.8-.6,1.7-.9,2.5-.3.9-.4,1.6-.5,2.2,0,.5-.1,1.1-.2,1.7,0,.6-.1,1.2-.2,2.1,0,.8-.2,1.8-.3,2.8,1.8-1.1,3.1-2,4.1-2.6,1-.7,1.7-1.2,2.1-1.5.5-.4.8-.7.9-.9,0-.1,0-.3-.1-.5-.1-.1-.3-.3-.5-.5-.2-.2-.5-.4-.9-.7.6.1,1.1.2,1.6.3s.8.1,1.2.2c.4,0,.7,0,1,0,.3,0,.7,0,1.1,0,.8,0,2,0,3.6.2-1.6.7-2.9,1.3-3.9,1.8-.5.3-1,.6-1.4.8-.4.3-.9.6-1.3.9-.4.3-.8.5-1.4.9-.5.3-1,.7-1.5,1.1.7,1.4,1.4,2.5,1.9,3.5.6.9,1,1.7,1.4,2.2.4.7.8,1.2,1.2,1.6.3.4.8.8,1.4,1.3.5.4,1.1.9,1.9,1.5.8.6,1.8,1.3,2.9,2-.6-.2-1.2-.3-1.7-.4-.6,0-1-.1-1.4-.1-.5,0-.9,0-1.3,0-.4,0-.9.1-1.4.2-.5,0-1,.2-1.6.4-.6.2-1.3.4-2,.6.5-.3.8-.6,1.1-.9.2-.3.4-.5.5-.7.1-.2.2-.4.2-.6,0-.2-.3-.7-.7-1.5-.4-.6-.9-1.6-1.6-2.8-.7-1.2-1.7-2.9-2.9-5,0,0-.2,0-.4.2-.1.1-.4.2-.7.4-.3.2-.7.4-1.2.8l.5,6.2c-.2,0-.5.1-.7.2-.3,0-.5,0-.7.1-.3,0-.5,0-.8,0-.3,0-.6,0-.9,0-.3,0-.7,0-1.1.1-.4,0-.9.1-1.5.2.3-.2.6-.4.8-.7.2-.3.4-.5.5-.7.1-.2.3-.5.4-.8,0-.2.2-.8.3-1.8.1-1,.3-2.1.4-3.5.1-1.4.3-2.8.5-4.4.2-1.6.3-3,.4-4.4s.2-2.6.2-3.6c0-1,0-1.7,0-2,0-.4-.2-.8-.3-1.2-.1-.4-.3-.8-.5-1.3-.2-.5-.5-1-.8-1.6Z"/>
      <path d="M186.7,53.7c.4,0,.9.1,1.4.1.4,0,1,0,1.5.1.6,0,1.2,0,1.8,0-.6.2-1.1.6-1.6,1-.5.5-.8.9-1.1,1.4-.4.6-.7,1.1-.9,1.8-.1.4-.3,1-.4,2s-.3,2-.4,3.3-.2,2.6-.4,4c-.1,1.4-.2,2.7-.3,4,0,1.3-.1,2.4-.1,3.4,0,1,0,1.7,0,2.1,0,.5.1.9.3,1.4,0,.4.2.8.4,1.2.2.4.4.7.6,1l-3.7,1.3c-.2-.3-.3-.5-.4-.8,0-.3-.2-.5-.2-.7,0-.3-.1-.5-.1-.7,0-.3,0-.6,0-.9,0-.3,0-.7,0-1,0-.3,0-.6,0-.8,0-.2,0-.3,0-.4,0,0-.1.1-.5.6s-.8.9-1.5,1.5c-.6.6-1.4,1.1-2.3,1.6s-1.9.8-3,.8c-1.1,0-2.1-.2-3-.9-.9-.6-1.6-1.5-2.2-2.5-.6-1.1-1-2.3-1.2-3.7-.2-1.4-.3-2.8,0-4.2.1-.9.4-1.8.8-2.5.4-.7,1-1.3,1.6-1.8.6-.5,1.3-.9,2-1.3.7-.3,1.4-.6,2.1-.8.7-.2,1.3-.3,1.9-.4.6,0,1.1-.1,1.4-.1.4,0,.9.1,1.4.3.5.2,1,.5,1.6.8.6.4,1.3.9,2,1.6,0-2.3,0-4.2,0-5.7,0-1.4,0-2.5-.1-3.3,0-.9-.1-1.5-.2-1.8-.1-.2-.2-.5-.4-.7-.1-.2-.3-.4-.6-.6-.2-.2-.5-.4-.8-.5.6.2,1.2.3,1.7.4s1.1.2,1.5.3c.5,0,1,.2,1.5.2ZM176.9,66.1c-.5.1-.8.4-1.1.8-.3.4-.6.8-.8,1.4-.2.5-.4,1.1-.5,1.7-.1.6-.2,1.2-.2,1.8,0,.6,0,1.1-.1,1.6s0,.8,0,1.1c0,.1,0,.4,0,.8,0,.4.1.8.3,1.2.2.4.5.8.8,1.1.4.3.9.5,1.5.6.5,0,1.1-.1,1.8-.4.6-.2,1.2-.6,1.9-1.2.7-.6,1.5-1.4,2.4-2.5,0-.8,0-1.4,0-1.9,0-.5,0-.9,0-1.2,0-.4,0-.6,0-.8v-.5c0-.1,0-.3,0-.5,0-.2,0-.3,0-.5-.6-.5-1.2-1-1.6-1.3-.5-.4-.9-.7-1.4-.9-.5-.2-1-.3-1.5-.4-.5,0-1.1,0-1.8.2Z"/>
      <path d="M199.3,65.8c.6,0,1.2.2,1.9.5s1.2.6,1.8,1c.6.4,1.1.8,1.6,1.2.5.4.9.8,1.2,1.2.5.7.9,1.6,1,2.6.1,1.1.1,2.2-.1,3.3-.2,1.1-.6,2.1-1.2,3.1-.6.9-1.4,1.6-2.3,2-.7.3-1.3.5-2,.6-.6.1-1.3.2-1.9.3-.6,0-1.1,0-1.7,0-.5,0-1,0-1.3-.1-.7,0-1.4-.4-2.1-.9-.7-.5-1.4-1.1-2-1.8-.6-.7-1.1-1.5-1.5-2.3-.4-.8-.6-1.6-.7-2.3,0-1,0-2,.2-3,.2-1,.6-2,1.3-2.8.7-.8,1.6-1.5,2.9-2,1.3-.5,3-.7,5.1-.5ZM197.1,79.4c.3,0,.6,0,1.1-.1.5-.1.9-.4,1.4-.8.5-.4.9-.8,1.3-1.4.4-.6.6-1.3.8-2.2.1-.9.2-1.7.2-2.4,0-.7,0-1.4-.2-1.9-.1-.6-.3-1-.5-1.4-.2-.4-.4-.6-.6-.8-.4-.2-.8-.4-1.4-.6-.6-.2-1-.2-1.4,0-.2,0-.4.3-.7.5-.3.3-.6.6-.9,1.1s-.6.9-.9,1.5c-.3.6-.5,1.2-.6,1.8-.1.6-.2,1.3-.2,2s0,1.4.3,2.1c.2.7.5,1.2.9,1.7.4.5.9.8,1.6.9Z"/>
      <path d="M206.9,66c.7,0,1.3.2,1.9.2.5,0,1,.1,1.4.2.4,0,.8,0,1.1.1.3,0,.7,0,1.1,0,.4,0,.8,0,1.4,0,.6,0,1.2,0,1.9-.1-.6.3-1.1.6-1.4.9-.4.3-.6.5-.8.7-.2.2-.4.5-.5.7,0,.2-.1.5-.2,1.1s-.1,1.2-.2,1.9c0,.7-.1,1.5-.2,2.3,0,.8,0,1.5,0,2.2,0,.6,0,1.2,0,1.6,0,.4.2.7.3.6.2-.2.5-.7,1-1.6.2-.4.4-.9.7-1.5.3-.6.6-1.3,1-2.2.4-.9.8-1.9,1.3-3.1.5-1.2,1-2.6,1.6-4.1l3,.2c0,1.6,0,3,0,4.2s0,2.2.1,3.1.1,1.6.2,2.2c0,.6.1,1.1.2,1.5.2.9.4,1.4.7,1.5.2,0,.5-.3.7-.8.3-.5.6-1.1.8-1.8.3-.7.5-1.5.8-2.3.3-.8.5-1.6.7-2.4.2-.7.3-1.4.4-1.9,0-.6.1-.9,0-1.1,0-.1-.2-.4-.4-.6-.2-.2-.4-.5-.7-.8-.3-.3-.7-.7-1.2-1.2.6.2,1.3.3,1.9.4.6,0,1.1.1,1.6.2.5,0,1,0,1.5.1.5,0,1,0,1.7,0,.6,0,1.3,0,2.2.1.9,0,1.9.1,3.1.2-1.1.2-1.9.5-2.6.7-.6.2-1.1.5-1.5.7-.4.2-.7.5-.9.7-.2.3-.5,1.1-.9,2.2-.2.5-.4,1-.7,1.7-.3.7-.6,1.5-.9,2.4-.4.9-.7,2-1.2,3.2-.4,1.2-.9,2.6-1.5,4.1-.3,0-.5-.1-.8-.1s-.5,0-.8,0h-.8c-.3,0-.6,0-.9,0-.3,0-.6,0-1,0-.4,0-.8,0-1.2,0l-1.5-8.7-4.1,8.3-3.9-.4c-.3-2.7-.5-4.8-.7-6.4-.2-1.6-.3-2.8-.4-3.7-.1-1-.2-1.7-.3-2.1,0-.4-.2-.9-.4-1.3-.2-.3-.4-.7-.7-1.1-.3-.4-.7-.7-1.2-1Z"/>
      <path d="M232.3,80.2c.2-.8.4-1.4.5-2,.1-.6.2-1.1.3-1.5,0-.5.1-.9.2-1.2,0-.4,0-.9,0-1.4,0-.5,0-1.1,0-1.7,0-.6,0-1,0-1.5,0-.4,0-.7-.1-.9,0-.2-.2-.4-.3-.6-.3-.4-.7-.8-1.4-1.3.5,0,1-.1,1.4-.2.4,0,.7-.1,1-.2.3,0,.5-.1.8-.2.2,0,.4-.1.7-.2.2,0,.5,0,.8-.1.3,0,.7-.1,1.1-.2l-.3,3.2c.8-.8,1.6-1.4,2.4-1.8.8-.4,1.6-.6,2.2-.8.8-.2,1.6-.2,2.3-.2.9.1,1.8.3,2.6.7s1.5.7,2,1.1c.6.4,1,.8,1.4,1.2.3.4.5.7.6,1,.2.9.2,1.8,0,2.5-.2.8-.4,1.5-.7,2.2s-.5,1.4-.7,2.1c-.2.7-.2,1.5,0,2.3,0,.2.2.4.2.7,0,.2.2.4.3.6.1.2.3.4.5.5-.3,0-.5,0-.8-.1-.3,0-.5,0-.7-.1-.3,0-.5,0-.7-.1-.2,0-.5,0-.9-.1-.7,0-1.7,0-3.2-.1.2-.5.4-.9.6-1.2.2-.3.3-.6.4-.8.1-.2.2-.4.3-.6.3-.7.6-1.4.7-2.3.1-.9.1-1.7,0-2.6,0-.3-.1-.7-.3-1.1-.1-.4-.3-.9-.6-1.3-.2-.4-.5-.8-.9-1.1-.3-.3-.7-.5-1.2-.6-.5,0-1,0-1.6.2s-1.2.7-2,1.4c-.5.6-1,1.3-1.3,2.2-.3.8-.6,1.7-.7,2.9-.2,1.2-.1,2.5.1,4.1-.3,0-.6-.1-.9-.2-.3,0-.5,0-.7-.1-.2,0-.4,0-.6-.1-.2,0-.4,0-.7,0-.2,0-.5,0-.9,0-.3,0-.8,0-1.2-.1Z"/>
    </g>
  </g>
</svg>