<?xml version="1.0" encoding="UTF-8"?>
<svg id="expression_1" data-name="expression 1" xmlns="http://www.w3.org/2000/svg" xmlns:xlink="http://www.w3.org/1999/xlink" viewBox="0 0 140.34 223.09">
  <defs>
    <clipPath id="clippath">
      <path d="M94.17,6.33c-1.71-2.58-4.88-4.71-6.45-5.66-.6-.36-1.33-.44-1.99-.21-3.14,1.07-5.86,3.2-7.15,4.33-41.24,2.03-35.83,45.34-35.83,45.34,0,0,4.64,59.54,6.04,76.93,1.41,17.39,4.13,17.36,4.13,17.36l1.48,2,18.28,2.67,18.46.76,1.82-1.69s2.67.54,7.27-16.29,20.17-74.48,20.17-74.48c0,0,14.02-40.98-26.24-51.04Z" fill="#ffef26"/>
    </clipPath>
    <clipPath id="clippath-1">
      <path d="M97.06,147.38l-47.84-4.46c-2.51-.23-4.73,1.61-4.97,4.12s1.61,4.73,4.12,4.97l2.35.22c-.75.73-1.26,1.72-1.36,2.84-.17,1.86.8,3.56,2.33,4.41-1.52.63-2.65,2.05-2.81,3.79h0c-.18,1.88.82,3.61,2.39,4.45-1.82.46-3.24,2.02-3.42,3.99-.12,1.32.34,2.57,1.16,3.48-.97.75-1.65,1.88-1.77,3.19-.17,1.81.74,3.46,2.2,4.33l12.31,11.78,14.99,1.63,13.81-10.86h0c.72-.73,1.21-1.7,1.31-2.8h0c.09-.95-.12-1.85-.55-2.62.61-.7,1.02-1.59,1.12-2.58h0c.13-1.37-.37-2.66-1.25-3.58,1.13-.73,1.92-1.95,2.06-3.4h0c.16-1.67-.61-3.21-1.88-4.12,1.44-.65,2.51-2.04,2.66-3.73h0c.12-1.26-.29-2.45-1.04-3.35,1.21-.47,2.18-1.44,2.64-2.68l.6.06c2.51.23,4.73-1.61,4.97-4.12s-1.61-4.73-4.12-4.97Z" fill="#d8ceb8"/>
    </clipPath>
  </defs>
  <g>
    <g>
      <path d="M94.17,6.33c-1.71-2.58-4.88-4.71-6.45-5.66-.6-.36-1.33-.44-1.99-.21-3.14,1.07-5.86,3.2-7.15,4.33-41.24,2.03-35.83,45.34-35.83,45.34,0,0,4.64,59.54,6.04,76.93,1.41,17.39,4.13,17.36,4.13,17.36l1.48,2,18.28,2.67,18.46.76,1.82-1.69s2.67.54,7.27-16.29,20.17-74.48,20.17-74.48c0,0,14.02-40.98-26.24-51.04Z" fill="#ffef26"/>
      <g clip-path="url(#clippath)">
        <path d="M63.4,154.18S143.26,32.2,94.17,6.33c20.77-58.12,59.15-11.71,59.15-11.71l-12.61,105.37-22.06,59.1-55.25-4.9Z" fill="#ffdb2c"/>
        <path d="M78.58,4.78s5.2-.04,11.68.9c0,0-4.85-1.56-13.45-2.17-8.6-.61,1.77,1.27,1.77,1.27Z" fill="#ffdb2c"/>
      </g>
    </g>
    <path d="M61.12,147.99s-11.98-105.15,2.36-102.27c14.35,2.88,7.21,29.91,4.37,19.13s9.23-32.99,15.9-19.29c6.67,13.7,5.75,23.61,2.81,24.88s1.85-30.85,16.16-22.08c14.31,8.77-27.22,102.08-27.22,102.08l-14.39-2.45Z" fill="none" stroke="#fff" stroke-miterlimit="10" stroke-width="2"/>
    <ellipse cx="72.18" cy="13.85" rx="8.52" ry="4.02" transform="translate(-.9 21.64) rotate(-16.94)" fill="#fff8bb"/>
    <path d="M59.95,14.17s-2.28,6.58,5.7,6.24c0,0-14.99,6.04-18.57,27.24,0,0-1.56-23.8,12.87-33.48Z" fill="#fff8bb"/>
    <path d="M59.1,36.17s-9.1-4.55-13.21,3.86c0,0,.84-18.95,13.21-3.86Z" fill="#432918"/>
    <path d="M94.18,35.43s9.89-2.38,11.99,6.75c0,0,3.46-18.65-11.99-6.75Z" fill="#432918"/>
    <g>
      <g>
        <path d="M97.06,147.38l-47.84-4.46c-2.51-.23-4.73,1.61-4.97,4.12s1.61,4.73,4.12,4.97l2.35.22c-.75.73-1.26,1.72-1.36,2.84-.17,1.86.8,3.56,2.33,4.41-1.52.63-2.65,2.05-2.81,3.79h0c-.18,1.88.82,3.61,2.39,4.45-1.82.46-3.24,2.02-3.42,3.99-.12,1.32.34,2.57,1.16,3.48-.97.75-1.65,1.88-1.77,3.19-.17,1.81.74,3.46,2.2,4.33l12.31,11.78,14.99,1.63,13.81-10.86h0c.72-.73,1.21-1.7,1.31-2.8h0c.09-.95-.12-1.85-.55-2.62.61-.7,1.02-1.59,1.12-2.58h0c.13-1.37-.37-2.66-1.25-3.58,1.13-.73,1.92-1.95,2.06-3.4h0c.16-1.67-.61-3.21-1.88-4.12,1.44-.65,2.51-2.04,2.66-3.73h0c.12-1.26-.29-2.45-1.04-3.35,1.21-.47,2.18-1.44,2.64-2.68l.6.06c2.51.23,4.73-1.61,4.97-4.12s-1.61-4.73-4.12-4.97Z" fill="#d8ceb8"/>
        <g clip-path="url(#clippath-1)">
          <path d="M70.42,197.37l5.86-12.34s4.13-3.06,1.28-6.46c0,0,3.03-2.63.57-6.09,0,0,3.13-3.66.7-7.47,0,0,3.22-3.57.67-7.17,0,0,1.86-1.35.27-2.9,0,0,5.11-4.24.85-9.09-4.26-4.85,9.13-9.18,9.13-9.18l19.83,2.91-2.12,32.02-3.01,27.12-25.03,9.59-8.98-10.94Z" fill="#c0bd9b"/>
          <path d="M58.29,143.67c-1.77,1.17-3.37,3.19-3.12,5.42.08,1.03.77,2.22,1.35,3.15-2.76,1.95-3.16,4.6-1.12,7.36,0,0-.58.59-.58.59-2.25,2.39-2.62,5.27-.09,7.66-.98,1.08-1.93,2.47-2.18,3.94-.32,1.57.46,2.65,1.42,3.78,0,0-.5.6-.5.6-1.36,1.55-1.87,4.35-.8,5.9,0,0,9.81,13.16,9.81,13.16l-.6.47-10.48-12.64c-1.78-2.44-1.21-5.82.51-8.15,0,0,.03,1.3.03,1.3-2.47-2.58-1.44-6.58.72-9.02,0,0,0,1.32,0,1.32-2.69-2.79-1.87-7.24.78-9.77,0,0-.15,1.26-.15,1.26-1.94-2.71-1.4-6.72,1.34-8.8,0,0-.16,1.45-.16,1.45-1.72-1.5-2.82-3.98-2.58-6.35.23-2.48,1.28-4.67,2.87-6.56,0,0,3.54,3.92,3.54,3.92h0Z" fill="#e3ddd2"/>
        </g>
      </g>
      <polygon points="80.83 155.99 65.98 154.12 65.98 154.09 80.93 155 80.83 155.99 80.83 155.99" fill="#c0bd9b"/>
      <polygon points="85.76 159.22 70.9 157.34 70.9 157.31 85.85 158.22 85.76 159.22 85.76 159.22" fill="#c0bd9b"/>
      <polygon points="79.89 166.09 65.03 164.22 65.04 164.18 79.98 165.09 79.89 166.09 79.89 166.09" fill="#c0bd9b"/>
      <polygon points="81.83 173.65 66.97 171.78 66.98 171.75 81.92 172.65 81.83 173.65 81.83 173.65" fill="#c0bd9b"/>
      <polygon points="78.62 179.67 63.77 177.8 63.77 177.77 78.72 178.68 78.62 179.67 78.62 179.67" fill="#c0bd9b"/>
    </g>
    <ellipse cx="74.73" cy="214.79" rx="46.02" ry="8.07" fill="#c7c6c6" opacity=".5"/>
    <g>
      <path d="M3.12,86.49c-1.51-2.71-7.07-12.56,3.4-4.48l27.67,21.43s1.19.99,3.92-.66c2.57-1.57,20.36-12.09,22.32-13.25.13-.08.26-.14.4-.19.66-.22,2.59-.71,3.81.61,1.48,1.61,3.09,5.47,3.09,5.47,0,0,1.31,3.81,2.97,1.02,1.23-2.07,2.94-4.51,3.74-5.64.49-.68,1.17-1.1,1.89-1.09.65,0,1.51.24,2.6.99,2.64,1.82,17.57,10.26,21.67,12.57.66.37,1.43.34,2.1-.08l34.95-21.88c.97-.51,3.59-1.3,2.37,1.7-1.73,4.24-23.56,33.44-24.84,35.26-.04.06-.08.11-.13.17-.75.92-7.58,9.2-9.87,11.35-2.43,2.27-10.03,11.13-10.03,11.13,0,0-1.72,1.75-3.97-1.25-2.53-3.37-17.03-19.17-19.97-24.05-.34-.57-.73-.98-1.15-1.55-.69-.93-2.31-2.6-4.7-.5s-13.63,15.41-18.88,21.66c-1.82,2.17-4.6,2.47-6.5.59-.02-.02-.04-.04-.06-.06-3.44-3.45-14.39-14.73-14.39-14.73-6.17-6.44-14.19-20.33-22.41-34.53Z" fill="#4c2f1d"/>
      <path d="M21.75,110.34s8.69,14.23,21.21,22.15c2.36-1.73,4.72-3.61,6.85-5.8,2.15-2.4,4.39-4.92,6.15-7.95-1.8,1.42-4.8,3.08-6.71,4.17-2.37,1.39-3.74,1.93-5.98,2.44,0,0-7.51-6.55-9.9-9.85.78,1.4,1.71,2.91,2.81,4.46,1.24,1.75,2.48,3.21,3.62,4.43-1.46-1.26-2.94-2.66-4.48-4.13-2.41-2.3-5.14-5.09-6.48-6.99.77,1.39,1.63,2.85,2.6,4.34,1.07,1.64,2.13,3.12,3.16,4.44-1.68-1.36-3.39-2.81-5.13-4.35-2.77-2.46-5.34-4.92-7.73-7.36Z" fill="#6c442f"/>
      <path d="M73.36,114.29s8.69,14.23,21.21,22.15c2.36-1.73,4.72-3.61,6.85-5.8,2.15-2.4,4.39-4.92,6.15-7.95-1.8,1.42-4.8,3.08-6.71,4.17-2.37,1.39-3.74,1.93-5.98,2.44,0,0-7.51-6.55-9.9-9.85.78,1.4,1.71,2.91,2.81,4.46,1.24,1.75,2.48,3.21,3.62,4.43-1.46-1.26-2.94-2.66-4.48-4.13-2.41-2.3-5.14-5.09-6.48-6.99.77,1.39,1.63,2.85,2.6,4.34,1.07,1.64,2.13,3.12,3.16,4.44-1.68-1.36-3.39-2.81-5.13-4.35-2.77-2.46-5.34-4.92-7.73-7.36Z" fill="#6c442f"/>
      <path d="M71.78,99.67l3.99-6.21c.24-.35.62-.48.95-.31,2.52,1.3,12.99,6.79,16.92,10.14,0,0-10.26-4.36-12.07-4.59,0,0,6.08,3.03,6.86,3.58,0,0-7.9-2.71-9.09-3.02l2.37,1.33s-5.85-1.93-6.77-1.92c0,0-1.98-.26-3.16,1Z" fill="#2e1a09"/>
      <path d="M66.56,98.54l-3.4-6.35c-.2-.36-.57-.5-.92-.34-2.63,1.2-13.6,6.28-17.83,9.47,0,0,10.65-3.96,12.47-4.12,0,0-6.35,2.79-7.18,3.3,0,0,8.14-2.4,9.35-2.67l-2.49,1.24s6.02-1.71,6.93-1.66c0,0,2-.18,3.06,1.12Z" fill="#2e1a09"/>
    </g>
    <path d="M47.96,77.52l6.78-9.46c.4-.55,1.2-.61,1.67-.13l11.65,11.94-10.9-18.07c-.45-.74-1.54-.69-1.92.08l-7.25,15.5"/>
    <path d="M95.55,77.52l-7.54-9.24c-.57-.7-1.61-.78-2.28-.18l-13.08,11.77,12.15-17.69c.66-.96,2.11-.9,2.68.12l8.06,15.21"/>
  </g>
  <g>
    <circle cx="20.87" cy="75.55" r="4.33" fill="#e64592"/>
    <path d="M25.12,74.75s-3.62-12.43-9.86-17.51c0,0,12.93,4.57,14,9.71,0,0-2.24-12.18-18.81-12.59,0,0,12.2,12.34,12.4,20.82l2.27-.43Z" fill="#e64592"/>
  </g>
  <g>
    <circle cx="5.13" cy="46.18" r="2.47" fill="#6db648"/>
    <path d="M7.49,46.92s1.54-7.22-.22-11.45c0,0,5.26,5.79,4.41,8.66,0,0,2.17-6.72-6.05-11.41,0,0,2.79,9.49.61,13.81l1.26.4Z" fill="#6db648"/>
  </g>
  <g>
    <g>
      <circle cx="21.13" cy="38.63" r="3.43" fill="#3459a5"/>
      <path d="M28.73,25.52c.42,6.35-4.84,15.15-4.84,15.15l-1.47-1.09c4.81-4.69,5.4-18.41,5.4-18.41,0,0,4.51,3.13,10.65,3.33,0,0-.26,6.2-.58,7.2s-1.28.34-1.28.34l1.13-4.02s-5,.25-9.02-2.51Z" fill="#3459a5"/>
    </g>
    <g>
      <circle cx="30.4" cy="42.16" r="3.43" fill="#3459a5"/>
      <path d="M37.08,24.7s-.59,13.72-5.4,18.41l1.47,1.09s5.26-8.79,4.84-15.15" fill="#3459a5"/>
    </g>
  </g>
</svg>