<?xml version="1.0" encoding="UTF-8"?>
<svg id="expression_2" data-name="expression 2" xmlns="http://www.w3.org/2000/svg" xmlns:xlink="http://www.w3.org/1999/xlink" viewBox="0 0 207.83 257.11">
  <defs>
    <clipPath id="clippath">
      <path d="M139.24,42.12c-1.47-2.72-4.45-5.12-5.92-6.21-.57-.42-1.28-.56-1.97-.39-3.23.79-6.12,2.67-7.51,3.68-41.25-1.63-39.7,41.99-39.7,41.99,0,0-.65,59.72-.79,77.16-.14,17.45,2.58,17.66,2.58,17.66l1.3,2.12,17.97,4.27,18.32,2.39,1.97-1.52s2.62.77,8.69-15.59,26.69-72.41,26.69-72.41c0,0,17.59-39.58-21.62-53.16Z" fill="#ffef26"/>
    </clipPath>
    <clipPath id="clippath-1">
      <path d="M129.76,182.89l-47.26-8.68c-2.48-.46-4.86,1.18-5.31,3.66s1.18,4.86,3.66,5.31l2.32.43c-.81.66-1.4,1.6-1.61,2.71-.34,1.84.48,3.62,1.93,4.6-1.57.49-2.82,1.81-3.13,3.53h0c-.34,1.86.5,3.67,1.99,4.64-1.85.3-3.4,1.73-3.76,3.68-.24,1.31.11,2.59.85,3.57-1.04.66-1.81,1.72-2.05,3.02-.33,1.78.43,3.51,1.81,4.51l11.22,12.82,14.79,2.95,14.71-9.6h0c.78-.66,1.35-1.58,1.55-2.67h0c.17-.93.05-1.85-.31-2.66.67-.64,1.16-1.49,1.34-2.47h0c.25-1.36-.13-2.68-.93-3.68,1.19-.63,2.09-1.78,2.35-3.2h0c.3-1.65-.33-3.25-1.51-4.27,1.5-.52,2.68-1.81,2.98-3.48h0c.23-1.25-.07-2.47-.74-3.43,1.25-.36,2.3-1.24,2.86-2.44l.59.11c2.48.46,4.86-1.18,5.31-3.66s-1.18-4.86-3.66-5.31Z" fill="#d8ceb8"/>
    </clipPath>
  </defs>
  <g>
    <path d="M139.24,42.12c-1.47-2.72-4.45-5.12-5.92-6.21-.57-.42-1.28-.56-1.97-.39-3.23.79-6.12,2.67-7.51,3.68-41.25-1.63-39.7,41.99-39.7,41.99,0,0-.65,59.72-.79,77.16-.14,17.45,2.58,17.66,2.58,17.66l1.3,2.12,17.97,4.27,18.32,2.39,1.97-1.52s2.62.77,8.69-15.59,26.69-72.41,26.69-72.41c0,0,17.59-39.58-21.62-53.16Z" fill="#ffef26"/>
    <g clip-path="url(#clippath)">
      <path d="M95.5,186.67s90.34-114.44,43.73-144.55c25.83-56.05,59.95-6.43,59.95-6.43l-21.89,103.84-27.2,56.92-54.6-9.77Z" fill="#ffdb2c"/>
      <path d="M123.84,39.2s5.19.42,11.55,1.93c0,0-4.7-1.98-13.21-3.35-8.51-1.37,1.66,1.43,1.66,1.43Z" fill="#ffdb2c"/>
    </g>
  </g>
  <path d="M93.77,180.3s-2.63-105.8,11.41-101.66c14.04,4.14,4.53,30.43,2.66,19.44s12.12-32.04,17.55-17.8c5.43,14.24,3.63,24.03.59,25.03s4.58-30.57,18.06-20.57c13.48,10-36.15,99.27-36.15,99.27l-14.11-3.71Z" fill="none" stroke="#fff" stroke-miterlimit="10" stroke-width="2"/>
  <g>
    <g>
      <path d="M129.76,182.89l-47.26-8.68c-2.48-.46-4.86,1.18-5.31,3.66s1.18,4.86,3.66,5.31l2.32.43c-.81.66-1.4,1.6-1.61,2.71-.34,1.84.48,3.62,1.93,4.6-1.57.49-2.82,1.81-3.13,3.53h0c-.34,1.86.5,3.67,1.99,4.64-1.85.3-3.4,1.73-3.76,3.68-.24,1.31.11,2.59.85,3.57-1.04.66-1.81,1.72-2.05,3.02-.33,1.78.43,3.51,1.81,4.51l11.22,12.82,14.79,2.95,14.71-9.6h0c.78-.66,1.35-1.58,1.55-2.67h0c.17-.93.05-1.85-.31-2.66.67-.64,1.16-1.49,1.34-2.47h0c.25-1.36-.13-2.68-.93-3.68,1.19-.63,2.09-1.78,2.35-3.2h0c.3-1.65-.33-3.25-1.51-4.27,1.5-.52,2.68-1.81,2.98-3.48h0c.23-1.25-.07-2.47-.74-3.43,1.25-.36,2.3-1.24,2.86-2.44l.59.11c2.48.46,4.86-1.18,5.31-3.66s-1.18-4.86-3.66-5.31Z" fill="#d8ceb8"/>
      <g clip-path="url(#clippath-1)">
        <path d="M98.8,230.32l6.93-11.77s4.39-2.68,1.84-6.32c0,0,3.25-2.35,1.11-6.02,0,0,3.44-3.37,1.36-7.38,0,0,3.52-3.27,1.3-7.08,0,0,1.97-1.18.53-2.86,0,0,5.46-3.77,1.65-8.98-3.81-5.21,9.9-8.33,9.9-8.33l19.49,4.65-4.95,31.7-5.4,26.75-25.78,7.33-7.98-11.69Z" fill="#c0bd9b"/>
        <path d="M91.48,175.76c-1.86,1.01-3.64,2.88-3.59,5.13-.02,1.04.57,2.28,1.07,3.26-2.92,1.7-3.56,4.31-1.77,7.23,0,0-.63.53-.63.53-2.46,2.18-3.08,5.01-.77,7.62-1.07.99-2.14,2.29-2.52,3.73-.46,1.53.23,2.68,1.07,3.89,0,0-.55.56-.55.56-1.49,1.42-2.25,4.17-1.32,5.8,0,0,8.61,13.98,8.61,13.98l-.64.42-9.32-13.52c-1.56-2.59-.69-5.9,1.23-8.07,0,0-.08,1.3-.08,1.29-2.23-2.79-.85-6.68,1.51-8.92,0,0-.12,1.32-.12,1.32-2.43-3.02-1.23-7.38,1.64-9.66,0,0-.26,1.24-.26,1.24-1.69-2.87-.8-6.82,2.11-8.64,0,0-.29,1.43-.29,1.43-1.58-1.65-2.46-4.21-2-6.55.45-2.45,1.69-4.54,3.44-6.28,0,0,3.17,4.22,3.17,4.22h0Z" fill="#e3ddd2"/>
      </g>
    </g>
    <polygon points="112.84 190.02 98.21 186.84 98.21 186.81 113.02 189.04 112.84 190.02 112.84 190.02" fill="#c0bd9b"/>
    <polygon points="117.46 193.67 102.83 190.49 102.83 190.46 117.64 192.69 117.46 193.67 117.46 193.67" fill="#c0bd9b"/>
    <polygon points="111.01 200 96.38 196.82 96.38 196.79 111.19 199.02 111.01 200 111.01 200" fill="#c0bd9b"/>
    <polygon points="112.27 207.7 97.64 204.52 97.64 204.49 112.45 206.72 112.27 207.7 112.27 207.7" fill="#c0bd9b"/>
    <polygon points="108.55 213.42 93.91 210.24 93.92 210.21 108.73 212.43 108.55 213.42 108.55 213.42" fill="#c0bd9b"/>
  </g>
  <path d="M123.37,89.49c-3.14-1.08-6.66.28-9.87,3.37-1.91-4.04-4.71-6.56-8.03-6.66-6.99-.22-13.6,10.35-14.76,23.61-1.17,13.26,3.55,24.18,10.54,24.4,1.7.05,3.38-.54,4.96-1.64,1.09,1.6,2.44,2.74,4.05,3.3,6.61,2.28,14.9-6.26,18.52-19.07,3.62-12.81,1.2-25.04-5.41-27.31Z" fill="#fff" stroke="#000" stroke-miterlimit="10" stroke-width="2.66"/>
  <ellipse cx="107.2" cy="115.9" rx="5.91" ry="2.58" transform="translate(-18.91 210.89) rotate(-84.22)"/>
  <ellipse cx="111.6" cy="116.71" rx="5.91" ry="2.58" transform="translate(-30.07 194.2) rotate(-74.96)"/>
  <path d="M206.41,180.39c1.24-1.94-.9-1.74-.9-1.74l-10.94,2.72-56.23-42.08c-3.85-2.66-17.89-12.37-20.35-14.42-1.01-.84-1.85-1.15-2.49-1.21-.71-.07-1.42.28-1.97.92-.89,1.05-2.81,3.34-4.21,5.29-1.89,2.63-2.85-1.27-2.85-1.27,0,0-1.25-3.99-2.57-5.72-1.09-1.42-3.05-1.1-3.72-.94-.14.03-.28.08-.41.15-2.05.98-20.6,9.91-23.29,11.24v.03s-61.48,33.74-61.48,33.74l-10.45-4.23s-2.52-1.14-1.14,1.6c2.06,4.07,4.86,7.36,4.86,7.36,0,0-9,7.81-5.52,9.34,3.48,1.52,10.02-.57,10.02-.57l-7.25,8.45s-5.27,5.77.74,7.73c6,1.96,15.98-1.54,15.98-1.54,0,0-6.83,4.59-3.82,7,4.18,3.37,10.44.73,10.44.73,0,0-2.3,9.34,7.8,7.75,0,0,4.91,25.68,8.72,4.93,12.62-13.73,46.84-56.51,57.15-69.2,2.55-1.88,4.01-.08,4.61.91.37.61.72,1.05,1,1.64,2.48,5.12,15.43,22.12,17.64,25.7l31.94,50.48c-.85,18.6,8.74-3.93,8.74-3.93,11.63,7.47,9.39-6.31,9.39-6.31,0,0,6.31,4.16,10.44.73,3.21-2.65-2.8-7.47-2.8-7.47,0,0,9.38,4.86,15.6,3.76,3.42-.6,3.86-3.02,3.56-5.08-.23-1.59-.94-3.07-1.93-4.34l-5.82-7.51s6.19,3,9.84,1.97c3.66-1.02-4.16-10.02-4.16-10.02,0,0,3.39-2.76,5.84-6.61Z" fill="#432918"/>
  <ellipse cx="116.66" cy="47.67" rx="8.52" ry="4.02" transform="translate(-7.31 25.01) rotate(-11.87)" fill="#fff8bb"/>
  <path d="M104.45,46.9s-2.85,6.35,5.13,6.72c0,0-15.46,4.69-20.91,25.49,0,0,.55-23.85,15.78-32.21Z" fill="#fff8bb"/>
  <ellipse cx="108.82" cy="114.89" rx="1.58" ry=".61" transform="translate(-23.85 201.16) rotate(-79.59)" fill="#fff"/>
  <ellipse cx="110.48" cy="115.2" rx="1.58" ry=".61" transform="translate(-22.79 203.04) rotate(-79.59)" fill="#fff"/>
  <path d="M106.36,56.24s-8.97-4.8-13.31,3.5c0,0,1.36-18.92,13.31-3.5Z" fill="#432918"/>
  <path d="M139.47,58.88s10-1.87,11.63,7.35c0,0,4.4-18.45-11.63-7.35Z" fill="#432918"/>
  <polygon points="87.05 37.6 95.98 34.78 94.16 .86 70.74 5.36 87.05 37.6" fill="#d93415"/>
  <polygon points="81.58 45.29 67.4 30.91 61.5 43.88 81.27 49.7 81.58 45.29" fill="#d93415"/>
  <polygon points="75.95 56.79 77.99 65.97 54.25 86.9 39.78 63.28 75.95 56.79" fill="#d93415"/>
  <ellipse cx="108.88" cy="248.18" rx="46.02" ry="8.07" fill="#c7c6c6" opacity=".5"/>
  <path d="M91.23,133.34c-10.19,6.86-20.59,13.38-31.07,19.78-10.48,6.38-21.04,12.63-31.9,18.4l-.13-.21c15.23-10.39,30.99-19.89,46.92-29.14,5.31-3.08,10.64-6.12,16.05-9.04,0,0,.13.21.13.21h0Z" fill="#6c442f"/>
  <path d="M93.6,146.22c-7.44,9.77-15.19,19.29-23.05,28.73-7.87,9.42-15.86,18.74-24.28,27.69l-.19-.16c11.07-14.74,22.94-28.81,35.04-42.7,4.04-4.62,8.11-9.22,12.28-13.72,0,0,.19.16.19.16h0Z" fill="#6c442f"/>
  <path d="M95.67,133.79c-8.15,7.79-16.63,15.21-25.22,22.5-2.89,2.4-5.78,4.8-8.76,7.09,0,0-.1-.11-.1-.11,8.1-7.84,16.63-15.21,25.25-22.47,2.88-2.41,5.78-4.8,8.73-7.13l.1.11h0Z" fill="#6c442f"/>
  <path d="M92.38,139.5c-7.53,8.39-15.42,16.44-23.43,24.36-2.7,2.61-5.4,5.22-8.19,7.74l-.11-.11c7.48-8.44,15.42-16.44,23.46-24.33,2.69-2.62,5.39-5.23,8.16-7.77l.11.11h0Z" fill="#6c442f"/>
  <path d="M122.34,135.33c9.86,7.32,19.48,14.95,29.01,22.69,9.51,7.76,18.93,15.63,27.99,23.94l-.16.19c-14.87-10.89-29.09-22.58-43.12-34.51-4.67-3.98-9.32-7.99-13.87-12.12,0,0,.16-.19.16-.19h0Z" fill="#6c442f"/>
  <path d="M118.25,147.81c6.98,10.1,13.63,20.42,20.16,30.82,6.51,10.4,12.89,20.89,18.79,31.67,0,0-.21.13-.21.13-10.58-15.1-20.27-30.74-29.72-46.56-3.14-5.27-6.25-10.57-9.24-15.94,0,0,.21-.13.21-.13h0Z" fill="#6c442f"/>
  <path d="M117.84,135.25c7.76,8.17,15.17,16.67,22.43,25.29,2.39,2.9,4.78,5.8,7.07,8.78l-.12.1c-7.82-8.12-15.17-16.67-22.4-25.31-2.4-2.89-4.79-5.79-7.1-8.75,0,0,.12-.1.12-.1h0Z" fill="#6c442f"/>
  <path d="M120.3,141.37c7.12,8.74,13.85,17.78,20.44,26.92,2.16,3.07,4.32,6.14,6.38,9.3l-.12.09c-7.18-8.69-13.85-17.78-20.4-26.95-2.18-3.06-4.33-6.14-6.41-9.27,0,0,.12-.09.12-.09h0Z" fill="#6c442f"/>
</svg>