<?xml version="1.0" encoding="UTF-8"?>
<svg id="expression_3" data-name="expression 3" xmlns="http://www.w3.org/2000/svg" xmlns:xlink="http://www.w3.org/1999/xlink" viewBox="0 0 143.23 226.95">
  <defs>
    <clipPath id="clippath">
      <path d="M103.17,6.77c-1.93-2.41-5.29-4.25-6.93-5.05-.63-.31-1.36-.32-2-.03-3.03,1.35-5.55,3.72-6.73,4.95-40.88,5.74-31.6,48.38-31.6,48.38,0,0,9.98,58.88,12.95,76.07,2.97,17.19,5.68,16.92,5.68,16.92l1.65,1.86,18.44,1.01,18.45-.9,1.66-1.85s2.71.29,5.78-16.88c3.07-17.18,13.38-76,13.38-76,0,0,10.27-42.08-30.73-48.47Z" fill="#ffef26"/>
    </clipPath>
    <clipPath id="clippath-1">
      <path d="M118.75,146.99l-48.05-.14c-2.52,0-4.57,2.03-4.58,4.55s2.03,4.57,4.55,4.58h2.36c-.68.8-1.1,1.83-1.1,2.96,0,1.87,1.11,3.47,2.72,4.18-1.45.76-2.45,2.28-2.45,4.03h0c0,1.89,1.14,3.52,2.78,4.21-1.77.62-3.04,2.3-3.05,4.29,0,1.33.57,2.53,1.47,3.36-.9.83-1.47,2.02-1.48,3.34,0,1.81,1.05,3.38,2.58,4.12l13.32,10.62,15.08.28,12.77-12.06h0c.65-.79,1.05-1.8,1.05-2.9h0c0-.95-.29-1.83-.78-2.56.55-.75.88-1.67.88-2.67h0c0-1.38-.61-2.61-1.57-3.45,1.06-.83,1.74-2.12,1.74-3.57h0c0-1.68-.9-3.14-2.24-3.94,1.38-.78,2.31-2.26,2.32-3.96h0c0-1.27-.51-2.42-1.34-3.24,1.16-.57,2.04-1.63,2.38-2.91h.6c2.52,0,4.57-2.03,4.58-4.55s-2.03-4.57-4.55-4.58Z" fill="#d8ceb8"/>
    </clipPath>
  </defs>
  <g>
    <path d="M103.17,6.77c-1.93-2.41-5.29-4.25-6.93-5.05-.63-.31-1.36-.32-2-.03-3.03,1.35-5.55,3.72-6.73,4.95-40.88,5.74-31.6,48.38-31.6,48.38,0,0,9.98,58.88,12.95,76.07,2.97,17.19,5.68,16.92,5.68,16.92l1.65,1.86,18.44,1.01,18.45-.9,1.66-1.85s2.71.29,5.78-16.88c3.07-17.18,13.38-76,13.38-76,0,0,10.27-42.08-30.73-48.47Z" fill="#ffef26"/>
    <g clip-path="url(#clippath)">
      <path d="M85.84,156.79S154.38,28.11,103.17,6.77c15.45-59.75,57.85-16.99,57.85-16.99l-3.07,106.08-16.64,60.85-55.47.1Z" fill="#ffdb2c"/>
      <path d="M87.5,6.63s5.18-.51,11.71-.16c0,0-4.98-1.12-13.59-.95-8.62.17,1.88,1.11,1.88,1.11Z" fill="#ffdb2c"/>
    </g>
  </g>
  <path d="M86.63,61.28c-2.6-3.63-5.8-5.62-9.09-5.13-6.91,1.03-11.54,12.6-10.33,25.86,1.21,13.25,7.8,23.17,14.71,22.14,1.68-.25,3.23-1.13,4.59-2.5,1.35,1.38,2.89,2.27,4.57,2.53,6.91,1.07,13.55-8.81,14.84-22.06,0,0,1.16-12.21-1.65-20.06" fill="#fff" stroke="#000" stroke-miterlimit="10" stroke-width="2.66"/>
  <ellipse cx="88.83" cy="78.93" rx="12.82" ry="5.6" transform="translate(2.74 160.85) rotate(-85.2)"/>
  <polygon points="84.78 57.46 83.49 65.44 84.78 71.73 87.41 72.76 92.97 71.7 99.17 68.76 103.82 63.15 106.82 59.19 95.72 58.61 84.78 57.46" fill="#ffef26"/>
  <path d="M83,150.83s-21.41-103.64-6.86-102.07c14.55,1.57,9.87,29.13,6.07,18.66-3.8-10.48,6.22-33.68,14.1-20.64,7.88,13.04,7.85,23,5.04,24.53-2.81,1.52-.93-30.9,14.11-23.45,15.04,7.45-17.92,104.12-17.92,104.12l-14.55-1.14Z" fill="none" stroke="#fff" stroke-miterlimit="10" stroke-width="2"/>
  <path d="M84.56,58.87c-2.15-2.06-4.56-3.08-7.02-2.71-6.91,1.03-11.54,12.6-10.33,25.86,1.21,13.25,7.8,23.17,14.71,22.14,1.68-.25,3.23-1.13,4.59-2.5,1.35,1.38,2.89,2.27,4.57,2.53,6.91,1.07,13.55-8.81,14.84-22.06,0,0,1.16-12.21-1.65-20.06" fill="none" stroke="#000" stroke-miterlimit="10" stroke-width="2.66"/>
  <polygon points="85.28 57.3 85.24 58.24 85.77 58.65 85.94 57.84 85.94 57.11 85.28 57.3" fill="#fff"/>
  <ellipse cx="85.84" cy="76.14" rx="3.43" ry="1.32" transform="translate(9.46 161.77) rotate(-89.84)" fill="#fff"/>
  <ellipse cx="79.11" cy="78.91" rx="5.6" ry="12.82" transform="translate(-5.91 6.4) rotate(-4.47)"/>
  <path d="M85.76,55.04s-4.48,6.11-2.71,15.81c.43,2.36,2.53,4.1,4.93,3.98,4.09-.21,10.58-2.12,15.91-10.84,6.12-10.02,13.11-6.93,13.11-6.93,0,0-7.32-6.41-15.03,4.76,0,0-5.65,9.25-13.01,10.1-1.86.21-3.57-1.05-3.84-2.9-.37-2.48-.54-6.85.64-13.96Z" fill="#feca2f"/>
  <ellipse cx="81.94" cy="16.24" rx="8.52" ry="4.02" transform="translate(-.09 32.04) rotate(-22.11)" fill="#fff8bb"/>
  <path d="M69.79,17.66s-1.68,6.76,6.24,5.7c0,0-14.38,7.36-16.04,28.81,0,0-3.7-23.56,9.8-34.5Z" fill="#fff8bb"/>
  <ellipse cx="82.17" cy="76.13" rx="3.43" ry="1.32" transform="translate(5.81 158.09) rotate(-89.84)" fill="#fff"/>
  <path d="M78.5,40.88s-9.02-4.7-13.27,3.64c0,0,1.16-18.93,13.27-3.64Z" fill="#432918"/>
  <path d="M101.09,54.8s-9.17,4.41-13.14-4.07c0,0,.54,18.96,13.14,4.07Z" fill="#432918"/>
  <g>
    <g>
      <path d="M118.75,146.99l-48.05-.14c-2.52,0-4.57,2.03-4.58,4.55s2.03,4.57,4.55,4.58h2.36c-.68.8-1.1,1.83-1.1,2.96,0,1.87,1.11,3.47,2.72,4.18-1.45.76-2.45,2.28-2.45,4.03h0c0,1.89,1.14,3.52,2.78,4.21-1.77.62-3.04,2.3-3.05,4.29,0,1.33.57,2.53,1.47,3.36-.9.83-1.47,2.02-1.48,3.34,0,1.81,1.05,3.38,2.58,4.12l13.32,10.62,15.08.28,12.77-12.06h0c.65-.79,1.05-1.8,1.05-2.9h0c0-.95-.29-1.83-.78-2.56.55-.75.88-1.67.88-2.67h0c0-1.38-.61-2.61-1.57-3.45,1.06-.83,1.74-2.12,1.74-3.57h0c0-1.68-.9-3.14-2.24-3.94,1.38-.78,2.31-2.26,2.32-3.96h0c0-1.27-.51-2.42-1.34-3.24,1.16-.57,2.04-1.63,2.38-2.91h.6c2.52,0,4.57-2.03,4.58-4.55s-2.03-4.57-4.55-4.58Z" fill="#d8ceb8"/>
      <g clip-path="url(#clippath-1)">
        <path d="M96.72,199.18l4.73-12.82s3.84-3.42.69-6.55c0,0,2.78-2.89.02-6.12,0,0,2.79-3.93.02-7.51,0,0,2.88-3.84.02-7.2,0,0,1.73-1.51,0-2.91,0,0,4.7-4.68.03-9.13-4.68-4.44,8.26-9.96,8.26-9.96l20.01,1.11.77,32.08-.56,27.29-24.07,11.8-9.93-10.08Z" fill="#c0bd9b"/>
        <path d="M79.8,146.79c-1.66,1.32-3.06,3.48-2.62,5.68.17,1.02.96,2.14,1.63,3.02-2.57,2.19-2.74,4.87-.45,7.43,0,0-.52.64-.52.64-2.03,2.58-2.14,5.48.6,7.64-.88,1.16-1.7,2.63-1.81,4.12-.18,1.59.7,2.6,1.75,3.64,0,0-.44.65-.44.65-1.22,1.66-1.47,4.5-.26,5.94,0,0,10.96,12.23,10.96,12.23l-.56.53-11.57-11.65c-2-2.27-1.73-5.68-.22-8.16,0,0,.15,1.29.15,1.29-2.69-2.35-2.02-6.43-.1-9.05,0,0,.11,1.32.11,1.32-2.93-2.54-2.52-7.04-.1-9.8,0,0-.04,1.26-.04,1.26-2.17-2.52-2-6.57.54-8.88,0,0-.03,1.46-.03,1.46-1.85-1.34-3.17-3.7-3.14-6.09,0-2.49.86-4.77,2.26-6.79,0,0,3.87,3.59,3.87,3.59h0Z" fill="#e3ddd2"/>
      </g>
    </g>
    <polygon points="103.36 157.03 88.4 156.5 88.4 156.47 103.37 156.03 103.36 157.03 103.36 157.03" fill="#c0bd9b"/>
    <polygon points="108.56 159.79 93.59 159.27 93.59 159.23 108.56 158.79 108.56 159.79 108.56 159.79" fill="#c0bd9b"/>
    <polygon points="103.33 167.17 88.37 166.64 88.37 166.61 103.34 166.17 103.33 167.17 103.33 167.17" fill="#c0bd9b"/>
    <polygon points="105.95 174.52 90.98 174 90.98 173.96 105.95 173.52 105.95 174.52 105.95 174.52" fill="#c0bd9b"/>
    <polygon points="103.3 180.81 88.33 180.28 88.33 180.25 103.3 179.81 103.3 180.81 103.3 180.81" fill="#c0bd9b"/>
  </g>
  <path d="M105.25,151.08s.73,2.52-1.43,5.07c0,0,1.78,1.01.88,2.78,0,0,5.77,12.54,8.21,1.96s-7.66-9.81-7.66-9.81Z" fill="#a19f83"/>
  <ellipse cx="95.09" cy="217.01" rx="46.02" ry="8.07" fill="#c7c6c6" opacity=".5"/>
  <g>
    <path d="M117.25,102.53c-4.29-1.93-19.87-8.8-22.67-10.37-1.15-.65-2.03-.8-2.68-.75-.71.05-1.36.53-1.78,1.25-.7,1.19-2.18,3.79-3.22,5.96-1.4,2.93-3.05-.75-3.05-.75,0,0-1.95-3.7-3.57-5.17-1.33-1.21-3.22-.54-3.85-.26-.14.06-.26.13-.38.22-1.85,1.33-18.62,13.41-21.04,15.21-2.56,1.9-3.84,1.01-3.84,1.01l-21.62-8.55c-14.98-5.56-28.52,36.92-2.98,4.77,9.47,13.4,12.83,17.52,17.57,22.08,0,0,11.92,10.25,15.66,13.38.02.02.04.03.06.05,2.05,1.7,4.8,1.15,6.42-1.18,4.66-6.7,14.63-20.94,16.85-23.28s6.16-1.58,6.93-.71c.47.53,1.93,1.66,2.43,2.09,9.38,7.91,11.49,8.17,19.99,15.61l-6.96,15.44c-.43.96-.47,2.04-.1,3.03,1.31,3.48,4.86,11.52,9.66,11.32,6.13-.26-1.24-10.66-4.31-12.45l29.08-29.11c2.27-1.78,2.05-5.27-.42-6.76l-22.18-12.08Z" fill="#4c2f1d"/>
    <path d="M39.4,116.88s9.94,13.38,23.12,20.14c2.2-1.93,4.38-4.02,6.3-6.4,1.93-2.58,3.93-5.3,5.4-8.47-1.66,1.58-4.5,3.5-6.31,4.76-2.24,1.6-3.55,2.26-5.74,2.97,0,0-8.07-5.85-10.74-8.92.9,1.33,1.96,2.75,3.2,4.19,1.4,1.63,2.76,2.98,4,4.09-1.57-1.13-3.17-2.38-4.83-3.71-2.6-2.08-5.58-4.6-7.08-6.38.89,1.32,1.88,2.69,2.98,4.09,1.21,1.54,2.41,2.92,3.54,4.14-1.8-1.2-3.63-2.49-5.5-3.87-2.98-2.2-5.76-4.42-8.36-6.63Z" fill="#6c442f"/>
    <path d="M114.78,141.42s14.2-11.06,22.62-23.57c-1.93-2.2-4.94-3.75-7.31-5.68-2.58-1.94-6.77-4.07-9.94-5.56,1.57,1.66,3.49,4.51,4.74,6.32,1.59,2.24,2.25,3.56,2.95,5.74,0,0-5.87,8.06-8.95,10.72,1.33-.9,2.75-1.96,4.2-3.19,1.63-1.39,2.99-2.75,4.1-3.99-1.13,1.56-2.39,3.16-3.73,4.82-2.09,2.6-4.62,5.57-6.4,7.06,1.32-.89,2.7-1.87,4.1-2.97,1.55-1.21,2.92-2.4,4.15-3.53-1.21,1.79-2.5,3.62-3.88,5.49-2.21,2.97-4.44,5.75-6.65,8.34Z" fill="#6c442f"/>
    <path d="M88.27,101.75l3.41-6.54c.2-.37.57-.53.92-.39,2.62,1.07,13.55,5.6,17.76,8.58,0,0-10.61-3.42-12.43-3.49,0,0,6.33,2.47,7.15,2.94,0,0-8.11-1.99-9.32-2.19l2.48,1.11s-6-1.4-6.91-1.31c0,0-1.99-.08-3.06,1.28Z" fill="#2e1a09"/>
    <path d="M82.97,101.09l-3.96-6.02c-.23-.34-.62-.45-.94-.26-2.51,1.43-12.97,7.48-16.91,11.04,0,0,10.25-4.9,12.05-5.23,0,0-6.07,3.35-6.85,3.94,0,0,7.89-3.12,9.07-3.5l-2.37,1.46s5.84-2.24,6.75-2.28c0,0,1.97-.36,3.15.84Z" fill="#2e1a09"/>
  </g>
  <path d="M87.37,62.89s-1.01,4.98.91,5.6,6.13-.96,7.99-4.26c0,0-7.47,4.93-8.9-1.34Z" fill="#feca2f"/>
  <circle cx="36.37" cy="68.05" r="5.43" fill="#d93415"/>
  <path d="M25.5,63.75l9.66-5.5-8.82-9.52s12.6-7.43,2.91-18.46c-14.56-15.83-31.15-.33-28.01,12.01l10.02-.73s-5.33-19.17,11.18-8.16c15.1,10.07-4.61,13.9-4.61,13.9l7.67,16.46Z" fill="#d93415"/>
  <circle cx="45.78" cy="52.42" r="3.19" fill="#d93415"/>
  <path d="M40.51,48.03l6.39-1.3-3.17-6.92s8.38-1.84,5-9.75c-5.22-11.48-17.3-5.88-17.81,1.57l5.72,1.43s.54-11.66,7.73-2.51c6.57,8.37-5.11,6.9-5.11,6.9l1.27,10.58Z" fill="#d93415"/>
</svg>