<?xml version="1.0" encoding="UTF-8"?>
<svg id="base" xmlns="http://www.w3.org/2000/svg" xmlns:xlink="http://www.w3.org/1999/xlink" viewBox="0 0 178.21 198.13">
  <defs>
    <clipPath id="clippath">
      <path d="M96.92,8.12c-1.91-2.37-5.23-4.18-6.85-4.97-.62-.3-1.34-.31-1.98-.03-2.99,1.34-5.46,3.68-6.63,4.9-40.31,5.78-31.03,47.8-31.03,47.8,0,0,10.01,58.04,12.98,74.99,2.97,16.95,5.65,16.67,5.65,16.67l1.64,1.83,18.19.94,18.19-.94,1.64-1.83s2.68.28,5.65-16.67c2.97-16.95,12.98-74.99,12.98-74.99,0,0,10.01-41.53-30.44-47.71Z" fill="#feec31"/>
    </clipPath>
    <clipPath id="clippath-1">
      <path d="M112.68,146.37h-47.39c-2.49,0-4.5,2.01-4.5,4.5s2.01,4.5,4.5,4.5h2.33c-.67.79-1.08,1.8-1.08,2.92,0,1.84,1.11,3.42,2.69,4.12-1.43.75-2.41,2.25-2.41,3.98h0c0,1.87,1.14,3.47,2.76,4.15-1.74.62-2.99,2.28-2.99,4.24,0,1.31.57,2.49,1.46,3.31-.89.82-1.45,1.99-1.45,3.3,0,1.79,1.05,3.33,2.56,4.05l13.17,10.44,14.87.23,12.56-11.93h0c.64-.78,1.03-1.78,1.03-2.87h0c0-.94-.29-1.81-.78-2.53.54-.74.86-1.65.86-2.64h0c0-1.36-.61-2.58-1.56-3.4,1.04-.82,1.71-2.1,1.71-3.53h0c0-1.65-.89-3.1-2.22-3.88,1.36-.77,2.27-2.23,2.27-3.91h0c0-1.25-.51-2.38-1.33-3.2,1.14-.57,2.01-1.61,2.34-2.87h.59c2.49,0,4.5-2.01,4.5-4.5s-2.01-4.5-4.5-4.5Z" fill="#d7ceb6"/>
    </clipPath>
  </defs>
  <g>
    <path d="M96.92,8.12c-1.91-2.37-5.23-4.18-6.85-4.97-.62-.3-1.34-.31-1.98-.03-2.99,1.34-5.46,3.68-6.63,4.9-40.31,5.78-31.03,47.8-31.03,47.8,0,0,10.01,58.04,12.98,74.99,2.97,16.95,5.65,16.67,5.65,16.67l1.64,1.83,18.19.94,18.19-.94,1.64-1.83s2.68.28,5.65-16.67c2.97-16.95,12.98-74.99,12.98-74.99,0,0,10.01-41.53-30.44-47.71Z" fill="#feec31"/>
    <g clip-path="url(#clippath)">
      <path d="M80.26,156.14S147.49,29.03,96.92,8.12c15.07-58.98,57.01-16.92,57.01-16.92l-2.73,104.63-16.24,60.06-54.71.25Z" fill="#ffdb2a"/>
      <path d="M81.47,8.03s5.1-.52,11.55-.19c0,0-4.91-1.09-13.41-.9-8.5.19,1.86,1.09,1.86,1.09Z" fill="#ffdb2a"/>
    </g>
  </g>
  <path d="M77.44,150.27s-21.4-102.16-7.05-100.65c14.35,1.51,9.82,28.71,6.04,18.38-3.78-10.32,6.04-33.24,13.85-20.4,7.81,12.84,7.81,22.66,5.04,24.17s-1.01-30.47,13.85-23.17c14.86,7.3-17.38,102.74-17.38,102.74l-14.35-1.09Z" fill="none" stroke="#fff" stroke-miterlimit="10" stroke-width="1.97"/>
  <path d="M101.26,56.9c-4.1-.49-8.12,1.46-11.38,5.03-3.26-3.58-7.27-5.52-11.38-5.03-8.64,1.03-14.38,12.46-12.82,25.53,1.56,13.07,9.83,22.83,18.47,21.8,2.1-.25,4.03-1.12,5.72-2.48,1.69,1.36,3.62,2.23,5.72,2.48,8.64,1.03,16.91-8.73,18.47-21.8,1.56-13.07-4.18-24.5-12.82-25.53Z" fill="#fff" stroke="#010101" stroke-miterlimit="10" stroke-width="2.96"/>
  <ellipse cx="83.94" cy="85.46" rx="6.99" ry="12.68" transform="translate(-9.56 10.58) rotate(-6.83)" fill="#010101"/>
  <ellipse cx="96.09" cy="85.46" rx="12.68" ry="6.99" transform="translate(-.19 170.71) rotate(-83.17)" fill="#010101"/>
  <path d="M6.52,95.17c-2.19-2.52-10.2-11.68,3.68-4.71l36.71,18.5s1.59.87,4.77-1.01c3-1.77,23.8-13.74,26.1-15.06.15-.09.31-.16.48-.22.79-.28,3.13-.94,4.79.25,2.02,1.45,4.46,5.09,4.46,5.09,0,0,2.06,3.62,3.79.73,1.29-2.14,3.12-4.7,3.98-5.88.52-.72,1.33-1.19,2.21-1.24.8-.05,1.9.1,3.33.73,3.48,1.54,22.93,8.46,28.27,10.36.86.31,1.81.21,2.59-.27l40.73-24.69c1.14-.59,4.29-1.61,3.12,1.45-1.66,4.32-25.29,35-26.67,36.9-.05.06-.09.12-.14.18-.83.97-8.32,9.73-10.91,12.05-2.75,2.46-11.13,11.85-11.13,11.85,0,0-1.92,1.87-5.06-.87-3.53-3.08-23.29-17.26-27.49-21.79-.49-.52-1.02-.89-1.6-1.41-.96-.85-3.16-2.34-5.87-.06-2.75,2.31-15.09,16.38-20.86,23-2.01,2.3-5.41,2.85-7.97,1.18-.02-.02-.05-.03-.07-.05-4.66-3.07-19.51-13.15-19.51-13.15-8.37-5.75-19.91-18.66-31.72-31.85Z" fill="#4c2f1d"/>
  <ellipse cx="76.01" cy="17.53" rx="8.4" ry="3.97" transform="translate(-.97 30.12) rotate(-22.28)" fill="#fff7bb"/>
  <path d="M64.04,18.96s-1.64,6.67,6.17,5.6c0,0-14.16,7.3-15.74,28.45,0,0-3.71-23.23,9.57-34.06Z" fill="#fff7bb"/>
  <ellipse cx="87.76" cy="82.72" rx="1.65" ry="3.38" fill="#fff"/>
  <ellipse cx="92.34" cy="82.72" rx="1.65" ry="3.38" fill="#fff"/>
  <path d="M81.24,41.53s-10.33-5.85-17.06,1.7c0,0,4.79-18.32,17.06-1.7Z" fill="#422a19"/>
  <path d="M96.66,41.53s10.33-5.85,17.06,1.7c0,0-4.79-18.32-17.06-1.7Z" fill="#422a19"/>
  <g>
    <g>
      <path d="M112.68,146.37h-47.39c-2.49,0-4.5,2.01-4.5,4.5s2.01,4.5,4.5,4.5h2.33c-.67.79-1.08,1.8-1.08,2.92,0,1.84,1.11,3.42,2.69,4.12-1.43.75-2.41,2.25-2.41,3.98h0c0,1.87,1.14,3.47,2.76,4.15-1.74.62-2.99,2.28-2.99,4.24,0,1.31.57,2.49,1.46,3.31-.89.82-1.45,1.99-1.45,3.3,0,1.79,1.05,3.33,2.56,4.05l13.17,10.44,14.87.23,12.56-11.93h0c.64-.78,1.03-1.78,1.03-2.87h0c0-.94-.29-1.81-.78-2.53.54-.74.86-1.65.86-2.64h0c0-1.36-.61-2.58-1.56-3.4,1.04-.82,1.71-2.1,1.71-3.53h0c0-1.65-.89-3.1-2.22-3.88,1.36-.77,2.27-2.23,2.27-3.91h0c0-1.25-.51-2.38-1.33-3.2,1.14-.57,2.01-1.61,2.34-2.87h.59c2.49,0,4.5-2.01,4.5-4.5s-2.01-4.5-4.5-4.5Z" fill="#d7ceb6"/>
      <g clip-path="url(#clippath-1)">
        <path d="M91.11,197.91l4.63-12.65s3.78-3.38.66-6.46c0,0,2.74-2.86,0-6.04,0,0,2.74-3.89,0-7.4,0,0,2.83-3.8,0-7.1,0,0,1.7-1.49,0-2.87,0,0,4.63-4.63,0-9-4.63-4.37,8.12-9.85,8.12-9.85l19.74,1.04.85,31.63-.47,26.91-23.7,11.71-9.82-9.92Z" fill="#bfbc9b"/>
        <path d="M74.28,146.29c-1.63,1.31-3.01,3.44-2.57,5.61.17,1.01.96,2.11,1.62,2.97-2.53,2.16-2.69,4.81-.43,7.33,0,0-.51.63-.51.63-1.99,2.55-2.09,5.41.61,7.53-.87,1.15-1.67,2.6-1.78,4.07-.17,1.57.7,2.56,1.74,3.59,0,0-.43.64-.43.64-1.2,1.64-1.44,4.44-.24,5.86,0,0,10.84,12.03,10.84,12.03,0,0-.55.52-.55.52l-11.45-11.45c-1.97-2.23-1.72-5.6-.24-8.05,0,0,.15,1.27.15,1.27-2.66-2.31-2.02-6.33-.12-8.93,0,0,.11,1.3.11,1.3-2.9-2.5-2.5-6.94-.13-9.67,0,0-.03,1.25-.03,1.25-2.15-2.48-1.99-6.47.51-8.76,0,0-.03,1.44-.03,1.44-1.83-1.32-3.14-3.64-3.11-6,0-2.46.83-4.71,2.21-6.7,0,0,3.83,3.53,3.83,3.53h0Z" fill="#e4ded2"/>
      </g>
    </g>
    <polygon points="97.54 156.31 82.78 155.84 82.78 155.81 97.54 155.33 97.54 156.31 97.54 156.31" fill="#bfbc9b"/>
    <polygon points="102.67 159.03 87.91 158.55 87.91 158.52 102.67 158.04 102.67 159.03 102.67 159.03" fill="#bfbc9b"/>
    <polygon points="97.54 166.32 82.78 165.84 82.78 165.81 97.54 165.33 97.54 166.32 97.54 166.32" fill="#bfbc9b"/>
    <polygon points="100.14 173.56 85.38 173.09 85.38 173.05 100.14 172.58 100.14 173.56 100.14 173.56" fill="#bfbc9b"/>
    <polygon points="97.54 179.77 82.78 179.3 82.78 179.26 97.54 178.79 97.54 179.77 97.54 179.77" fill="#bfbc9b"/>
  </g>
  <path d="M32.33,116.88s12.4,13.17,28.81,19.8c2.72-1.91,5.43-3.98,7.81-6.33,2.39-2.55,4.86-5.24,6.69-8.37-2.06,1.56-5.58,3.47-7.83,4.71-2.78,1.58-4.4,2.24-7.12,2.94,0,0-10.05-5.75-13.38-8.76,1.13,1.31,2.45,2.71,4,4.12,1.74,1.6,3.44,2.93,4.99,4.02-1.95-1.11-3.95-2.34-6.02-3.65-3.24-2.04-6.95-4.52-8.82-6.27,1.11,1.3,2.35,2.65,3.72,4.02,1.51,1.52,3,2.87,4.42,4.07-2.24-1.18-4.52-2.45-6.85-3.8-3.71-2.16-7.18-4.35-10.41-6.52Z" fill="#6d4530"/>
  <path d="M96.66,116.03s12.4,13.17,28.81,19.8c2.72-1.91,5.43-3.98,7.81-6.33,2.39-2.55,4.86-5.24,6.69-8.37-2.06,1.56-5.58,3.47-7.83,4.71-2.78,1.58-4.4,2.24-7.12,2.94,0,0-10.05-5.75-13.38-8.76,1.13,1.31,2.45,2.71,4,4.12,1.74,1.6,3.44,2.93,4.99,4.02-1.95-1.11-3.95-2.34-6.02-3.65-3.24-2.04-6.95-4.52-8.82-6.27,1.11,1.3,2.35,2.65,3.72,4.02,1.51,1.52,3,2.87,4.42,4.07-2.24-1.18-4.52-2.45-6.85-3.8-3.71-2.16-7.18-4.35-10.41-6.52Z" fill="#6d4530"/>
  <path d="M93.02,101.82l4.22-6.46c.25-.37.71-.53,1.14-.39,3.26,1.05,16.85,5.48,22.11,8.41,0,0-13.2-3.34-15.46-3.4,0,0,7.87,2.41,8.9,2.88,0,0-10.09-1.94-11.59-2.14l3.09,1.09s-7.46-1.36-8.59-1.27c0,0-2.47-.07-3.8,1.27Z" fill="#2c1c11"/>
  <path d="M86.43,101.19l-4.95-5.92c-.29-.33-.77-.44-1.17-.25-3.12,1.42-16.1,7.41-20.97,10.94,0,0,12.72-4.86,14.96-5.19,0,0-7.53,3.32-8.5,3.9,0,0,9.79-3.1,11.26-3.48l-2.94,1.44s7.25-2.23,8.39-2.26c0,0,2.45-.36,3.92.82Z" fill="#2c1c11"/>
</svg>