<?xml version="1.0" encoding="UTF-8"?>
<svg id="expression_1" data-name="expression 1" xmlns="http://www.w3.org/2000/svg" xmlns:xlink="http://www.w3.org/1999/xlink" viewBox="0 0 176.7 198.13">
  <defs>
    <clipPath id="clippath">
      <path d="M96.03,8.12c-1.91-2.37-5.22-4.18-6.85-4.96-.62-.3-1.34-.31-1.98-.03-2.99,1.34-5.46,3.68-6.63,4.9-40.29,5.77-31.02,47.79-31.02,47.79,0,0,10.01,58.03,12.98,74.97,2.97,16.94,5.65,16.66,5.65,16.66l1.64,1.83,18.19.94,18.19-.94,1.64-1.83s2.67.28,5.65-16.66c2.97-16.94,12.98-74.97,12.98-74.97,0,0,10.01-41.52-30.43-47.7Z" fill="#ffef26"/>
    </clipPath>
    <clipPath id="clippath-1">
      <path d="M111.79,146.33h-47.37c-2.48,0-4.5,2.01-4.5,4.5s2.01,4.5,4.5,4.5h2.33c-.67.79-1.08,1.8-1.08,2.92,0,1.84,1.11,3.42,2.69,4.12-1.43.75-2.41,2.25-2.41,3.98h0c0,1.87,1.14,3.47,2.75,4.15-1.74.62-2.99,2.28-2.99,4.24,0,1.31.56,2.49,1.46,3.31-.89.82-1.45,1.99-1.45,3.3,0,1.79,1.05,3.33,2.56,4.05l13.17,10.44,14.87.23,12.56-11.93h0c.64-.78,1.03-1.78,1.03-2.86h0c0-.94-.29-1.81-.78-2.52.54-.74.86-1.65.86-2.64h0c0-1.36-.61-2.57-1.56-3.4,1.04-.82,1.71-2.1,1.71-3.52h0c0-1.65-.89-3.09-2.22-3.88,1.36-.77,2.27-2.23,2.27-3.91h0c0-1.25-.51-2.38-1.33-3.2,1.14-.57,2.01-1.61,2.34-2.87h.59c2.48,0,4.5-2.01,4.5-4.5s-2.01-4.5-4.5-4.5Z" fill="#d8ceb8"/>
    </clipPath>
  </defs>
  <g>
    <g>
      <path d="M96.03,8.12c-1.91-2.37-5.22-4.18-6.85-4.96-.62-.3-1.34-.31-1.98-.03-2.99,1.34-5.46,3.68-6.63,4.9-40.29,5.77-31.02,47.79-31.02,47.79,0,0,10.01,58.03,12.98,74.97,2.97,16.94,5.65,16.66,5.65,16.66l1.64,1.83,18.19.94,18.19-.94,1.64-1.83s2.67.28,5.65-16.66c2.97-16.94,12.98-74.97,12.98-74.97,0,0,10.01-41.52-30.43-47.7Z" fill="#ffef26"/>
      <g clip-path="url(#clippath)">
        <path d="M79.37,156.09S146.59,29.02,96.03,8.12c15.06-58.96,56.99-16.92,56.99-16.92l-2.72,104.6-16.24,60.04-54.69.25Z" fill="#ffdb2c"/>
        <path d="M80.58,8.03s5.1-.52,11.55-.19c0,0-4.91-1.09-13.4-.9-8.5.19,1.86,1.09,1.86,1.09Z" fill="#ffdb2c"/>
      </g>
    </g>
    <path d="M76.56,150.22s-21.4-102.13-7.05-100.62c14.35,1.51,9.82,28.7,6.04,18.38s6.04-33.23,13.85-20.39c7.8,12.84,7.8,22.66,5.03,24.17-2.77,1.51-1.01-30.46,13.85-23.16,14.85,7.3-17.37,102.71-17.37,102.71l-14.35-1.09Z" fill="none" stroke="#fff" stroke-miterlimit="10" stroke-width="1.97"/>
    <path d="M5.66,95.14c-2.18-2.52-10.2-11.68,3.68-4.71l36.7,18.5s1.59.87,4.77-1.01c3-1.77,23.8-13.73,26.09-15.05.15-.09.31-.16.48-.22.79-.28,3.13-.94,4.79.25,2.02,1.44,4.46,5.09,4.46,5.09,0,0,2.06,3.62,3.79.73,1.29-2.14,3.12-4.7,3.98-5.88.52-.72,1.33-1.19,2.21-1.24.8-.05,1.9.1,3.33.73,3.48,1.54,22.92,8.46,28.26,10.35.86.31,1.81.21,2.59-.27l40.72-24.68c1.14-.59,4.29-1.61,3.12,1.45-1.66,4.32-25.28,34.99-26.66,36.89-.05.06-.09.12-.14.18-.83.97-8.31,9.73-10.91,12.05-2.74,2.46-11.12,11.85-11.12,11.85,0,0-1.92,1.87-5.06-.87-3.53-3.08-23.29-17.26-27.49-21.78-.49-.52-1.02-.89-1.6-1.41-.96-.85-3.16-2.34-5.87-.06-2.74,2.31-15.08,16.37-20.85,23-2,2.3-5.41,2.85-7.97,1.18-.02-.02-.05-.03-.07-.05-4.65-3.07-19.5-13.15-19.5-13.15-8.37-5.75-19.9-18.66-31.71-31.84Z" fill="#4c2f1d"/>
    <ellipse cx="75.13" cy="17.52" rx="8.4" ry="3.96" transform="translate(-1.03 29.79) rotate(-22.28)" fill="#fff8bb"/>
    <path d="M63.15,18.96s-1.64,6.67,6.17,5.6c0,0-14.16,7.3-15.73,28.45,0,0-3.71-23.22,9.57-34.05Z" fill="#fff8bb"/>
    <path d="M105.85,28.55s11.81-1.22,14.94,8.4c0,0,2.96-18.7-14.94-8.4Z" fill="#432918"/>
    <path d="M70.88,28.55s-11.81-1.22-14.94,8.4c0,0-2.96-18.7,14.94-8.4Z" fill="#432918"/>
    <g>
      <g>
        <path d="M111.79,146.33h-47.37c-2.48,0-4.5,2.01-4.5,4.5s2.01,4.5,4.5,4.5h2.33c-.67.79-1.08,1.8-1.08,2.92,0,1.84,1.11,3.42,2.69,4.12-1.43.75-2.41,2.25-2.41,3.98h0c0,1.87,1.14,3.47,2.75,4.15-1.74.62-2.99,2.28-2.99,4.24,0,1.31.56,2.49,1.46,3.31-.89.82-1.45,1.99-1.45,3.3,0,1.79,1.05,3.33,2.56,4.05l13.17,10.44,14.87.23,12.56-11.93h0c.64-.78,1.03-1.78,1.03-2.86h0c0-.94-.29-1.81-.78-2.52.54-.74.86-1.65.86-2.64h0c0-1.36-.61-2.57-1.56-3.4,1.04-.82,1.71-2.1,1.71-3.52h0c0-1.65-.89-3.09-2.22-3.88,1.36-.77,2.27-2.23,2.27-3.91h0c0-1.25-.51-2.38-1.33-3.2,1.14-.57,2.01-1.61,2.34-2.87h.59c2.48,0,4.5-2.01,4.5-4.5s-2.01-4.5-4.5-4.5Z" fill="#d8ceb8"/>
        <g clip-path="url(#clippath-1)">
          <path d="M90.22,197.85l4.63-12.65s3.78-3.38.66-6.46c0,0,2.74-2.86,0-6.04,0,0,2.74-3.88,0-7.4,0,0,2.83-3.8,0-7.1,0,0,1.7-1.49,0-2.87,0,0,4.63-4.63,0-9-4.63-4.37,8.12-9.84,8.12-9.84l19.73,1.04.85,31.62-.47,26.9-23.69,11.71-9.82-9.91Z" fill="#c0bd9b"/>
          <path d="M73.39,146.24c-1.63,1.31-3.01,3.44-2.57,5.61.17,1.01.95,2.11,1.62,2.97-2.53,2.16-2.68,4.81-.43,7.32,0,0-.51.63-.51.63-1.99,2.55-2.09,5.41.61,7.53-.87,1.15-1.67,2.6-1.78,4.07-.17,1.57.7,2.56,1.74,3.59,0,0-.43.64-.43.64-1.19,1.64-1.44,4.44-.24,5.86,0,0,10.84,12.02,10.84,12.02l-.55.52s-11.44-11.45-11.44-11.45c-1.97-2.23-1.72-5.6-.24-8.05,0,0,.15,1.27.15,1.27-2.66-2.31-2.01-6.33-.12-8.92,0,0,.11,1.3.11,1.3-2.9-2.49-2.5-6.93-.13-9.66,0,0-.03,1.25-.03,1.25-2.15-2.48-1.99-6.47.51-8.76,0,0-.03,1.43-.03,1.43-1.83-1.32-3.14-3.64-3.11-5.99,0-2.46.83-4.7,2.21-6.7,0,0,3.83,3.53,3.83,3.53h0Z" fill="#e3ddd2"/>
        </g>
      </g>
      <polygon points="96.65 156.27 81.89 155.79 81.89 155.76 96.65 155.28 96.65 156.27 96.65 156.27" fill="#c0bd9b"/>
      <polygon points="101.78 158.98 87.02 158.5 87.02 158.47 101.78 158 101.78 158.98 101.78 158.98" fill="#c0bd9b"/>
      <polygon points="96.65 166.27 81.89 165.79 81.89 165.76 96.65 165.28 96.65 166.27 96.65 166.27" fill="#c0bd9b"/>
      <polygon points="99.25 173.51 84.49 173.03 84.49 173 99.25 172.53 99.25 173.51 99.25 173.51" fill="#c0bd9b"/>
      <polygon points="96.65 179.72 81.89 179.24 81.89 179.21 96.65 178.73 96.65 179.72 96.65 179.72" fill="#c0bd9b"/>
    </g>
    <path d="M31.46,116.85s12.39,13.17,28.8,19.8c2.72-1.91,5.42-3.98,7.81-6.32,2.39-2.55,4.86-5.23,6.68-8.37-2.06,1.56-5.58,3.47-7.82,4.71-2.78,1.58-4.4,2.24-7.12,2.94,0,0-10.05-5.74-13.38-8.76,1.13,1.31,2.45,2.7,3.99,4.12,1.74,1.6,3.44,2.93,4.99,4.02-1.95-1.11-3.94-2.34-6.02-3.65-3.24-2.04-6.95-4.52-8.82-6.27,1.11,1.3,2.35,2.65,3.72,4.02,1.51,1.52,3,2.87,4.42,4.07-2.23-1.18-4.52-2.45-6.84-3.8-3.71-2.16-7.18-4.34-10.41-6.51Z" fill="#6c442f"/>
    <path d="M95.77,116s12.39,13.17,28.8,19.8c2.72-1.91,5.42-3.98,7.81-6.32,2.39-2.55,4.86-5.23,6.68-8.37-2.06,1.56-5.58,3.47-7.82,4.71-2.78,1.58-4.4,2.24-7.12,2.94,0,0-10.05-5.74-13.38-8.76,1.13,1.31,2.45,2.7,3.99,4.12,1.74,1.6,3.44,2.93,4.99,4.02-1.95-1.11-3.94-2.34-6.02-3.65-3.24-2.04-6.95-4.52-8.82-6.27,1.11,1.3,2.35,2.65,3.72,4.02,1.51,1.52,3,2.87,4.42,4.07-2.23-1.18-4.52-2.45-6.84-3.8-3.71-2.16-7.18-4.34-10.41-6.51Z" fill="#6c442f"/>
    <path d="M92.13,101.79l4.22-6.46c.25-.37.71-.53,1.14-.39,3.26,1.05,16.85,5.48,22.1,8.41,0,0-13.19-3.34-15.46-3.4,0,0,7.87,2.41,8.89,2.88,0,0-10.08-1.94-11.59-2.14l3.09,1.09s-7.46-1.36-8.59-1.27c0,0-2.47-.07-3.79,1.27Z" fill="#2e1a09"/>
    <path d="M85.54,101.16l-4.94-5.92c-.29-.33-.77-.44-1.17-.25-3.12,1.42-16.09,7.41-20.97,10.93,0,0,12.71-4.86,14.96-5.19,0,0-7.53,3.32-8.5,3.9,0,0,9.79-3.1,11.26-3.47l-2.94,1.44s7.25-2.23,8.38-2.26c0,0,2.45-.36,3.92.82Z" fill="#2e1a09"/>
  </g>
  <polygon points="136.8 68.57 141.83 71.52 166.3 40.77 151.22 26.85 136.8 68.57" fill="#d93415"/>
  <circle cx="134.41" cy="78.47" r="6.07" fill="#d93415"/>
  <path d="M114,83.27l-7.22-8.95c-.55-.68-1.54-.75-2.18-.17l-12.53,11.4,11.64-17.14c.63-.93,2.02-.87,2.56.12l7.72,14.74"/>
  <path d="M63.32,83.27l7.22-8.95c.55-.68,1.54-.75,2.18-.17l12.53,11.4-11.64-17.14c-.63-.93-2.02-.87-2.56.12l-7.72,14.74"/>
</svg>