<?xml version="1.0" encoding="UTF-8"?>
<svg id="expression_1" data-name="expression 1" xmlns="http://www.w3.org/2000/svg" xmlns:xlink="http://www.w3.org/1999/xlink" viewBox="0 0 143.62 228.26">
  <defs>
    <clipPath id="clippath">
      <path d="M89.08,8.46c-1.93-2.42-5.28-4.26-6.92-5.07-.63-.31-1.36-.32-2-.04-3.04,1.34-5.56,3.71-6.74,4.94-40.9,5.65-31.7,48.31-31.7,48.31,0,0,9.86,58.9,12.79,76.1,2.93,17.2,5.64,16.93,5.64,16.93l1.65,1.86,18.44,1.05,18.45-.87,1.67-1.84s2.71.3,5.81-16.87c3.1-17.17,13.54-75.97,13.54-75.97,0,0,10.36-42.06-30.63-48.53Z" fill="#ffef26"/>
    </clipPath>
    <clipPath id="clippath-1">
      <path d="M104.37,148.72l-48.05-.24c-2.52-.01-4.57,2.02-4.59,4.54s2.02,4.57,4.54,4.59h2.36c-.68.8-1.1,1.83-1.11,2.96,0,1.87,1.11,3.48,2.71,4.19-1.46.76-2.45,2.27-2.46,4.03h0c0,1.89,1.13,3.52,2.77,4.22-1.77.62-3.05,2.3-3.06,4.28,0,1.33.56,2.53,1.46,3.37-.9.83-1.48,2.01-1.48,3.34,0,1.81,1.04,3.38,2.57,4.12l13.3,10.65,15.08.31,12.8-12.03h0c.66-.79,1.05-1.8,1.06-2.9h0c0-.95-.28-1.83-.77-2.56.55-.75.88-1.67.88-2.67h0c0-1.38-.6-2.61-1.56-3.46,1.06-.83,1.74-2.12,1.75-3.57h0c0-1.68-.89-3.14-2.23-3.94,1.38-.78,2.32-2.25,2.33-3.95h0c0-1.27-.51-2.42-1.34-3.25,1.16-.57,2.05-1.62,2.39-2.9h.6c2.52.02,4.57-2.02,4.59-4.54s-2.02-4.57-4.54-4.59Z" fill="#d8ceb8"/>
    </clipPath>
  </defs>
  <g>
    <path d="M89.08,8.46c-1.93-2.42-5.28-4.26-6.92-5.07-.63-.31-1.36-.32-2-.04-3.04,1.34-5.56,3.71-6.74,4.94-40.9,5.65-31.7,48.31-31.7,48.31,0,0,9.86,58.9,12.79,76.1,2.93,17.2,5.64,16.93,5.64,16.93l1.65,1.86,18.44,1.05,18.45-.87,1.67-1.84s2.71.3,5.81-16.87c3.1-17.17,13.54-75.97,13.54-75.97,0,0,10.36-42.06-30.63-48.53Z" fill="#ffef26"/>
    <g clip-path="url(#clippath)">
      <path d="M71.44,158.45S140.25,29.91,89.08,8.46c15.57-59.72,57.89-16.87,57.89-16.87l-3.29,106.07-16.77,60.81-55.47-.02Z" fill="#ffdb2c"/>
      <path d="M73.41,8.29s5.18-.5,11.71-.14c0,0-4.97-1.13-13.59-.98s1.88,1.11,1.88,1.11Z" fill="#ffdb2c"/>
    </g>
  </g>
  <path d="M53.45,73.49c-.45,3.14-.56,6.58-.24,10.14,1.18,13.26,7.75,23.18,14.67,22.17,1.68-.25,3.23-1.12,4.59-2.49,1.35,1.38,2.89,2.27,4.57,2.53,6.91,1.08,13.57-8.78,14.88-22.03.33-3.3.29-6.51-.05-9.47-16.2,3.18-30.98.84-38.41-.86Z" fill="#fff" stroke="#000" stroke-miterlimit="10" stroke-width="2.66"/>
  <ellipse cx="82.36" cy="86.82" rx="12.82" ry="5.6" transform="translate(-11.2 161.44) rotate(-85.08)"/>
  <polygon points="51.47 71.41 52.14 74.2 60.79 76.14 74.86 77.51 88.06 75.98 95.19 74.35 96.43 70.68 88.06 71.45 70.62 73.2 54.5 72.12 51.47 71.41" fill="#ffef26"/>
  <path d="M68.62,152.48s-21.19-103.69-6.64-102.08c14.55,1.6,9.81,29.16,6.04,18.67s6.29-33.67,14.14-20.61c7.85,13.06,7.8,23.02,4.98,24.54-2.82,1.52-.87-30.9,14.16-23.42,15.03,7.48-18.13,104.08-18.13,104.08l-14.55-1.17Z" fill="none" stroke="#fff" stroke-miterlimit="10" stroke-width="2"/>
  <path d="M78.2,85.96c-.41-4.61-1.84-8.47-3.63-10.49l-5.17-.11c-1.8,2.25-2.78,6.96-2.31,12.22.63,7.05,3.63,12.4,6.7,11.95s5.04-6.53,4.41-13.58Z"/>
  <ellipse cx="67.83" cy="17.89" rx="8.52" ry="4.02" transform="translate(-1.76 26.7) rotate(-21.99)" fill="#fff8bb"/>
  <path d="M67.69,19.29s-1.69,6.76,6.23,5.71c0,0-14.4,7.33-16.1,28.77,0,0-3.65-23.57,9.87-34.48Z" fill="#fff8bb"/>
  <ellipse cx="75.71" cy="84.01" rx="3.43" ry="1.32" transform="translate(-8.67 159.3) rotate(-89.72)" fill="#fff"/>
  <ellipse cx="79.38" cy="84.02" rx="3.43" ry="1.32" transform="translate(-5.03 162.99) rotate(-89.72)" fill="#fff"/>
  <path d="M67.32,59.68s-6.34-7.96-13.61-2.05c0,0,8.73-16.84,13.61,2.05Z" fill="#432918"/>
  <path d="M80.66,60s5.44-8.6,13.3-3.51c0,0-10.51-15.79-13.3,3.51Z" fill="#432918"/>
  <g>
    <g>
      <path d="M104.37,148.72l-48.05-.24c-2.52-.01-4.57,2.02-4.59,4.54s2.02,4.57,4.54,4.59h2.36c-.68.8-1.1,1.83-1.11,2.96,0,1.87,1.11,3.48,2.71,4.19-1.46.76-2.45,2.27-2.46,4.03h0c0,1.89,1.13,3.52,2.77,4.22-1.77.62-3.05,2.3-3.06,4.28,0,1.33.56,2.53,1.46,3.37-.9.83-1.48,2.01-1.48,3.34,0,1.81,1.04,3.38,2.57,4.12l13.3,10.65,15.08.31,12.8-12.03h0c.66-.79,1.05-1.8,1.06-2.9h0c0-.95-.28-1.83-.77-2.56.55-.75.88-1.67.88-2.67h0c0-1.38-.6-2.61-1.56-3.46,1.06-.83,1.74-2.12,1.75-3.57h0c0-1.68-.89-3.14-2.23-3.94,1.38-.78,2.32-2.25,2.33-3.95h0c0-1.27-.51-2.42-1.34-3.25,1.16-.57,2.05-1.62,2.39-2.9h.6c2.52.02,4.57-2.02,4.59-4.54s-2.02-4.57-4.54-4.59Z" fill="#d8ceb8"/>
      <g clip-path="url(#clippath-1)">
        <path d="M82.23,200.86l4.75-12.81s3.85-3.41.7-6.55c0,0,2.79-2.89.03-6.12,0,0,2.8-3.93.04-7.51,0,0,2.89-3.84.04-7.2,0,0,1.73-1.51.01-2.91,0,0,4.71-4.67.05-9.13-4.67-4.45,8.28-9.94,8.28-9.94l20.01,1.15.7,32.08-.61,27.28-24.09,11.75-9.91-10.1Z" fill="#c0bd9b"/>
        <path d="M65.42,148.43c-1.66,1.32-3.07,3.48-2.63,5.68.17,1.02.96,2.15,1.62,3.02-2.57,2.18-2.75,4.86-.47,7.43,0,0-.52.64-.52.64-2.03,2.57-2.15,5.48.58,7.64-.88,1.16-1.71,2.63-1.82,4.12-.18,1.59.7,2.6,1.74,3.65,0,0-.44.65-.44.65-1.22,1.66-1.48,4.5-.28,5.94,0,0,10.93,12.25,10.93,12.25l-.56.52-11.55-11.67c-1.99-2.27-1.72-5.69-.21-8.16,0,0,.15,1.29.15,1.29-2.68-2.36-2.01-6.43-.08-9.05,0,0,.11,1.32.11,1.32-2.92-2.54-2.5-7.05-.08-9.8,0,0-.04,1.26-.04,1.26-2.17-2.53-1.99-6.57.56-8.88,0,0-.03,1.46-.03,1.46-1.85-1.34-3.16-3.71-3.12-6.09.01-2.49.87-4.77,2.28-6.79,0,0,3.87,3.6,3.87,3.6h0Z" fill="#e3ddd2"/>
      </g>
    </g>
    <polygon points="88.96 158.72 74 158.16 74 158.13 88.97 157.72 88.96 158.72 88.96 158.72" fill="#c0bd9b"/>
    <polygon points="94.15 161.5 79.19 160.94 79.19 160.91 94.16 160.5 94.15 161.5 94.15 161.5" fill="#c0bd9b"/>
    <polygon points="88.91 168.86 73.95 168.3 73.95 168.27 88.92 167.86 88.91 168.86 88.91 168.86" fill="#c0bd9b"/>
    <polygon points="91.51 176.22 76.54 175.66 76.54 175.63 91.51 175.22 91.51 176.22 91.51 176.22" fill="#c0bd9b"/>
    <polygon points="88.85 182.5 73.88 181.94 73.88 181.91 88.85 181.5 88.85 182.5 88.85 182.5" fill="#c0bd9b"/>
  </g>
  <ellipse cx="79.8" cy="218.68" rx="46.02" ry="8.07" fill="#c7c6c6" opacity=".5"/>
  <g>
    <path d="M5.43,96.32c-1.75-2.57-8.15-11.89,2.99-4.76l29.44,18.91s1.27.89,3.84-1.01c2.43-1.79,19.22-13.83,21.07-15.16.12-.09.25-.16.38-.22.63-.28,2.52-.94,3.85.27,1.62,1.47,3.56,5.18,3.56,5.18,0,0,1.64,3.68,3.05.75,1.05-2.17,2.53-4.76,3.23-5.95.42-.72,1.07-1.2,1.79-1.25.65-.05,1.53.11,2.68.76,2.79,1.58,18.41,8.67,22.69,10.61.69.31,1.45.22,2.09-.26l32.89-24.87c.92-.6,3.46-1.61,2.51,1.48-1.35,4.37-20.52,35.39-21.64,37.31-.04.07-.07.12-.11.18-.67.98-6.74,9.83-8.84,12.18-2.22,2.48-9.01,11.97-9.01,11.97,0,0-1.55,1.89-4.07-.9-2.82-3.14-18.65-17.6-22.01-22.2-.39-.53-.81-.91-1.28-1.44-.77-.87-2.53-2.38-4.73-.09s-12.22,16.55-16.9,23.24c-1.62,2.33-4.37,2.86-6.42,1.16-.02-.02-.04-.03-.06-.05-3.73-3.13-15.63-13.41-15.63-13.41-6.71-5.87-15.92-19-25.37-32.42Z" fill="#4c2f1d"/>
    <path d="M26.09,118.44s9.91,13.41,23.08,20.19c2.2-1.93,4.39-4.01,6.31-6.38,1.93-2.58,3.94-5.29,5.42-8.46-1.66,1.57-4.51,3.49-6.32,4.75-2.24,1.59-3.55,2.26-5.74,2.95,0,0-8.06-5.87-10.72-8.94.9,1.33,1.96,2.75,3.19,4.2,1.39,1.63,2.75,2.98,4,4.1-1.56-1.13-3.16-2.39-4.82-3.72-2.6-2.08-5.57-4.61-7.07-6.4.89,1.32,1.87,2.69,2.97,4.09,1.21,1.54,2.4,2.92,3.54,4.14-1.79-1.21-3.62-2.5-5.49-3.88-2.97-2.2-5.76-4.43-8.35-6.65Z" fill="#6c442f"/>
    <path d="M77.85,117.83s9.91,13.41,23.08,20.19c2.2-1.93,4.39-4.01,6.31-6.38,1.93-2.58,3.94-5.29,5.42-8.46-1.66,1.57-4.51,3.49-6.32,4.75-2.24,1.59-3.55,2.26-5.74,2.95,0,0-8.06-5.87-10.72-8.94.9,1.33,1.96,2.75,3.19,4.2,1.39,1.63,2.75,2.98,4,4.1-1.56-1.13-3.16-2.39-4.82-3.72-2.6-2.08-5.57-4.61-7.07-6.4.89,1.32,1.87,2.69,2.97,4.09,1.21,1.54,2.4,2.92,3.54,4.14-1.79-1.21-3.62-2.5-5.49-3.88-2.97-2.2-5.76-4.43-8.35-6.65Z" fill="#6c442f"/>
    <path d="M74.99,103.41l3.43-6.53c.2-.37.58-.53.92-.39,2.62,1.07,13.53,5.63,17.74,8.62,0,0-10.6-3.44-12.43-3.51,0,0,6.32,2.48,7.14,2.96,0,0-8.11-2.01-9.32-2.21l2.48,1.12s-5.99-1.41-6.91-1.32c0,0-1.99-.08-3.06,1.28Z" fill="#2e1a09"/>
    <path d="M69.69,102.75l-3.95-6.03c-.23-.34-.62-.45-.94-.26-2.52,1.43-12.99,7.45-16.93,11,0,0,10.26-4.88,12.06-5.2,0,0-6.08,3.33-6.86,3.92,0,0,7.89-3.11,9.08-3.48l-2.37,1.45s5.84-2.23,6.76-2.26c0,0,1.97-.36,3.15.85Z" fill="#2e1a09"/>
  </g>
  <path d="M47.79,73.01c17.36,2.69,34.77,3.28,52.09,0-15.87,7.12-36.19,7.05-52.09,0h0Z"/>
  <path d="M60.52,68.16c8.76,2.53,18.06,2.77,26.79,0-8.07,4.63-18.67,4.41-26.79,0h0Z"/>
  <path d="M65.81,65.69c5.28,1.53,10.93,1.67,16.19,0-4.88,2.79-11.28,2.66-16.19,0h0Z"/>
</svg>