<svg width="162" height="157" viewBox="0 0 162 157" fill="none" xmlns="http://www.w3.org/2000/svg">
<g style="mix-blend-mode:overlay" opacity="0.15">
<path d="M139.403 139.374L26.9062 147V34.0331L136.283 30.9004L139.403 139.374Z" fill="#010101"/>
</g>
<path d="M136.283 136.231L23.7764 143.858V30.9004H136.283V136.231Z" fill="#F4BF44"/>
<path d="M136.273 30.9004H23.7764V56.002H136.273V30.9004Z" fill="#F6A204"/>
<g style="mix-blend-mode:overlay" opacity="0.4">
<path d="M51.6199 25.5344L36.1489 10L9.99975 36.2563L25.4708 51.7906L51.6199 25.5344Z" fill="white"/>
</g>
<g style="mix-blend-mode:overlay" opacity="0.4">
<path d="M123.709 10.5309L109.619 27.3379L137.91 51.2505L152 34.4436L123.709 10.5309Z" fill="white"/>
</g>
<g style="mix-blend-mode:overlay" opacity="0.28">
<path d="M23.7764 143.857L130.811 120.287L136.283 136.231L23.7764 143.857Z" fill="#010101"/>
</g>
<path d="M23.7764 143.858L130.811 124.992L136.283 136.232L23.7764 143.858Z" fill="#FDE6D8"/>
</svg>
