<?xml version="1.0" encoding="UTF-8"?>
<svg xmlns="http://www.w3.org/2000/svg" xmlns:xlink="http://www.w3.org/1999/xlink" viewBox="0 0 1255 706">
  <defs>
    <style>
      .cls-1 {
        fill: #1d1d1b;
      }

      .cls-2 {
        fill: #fff;
      }

      .cls-3 {
        isolation: isolate;
      }

      .cls-4 {
        stroke-width: 2px;
      }

      .cls-4, .cls-5, .cls-6 {
        fill: none;
        stroke: #1d1d1b;
        stroke-miterlimit: 10;
      }

      .cls-7 {
        mix-blend-mode: darken;
      }

      .cls-7, .cls-8 {
        opacity: .35;
      }

      .cls-5 {
        stroke-width: 3px;
      }

      .cls-8 {
        fill: #9d5e32;
      }
    </style>
  </defs>
  <g class="cls-3">
    <g id="Calque_1" data-name="Calque 1">
      <rect class="cls-2" x="-13.61" y="-10.69" width="1284.84" height="730.69"/>
      <rect class="cls-8" x="-1.35" y="-.88" width="1261.55" height="713.53"/>
      <polyline class="cls-4" points="708.11 41.6 1213.52 41.6 1213.52 664.4 707.7 664.4 41.48 664.4 41.48 41.6 546.89 41.6"/>
      <g>
        <g>
          <g id="manche">
            <path class="cls-1" d="M624.93,114.84c-18.62,4.24-37.15-7.41-41.39-26.03-3.17-13.9,2.53-27.75,13.37-35.65,3.68-2.68,7.95-4.67,12.66-5.74l-.69-3.03c-5.33,1.21-10.13,3.5-14.23,6.58-11.53,8.65-17.54,23.56-14.13,38.53,4.62,20.29,24.82,32.99,45.11,28.37l-.69-3.03Z"/>
            <path class="cls-1" d="M625.11,113.41c-17.88,4.07-35.68-7.12-39.76-25-3.04-13.35,2.43-26.66,12.84-34.24,3.53-2.57,7.63-4.49,12.16-5.52l-.66-2.91c-5.12,1.17-9.73,3.36-13.67,6.32-11.08,8.31-16.85,22.64-13.58,37.01,4.44,19.49,23.84,31.69,43.33,27.25l-.66-2.91Z"/>
            <path class="cls-5" d="M625.17,113.73c-18.02,4.11-35.96-7.17-40.06-25.19-3.07-13.45,2.45-26.86,12.94-34.5,3.56-2.59,7.69-4.52,12.26-5.56"/>
          </g>
          <path id="morceau1" class="cls-1" d="M615.11,54.05l-7.39-7.94c-1.87-2.01-1.76-5.15.24-7.02h0c2-1.87,5.15-1.75,7.02.26l7.39,7.94-7.26,6.76Z"/>
          <g id="reflet2">
            <path class="cls-1" d="M607.92,39.13s-2.73,2.43-1.04,5.82c.11.2,1.4,2.19,2.96,3.69,0,.05,1.41-1.75,1.41-1.75,0,0-4.59-2.91-3.33-7.76Z"/>
            <path class="cls-1" d="M607.92,39.13s2.93-1.58,5.84.21c.98.6,2.42,2.22,3.55,3.42.08.06-1.84.93-1.84.93,0,0-3.11-5.06-7.55-4.55Z"/>
            <path class="cls-1" d="M607.92,39.13s.43,3.83,4.24,6.87c.06.08,3.16.58,3.16.58,0,0-4.38-3.62-7.4-7.46Z"/>
            <path class="cls-1" d="M607.92,39.13s-1.49,4.28,3.39,7.76c.06.08.59-.44.59-.44,0,0-4.22-2.77-3.98-7.32Z"/>
          </g>
          <g id="perles">
            <circle class="cls-1" cx="611.84" cy="64.15" r=".79"/>
            <circle class="cls-1" cx="611.84" cy="65.9" r=".79"/>
            <circle class="cls-1" cx="611.84" cy="67.65" r=".79"/>
            <circle class="cls-1" cx="611.84" cy="69.41" r=".79"/>
            <circle class="cls-1" cx="611.84" cy="71.16" r=".79"/>
            <circle class="cls-1" cx="611.84" cy="74.66" r=".79"/>
            <circle class="cls-1" cx="611.84" cy="76.41" r=".79"/>
            <circle class="cls-1" cx="611.84" cy="72.91" r=".79"/>
            <circle class="cls-1" cx="611.84" cy="78.16" r=".79"/>
            <circle class="cls-1" cx="611.84" cy="81.67" r=".79"/>
            <circle class="cls-1" cx="611.84" cy="83.42" r=".79"/>
            <circle class="cls-1" cx="611.84" cy="79.92" r=".79"/>
          </g>
          <g id="reflet">
            <path class="cls-2" d="M612.46,65.69s.19.79-.68.75c.04,0,.64-.49.68-.75Z"/>
            <path class="cls-2" d="M612.46,67.44s.19.79-.68.75c.04,0,.64-.49.68-.75Z"/>
            <path class="cls-2" d="M612.46,83.17s.19.79-.68.75c.04,0,.64-.49.68-.75Z"/>
            <path class="cls-2" d="M612.46,81.42s.19.79-.68.75c.04,0,.64-.49.68-.75Z"/>
            <path class="cls-2" d="M612.46,79.68s.19.79-.68.75c.04,0,.64-.49.68-.75Z"/>
            <path class="cls-2" d="M612.46,77.93s.19.79-.68.75c.04,0,.64-.49.68-.75Z"/>
            <path class="cls-2" d="M612.46,76.18s.19.79-.68.75c.04,0,.64-.49.68-.75Z"/>
            <path class="cls-2" d="M612.46,74.43s.19.79-.68.75c.04,0,.64-.49.68-.75Z"/>
            <path class="cls-2" d="M612.46,72.68s.19.79-.68.75c.04,0,.64-.49.68-.75Z"/>
            <path class="cls-2" d="M612.46,70.93s.19.79-.68.75c.04,0,.64-.49.68-.75Z"/>
            <path class="cls-2" d="M612.46,69.18s.19.79-.68.75c.04,0,.64-.49.68-.75Z"/>
            <path class="cls-2" d="M612.46,63.94s.19.79-.68.75c.04,0,.64-.49.68-.75Z"/>
          </g>
          <path id="abatjour" class="cls-1" d="M604.3,64.13c0-13.73,11.07-24.87,24.72-24.87s24.72,11.13,24.72,24.87h-49.44Z"/>
          <path id="morceau2" class="cls-1" d="M623.87,125.28l.39-10.81c.1-2.74,2.4-4.88,5.13-4.78h0c2.74.1,4.88,2.4,4.78,5.13l-.39,10.81-9.91-.35Z"/>
          <g id="reflets3">
            <path class="cls-1" d="M629.22,109.68s-3.59-.25-4.76,3.26c-.37,1.01-.68,5.77-.39,9.4-.04.04,2.05-.07,2.05-.07,0,0-1.53-10.74,3.09-12.58Z"/>
            <path class="cls-1" d="M629.22,109.68s3.91.69,4.06,5.05c.06,1.87-.13,3.03-.23,6.91.01.09-1.84.08-1.84.08,0,0,.08-3.14.04-6.54-.03-2.18-.7-4.6-2.03-5.5Z"/>
            <path class="cls-1" d="M629.22,109.68s-2.63,3.12-1.97,12.18c-.01.09,1.79,0,1.79,0,0,0,.13-7.19.18-12.18Z"/>
            <path class="cls-1" d="M629.22,109.68s2.7.24,2.17,12.03c.01.09-1.15.1-1.15.1-.03-.07.5-11.22-1.02-12.13Z"/>
          </g>
          <polygon id="socle" class="cls-1" points="654.45 126.67 603.59 126.67 606.37 121.31 651.67 121.31 654.45 126.67"/>
        </g>
        <circle class="cls-4" cx="627.5" cy="82.22" r="65.58"/>
        <circle class="cls-6" cx="627.5" cy="82.22" r="56.11"/>
      </g>
      <image class="cls-7" width="1742" height="980" transform="translate(-.35 -.21) scale(.72)" xlink:href="../papier_froissé.webp"/>
    </g>
  </g>
</svg>